%FSLAX23Y23*%
%MOIN*%
G70*
G01*
G75*
G04 Layer_Physical_Order=1*
G04 Layer_Color=255*
G04:AMPARAMS|DCode=10|XSize=50mil|YSize=80mil|CornerRadius=13mil|HoleSize=0mil|Usage=FLASHONLY|Rotation=90.000|XOffset=0mil|YOffset=0mil|HoleType=Round|Shape=RoundedRectangle|*
%AMROUNDEDRECTD10*
21,1,0.050,0.055,0,0,90.0*
21,1,0.025,0.080,0,0,90.0*
1,1,0.025,0.028,0.013*
1,1,0.025,0.028,-0.013*
1,1,0.025,-0.028,-0.013*
1,1,0.025,-0.028,0.013*
%
%ADD10ROUNDEDRECTD10*%
%ADD11R,0.080X0.050*%
%ADD12O,0.018X0.041*%
%ADD13R,0.018X0.041*%
G04:AMPARAMS|DCode=14|XSize=35mil|YSize=35mil|CornerRadius=5mil|HoleSize=0mil|Usage=FLASHONLY|Rotation=0.000|XOffset=0mil|YOffset=0mil|HoleType=Round|Shape=RoundedRectangle|*
%AMROUNDEDRECTD14*
21,1,0.035,0.025,0,0,0.0*
21,1,0.025,0.035,0,0,0.0*
1,1,0.011,0.012,-0.012*
1,1,0.011,-0.012,-0.012*
1,1,0.011,-0.012,0.012*
1,1,0.011,0.012,0.012*
%
%ADD14ROUNDEDRECTD14*%
G04:AMPARAMS|DCode=15|XSize=35mil|YSize=35mil|CornerRadius=5mil|HoleSize=0mil|Usage=FLASHONLY|Rotation=90.000|XOffset=0mil|YOffset=0mil|HoleType=Round|Shape=RoundedRectangle|*
%AMROUNDEDRECTD15*
21,1,0.035,0.025,0,0,90.0*
21,1,0.025,0.035,0,0,90.0*
1,1,0.011,0.012,0.012*
1,1,0.011,0.012,-0.012*
1,1,0.011,-0.012,-0.012*
1,1,0.011,-0.012,0.012*
%
%ADD15ROUNDEDRECTD15*%
G04:AMPARAMS|DCode=16|XSize=24mil|YSize=39mil|CornerRadius=6mil|HoleSize=0mil|Usage=FLASHONLY|Rotation=0.000|XOffset=0mil|YOffset=0mil|HoleType=Round|Shape=RoundedRectangle|*
%AMROUNDEDRECTD16*
21,1,0.024,0.028,0,0,0.0*
21,1,0.012,0.039,0,0,0.0*
1,1,0.012,0.006,-0.014*
1,1,0.012,-0.006,-0.014*
1,1,0.012,-0.006,0.014*
1,1,0.012,0.006,0.014*
%
%ADD16ROUNDEDRECTD16*%
%ADD17C,0.010*%
%ADD18C,0.015*%
%ADD19C,0.079*%
%ADD20C,0.065*%
%ADD21C,0.260*%
%ADD22C,0.059*%
%ADD23R,0.059X0.059*%
%ADD24C,0.050*%
G36*
X3370Y4425D02*
X3370Y4422D01*
X3370Y4421D01*
X3371Y4419D01*
X3371Y4418D01*
X3371Y4417D01*
X3372Y4415D01*
X3372Y4414D01*
X3373Y4413D01*
X3357D01*
X3357Y4414D01*
X3358Y4415D01*
X3358Y4417D01*
X3359Y4418D01*
X3359Y4419D01*
X3359Y4421D01*
X3360Y4422D01*
X3360Y4425D01*
X3360Y4427D01*
X3370D01*
X3370Y4425D01*
D02*
G37*
G36*
X2577Y4403D02*
X2575Y4402D01*
X2574Y4401D01*
X2573Y4400D01*
X2572Y4399D01*
X2572Y4397D01*
X2571Y4395D01*
X2571Y4392D01*
X2571Y4390D01*
X2570Y4387D01*
X2556D01*
X2555Y4390D01*
X2555Y4392D01*
X2555Y4395D01*
X2554Y4397D01*
X2554Y4399D01*
X2553Y4400D01*
X2552Y4401D01*
X2551Y4402D01*
X2549Y4403D01*
X2548Y4403D01*
X2578D01*
X2577Y4403D01*
D02*
G37*
G36*
X3447Y4425D02*
X3447Y4422D01*
X3447Y4421D01*
X3447Y4419D01*
X3448Y4418D01*
X3448Y4417D01*
X3449Y4415D01*
X3449Y4414D01*
X3450Y4413D01*
X3433D01*
X3434Y4414D01*
X3435Y4415D01*
X3435Y4417D01*
X3435Y4418D01*
X3436Y4419D01*
X3436Y4421D01*
X3436Y4422D01*
X3437Y4425D01*
X3437Y4427D01*
X3447D01*
X3447Y4425D01*
D02*
G37*
G36*
X3421D02*
X3421Y4422D01*
X3422Y4421D01*
X3422Y4419D01*
X3422Y4418D01*
X3423Y4417D01*
X3423Y4415D01*
X3424Y4414D01*
X3424Y4413D01*
X3408D01*
X3408Y4414D01*
X3409Y4415D01*
X3409Y4417D01*
X3410Y4418D01*
X3410Y4419D01*
X3411Y4421D01*
X3411Y4422D01*
X3411Y4425D01*
X3411Y4427D01*
X3421D01*
X3421Y4425D01*
D02*
G37*
G36*
X2570Y4363D02*
X2571Y4361D01*
X2571Y4354D01*
X2571Y4352D01*
X2572Y4351D01*
X2572Y4349D01*
X2573Y4348D01*
X2573Y4346D01*
X2574Y4345D01*
X2551D01*
X2552Y4347D01*
X2553Y4348D01*
X2553Y4350D01*
X2554Y4351D01*
X2554Y4353D01*
X2555Y4355D01*
X2555Y4359D01*
X2555Y4361D01*
X2556Y4364D01*
X2570Y4363D01*
D02*
G37*
G36*
X2580Y4255D02*
X2578Y4253D01*
X2575Y4249D01*
X2574Y4248D01*
X2573Y4246D01*
X2573Y4245D01*
X2573Y4244D01*
X2573Y4243D01*
X2573Y4243D01*
X2574Y4242D01*
X2554Y4250D01*
X2556Y4250D01*
X2558Y4251D01*
X2559Y4251D01*
X2561Y4252D01*
X2562Y4253D01*
X2563Y4253D01*
X2565Y4254D01*
X2566Y4255D01*
X2567Y4256D01*
X2568Y4258D01*
X2580Y4255D01*
D02*
G37*
G36*
X3473Y4380D02*
X3473Y4380D01*
X3472Y4380D01*
X3472Y4379D01*
X3472Y4379D01*
X3471Y4378D01*
X3471Y4377D01*
X3471Y4375D01*
X3471Y4374D01*
X3470Y4370D01*
X3460Y4371D01*
X3460Y4373D01*
X3460Y4380D01*
X3460Y4381D01*
X3460Y4382D01*
X3459Y4382D01*
X3459Y4383D01*
X3473Y4380D01*
D02*
G37*
G36*
X3500Y4382D02*
X3500Y4381D01*
X3499Y4380D01*
X3499Y4378D01*
X3499Y4377D01*
X3498Y4376D01*
X3498Y4374D01*
X3498Y4371D01*
X3498Y4369D01*
X3488D01*
X3488Y4371D01*
X3488Y4374D01*
X3487Y4376D01*
X3487Y4377D01*
X3487Y4378D01*
X3486Y4380D01*
X3486Y4381D01*
X3485Y4382D01*
X3485Y4383D01*
X3501D01*
X3500Y4382D01*
D02*
G37*
G36*
X3523Y4426D02*
X3523Y4422D01*
X3524Y4421D01*
X3524Y4420D01*
X3524Y4418D01*
X3525Y4417D01*
X3525Y4416D01*
X3526Y4414D01*
X3527Y4413D01*
X3510D01*
X3511Y4414D01*
X3511Y4415D01*
X3512Y4416D01*
X3512Y4418D01*
X3512Y4419D01*
X3513Y4420D01*
X3513Y4423D01*
X3513Y4425D01*
X3513Y4427D01*
X3523Y4427D01*
X3523Y4426D01*
D02*
G37*
G36*
X3531Y4738D02*
X3526Y4726D01*
X3525Y4724D01*
X3524Y4722D01*
X3523Y4720D01*
X3523Y4718D01*
X3523Y4717D01*
X3513Y4714D01*
X3513Y4716D01*
X3512Y4718D01*
X3512Y4720D01*
X3511Y4722D01*
X3510Y4724D01*
X3508Y4726D01*
X3506Y4727D01*
X3504Y4729D01*
X3502Y4731D01*
X3499Y4732D01*
X3533Y4741D01*
X3531Y4738D01*
D02*
G37*
G36*
X3324Y4445D02*
X3310Y4443D01*
Y4441D01*
X3307Y4441D01*
X3304Y4441D01*
X3302Y4440D01*
X3300Y4440D01*
X3298Y4439D01*
X3296Y4438D01*
X3295Y4437D01*
X3294Y4436D01*
X3294Y4435D01*
X3294Y4434D01*
Y4446D01*
X3288Y4456D01*
X3291Y4456D01*
X3293Y4456D01*
X3294Y4456D01*
Y4463D01*
X3294Y4462D01*
X3294Y4461D01*
X3295Y4460D01*
X3296Y4459D01*
X3298Y4458D01*
X3298Y4458D01*
X3298Y4458D01*
X3299Y4459D01*
X3300Y4460D01*
X3300Y4461D01*
X3300Y4462D01*
X3300Y4464D01*
X3324Y4445D01*
D02*
G37*
G36*
X3387Y4790D02*
X3375Y4773D01*
X3373Y4769D01*
X3372Y4766D01*
X3371Y4763D01*
X3370Y4761D01*
X3370Y4758D01*
X3360Y4757D01*
X3360Y4760D01*
X3359Y4763D01*
X3358Y4766D01*
X3356Y4769D01*
X3354Y4772D01*
X3351Y4775D01*
X3348Y4778D01*
X3345Y4782D01*
X3336Y4789D01*
X3391Y4795D01*
X3387Y4790D01*
D02*
G37*
G36*
X7019Y4781D02*
X7021Y4780D01*
X7024Y4779D01*
X7026Y4777D01*
X7029Y4777D01*
X7032Y4776D01*
X7035Y4775D01*
X7038Y4775D01*
X7041Y4775D01*
X7045Y4775D01*
X7015Y4745D01*
X7015Y4749D01*
X7015Y4752D01*
X7015Y4755D01*
X7014Y4758D01*
X7013Y4761D01*
X7013Y4764D01*
X7011Y4766D01*
X7010Y4769D01*
X7009Y4771D01*
X7007Y4772D01*
X7018Y4783D01*
X7019Y4781D01*
D02*
G37*
G36*
X3285Y4431D02*
X3284Y4430D01*
X3283Y4430D01*
X3283Y4429D01*
X3282Y4428D01*
X3282Y4427D01*
X3281Y4426D01*
X3281Y4424D01*
X3281Y4423D01*
X3281Y4421D01*
X3271D01*
X3271Y4423D01*
X3271Y4424D01*
X3271Y4426D01*
X3270Y4427D01*
X3270Y4428D01*
X3269Y4429D01*
X3269Y4430D01*
X3268Y4430D01*
X3267Y4431D01*
X3266Y4431D01*
X3286D01*
X3285Y4431D01*
D02*
G37*
G36*
X2545Y4425D02*
X2558Y4425D01*
Y4414D01*
X2557Y4414D01*
X2557Y4414D01*
X2555Y4414D01*
X2545Y4414D01*
Y4409D01*
X2545Y4410D01*
X2545Y4411D01*
X2545Y4412D01*
X2544Y4413D01*
X2543Y4413D01*
X2542Y4414D01*
X2540Y4414D01*
X2539Y4414D01*
X2537Y4414D01*
X2535Y4414D01*
Y4424D01*
X2537Y4425D01*
X2539Y4425D01*
X2540Y4425D01*
X2542Y4425D01*
X2543Y4426D01*
X2544Y4426D01*
X2545Y4427D01*
X2545Y4428D01*
X2545Y4429D01*
X2545Y4429D01*
Y4425D01*
D02*
G37*
G36*
X2489Y4484D02*
X2491Y4468D01*
X2491Y4464D01*
X2492Y4460D01*
X2493Y4457D01*
X2495Y4454D01*
X2496Y4451D01*
X2498Y4449D01*
X2491Y4442D01*
X2489Y4444D01*
X2486Y4445D01*
X2483Y4447D01*
X2480Y4448D01*
X2476Y4449D01*
X2472Y4449D01*
X2467Y4450D01*
X2456Y4451D01*
X2450Y4451D01*
X2489Y4490D01*
X2489Y4484D01*
D02*
G37*
G36*
X2581Y4429D02*
X2581Y4428D01*
X2581Y4427D01*
X2582Y4426D01*
X2583Y4426D01*
X2584Y4425D01*
X2586Y4425D01*
X2587Y4425D01*
X2589Y4425D01*
X2591Y4424D01*
Y4414D01*
X2589Y4414D01*
X2587Y4414D01*
X2586Y4414D01*
X2584Y4414D01*
X2583Y4413D01*
X2582Y4413D01*
X2581Y4412D01*
X2581Y4411D01*
X2581Y4410D01*
X2581Y4409D01*
Y4414D01*
X2568Y4414D01*
Y4425D01*
X2569Y4425D01*
X2569Y4425D01*
X2571Y4425D01*
X2581Y4424D01*
Y4429D01*
X2581Y4429D01*
D02*
G37*
G36*
X2631Y4256D02*
X2635Y4253D01*
X2637Y4252D01*
X2638Y4251D01*
X2639Y4250D01*
X2641Y4250D01*
X2642Y4250D01*
X2643Y4250D01*
X2644Y4250D01*
X2626Y4240D01*
X2626Y4241D01*
X2627Y4242D01*
X2627Y4243D01*
X2627Y4244D01*
X2626Y4245D01*
X2625Y4246D01*
X2624Y4248D01*
X2623Y4250D01*
X2619Y4254D01*
X2630Y4258D01*
X2631Y4256D01*
D02*
G37*
G36*
X3395Y4043D02*
X3395Y4042D01*
X3395Y4040D01*
X3396Y4039D01*
X3396Y4038D01*
X3397Y4037D01*
X3397Y4036D01*
X3398Y4036D01*
X3399Y4035D01*
X3400Y4035D01*
X3380D01*
X3381Y4035D01*
X3382Y4036D01*
X3383Y4036D01*
X3383Y4037D01*
X3384Y4038D01*
X3384Y4039D01*
X3385Y4040D01*
X3385Y4042D01*
X3385Y4043D01*
X3385Y4045D01*
X3395D01*
X3395Y4043D01*
D02*
G37*
G36*
X3342Y3611D02*
X3345Y3608D01*
X3346Y3607D01*
X3348Y3606D01*
X3349Y3606D01*
X3350Y3605D01*
X3352Y3605D01*
X3353Y3605D01*
X3354Y3605D01*
X3329Y3602D01*
X3330Y3602D01*
X3331Y3602D01*
X3332Y3603D01*
X3332Y3604D01*
X3332Y3604D01*
X3331Y3606D01*
X3331Y3607D01*
X3330Y3608D01*
X3328Y3610D01*
X3327Y3611D01*
X3340Y3612D01*
X3342Y3611D01*
D02*
G37*
G36*
X2579Y4156D02*
X2580Y4155D01*
X2581Y4154D01*
X2582Y4153D01*
X2583Y4152D01*
X2585Y4151D01*
X2587Y4151D01*
X2590Y4150D01*
X2593Y4150D01*
X2596Y4150D01*
Y4135D01*
X2593Y4135D01*
X2590Y4135D01*
X2588Y4134D01*
X2586Y4134D01*
X2584Y4133D01*
X2583Y4132D01*
X2582Y4131D01*
X2581Y4130D01*
X2580Y4129D01*
X2580Y4128D01*
X2579Y4157D01*
X2579Y4156D01*
D02*
G37*
G36*
X2710Y4125D02*
X2708Y4127D01*
X2706Y4129D01*
X2704Y4130D01*
X2702Y4131D01*
X2700Y4133D01*
X2697Y4133D01*
X2695Y4134D01*
X2693Y4135D01*
X2691Y4135D01*
X2689Y4135D01*
Y4150D01*
X2691Y4150D01*
X2693Y4150D01*
X2695Y4151D01*
X2697Y4152D01*
X2700Y4153D01*
X2702Y4154D01*
X2704Y4155D01*
X2706Y4156D01*
X2708Y4158D01*
X2710Y4160D01*
Y4125D01*
D02*
G37*
G36*
X3640Y3389D02*
X3640Y3388D01*
X3641Y3387D01*
X3641Y3387D01*
X3642Y3386D01*
X3644Y3386D01*
X3645Y3385D01*
X3646Y3385D01*
X3648Y3385D01*
X3650Y3385D01*
Y3375D01*
X3648Y3375D01*
X3646Y3375D01*
X3645Y3375D01*
X3644Y3374D01*
X3642Y3374D01*
X3641Y3373D01*
X3641Y3373D01*
X3640Y3372D01*
X3640Y3371D01*
X3640Y3370D01*
Y3390D01*
X3640Y3389D01*
D02*
G37*
G36*
X3403Y3311D02*
X3402Y3310D01*
X3400Y3308D01*
X3399Y3307D01*
X3399Y3306D01*
X3398Y3304D01*
X3398Y3304D01*
X3398Y3303D01*
X3399Y3302D01*
X3400Y3302D01*
X3401Y3302D01*
X3376Y3305D01*
X3377Y3305D01*
X3378Y3305D01*
X3380Y3305D01*
X3381Y3306D01*
X3382Y3306D01*
X3384Y3307D01*
X3385Y3308D01*
X3387Y3309D01*
X3388Y3311D01*
X3390Y3312D01*
X3403Y3311D01*
D02*
G37*
G36*
X3577Y3511D02*
X3580Y3508D01*
X3581Y3507D01*
X3583Y3506D01*
X3584Y3506D01*
X3585Y3505D01*
X3587Y3505D01*
X3588Y3505D01*
X3589Y3505D01*
X3564Y3502D01*
X3565Y3502D01*
X3566Y3502D01*
X3567Y3503D01*
X3567Y3504D01*
X3567Y3504D01*
X3566Y3506D01*
X3566Y3507D01*
X3565Y3508D01*
X3563Y3510D01*
X3562Y3511D01*
X3575Y3512D01*
X3577Y3511D01*
D02*
G37*
G36*
X3403Y3411D02*
X3402Y3410D01*
X3400Y3408D01*
X3399Y3407D01*
X3399Y3406D01*
X3398Y3404D01*
X3398Y3404D01*
X3398Y3403D01*
X3399Y3402D01*
X3400Y3402D01*
X3401Y3402D01*
X3376Y3405D01*
X3377Y3405D01*
X3378Y3405D01*
X3380Y3405D01*
X3381Y3406D01*
X3382Y3406D01*
X3384Y3407D01*
X3385Y3408D01*
X3387Y3409D01*
X3388Y3411D01*
X3390Y3412D01*
X3403Y3411D01*
D02*
G37*
G36*
X3398Y4146D02*
X3397Y4144D01*
X3397Y4143D01*
X3396Y4142D01*
X3396Y4140D01*
X3396Y4139D01*
X3395Y4137D01*
X3395Y4136D01*
X3395Y4133D01*
X3385Y4133D01*
X3385Y4135D01*
X3385Y4140D01*
X3384Y4141D01*
X3384Y4143D01*
X3384Y4144D01*
X3383Y4145D01*
X3383Y4146D01*
X3382Y4147D01*
X3399D01*
X3398Y4146D01*
D02*
G37*
G36*
X2568Y4167D02*
X2568Y4166D01*
X2568Y4164D01*
X2568Y4163D01*
X2569Y4162D01*
X2569Y4161D01*
X2570Y4160D01*
X2571Y4160D01*
X2572Y4159D01*
X2573Y4159D01*
X2568D01*
X2568Y4148D01*
X2557D01*
X2557Y4148D01*
X2557Y4149D01*
X2557Y4150D01*
X2558Y4159D01*
X2553D01*
X2554Y4159D01*
X2554Y4160D01*
X2555Y4160D01*
X2556Y4161D01*
X2556Y4162D01*
X2557Y4163D01*
X2557Y4164D01*
X2557Y4166D01*
X2558Y4167D01*
X2558Y4169D01*
X2568D01*
X2568Y4167D01*
D02*
G37*
G36*
X3356Y4141D02*
X3356Y4142D01*
X3356Y4143D01*
X3355Y4143D01*
X3355Y4143D01*
X3354Y4143D01*
X3354Y4143D01*
X3353Y4142D01*
X3352Y4141D01*
X3350Y4140D01*
X3349Y4139D01*
Y4153D01*
X3350Y4155D01*
X3352Y4156D01*
X3353Y4157D01*
X3354Y4159D01*
X3354Y4160D01*
X3355Y4162D01*
X3356Y4163D01*
X3356Y4164D01*
X3356Y4166D01*
X3356Y4167D01*
X3356Y4141D01*
D02*
G37*
G36*
X2572Y4213D02*
X2571Y4212D01*
X2570Y4212D01*
X2569Y4211D01*
X2569Y4210D01*
X2568Y4209D01*
X2568Y4207D01*
X2568Y4205D01*
X2568Y4203D01*
X2568Y4201D01*
X2558D01*
X2558Y4203D01*
X2557Y4207D01*
X2557Y4209D01*
X2556Y4210D01*
X2556Y4211D01*
X2555Y4212D01*
X2554Y4212D01*
X2554Y4213D01*
X2553Y4213D01*
X2573D01*
X2572Y4213D01*
D02*
G37*
G36*
X3394Y4187D02*
X3394Y4183D01*
X3394Y4182D01*
X3394Y4181D01*
X3395Y4181D01*
X3395Y4181D01*
X3395Y4181D01*
X3382Y4177D01*
X3382Y4178D01*
X3383Y4178D01*
X3383Y4179D01*
X3383Y4180D01*
X3383Y4181D01*
X3384Y4184D01*
X3384Y4187D01*
X3384Y4189D01*
X3394D01*
X3394Y4187D01*
D02*
G37*
G36*
X3475Y4146D02*
X3474Y4145D01*
X3474Y4143D01*
X3473Y4142D01*
X3473Y4141D01*
X3473Y4139D01*
X3472Y4138D01*
X3472Y4135D01*
X3472Y4133D01*
X3462D01*
X3462Y4135D01*
X3462Y4138D01*
X3462Y4139D01*
X3461Y4141D01*
X3461Y4142D01*
X3461Y4143D01*
X3460Y4145D01*
X3460Y4146D01*
X3459Y4147D01*
X3475D01*
X3475Y4146D01*
D02*
G37*
G36*
X3449D02*
X3449Y4145D01*
X3448Y4143D01*
X3448Y4142D01*
X3447Y4141D01*
X3447Y4139D01*
X3447Y4138D01*
X3447Y4135D01*
X3447Y4133D01*
X3437D01*
X3437Y4135D01*
X3436Y4138D01*
X3436Y4139D01*
X3436Y4141D01*
X3435Y4142D01*
X3435Y4143D01*
X3435Y4145D01*
X3434Y4146D01*
X3433Y4147D01*
X3450D01*
X3449Y4146D01*
D02*
G37*
G36*
X3526D02*
X3525Y4145D01*
X3525Y4143D01*
X3525Y4142D01*
X3524Y4141D01*
X3524Y4139D01*
X3524Y4138D01*
X3523Y4135D01*
X3523Y4133D01*
X3513D01*
X3513Y4135D01*
X3513Y4138D01*
X3513Y4139D01*
X3513Y4141D01*
X3512Y4142D01*
X3512Y4143D01*
X3511Y4145D01*
X3511Y4146D01*
X3510Y4147D01*
X3527D01*
X3526Y4146D01*
D02*
G37*
G36*
X3500D02*
X3500Y4145D01*
X3499Y4143D01*
X3499Y4142D01*
X3499Y4141D01*
X3498Y4139D01*
X3498Y4138D01*
X3498Y4135D01*
X3498Y4133D01*
X3488D01*
X3488Y4135D01*
X3488Y4138D01*
X3487Y4139D01*
X3487Y4141D01*
X3487Y4142D01*
X3486Y4143D01*
X3486Y4145D01*
X3485Y4146D01*
X3485Y4147D01*
X3501D01*
X3500Y4146D01*
D02*
G37*
G36*
X3563Y5480D02*
X3560Y5477D01*
X3554Y5471D01*
X3552Y5468D01*
X3550Y5465D01*
X3548Y5463D01*
X3547Y5460D01*
X3546Y5457D01*
X3545Y5455D01*
X3545Y5453D01*
X3535Y5453D01*
X3535Y5455D01*
X3534Y5458D01*
X3533Y5460D01*
X3532Y5463D01*
X3531Y5466D01*
X3529Y5469D01*
X3527Y5472D01*
X3521Y5479D01*
X3518Y5482D01*
X3563Y5480D01*
D02*
G37*
G36*
X3463D02*
X3460Y5477D01*
X3454Y5471D01*
X3452Y5468D01*
X3450Y5465D01*
X3448Y5463D01*
X3447Y5460D01*
X3446Y5457D01*
X3445Y5455D01*
X3445Y5453D01*
X3435Y5453D01*
X3435Y5455D01*
X3434Y5458D01*
X3433Y5460D01*
X3432Y5463D01*
X3431Y5466D01*
X3429Y5469D01*
X3427Y5472D01*
X3421Y5479D01*
X3418Y5482D01*
X3463Y5480D01*
D02*
G37*
G36*
X6361Y5478D02*
X6356Y5473D01*
X6354Y5470D01*
X6353Y5467D01*
X6351Y5464D01*
X6350Y5461D01*
X6350Y5459D01*
X6349Y5456D01*
X6349Y5453D01*
X6334D01*
X6334Y5456D01*
X6333Y5459D01*
X6333Y5461D01*
X6331Y5464D01*
X6330Y5467D01*
X6328Y5470D01*
X6326Y5473D01*
X6324Y5475D01*
X6322Y5478D01*
X6319Y5481D01*
X6364D01*
X6361Y5478D01*
D02*
G37*
G36*
X3061Y5478D02*
X3055Y5471D01*
X3053Y5468D01*
X3051Y5466D01*
X3049Y5463D01*
X3048Y5460D01*
X3047Y5458D01*
X3047Y5455D01*
X3046Y5453D01*
X3036D01*
X3036Y5455D01*
X3036Y5458D01*
X3035Y5460D01*
X3034Y5463D01*
X3032Y5466D01*
X3030Y5468D01*
X3028Y5471D01*
X3022Y5478D01*
X3019Y5481D01*
X3064D01*
X3061Y5478D01*
D02*
G37*
G36*
X6258Y5477D02*
X6255Y5474D01*
X6252Y5472D01*
X6249Y5470D01*
X6247Y5468D01*
X6245Y5466D01*
X6244Y5463D01*
X6242Y5461D01*
X6242Y5458D01*
X6241Y5455D01*
X6241Y5453D01*
X6226Y5456D01*
X6226Y5459D01*
X6225Y5461D01*
X6225Y5464D01*
X6224Y5467D01*
X6223Y5470D01*
X6220Y5476D01*
X6218Y5480D01*
X6214Y5488D01*
X6258Y5477D01*
D02*
G37*
G36*
X3545Y5380D02*
X3546Y5377D01*
X3547Y5374D01*
X3549Y5371D01*
X3551Y5368D01*
X3553Y5364D01*
X3556Y5361D01*
X3563Y5352D01*
X3568Y5348D01*
X3512D01*
X3517Y5352D01*
X3527Y5364D01*
X3529Y5368D01*
X3531Y5371D01*
X3533Y5374D01*
X3534Y5377D01*
X3535Y5380D01*
X3535Y5383D01*
X3545D01*
X3545Y5380D01*
D02*
G37*
G36*
X3263Y5480D02*
X3260Y5477D01*
X3254Y5471D01*
X3252Y5468D01*
X3250Y5465D01*
X3248Y5463D01*
X3247Y5460D01*
X3246Y5457D01*
X3245Y5455D01*
X3245Y5453D01*
X3235Y5453D01*
X3235Y5455D01*
X3234Y5458D01*
X3233Y5460D01*
X3232Y5463D01*
X3231Y5466D01*
X3229Y5469D01*
X3227Y5472D01*
X3221Y5479D01*
X3218Y5482D01*
X3263Y5480D01*
D02*
G37*
G36*
X3163D02*
X3160Y5477D01*
X3154Y5471D01*
X3152Y5468D01*
X3150Y5465D01*
X3148Y5463D01*
X3147Y5460D01*
X3146Y5457D01*
X3145Y5455D01*
X3145Y5453D01*
X3135Y5453D01*
X3135Y5455D01*
X3134Y5458D01*
X3133Y5460D01*
X3132Y5463D01*
X3131Y5466D01*
X3129Y5469D01*
X3127Y5472D01*
X3121Y5479D01*
X3118Y5482D01*
X3163Y5480D01*
D02*
G37*
G36*
X6661Y5478D02*
X6656Y5473D01*
X6654Y5470D01*
X6653Y5467D01*
X6651Y5464D01*
X6650Y5461D01*
X6650Y5459D01*
X6649Y5456D01*
X6649Y5453D01*
X6634D01*
X6634Y5456D01*
X6633Y5459D01*
X6633Y5461D01*
X6631Y5464D01*
X6630Y5467D01*
X6628Y5470D01*
X6626Y5473D01*
X6624Y5475D01*
X6622Y5478D01*
X6619Y5481D01*
X6664D01*
X6661Y5478D01*
D02*
G37*
G36*
X3245Y5498D02*
X3245Y5497D01*
X3245Y5495D01*
X3245Y5483D01*
X3235D01*
X3235Y5498D01*
X3245D01*
X3245Y5498D01*
D02*
G37*
G36*
X3145D02*
X3145Y5497D01*
X3145Y5495D01*
X3145Y5483D01*
X3135D01*
X3135Y5498D01*
X3145D01*
X3145Y5498D01*
D02*
G37*
G36*
X3545D02*
X3545Y5497D01*
X3545Y5495D01*
X3545Y5483D01*
X3535D01*
X3535Y5498D01*
X3545D01*
X3545Y5498D01*
D02*
G37*
G36*
X3445D02*
X3445Y5497D01*
X3445Y5495D01*
X3445Y5483D01*
X3435D01*
X3435Y5498D01*
X3445D01*
X3445Y5498D01*
D02*
G37*
G36*
X6861Y5478D02*
X6856Y5473D01*
X6854Y5470D01*
X6853Y5467D01*
X6851Y5464D01*
X6850Y5461D01*
X6850Y5459D01*
X6849Y5456D01*
X6849Y5453D01*
X6834D01*
X6834Y5456D01*
X6833Y5459D01*
X6833Y5461D01*
X6831Y5464D01*
X6830Y5467D01*
X6828Y5470D01*
X6826Y5473D01*
X6824Y5475D01*
X6822Y5478D01*
X6819Y5481D01*
X6864D01*
X6861Y5478D01*
D02*
G37*
G36*
X6761D02*
X6756Y5473D01*
X6754Y5470D01*
X6753Y5467D01*
X6751Y5464D01*
X6750Y5461D01*
X6750Y5459D01*
X6749Y5456D01*
X6749Y5453D01*
X6734D01*
X6734Y5456D01*
X6733Y5459D01*
X6733Y5461D01*
X6731Y5464D01*
X6730Y5467D01*
X6728Y5470D01*
X6726Y5473D01*
X6724Y5475D01*
X6722Y5478D01*
X6719Y5481D01*
X6764D01*
X6761Y5478D01*
D02*
G37*
G36*
X3365Y5463D02*
X3355Y5456D01*
X3355Y5458D01*
X3354Y5461D01*
X3353Y5463D01*
X3352Y5465D01*
X3350Y5467D01*
X3348Y5468D01*
X3346Y5470D01*
X3343Y5471D01*
X3340Y5472D01*
X3336Y5473D01*
X3373Y5496D01*
X3365Y5463D01*
D02*
G37*
G36*
X6961Y5478D02*
X6956Y5473D01*
X6954Y5470D01*
X6953Y5467D01*
X6951Y5464D01*
X6950Y5461D01*
X6950Y5459D01*
X6949Y5456D01*
X6949Y5453D01*
X6934D01*
X6934Y5456D01*
X6933Y5459D01*
X6933Y5461D01*
X6931Y5464D01*
X6930Y5467D01*
X6928Y5470D01*
X6926Y5473D01*
X6924Y5475D01*
X6922Y5478D01*
X6919Y5481D01*
X6964D01*
X6961Y5478D01*
D02*
G37*
G36*
X3245Y5380D02*
X3246Y5377D01*
X3247Y5374D01*
X3249Y5371D01*
X3251Y5368D01*
X3253Y5364D01*
X3256Y5361D01*
X3263Y5352D01*
X3268Y5348D01*
X3212D01*
X3217Y5352D01*
X3227Y5364D01*
X3229Y5368D01*
X3231Y5371D01*
X3233Y5374D01*
X3234Y5377D01*
X3235Y5380D01*
X3235Y5383D01*
X3245D01*
X3245Y5380D01*
D02*
G37*
G36*
X3445Y5081D02*
X3440Y5080D01*
X3436Y5079D01*
X3433Y5078D01*
X3430Y5076D01*
X3427Y5075D01*
X3425Y5073D01*
X3423Y5070D01*
X3422Y5068D01*
X3421Y5065D01*
X3421Y5062D01*
X3411Y5070D01*
X3411Y5071D01*
X3411Y5072D01*
X3402Y5111D01*
X3445Y5081D01*
D02*
G37*
G36*
X7019Y5081D02*
X7021Y5080D01*
X7024Y5079D01*
X7026Y5077D01*
X7029Y5077D01*
X7032Y5076D01*
X7035Y5075D01*
X7038Y5075D01*
X7041Y5075D01*
X7045Y5075D01*
X7015Y5045D01*
X7015Y5049D01*
X7015Y5052D01*
X7015Y5055D01*
X7014Y5058D01*
X7013Y5061D01*
X7013Y5064D01*
X7011Y5066D01*
X7010Y5069D01*
X7009Y5071D01*
X7007Y5072D01*
X7018Y5083D01*
X7019Y5081D01*
D02*
G37*
G36*
X6241Y5226D02*
X6241Y5223D01*
X6242Y5221D01*
X6242Y5219D01*
X6243Y5217D01*
X6244Y5215D01*
X6245Y5214D01*
X6246Y5213D01*
X6247Y5213D01*
X6248Y5213D01*
X6219D01*
X6220Y5213D01*
X6221Y5213D01*
X6222Y5214D01*
X6223Y5215D01*
X6224Y5217D01*
X6225Y5219D01*
X6225Y5221D01*
X6226Y5223D01*
X6226Y5226D01*
X6226Y5229D01*
X6241D01*
X6241Y5226D01*
D02*
G37*
G36*
X3445Y5180D02*
X3446Y5177D01*
X3447Y5174D01*
X3449Y5171D01*
X3451Y5168D01*
X3453Y5164D01*
X3456Y5161D01*
X3463Y5152D01*
X3468Y5148D01*
X3412D01*
X3417Y5152D01*
X3427Y5164D01*
X3429Y5168D01*
X3431Y5171D01*
X3433Y5174D01*
X3434Y5177D01*
X3435Y5180D01*
X3435Y5183D01*
X3445D01*
X3445Y5180D01*
D02*
G37*
G36*
X3365Y4880D02*
X3366Y4877D01*
X3367Y4874D01*
X3369Y4871D01*
X3371Y4868D01*
X3373Y4864D01*
X3376Y4861D01*
X3383Y4852D01*
X3388Y4848D01*
X3332D01*
X3337Y4852D01*
X3347Y4864D01*
X3349Y4868D01*
X3351Y4871D01*
X3353Y4874D01*
X3354Y4877D01*
X3355Y4880D01*
X3355Y4883D01*
X3365D01*
X3365Y4880D01*
D02*
G37*
G36*
X7019Y4881D02*
X7021Y4880D01*
X7024Y4879D01*
X7026Y4877D01*
X7029Y4877D01*
X7032Y4876D01*
X7035Y4875D01*
X7038Y4875D01*
X7041Y4875D01*
X7045Y4875D01*
X7015Y4845D01*
X7015Y4849D01*
X7015Y4852D01*
X7015Y4855D01*
X7014Y4858D01*
X7013Y4861D01*
X7013Y4864D01*
X7011Y4866D01*
X7010Y4869D01*
X7009Y4871D01*
X7007Y4872D01*
X7018Y4883D01*
X7019Y4881D01*
D02*
G37*
G36*
X3145Y5040D02*
X3146Y5037D01*
X3147Y5034D01*
X3149Y5031D01*
X3151Y5028D01*
X3153Y5024D01*
X3156Y5021D01*
X3163Y5012D01*
X3168Y5008D01*
X3112D01*
X3117Y5012D01*
X3127Y5024D01*
X3129Y5028D01*
X3131Y5031D01*
X3133Y5034D01*
X3134Y5037D01*
X3135Y5040D01*
X3135Y5043D01*
X3145D01*
X3145Y5040D01*
D02*
G37*
G36*
X7019Y4981D02*
X7021Y4980D01*
X7024Y4979D01*
X7026Y4977D01*
X7029Y4977D01*
X7032Y4976D01*
X7035Y4975D01*
X7038Y4975D01*
X7041Y4975D01*
X7045Y4975D01*
X7015Y4945D01*
X7015Y4949D01*
X7015Y4952D01*
X7015Y4955D01*
X7014Y4958D01*
X7013Y4961D01*
X7013Y4964D01*
X7011Y4966D01*
X7010Y4969D01*
X7009Y4971D01*
X7007Y4972D01*
X7018Y4983D01*
X7019Y4981D01*
D02*
G37*
G36*
X6300Y5226D02*
X6300Y5223D01*
X6301Y5221D01*
X6301Y5219D01*
X6302Y5217D01*
X6303Y5215D01*
X6304Y5214D01*
X6305Y5213D01*
X6306Y5213D01*
X6307Y5213D01*
X6278D01*
X6279Y5213D01*
X6280Y5213D01*
X6281Y5214D01*
X6282Y5215D01*
X6283Y5217D01*
X6284Y5219D01*
X6284Y5221D01*
X6285Y5223D01*
X6285Y5226D01*
X6285Y5229D01*
X6300D01*
X6300Y5226D01*
D02*
G37*
G36*
X3047Y5327D02*
X3036D01*
X3036Y5327D01*
X3036Y5327D01*
X3036Y5329D01*
X3036Y5342D01*
X3046D01*
X3047Y5327D01*
D02*
G37*
G36*
X3045Y5314D02*
X3045Y5314D01*
X3045Y5312D01*
X3045Y5299D01*
X3035D01*
X3035Y5315D01*
X3045D01*
X3045Y5314D01*
D02*
G37*
G36*
X3046Y5382D02*
X3047Y5380D01*
X3047Y5377D01*
X3048Y5374D01*
X3050Y5371D01*
X3052Y5368D01*
X3054Y5364D01*
X3061Y5356D01*
X3064Y5352D01*
X3069Y5347D01*
X3013Y5349D01*
X3018Y5353D01*
X3025Y5361D01*
X3028Y5365D01*
X3031Y5368D01*
X3033Y5371D01*
X3034Y5374D01*
X3035Y5377D01*
X3036Y5380D01*
X3036Y5383D01*
X3046Y5382D01*
D02*
G37*
G36*
X6349Y5362D02*
X6350Y5359D01*
X6351Y5356D01*
X6352Y5353D01*
X6354Y5350D01*
X6356Y5346D01*
X6359Y5343D01*
X6362Y5339D01*
X6369Y5332D01*
X6314Y5331D01*
X6318Y5335D01*
X6324Y5342D01*
X6327Y5346D01*
X6329Y5349D01*
X6331Y5353D01*
X6332Y5356D01*
X6333Y5359D01*
X6334Y5362D01*
X6334Y5365D01*
X6349Y5365D01*
X6349Y5362D01*
D02*
G37*
G36*
X3063Y5288D02*
X3053Y5276D01*
X3051Y5272D01*
X3049Y5269D01*
X3047Y5266D01*
X3046Y5263D01*
X3045Y5260D01*
X3045Y5257D01*
X3035D01*
X3035Y5260D01*
X3034Y5263D01*
X3033Y5266D01*
X3031Y5269D01*
X3029Y5272D01*
X3027Y5276D01*
X3024Y5279D01*
X3017Y5288D01*
X3012Y5292D01*
X3068D01*
X3063Y5288D01*
D02*
G37*
G36*
X6342Y5264D02*
X6336Y5264D01*
X6326Y5263D01*
X6322Y5262D01*
X6318Y5261D01*
X6314Y5260D01*
X6311Y5259D01*
X6308Y5257D01*
X6305Y5256D01*
X6303Y5254D01*
X6293Y5264D01*
X6295Y5266D01*
X6296Y5269D01*
X6298Y5272D01*
X6299Y5275D01*
X6300Y5279D01*
X6301Y5283D01*
X6302Y5287D01*
X6302Y5292D01*
X6303Y5303D01*
X6342Y5264D01*
D02*
G37*
G36*
X3563Y5288D02*
X3553Y5276D01*
X3551Y5272D01*
X3549Y5269D01*
X3547Y5266D01*
X3546Y5263D01*
X3545Y5260D01*
X3545Y5257D01*
X3535D01*
X3535Y5260D01*
X3534Y5263D01*
X3533Y5266D01*
X3531Y5269D01*
X3529Y5272D01*
X3527Y5276D01*
X3524Y5279D01*
X3517Y5288D01*
X3512Y5292D01*
X3568D01*
X3563Y5288D01*
D02*
G37*
G36*
X3263D02*
X3253Y5276D01*
X3251Y5272D01*
X3249Y5269D01*
X3247Y5266D01*
X3246Y5263D01*
X3245Y5260D01*
X3245Y5257D01*
X3235D01*
X3235Y5260D01*
X3234Y5263D01*
X3233Y5266D01*
X3231Y5269D01*
X3229Y5272D01*
X3227Y5276D01*
X3224Y5279D01*
X3217Y5288D01*
X3212Y5292D01*
X3268D01*
X3263Y5288D01*
D02*
G37*
D10*
X3365Y3280D02*
D03*
Y3380D02*
D03*
Y3480D02*
D03*
Y3580D02*
D03*
Y3680D02*
D03*
X3600D02*
D03*
Y3580D02*
D03*
Y3480D02*
D03*
Y3380D02*
D03*
D11*
Y3280D02*
D03*
D12*
X3493Y4398D02*
D03*
X3467D02*
D03*
X3442D02*
D03*
X3416D02*
D03*
X3390D02*
D03*
X3365D02*
D03*
X3518D02*
D03*
X3544D02*
D03*
X3570D02*
D03*
X3595D02*
D03*
Y4162D02*
D03*
X3570D02*
D03*
X3544D02*
D03*
X3518D02*
D03*
X3493D02*
D03*
X3467D02*
D03*
X3442D02*
D03*
X3416D02*
D03*
X3390D02*
D03*
D13*
X3365D02*
D03*
D14*
X3277Y4508D02*
D03*
Y4448D02*
D03*
X3390Y3958D02*
D03*
Y4018D02*
D03*
X2563Y4479D02*
D03*
Y4419D02*
D03*
Y4082D02*
D03*
Y4142D02*
D03*
D15*
X6233Y5196D02*
D03*
X6293D02*
D03*
D16*
X2563Y4329D02*
D03*
X2637D02*
D03*
Y4231D02*
D03*
X2600Y4231D02*
D03*
X2563Y4231D02*
D03*
D17*
X3725Y3429D02*
Y3676D01*
X3676Y3380D02*
X3725Y3429D01*
X3600Y3380D02*
X3676D01*
X3518Y3883D02*
X3725Y3676D01*
X2637Y4230D02*
Y4243D01*
X2563Y4143D02*
Y4231D01*
Y4142D02*
Y4143D01*
X2613Y4267D02*
X2637Y4243D01*
X2585Y4267D02*
X2613D01*
X2563Y4245D02*
X2585Y4267D01*
X2563Y4231D02*
Y4245D01*
Y4142D02*
X2563Y4142D01*
X3276Y4394D02*
Y4441D01*
Y4394D02*
X3322Y4348D01*
X3389Y4396D02*
X3390Y4398D01*
X3389Y4376D02*
Y4396D01*
X3360Y4348D02*
X3389Y4376D01*
X3322Y4348D02*
X3360D01*
X3314Y4328D02*
X3424D01*
X3240Y4402D02*
X3314Y4328D01*
X3240Y4402D02*
Y5320D01*
X3040Y4570D02*
X3306Y4304D01*
X3040Y4570D02*
Y5320D01*
X3306Y4304D02*
X3428D01*
X3158Y4419D02*
X3389Y4189D01*
X2563Y4419D02*
X3158D01*
X3428Y4304D02*
X3493Y4369D01*
X3518Y4398D02*
X3518Y4398D01*
X3518Y4398D02*
Y4748D01*
X3512Y4754D02*
X3518Y4748D01*
X3465Y4396D02*
X3467Y4398D01*
X3465Y4370D02*
Y4396D01*
X3424Y4328D02*
X3465Y4370D01*
X3493Y4369D02*
Y4398D01*
X3303Y4100D02*
X3365Y4162D01*
X3303Y3642D02*
Y4100D01*
Y3642D02*
X3365Y3580D01*
X3442Y3457D02*
Y4162D01*
X3365Y3380D02*
X3442Y3457D01*
X3467Y3382D02*
Y4162D01*
X3365Y3280D02*
X3467Y3382D01*
X3518Y3883D02*
Y4162D01*
X3493Y3587D02*
Y4162D01*
Y3587D02*
X3600Y3480D01*
X3389Y4164D02*
X3390Y4162D01*
X3390Y4018D02*
Y4161D01*
X3540Y5097D02*
Y5320D01*
X3442Y4999D02*
X3540Y5097D01*
X3442Y4398D02*
Y4999D01*
X3416Y5096D02*
X3440Y5120D01*
X3416Y4398D02*
Y5096D01*
X3365Y4398D02*
Y4815D01*
X3360Y4820D02*
X3365Y4815D01*
X3389Y4164D02*
Y4189D01*
X2521Y4419D02*
X2563D01*
X2450Y4490D02*
X2521Y4419D01*
X3140Y4980D02*
Y5503D01*
X3360Y4820D02*
Y5486D01*
X3440Y5120D02*
Y5503D01*
X3540Y5320D02*
Y5503D01*
X3240Y5320D02*
Y5503D01*
X3041Y5321D02*
Y5505D01*
D18*
X3314Y4448D02*
X3336Y4470D01*
X2563Y4143D02*
X2728D01*
X3277Y4448D02*
X3314D01*
X3324Y4470D02*
X3336D01*
X2563Y4329D02*
X2563Y4330D01*
Y4419D01*
X6293Y5196D02*
Y5254D01*
X6342Y5303D01*
X6341Y5304D02*
X6342Y5303D01*
X6341Y5304D02*
Y5505D01*
X3140Y5503D02*
X3141Y5505D01*
X3341D02*
X3360Y5486D01*
X3440Y5503D02*
X3441Y5505D01*
X3540Y5503D02*
X3541Y5505D01*
X3240Y5503D02*
X3241Y5505D01*
X3040Y5320D02*
X3041Y5321D01*
X6233Y5196D02*
Y5497D01*
X6241Y5505D01*
X6250Y5496D01*
X6641Y5149D02*
Y5505D01*
Y5149D02*
X7045Y4745D01*
X6741Y5149D02*
Y5505D01*
Y5149D02*
X7045Y4845D01*
X6841Y5149D02*
Y5505D01*
Y5149D02*
X7045Y4945D01*
X6941Y5149D02*
Y5505D01*
Y5149D02*
X7045Y5045D01*
D19*
X2450Y4490D02*
D03*
X6342Y4968D02*
D03*
Y5303D02*
D03*
X3360Y4820D02*
D03*
X3140Y4980D02*
D03*
X3040Y5320D02*
D03*
X3240D02*
D03*
X3440Y5120D02*
D03*
X3540Y5320D02*
D03*
D20*
X6341Y5505D02*
D03*
X6841D02*
D03*
X6941D02*
D03*
X6741D02*
D03*
X6641D02*
D03*
X6541D02*
D03*
X6241D02*
D03*
X6141D02*
D03*
X6041D02*
D03*
X5941D02*
D03*
X5841D02*
D03*
X5741D02*
D03*
X5641D02*
D03*
X5541D02*
D03*
X5441D02*
D03*
X5341D02*
D03*
X5241D02*
D03*
X5141D02*
D03*
X5041D02*
D03*
X4941D02*
D03*
X4841D02*
D03*
X4741D02*
D03*
X4641D02*
D03*
X4541D02*
D03*
X4441D02*
D03*
X4341D02*
D03*
X4241D02*
D03*
X4141D02*
D03*
X4041D02*
D03*
X3941D02*
D03*
X3841D02*
D03*
X3741D02*
D03*
X3641D02*
D03*
X3541D02*
D03*
X3441D02*
D03*
X3341D02*
D03*
X3241D02*
D03*
X3141D02*
D03*
X3041D02*
D03*
X2941D02*
D03*
X2841D02*
D03*
X2741D02*
D03*
X2641D02*
D03*
X2541D02*
D03*
X2441D02*
D03*
D21*
X2054Y5458D02*
D03*
X7330D02*
D03*
X2054Y2190D02*
D03*
X7330D02*
D03*
D22*
X7045Y5045D02*
D03*
Y4945D02*
D03*
Y4845D02*
D03*
Y4745D02*
D03*
D23*
Y4645D02*
D03*
D24*
X2728Y4143D02*
D03*
X3324Y4470D02*
D03*
X3512Y4754D02*
D03*
M02*
