%FSLAX23Y23*%
%MOIN*%
G70*
G01*
G75*
G04 Layer_Color=16711935*
G04:AMPARAMS|DCode=10|XSize=50mil|YSize=80mil|CornerRadius=13mil|HoleSize=0mil|Usage=FLASHONLY|Rotation=90.000|XOffset=0mil|YOffset=0mil|HoleType=Round|Shape=RoundedRectangle|*
%AMROUNDEDRECTD10*
21,1,0.050,0.055,0,0,90.0*
21,1,0.025,0.080,0,0,90.0*
1,1,0.025,0.028,0.013*
1,1,0.025,0.028,-0.013*
1,1,0.025,-0.028,-0.013*
1,1,0.025,-0.028,0.013*
%
%ADD10ROUNDEDRECTD10*%
%ADD11R,0.080X0.050*%
%ADD12O,0.018X0.041*%
%ADD13R,0.018X0.041*%
G04:AMPARAMS|DCode=14|XSize=35mil|YSize=35mil|CornerRadius=5mil|HoleSize=0mil|Usage=FLASHONLY|Rotation=0.000|XOffset=0mil|YOffset=0mil|HoleType=Round|Shape=RoundedRectangle|*
%AMROUNDEDRECTD14*
21,1,0.035,0.025,0,0,0.0*
21,1,0.025,0.035,0,0,0.0*
1,1,0.011,0.012,-0.012*
1,1,0.011,-0.012,-0.012*
1,1,0.011,-0.012,0.012*
1,1,0.011,0.012,0.012*
%
%ADD14ROUNDEDRECTD14*%
G04:AMPARAMS|DCode=15|XSize=35mil|YSize=35mil|CornerRadius=5mil|HoleSize=0mil|Usage=FLASHONLY|Rotation=90.000|XOffset=0mil|YOffset=0mil|HoleType=Round|Shape=RoundedRectangle|*
%AMROUNDEDRECTD15*
21,1,0.035,0.025,0,0,90.0*
21,1,0.025,0.035,0,0,90.0*
1,1,0.011,0.012,0.012*
1,1,0.011,0.012,-0.012*
1,1,0.011,-0.012,-0.012*
1,1,0.011,-0.012,0.012*
%
%ADD15ROUNDEDRECTD15*%
G04:AMPARAMS|DCode=16|XSize=24mil|YSize=39mil|CornerRadius=6mil|HoleSize=0mil|Usage=FLASHONLY|Rotation=0.000|XOffset=0mil|YOffset=0mil|HoleType=Round|Shape=RoundedRectangle|*
%AMROUNDEDRECTD16*
21,1,0.024,0.028,0,0,0.0*
21,1,0.012,0.039,0,0,0.0*
1,1,0.012,0.006,-0.014*
1,1,0.012,-0.006,-0.014*
1,1,0.012,-0.006,0.014*
1,1,0.012,0.006,0.014*
%
%ADD16ROUNDEDRECTD16*%
%ADD17C,0.010*%
%ADD18C,0.015*%
%ADD19C,0.079*%
%ADD20C,0.065*%
%ADD21C,0.260*%
%ADD22C,0.059*%
%ADD23R,0.059X0.059*%
%ADD24C,0.050*%
%ADD25C,0.008*%
%ADD26C,0.005*%
G04:AMPARAMS|DCode=27|XSize=58mil|YSize=88mil|CornerRadius=17mil|HoleSize=0mil|Usage=FLASHONLY|Rotation=90.000|XOffset=0mil|YOffset=0mil|HoleType=Round|Shape=RoundedRectangle|*
%AMROUNDEDRECTD27*
21,1,0.058,0.055,0,0,90.0*
21,1,0.025,0.088,0,0,90.0*
1,1,0.033,0.028,0.013*
1,1,0.033,0.028,-0.013*
1,1,0.033,-0.028,-0.013*
1,1,0.033,-0.028,0.013*
%
%ADD27ROUNDEDRECTD27*%
%ADD28R,0.088X0.058*%
%ADD29O,0.026X0.049*%
%ADD30R,0.026X0.049*%
G04:AMPARAMS|DCode=31|XSize=43mil|YSize=43mil|CornerRadius=9mil|HoleSize=0mil|Usage=FLASHONLY|Rotation=0.000|XOffset=0mil|YOffset=0mil|HoleType=Round|Shape=RoundedRectangle|*
%AMROUNDEDRECTD31*
21,1,0.043,0.025,0,0,0.0*
21,1,0.025,0.043,0,0,0.0*
1,1,0.019,0.012,-0.012*
1,1,0.019,-0.012,-0.012*
1,1,0.019,-0.012,0.012*
1,1,0.019,0.012,0.012*
%
%ADD31ROUNDEDRECTD31*%
G04:AMPARAMS|DCode=32|XSize=43mil|YSize=43mil|CornerRadius=9mil|HoleSize=0mil|Usage=FLASHONLY|Rotation=90.000|XOffset=0mil|YOffset=0mil|HoleType=Round|Shape=RoundedRectangle|*
%AMROUNDEDRECTD32*
21,1,0.043,0.025,0,0,90.0*
21,1,0.025,0.043,0,0,90.0*
1,1,0.019,0.012,0.012*
1,1,0.019,0.012,-0.012*
1,1,0.019,-0.012,-0.012*
1,1,0.019,-0.012,0.012*
%
%ADD32ROUNDEDRECTD32*%
G04:AMPARAMS|DCode=33|XSize=32mil|YSize=47mil|CornerRadius=10mil|HoleSize=0mil|Usage=FLASHONLY|Rotation=0.000|XOffset=0mil|YOffset=0mil|HoleType=Round|Shape=RoundedRectangle|*
%AMROUNDEDRECTD33*
21,1,0.032,0.028,0,0,0.0*
21,1,0.012,0.047,0,0,0.0*
1,1,0.020,0.006,-0.014*
1,1,0.020,-0.006,-0.014*
1,1,0.020,-0.006,0.014*
1,1,0.020,0.006,0.014*
%
%ADD33ROUNDEDRECTD33*%
%ADD34C,0.087*%
%ADD35C,0.073*%
%ADD36C,0.268*%
%ADD37C,0.067*%
%ADD38R,0.067X0.067*%
%ADD39C,0.058*%
%ADD40C,0.020*%
%ADD41C,0.006*%
G36*
X3207Y5390D02*
X3197D01*
Y5384D01*
X3206D01*
Y5382D01*
X3197D01*
Y5376D01*
X3207D01*
Y5374D01*
X3194D01*
Y5392D01*
X3207D01*
Y5390D01*
D02*
G37*
G36*
X3012D02*
X3001D01*
Y5384D01*
X3011D01*
Y5382D01*
X3001D01*
Y5376D01*
X3012D01*
Y5374D01*
X2999D01*
Y5392D01*
X3012D01*
Y5390D01*
D02*
G37*
G36*
X3388Y5192D02*
X3388D01*
X3388Y5192D01*
X3389Y5192D01*
X3389Y5192D01*
X3390Y5192D01*
X3391Y5191D01*
X3391D01*
X3391Y5191D01*
X3391Y5191D01*
X3391Y5191D01*
X3391Y5191D01*
X3391Y5191D01*
X3392Y5191D01*
X3392Y5190D01*
X3393Y5190D01*
X3393Y5190D01*
X3393Y5189D01*
X3393Y5189D01*
X3393Y5189D01*
X3393Y5189D01*
X3393Y5188D01*
X3394Y5188D01*
X3394Y5187D01*
X3394Y5187D01*
X3392Y5187D01*
Y5187D01*
Y5187D01*
X3392Y5187D01*
X3392Y5187D01*
X3391Y5187D01*
X3391Y5188D01*
X3391Y5188D01*
X3391Y5188D01*
X3391Y5189D01*
X3390Y5189D01*
X3390Y5189D01*
X3390Y5189D01*
X3390Y5189D01*
X3390Y5190D01*
X3389Y5190D01*
X3389Y5190D01*
X3388Y5190D01*
X3387Y5190D01*
X3387D01*
X3387Y5190D01*
X3387D01*
X3386Y5190D01*
X3386Y5190D01*
X3385Y5190D01*
X3385Y5189D01*
X3384Y5189D01*
X3384Y5189D01*
X3384Y5189D01*
X3384Y5189D01*
X3384Y5189D01*
X3384Y5189D01*
X3384Y5188D01*
X3383Y5188D01*
X3383Y5188D01*
X3383Y5187D01*
Y5187D01*
Y5187D01*
X3383Y5187D01*
X3383Y5187D01*
X3383Y5186D01*
X3384Y5186D01*
X3384Y5186D01*
X3384Y5186D01*
X3384Y5186D01*
X3384Y5186D01*
X3384Y5186D01*
X3384Y5185D01*
X3384Y5185D01*
X3385Y5185D01*
X3385Y5185D01*
X3385Y5185D01*
X3385Y5185D01*
X3386Y5185D01*
X3386Y5185D01*
X3386Y5185D01*
X3387Y5185D01*
X3387Y5184D01*
X3387D01*
X3388Y5184D01*
X3388Y5184D01*
X3388Y5184D01*
X3388Y5184D01*
X3388Y5184D01*
X3389Y5184D01*
X3390Y5184D01*
X3390Y5184D01*
X3391Y5184D01*
X3391Y5184D01*
X3391Y5183D01*
X3391Y5183D01*
X3391D01*
X3391Y5183D01*
X3391Y5183D01*
X3392Y5183D01*
X3392Y5183D01*
X3392Y5183D01*
X3393Y5183D01*
X3393Y5182D01*
X3393Y5182D01*
X3394Y5182D01*
X3394Y5181D01*
X3394Y5181D01*
X3394Y5181D01*
X3394Y5181D01*
X3394Y5180D01*
X3394Y5180D01*
X3394Y5180D01*
X3394Y5179D01*
Y5179D01*
Y5179D01*
Y5179D01*
Y5179D01*
X3394Y5179D01*
X3394Y5178D01*
X3394Y5178D01*
X3394Y5177D01*
X3394Y5177D01*
X3394Y5176D01*
X3394Y5176D01*
X3393Y5176D01*
X3393Y5176D01*
X3393Y5176D01*
X3393Y5175D01*
X3392Y5175D01*
X3392Y5175D01*
X3391Y5174D01*
X3391D01*
X3391Y5174D01*
X3391Y5174D01*
X3391Y5174D01*
X3391Y5174D01*
X3391Y5174D01*
X3390Y5174D01*
X3390Y5174D01*
X3389Y5174D01*
X3389Y5174D01*
X3388Y5174D01*
X3387D01*
X3387Y5174D01*
X3387D01*
X3387Y5174D01*
X3386Y5174D01*
X3386Y5174D01*
X3385Y5174D01*
X3384Y5174D01*
X3384Y5174D01*
X3384D01*
X3384Y5174D01*
X3384Y5175D01*
X3384Y5175D01*
X3383Y5175D01*
X3383Y5175D01*
X3382Y5175D01*
X3382Y5176D01*
X3382Y5176D01*
X3381Y5177D01*
Y5177D01*
X3381Y5177D01*
X3381Y5177D01*
X3381Y5177D01*
X3381Y5177D01*
X3381Y5177D01*
X3381Y5177D01*
X3381Y5178D01*
X3380Y5178D01*
X3380Y5179D01*
X3380Y5180D01*
X3383Y5180D01*
Y5180D01*
Y5180D01*
X3383Y5180D01*
X3383Y5179D01*
X3383Y5179D01*
X3383Y5179D01*
X3383Y5178D01*
X3383Y5178D01*
X3383Y5178D01*
X3383Y5178D01*
X3383Y5178D01*
X3383Y5177D01*
X3384Y5177D01*
X3384Y5177D01*
X3384Y5177D01*
X3385Y5177D01*
X3385Y5176D01*
X3385D01*
X3385Y5176D01*
X3385Y5176D01*
X3385Y5176D01*
X3386Y5176D01*
X3386Y5176D01*
X3387Y5176D01*
X3387Y5176D01*
X3388Y5176D01*
X3388D01*
X3388Y5176D01*
X3388Y5176D01*
X3389Y5176D01*
X3389Y5176D01*
X3390Y5176D01*
X3390Y5176D01*
X3390Y5176D01*
X3390Y5176D01*
X3390Y5176D01*
X3391Y5177D01*
X3391Y5177D01*
X3391Y5177D01*
X3391Y5177D01*
X3392Y5177D01*
X3392Y5177D01*
X3392Y5177D01*
X3392Y5178D01*
X3392Y5178D01*
X3392Y5178D01*
X3392Y5178D01*
X3392Y5179D01*
X3392Y5179D01*
Y5179D01*
Y5179D01*
X3392Y5179D01*
X3392Y5179D01*
X3392Y5180D01*
X3392Y5180D01*
X3392Y5180D01*
X3392Y5180D01*
X3392Y5180D01*
X3392Y5180D01*
X3391Y5180D01*
X3391Y5181D01*
X3391Y5181D01*
X3391Y5181D01*
X3390Y5181D01*
X3390Y5181D01*
X3390Y5181D01*
X3390Y5181D01*
X3390Y5181D01*
X3390Y5181D01*
X3389Y5182D01*
X3389Y5182D01*
X3389Y5182D01*
X3389Y5182D01*
X3388Y5182D01*
X3388Y5182D01*
X3388Y5182D01*
X3387Y5182D01*
X3387Y5182D01*
X3387D01*
X3387Y5182D01*
X3387Y5182D01*
X3386Y5182D01*
X3386Y5182D01*
X3386Y5182D01*
X3386Y5183D01*
X3385Y5183D01*
X3384Y5183D01*
X3384Y5183D01*
X3384Y5183D01*
X3383Y5183D01*
X3383D01*
X3383Y5183D01*
X3383Y5183D01*
X3383Y5184D01*
X3383Y5184D01*
X3382Y5184D01*
X3382Y5184D01*
X3382Y5185D01*
X3382Y5185D01*
X3382Y5185D01*
X3381Y5185D01*
X3381Y5185D01*
X3381Y5186D01*
X3381Y5186D01*
X3381Y5186D01*
X3381Y5187D01*
X3381Y5187D01*
Y5187D01*
Y5187D01*
Y5187D01*
Y5187D01*
X3381Y5188D01*
X3381Y5188D01*
X3381Y5188D01*
X3381Y5189D01*
X3381Y5189D01*
X3382Y5190D01*
Y5190D01*
X3382Y5190D01*
X3382Y5190D01*
X3382Y5190D01*
X3382Y5190D01*
X3383Y5191D01*
X3383Y5191D01*
X3383Y5191D01*
X3384Y5191D01*
X3384D01*
X3384Y5191D01*
X3384Y5191D01*
X3384Y5192D01*
X3384Y5192D01*
X3385Y5192D01*
X3385Y5192D01*
X3385Y5192D01*
X3386Y5192D01*
X3387Y5192D01*
X3387Y5192D01*
X3387D01*
X3388Y5192D01*
D02*
G37*
G36*
X3183Y5376D02*
X3191D01*
Y5374D01*
X3180D01*
Y5392D01*
X3183D01*
Y5376D01*
D02*
G37*
G36*
X2989Y5392D02*
X2989Y5392D01*
X2990Y5392D01*
X2990Y5392D01*
X2990Y5392D01*
X2991Y5392D01*
X2992Y5391D01*
X2992Y5391D01*
X2992Y5391D01*
X2993Y5391D01*
X2993Y5391D01*
X2993Y5391D01*
X2993Y5391D01*
X2993Y5391D01*
X2993Y5390D01*
X2994Y5390D01*
X2994Y5390D01*
X2994Y5390D01*
X2994Y5390D01*
X2994Y5389D01*
X2994Y5389D01*
X2995Y5389D01*
X2995Y5388D01*
X2995Y5388D01*
X2995Y5388D01*
X2996Y5387D01*
X2993Y5386D01*
Y5386D01*
X2993Y5386D01*
X2993Y5387D01*
X2993Y5387D01*
X2993Y5387D01*
X2993Y5387D01*
X2993Y5387D01*
X2993Y5388D01*
X2992Y5388D01*
X2992Y5389D01*
X2992Y5389D01*
X2991Y5389D01*
X2991Y5389D01*
X2991Y5389D01*
X2991Y5390D01*
X2990Y5390D01*
X2990Y5390D01*
X2989Y5390D01*
X2989Y5390D01*
X2988D01*
X2988Y5390D01*
X2988D01*
X2988Y5390D01*
X2987Y5390D01*
X2987Y5390D01*
X2986Y5390D01*
X2986Y5389D01*
X2985Y5389D01*
X2985D01*
X2985Y5389D01*
X2985Y5389D01*
X2985Y5389D01*
X2984Y5388D01*
X2984Y5388D01*
X2984Y5388D01*
X2984Y5387D01*
X2983Y5386D01*
Y5386D01*
X2983Y5386D01*
X2983Y5386D01*
X2983Y5386D01*
X2983Y5386D01*
X2983Y5386D01*
X2983Y5385D01*
X2983Y5385D01*
X2983Y5384D01*
X2983Y5384D01*
X2983Y5383D01*
Y5383D01*
Y5383D01*
Y5383D01*
Y5383D01*
X2983Y5382D01*
Y5382D01*
X2983Y5382D01*
X2983Y5382D01*
X2983Y5381D01*
X2983Y5380D01*
X2983Y5380D01*
X2983Y5379D01*
Y5379D01*
X2983Y5379D01*
X2983Y5379D01*
X2984Y5379D01*
X2984Y5378D01*
X2984Y5378D01*
X2984Y5378D01*
X2985Y5377D01*
X2985Y5377D01*
X2985Y5377D01*
X2985D01*
X2985Y5377D01*
X2986Y5376D01*
X2986Y5376D01*
X2986Y5376D01*
X2986Y5376D01*
X2987Y5376D01*
X2987Y5376D01*
X2988Y5376D01*
X2988Y5376D01*
X2989D01*
X2989Y5376D01*
X2989D01*
X2989Y5376D01*
X2990Y5376D01*
X2990Y5376D01*
X2991Y5376D01*
X2991Y5377D01*
X2992Y5377D01*
X2992Y5377D01*
X2992Y5377D01*
X2992Y5377D01*
X2992Y5377D01*
X2992Y5378D01*
X2993Y5378D01*
X2993Y5379D01*
X2993Y5379D01*
X2994Y5380D01*
X2996Y5380D01*
Y5380D01*
X2996Y5380D01*
X2996Y5379D01*
X2996Y5379D01*
X2996Y5379D01*
X2996Y5379D01*
X2995Y5378D01*
X2995Y5378D01*
X2995Y5377D01*
X2994Y5377D01*
X2994Y5376D01*
X2994Y5376D01*
X2993Y5375D01*
X2993Y5375D01*
X2993Y5375D01*
X2993Y5375D01*
X2993Y5375D01*
X2993Y5375D01*
X2993Y5375D01*
X2992Y5375D01*
X2992Y5375D01*
X2992Y5374D01*
X2991Y5374D01*
X2991Y5374D01*
X2990Y5374D01*
X2990Y5374D01*
X2989Y5374D01*
X2989Y5374D01*
X2988D01*
X2988Y5374D01*
X2988D01*
X2988Y5374D01*
X2987Y5374D01*
X2987Y5374D01*
X2986Y5374D01*
X2985Y5374D01*
X2985Y5375D01*
X2984Y5375D01*
X2984Y5375D01*
X2984Y5375D01*
X2984Y5375D01*
X2984Y5375D01*
X2984Y5375D01*
X2983Y5375D01*
X2983Y5376D01*
X2982Y5376D01*
X2982Y5377D01*
X2982Y5377D01*
X2981Y5378D01*
Y5378D01*
X2981Y5378D01*
X2981Y5378D01*
X2981Y5379D01*
X2981Y5379D01*
X2981Y5379D01*
X2981Y5379D01*
X2981Y5380D01*
X2981Y5380D01*
X2981Y5380D01*
X2980Y5381D01*
X2980Y5382D01*
X2980Y5383D01*
Y5383D01*
Y5383D01*
Y5383D01*
X2980Y5383D01*
Y5384D01*
X2980Y5384D01*
X2980Y5384D01*
X2980Y5385D01*
X2981Y5385D01*
X2981Y5386D01*
X2981Y5387D01*
X2981Y5388D01*
Y5388D01*
X2981Y5388D01*
X2981Y5388D01*
X2982Y5388D01*
X2982Y5388D01*
X2982Y5389D01*
X2982Y5389D01*
X2983Y5389D01*
X2983Y5390D01*
X2984Y5391D01*
X2984Y5391D01*
X2984D01*
X2984Y5391D01*
X2985Y5391D01*
X2985Y5391D01*
X2985Y5391D01*
X2985Y5391D01*
X2985Y5391D01*
X2986Y5391D01*
X2986Y5392D01*
X2986Y5392D01*
X2987Y5392D01*
X2988Y5392D01*
X2989Y5392D01*
X2989D01*
X2989Y5392D01*
D02*
G37*
G36*
X3097Y5034D02*
X3095D01*
Y5049D01*
X3090Y5034D01*
X3088D01*
X3083Y5049D01*
Y5034D01*
X3080D01*
Y5052D01*
X3084D01*
X3088Y5039D01*
Y5039D01*
X3088Y5039D01*
X3088Y5039D01*
X3088Y5039D01*
X3088Y5039D01*
X3088Y5038D01*
X3088Y5038D01*
X3089Y5037D01*
X3089Y5037D01*
X3089Y5037D01*
X3089Y5037D01*
X3089Y5037D01*
X3089Y5037D01*
X3089Y5037D01*
X3089Y5038D01*
X3089Y5038D01*
X3090Y5039D01*
X3090Y5039D01*
X3094Y5052D01*
X3097D01*
Y5034D01*
D02*
G37*
G36*
X3342Y4885D02*
X3350Y4874D01*
X3347D01*
X3340Y4883D01*
X3338Y4880D01*
Y4874D01*
X3335D01*
Y4892D01*
X3338D01*
Y4883D01*
X3346Y4892D01*
X3350D01*
X3342Y4885D01*
D02*
G37*
G36*
X3109Y5052D02*
X3109D01*
X3110Y5052D01*
X3110Y5052D01*
X3110Y5052D01*
X3111Y5052D01*
X3112Y5052D01*
X3112Y5051D01*
X3113Y5051D01*
X3113Y5051D01*
X3113D01*
X3113Y5051D01*
X3113Y5051D01*
X3113Y5051D01*
X3114Y5051D01*
X3114Y5050D01*
X3114Y5050D01*
X3115Y5050D01*
X3115Y5049D01*
X3116Y5048D01*
X3116Y5048D01*
Y5048D01*
X3116Y5047D01*
X3116Y5047D01*
X3116Y5047D01*
X3116Y5047D01*
X3116Y5047D01*
X3116Y5047D01*
X3117Y5046D01*
X3117Y5046D01*
X3117Y5046D01*
X3117Y5045D01*
X3117Y5044D01*
X3117Y5043D01*
Y5043D01*
Y5043D01*
Y5043D01*
X3117Y5042D01*
Y5042D01*
X3117Y5042D01*
X3117Y5042D01*
X3117Y5041D01*
X3117Y5040D01*
X3117Y5040D01*
X3116Y5039D01*
X3116Y5038D01*
Y5038D01*
X3116Y5038D01*
X3116Y5038D01*
X3116Y5038D01*
X3116Y5038D01*
X3116Y5037D01*
X3115Y5037D01*
X3115Y5036D01*
X3114Y5036D01*
X3114Y5035D01*
X3113Y5035D01*
X3113D01*
X3113Y5035D01*
X3113Y5035D01*
X3113Y5035D01*
X3112Y5035D01*
X3112Y5034D01*
X3112Y5034D01*
X3112Y5034D01*
X3111Y5034D01*
X3110Y5034D01*
X3110Y5034D01*
X3109Y5034D01*
X3108D01*
X3108Y5034D01*
X3108D01*
X3108Y5034D01*
X3107Y5034D01*
X3107Y5034D01*
X3106Y5034D01*
X3106Y5034D01*
X3105Y5035D01*
X3105Y5035D01*
X3104Y5035D01*
X3104Y5035D01*
X3104Y5035D01*
X3104Y5035D01*
X3104Y5035D01*
X3104Y5035D01*
X3104Y5035D01*
X3103Y5036D01*
X3103Y5036D01*
X3102Y5037D01*
X3102Y5037D01*
X3101Y5038D01*
Y5038D01*
X3101Y5038D01*
X3101Y5038D01*
X3101Y5039D01*
X3101Y5039D01*
X3101Y5039D01*
X3101Y5039D01*
X3101Y5040D01*
X3101Y5040D01*
X3101Y5040D01*
X3100Y5041D01*
X3100Y5042D01*
X3100Y5043D01*
Y5043D01*
Y5043D01*
X3100Y5043D01*
Y5043D01*
X3100Y5044D01*
X3100Y5044D01*
X3100Y5045D01*
X3101Y5045D01*
X3101Y5046D01*
X3101Y5046D01*
X3101Y5047D01*
X3101Y5047D01*
X3101Y5048D01*
X3102Y5049D01*
X3102Y5049D01*
X3103Y5050D01*
X3103Y5050D01*
X3103Y5050D01*
X3103Y5050D01*
X3103Y5050D01*
X3103Y5050D01*
X3104Y5050D01*
X3104Y5051D01*
X3104Y5051D01*
X3105Y5051D01*
X3105Y5051D01*
X3106Y5051D01*
X3106Y5052D01*
X3107Y5052D01*
X3107Y5052D01*
X3108Y5052D01*
X3109Y5052D01*
X3109D01*
X3109Y5052D01*
D02*
G37*
G36*
X2567Y4110D02*
X2567Y4110D01*
X2568Y4110D01*
X2568Y4110D01*
X2568Y4110D01*
X2569Y4110D01*
X2570Y4110D01*
X2571Y4109D01*
X2571Y4109D01*
X2572Y4109D01*
X2572Y4109D01*
X2572Y4108D01*
X2572Y4108D01*
X2572Y4108D01*
X2573Y4108D01*
X2573Y4108D01*
X2573Y4108D01*
X2573Y4107D01*
X2574Y4107D01*
X2574Y4106D01*
X2574Y4106D01*
X2575Y4105D01*
X2575Y4105D01*
X2575Y4104D01*
X2575Y4103D01*
X2575Y4103D01*
X2575Y4102D01*
Y4102D01*
Y4102D01*
Y4102D01*
X2575Y4101D01*
X2575Y4101D01*
X2575Y4101D01*
X2575Y4100D01*
X2575Y4100D01*
X2575Y4099D01*
X2574Y4098D01*
X2574Y4098D01*
X2574Y4097D01*
X2574Y4097D01*
X2573Y4096D01*
X2573Y4096D01*
X2573Y4096D01*
X2573Y4096D01*
X2573Y4096D01*
X2573Y4096D01*
X2573Y4096D01*
X2572Y4095D01*
X2572Y4095D01*
X2571Y4095D01*
X2570Y4094D01*
X2569Y4094D01*
X2569Y4094D01*
X2568Y4094D01*
X2568Y4097D01*
X2568D01*
X2568Y4097D01*
X2568Y4097D01*
X2569Y4097D01*
X2569Y4097D01*
X2570Y4098D01*
X2570Y4098D01*
X2571Y4098D01*
X2572Y4099D01*
X2572Y4099D01*
X2572Y4099D01*
X2572Y4099D01*
X2572Y4100D01*
X2572Y4100D01*
X2573Y4101D01*
X2573Y4101D01*
X2573Y4102D01*
Y4102D01*
Y4102D01*
Y4102D01*
X2573Y4102D01*
X2573Y4103D01*
X2573Y4103D01*
X2572Y4104D01*
X2572Y4104D01*
X2572Y4105D01*
X2571Y4105D01*
X2571Y4106D01*
X2571D01*
X2571Y4106D01*
X2571Y4106D01*
X2570Y4106D01*
X2570Y4106D01*
X2569Y4107D01*
X2568Y4107D01*
X2568Y4107D01*
X2567Y4107D01*
X2566D01*
X2566Y4107D01*
X2566D01*
X2566Y4107D01*
X2565Y4107D01*
X2564Y4107D01*
X2564Y4107D01*
X2563Y4106D01*
X2562Y4106D01*
X2562Y4106D01*
X2562Y4105D01*
X2562Y4105D01*
X2562Y4105D01*
X2561Y4104D01*
X2561Y4103D01*
X2561Y4103D01*
X2561Y4102D01*
Y4102D01*
Y4102D01*
X2561Y4101D01*
X2561Y4101D01*
X2561Y4100D01*
X2561Y4100D01*
X2561Y4100D01*
X2562Y4099D01*
X2562Y4099D01*
X2562Y4099D01*
X2562Y4099D01*
X2562Y4098D01*
X2562Y4098D01*
X2563Y4098D01*
X2563Y4098D01*
X2563Y4097D01*
X2563Y4094D01*
X2550Y4097D01*
Y4109D01*
X2553D01*
Y4099D01*
X2560Y4098D01*
X2560Y4098D01*
X2560Y4098D01*
X2560Y4098D01*
X2559Y4098D01*
X2559Y4098D01*
X2559Y4099D01*
X2559Y4099D01*
X2559Y4100D01*
X2558Y4101D01*
X2558Y4102D01*
X2558Y4103D01*
Y4103D01*
Y4103D01*
Y4103D01*
X2558Y4103D01*
X2558Y4103D01*
X2558Y4104D01*
X2558Y4104D01*
X2558Y4105D01*
X2559Y4105D01*
X2559Y4106D01*
X2559Y4106D01*
X2559Y4107D01*
X2560Y4107D01*
X2560Y4108D01*
X2560Y4108D01*
X2560Y4108D01*
X2561Y4108D01*
X2561Y4108D01*
X2561Y4109D01*
X2561Y4109D01*
X2561Y4109D01*
X2562Y4109D01*
X2562Y4109D01*
X2562Y4110D01*
X2563Y4110D01*
X2563Y4110D01*
X2564Y4110D01*
X2564Y4110D01*
X2565Y4110D01*
X2566Y4110D01*
X2566Y4111D01*
X2567D01*
X2567Y4110D01*
D02*
G37*
G36*
X3523Y5392D02*
X3524D01*
X3524Y5392D01*
X3524Y5392D01*
X3525Y5392D01*
X3525Y5392D01*
X3526Y5392D01*
X3527Y5391D01*
X3527Y5391D01*
X3527Y5391D01*
X3528D01*
X3528Y5391D01*
X3528Y5391D01*
X3528Y5391D01*
X3528Y5391D01*
X3528Y5390D01*
X3529Y5390D01*
X3529Y5390D01*
X3530Y5389D01*
X3530Y5388D01*
X3530Y5388D01*
Y5388D01*
X3531Y5387D01*
X3531Y5387D01*
X3531Y5387D01*
X3531Y5387D01*
X3531Y5387D01*
X3531Y5387D01*
X3531Y5386D01*
X3531Y5386D01*
X3531Y5386D01*
X3531Y5385D01*
X3531Y5384D01*
X3532Y5383D01*
Y5383D01*
Y5383D01*
Y5383D01*
X3532Y5382D01*
Y5382D01*
X3531Y5382D01*
X3531Y5382D01*
X3531Y5381D01*
X3531Y5380D01*
X3531Y5380D01*
X3531Y5379D01*
X3530Y5378D01*
Y5378D01*
X3530Y5378D01*
X3530Y5378D01*
X3530Y5378D01*
X3530Y5378D01*
X3530Y5377D01*
X3530Y5377D01*
X3529Y5376D01*
X3529Y5376D01*
X3528Y5375D01*
X3527Y5375D01*
X3527D01*
X3527Y5375D01*
X3527Y5375D01*
X3527Y5375D01*
X3527Y5375D01*
X3527Y5374D01*
X3526Y5374D01*
X3526Y5374D01*
X3525Y5374D01*
X3525Y5374D01*
X3524Y5374D01*
X3523Y5374D01*
X3523D01*
X3523Y5374D01*
X3522D01*
X3522Y5374D01*
X3522Y5374D01*
X3522Y5374D01*
X3521Y5374D01*
X3520Y5374D01*
X3519Y5375D01*
X3519Y5375D01*
X3519Y5375D01*
X3519Y5375D01*
X3519Y5375D01*
X3518Y5375D01*
X3518Y5375D01*
X3518Y5375D01*
X3518Y5375D01*
X3518Y5376D01*
X3517Y5376D01*
X3517Y5377D01*
X3516Y5377D01*
X3516Y5378D01*
Y5378D01*
X3516Y5378D01*
X3516Y5378D01*
X3515Y5379D01*
X3515Y5379D01*
X3515Y5379D01*
X3515Y5379D01*
X3515Y5380D01*
X3515Y5380D01*
X3515Y5380D01*
X3515Y5381D01*
X3515Y5382D01*
X3515Y5383D01*
Y5383D01*
Y5383D01*
X3515Y5383D01*
Y5383D01*
X3515Y5384D01*
X3515Y5384D01*
X3515Y5385D01*
X3515Y5385D01*
X3515Y5386D01*
X3515Y5386D01*
X3515Y5387D01*
X3516Y5387D01*
X3516Y5388D01*
X3516Y5389D01*
X3517Y5389D01*
X3517Y5390D01*
X3517Y5390D01*
X3517Y5390D01*
X3517Y5390D01*
X3517Y5390D01*
X3518Y5390D01*
X3518Y5390D01*
X3518Y5391D01*
X3519Y5391D01*
X3519Y5391D01*
X3520Y5391D01*
X3520Y5391D01*
X3521Y5392D01*
X3521Y5392D01*
X3522Y5392D01*
X3522Y5392D01*
X3523Y5392D01*
X3523D01*
X3523Y5392D01*
D02*
G37*
G36*
X3505Y5392D02*
X3505Y5392D01*
X3506Y5392D01*
X3506Y5392D01*
X3507Y5391D01*
X3507D01*
X3507Y5391D01*
X3507D01*
X3507Y5391D01*
X3507Y5391D01*
X3508Y5391D01*
X3508Y5391D01*
X3508Y5391D01*
X3509Y5391D01*
X3509Y5390D01*
X3509D01*
X3509Y5390D01*
X3510Y5390D01*
X3510Y5390D01*
X3510Y5389D01*
X3510Y5389D01*
X3511Y5388D01*
X3511Y5388D01*
X3511Y5387D01*
Y5387D01*
X3511Y5387D01*
X3511Y5387D01*
X3512Y5387D01*
X3512Y5387D01*
X3512Y5386D01*
X3512Y5386D01*
X3512Y5386D01*
X3512Y5386D01*
X3512Y5385D01*
X3512Y5385D01*
X3512Y5384D01*
X3512Y5383D01*
Y5383D01*
Y5383D01*
Y5383D01*
Y5383D01*
X3512Y5382D01*
Y5382D01*
X3512Y5382D01*
X3512Y5381D01*
X3512Y5381D01*
X3512Y5380D01*
X3512Y5379D01*
Y5379D01*
X3512Y5379D01*
X3512Y5379D01*
X3512Y5379D01*
X3511Y5379D01*
X3511Y5378D01*
X3511Y5378D01*
X3511Y5378D01*
X3511Y5377D01*
X3510Y5377D01*
X3510Y5377D01*
X3510Y5377D01*
X3510Y5376D01*
X3510Y5376D01*
X3510Y5376D01*
X3509Y5376D01*
X3509Y5375D01*
X3509Y5375D01*
X3509Y5375D01*
X3509Y5375D01*
X3508Y5375D01*
X3508Y5375D01*
X3508Y5375D01*
X3508Y5375D01*
X3507Y5374D01*
X3507Y5374D01*
X3507D01*
X3507Y5374D01*
X3506Y5374D01*
X3506Y5374D01*
X3506Y5374D01*
X3505Y5374D01*
X3504Y5374D01*
X3504Y5374D01*
X3498D01*
Y5392D01*
X3504D01*
X3505Y5392D01*
D02*
G37*
G36*
X2576Y4457D02*
Y4454D01*
X2560D01*
Y4451D01*
X2557D01*
Y4454D01*
X2551D01*
Y4457D01*
X2557D01*
Y4468D01*
X2560D01*
X2576Y4457D01*
D02*
G37*
G36*
X2565Y4492D02*
X2565D01*
X2565Y4492D01*
X2566Y4492D01*
X2566Y4492D01*
X2567Y4492D01*
X2569Y4492D01*
X2570Y4491D01*
X2571Y4491D01*
X2571D01*
X2571Y4491D01*
X2571Y4491D01*
X2571Y4491D01*
X2572Y4490D01*
X2572Y4490D01*
X2573Y4490D01*
X2573Y4489D01*
X2574Y4488D01*
X2575Y4488D01*
X2575Y4487D01*
Y4487D01*
X2575Y4486D01*
X2575Y4486D01*
X2576Y4486D01*
X2576Y4486D01*
X2576Y4486D01*
X2576Y4485D01*
X2576Y4485D01*
X2576Y4484D01*
X2576Y4484D01*
X2577Y4483D01*
X2577Y4482D01*
X2577Y4480D01*
Y4480D01*
Y4480D01*
Y4480D01*
X2577Y4480D01*
X2577Y4479D01*
X2577Y4479D01*
X2577Y4479D01*
X2577Y4478D01*
X2576Y4477D01*
X2576Y4476D01*
X2576Y4476D01*
X2576Y4475D01*
X2575Y4475D01*
X2575Y4474D01*
X2575Y4474D01*
X2575Y4474D01*
X2575Y4474D01*
X2575Y4474D01*
X2574Y4473D01*
X2574Y4473D01*
X2574Y4473D01*
X2573Y4473D01*
X2573Y4472D01*
X2573Y4472D01*
X2572Y4472D01*
X2572Y4471D01*
X2571Y4471D01*
X2571Y4471D01*
X2569Y4470D01*
X2569Y4474D01*
X2569D01*
X2569Y4474D01*
X2569Y4474D01*
X2569Y4474D01*
X2569Y4474D01*
X2570Y4474D01*
X2570Y4474D01*
X2571Y4475D01*
X2572Y4475D01*
X2572Y4476D01*
X2573Y4476D01*
X2573Y4476D01*
X2573Y4477D01*
X2573Y4477D01*
X2573Y4477D01*
X2574Y4478D01*
X2574Y4479D01*
X2574Y4480D01*
X2574Y4481D01*
Y4481D01*
Y4481D01*
Y4481D01*
X2574Y4481D01*
Y4481D01*
X2574Y4482D01*
X2574Y4482D01*
X2574Y4483D01*
X2573Y4484D01*
X2573Y4485D01*
X2573Y4485D01*
Y4485D01*
X2573Y4485D01*
X2572Y4486D01*
X2572Y4486D01*
X2572Y4486D01*
X2571Y4487D01*
X2570Y4487D01*
X2570Y4488D01*
X2569Y4488D01*
X2569D01*
X2569Y4488D01*
X2569Y4488D01*
X2568Y4488D01*
X2568Y4488D01*
X2568Y4488D01*
X2567Y4488D01*
X2567Y4489D01*
X2566Y4489D01*
X2565Y4489D01*
X2564Y4489D01*
X2563D01*
X2563Y4489D01*
X2563D01*
X2562Y4489D01*
X2562Y4489D01*
X2561Y4489D01*
X2560Y4488D01*
X2559Y4488D01*
X2558Y4488D01*
X2558D01*
X2558Y4488D01*
X2558Y4488D01*
X2558Y4488D01*
X2558Y4488D01*
X2557Y4487D01*
X2556Y4487D01*
X2556Y4486D01*
X2555Y4486D01*
X2555Y4485D01*
Y4485D01*
X2555Y4485D01*
X2555Y4485D01*
X2555Y4485D01*
X2554Y4484D01*
X2554Y4484D01*
X2554Y4483D01*
X2554Y4482D01*
X2554Y4482D01*
X2554Y4481D01*
Y4481D01*
Y4481D01*
Y4480D01*
X2554Y4480D01*
Y4480D01*
X2554Y4480D01*
X2554Y4479D01*
X2554Y4478D01*
X2554Y4478D01*
X2555Y4477D01*
X2555Y4476D01*
X2555Y4476D01*
X2555Y4476D01*
X2556Y4476D01*
X2556Y4475D01*
X2556Y4475D01*
X2557Y4475D01*
X2558Y4474D01*
X2559Y4474D01*
X2560Y4473D01*
X2559Y4470D01*
X2559D01*
X2559Y4470D01*
X2559Y4470D01*
X2558Y4470D01*
X2558Y4470D01*
X2558Y4471D01*
X2557Y4471D01*
X2557Y4471D01*
X2556Y4471D01*
X2555Y4472D01*
X2554Y4473D01*
X2553Y4473D01*
X2553Y4474D01*
X2553Y4474D01*
X2553Y4474D01*
X2553Y4474D01*
X2553Y4474D01*
X2552Y4475D01*
X2552Y4475D01*
X2552Y4475D01*
X2552Y4476D01*
X2552Y4476D01*
X2551Y4477D01*
X2551Y4477D01*
X2551Y4478D01*
X2551Y4479D01*
X2551Y4480D01*
X2551Y4480D01*
Y4481D01*
Y4481D01*
Y4481D01*
X2551Y4481D01*
Y4482D01*
X2551Y4482D01*
X2551Y4482D01*
X2551Y4483D01*
X2551Y4484D01*
X2551Y4485D01*
X2552Y4486D01*
X2552Y4487D01*
X2552Y4487D01*
X2552Y4487D01*
X2552Y4487D01*
X2553Y4487D01*
X2553Y4488D01*
X2553Y4488D01*
X2554Y4489D01*
X2554Y4489D01*
X2555Y4490D01*
X2556Y4490D01*
X2557Y4491D01*
X2557D01*
X2557Y4491D01*
X2558Y4491D01*
X2558Y4491D01*
X2558Y4491D01*
X2558Y4491D01*
X2559Y4492D01*
X2559Y4492D01*
X2560Y4492D01*
X2560Y4492D01*
X2561Y4492D01*
X2563Y4492D01*
X2564Y4492D01*
X2564D01*
X2565Y4492D01*
D02*
G37*
G36*
X2617Y4286D02*
X2628D01*
Y4283D01*
X2617Y4267D01*
X2614D01*
Y4283D01*
X2611D01*
Y4286D01*
X2614D01*
Y4292D01*
X2617D01*
Y4286D01*
D02*
G37*
G36*
X3418Y5174D02*
X3416D01*
Y5192D01*
X3418D01*
Y5174D01*
D02*
G37*
G36*
X2642Y4292D02*
X2642D01*
X2642Y4292D01*
X2643Y4292D01*
X2643Y4292D01*
X2644Y4292D01*
X2645Y4292D01*
X2646Y4291D01*
X2647Y4291D01*
X2647D01*
X2647Y4291D01*
X2647Y4291D01*
X2647Y4291D01*
X2648Y4291D01*
X2648Y4290D01*
X2649Y4290D01*
X2649Y4289D01*
X2650Y4288D01*
X2650Y4288D01*
Y4287D01*
X2650Y4287D01*
X2650Y4287D01*
X2650Y4287D01*
X2650Y4287D01*
X2651Y4287D01*
X2651Y4286D01*
X2651Y4286D01*
X2651Y4285D01*
X2651Y4285D01*
X2651Y4284D01*
X2651Y4284D01*
X2651Y4283D01*
X2651Y4283D01*
X2651Y4282D01*
Y4281D01*
Y4267D01*
X2648D01*
Y4281D01*
Y4281D01*
Y4281D01*
Y4281D01*
Y4282D01*
Y4282D01*
X2648Y4282D01*
X2648Y4283D01*
X2648Y4284D01*
X2648Y4285D01*
X2647Y4285D01*
X2647Y4286D01*
X2647Y4286D01*
X2647Y4286D01*
X2647Y4286D01*
X2647Y4287D01*
X2647Y4287D01*
X2646Y4287D01*
X2646Y4288D01*
X2646Y4288D01*
X2645Y4288D01*
X2645Y4288D01*
X2645Y4289D01*
X2645Y4289D01*
X2644Y4289D01*
X2644Y4289D01*
X2643Y4289D01*
X2642Y4289D01*
X2642Y4289D01*
X2641D01*
X2641Y4289D01*
X2641D01*
X2640Y4289D01*
X2640Y4289D01*
X2639Y4289D01*
X2638Y4289D01*
X2637Y4288D01*
X2637Y4288D01*
X2636Y4288D01*
Y4288D01*
X2636Y4288D01*
X2636Y4287D01*
X2636Y4287D01*
X2636Y4287D01*
X2636Y4287D01*
X2636Y4287D01*
X2635Y4286D01*
X2635Y4286D01*
X2635Y4285D01*
X2635Y4285D01*
X2635Y4284D01*
X2635Y4284D01*
X2635Y4283D01*
X2635Y4282D01*
Y4281D01*
Y4267D01*
X2631D01*
Y4281D01*
Y4281D01*
Y4281D01*
Y4282D01*
Y4282D01*
X2631Y4282D01*
Y4282D01*
X2631Y4283D01*
X2631Y4283D01*
X2632Y4284D01*
X2632Y4285D01*
X2632Y4286D01*
X2632Y4287D01*
Y4287D01*
X2632Y4287D01*
X2632Y4287D01*
X2632Y4288D01*
X2633Y4288D01*
X2633Y4289D01*
X2633Y4289D01*
X2634Y4290D01*
X2635Y4290D01*
X2635Y4291D01*
X2635D01*
X2635Y4291D01*
X2636Y4291D01*
X2636Y4291D01*
X2636Y4291D01*
X2636Y4291D01*
X2637Y4291D01*
X2637Y4292D01*
X2637Y4292D01*
X2638Y4292D01*
X2638Y4292D01*
X2639Y4292D01*
X2640Y4292D01*
X2641Y4292D01*
X2642D01*
X2642Y4292D01*
D02*
G37*
G36*
X3488Y5392D02*
X3488D01*
X3488Y5392D01*
X3489Y5392D01*
X3489Y5392D01*
X3490Y5392D01*
X3491Y5391D01*
X3491D01*
X3491Y5391D01*
X3491Y5391D01*
X3491Y5391D01*
X3491Y5391D01*
X3491Y5391D01*
X3492Y5391D01*
X3492Y5390D01*
X3493Y5390D01*
X3493Y5390D01*
X3493Y5389D01*
X3493Y5389D01*
X3493Y5389D01*
X3493Y5389D01*
X3493Y5388D01*
X3494Y5388D01*
X3494Y5387D01*
X3494Y5387D01*
X3492Y5387D01*
Y5387D01*
Y5387D01*
X3492Y5387D01*
X3492Y5387D01*
X3491Y5387D01*
X3491Y5388D01*
X3491Y5388D01*
X3491Y5388D01*
X3491Y5389D01*
X3490Y5389D01*
X3490Y5389D01*
X3490Y5389D01*
X3490Y5389D01*
X3490Y5390D01*
X3489Y5390D01*
X3489Y5390D01*
X3488Y5390D01*
X3487Y5390D01*
X3487D01*
X3487Y5390D01*
X3487D01*
X3486Y5390D01*
X3486Y5390D01*
X3485Y5390D01*
X3485Y5389D01*
X3484Y5389D01*
X3484Y5389D01*
X3484Y5389D01*
X3484Y5389D01*
X3484Y5389D01*
X3484Y5389D01*
X3484Y5388D01*
X3483Y5388D01*
X3483Y5388D01*
X3483Y5387D01*
Y5387D01*
Y5387D01*
X3483Y5387D01*
X3483Y5387D01*
X3483Y5386D01*
X3484Y5386D01*
X3484Y5386D01*
X3484Y5386D01*
X3484Y5386D01*
X3484Y5386D01*
X3484Y5386D01*
X3484Y5385D01*
X3484Y5385D01*
X3485Y5385D01*
X3485Y5385D01*
X3485Y5385D01*
X3485Y5385D01*
X3486Y5385D01*
X3486Y5385D01*
X3486Y5385D01*
X3487Y5385D01*
X3487Y5384D01*
X3487D01*
X3488Y5384D01*
X3488Y5384D01*
X3488Y5384D01*
X3488Y5384D01*
X3488Y5384D01*
X3489Y5384D01*
X3490Y5384D01*
X3490Y5384D01*
X3491Y5384D01*
X3491Y5384D01*
X3491Y5383D01*
X3491Y5383D01*
X3491D01*
X3491Y5383D01*
X3491Y5383D01*
X3492Y5383D01*
X3492Y5383D01*
X3492Y5383D01*
X3493Y5383D01*
X3493Y5382D01*
X3493Y5382D01*
X3494Y5382D01*
X3494Y5381D01*
X3494Y5381D01*
X3494Y5381D01*
X3494Y5381D01*
X3494Y5380D01*
X3494Y5380D01*
X3494Y5380D01*
X3494Y5379D01*
Y5379D01*
Y5379D01*
Y5379D01*
Y5379D01*
X3494Y5379D01*
X3494Y5378D01*
X3494Y5378D01*
X3494Y5377D01*
X3494Y5377D01*
X3494Y5376D01*
X3494Y5376D01*
X3493Y5376D01*
X3493Y5376D01*
X3493Y5376D01*
X3493Y5375D01*
X3492Y5375D01*
X3492Y5375D01*
X3491Y5374D01*
X3491D01*
X3491Y5374D01*
X3491Y5374D01*
X3491Y5374D01*
X3491Y5374D01*
X3491Y5374D01*
X3490Y5374D01*
X3490Y5374D01*
X3489Y5374D01*
X3489Y5374D01*
X3488Y5374D01*
X3487D01*
X3487Y5374D01*
X3487D01*
X3487Y5374D01*
X3486Y5374D01*
X3486Y5374D01*
X3485Y5374D01*
X3484Y5374D01*
X3484Y5374D01*
X3484D01*
X3484Y5374D01*
X3484Y5375D01*
X3484Y5375D01*
X3483Y5375D01*
X3483Y5375D01*
X3482Y5375D01*
X3482Y5376D01*
X3482Y5376D01*
X3481Y5377D01*
Y5377D01*
X3481Y5377D01*
X3481Y5377D01*
X3481Y5377D01*
X3481Y5377D01*
X3481Y5377D01*
X3481Y5377D01*
X3481Y5378D01*
X3480Y5378D01*
X3480Y5379D01*
X3480Y5380D01*
X3483Y5380D01*
Y5380D01*
Y5380D01*
X3483Y5380D01*
X3483Y5379D01*
X3483Y5379D01*
X3483Y5379D01*
X3483Y5378D01*
X3483Y5378D01*
X3483Y5378D01*
X3483Y5378D01*
X3483Y5378D01*
X3483Y5377D01*
X3484Y5377D01*
X3484Y5377D01*
X3484Y5377D01*
X3485Y5377D01*
X3485Y5376D01*
X3485D01*
X3485Y5376D01*
X3485Y5376D01*
X3485Y5376D01*
X3486Y5376D01*
X3486Y5376D01*
X3487Y5376D01*
X3487Y5376D01*
X3488Y5376D01*
X3488D01*
X3488Y5376D01*
X3488Y5376D01*
X3489Y5376D01*
X3489Y5376D01*
X3490Y5376D01*
X3490Y5376D01*
X3490Y5376D01*
X3490Y5376D01*
X3490Y5376D01*
X3491Y5377D01*
X3491Y5377D01*
X3491Y5377D01*
X3491Y5377D01*
X3492Y5377D01*
X3492Y5377D01*
X3492Y5377D01*
X3492Y5378D01*
X3492Y5378D01*
X3492Y5378D01*
X3492Y5378D01*
X3492Y5379D01*
X3492Y5379D01*
Y5379D01*
Y5379D01*
X3492Y5379D01*
X3492Y5379D01*
X3492Y5380D01*
X3492Y5380D01*
X3492Y5380D01*
X3492Y5380D01*
X3492Y5380D01*
X3492Y5380D01*
X3491Y5380D01*
X3491Y5381D01*
X3491Y5381D01*
X3491Y5381D01*
X3490Y5381D01*
X3490Y5381D01*
X3490Y5381D01*
X3490Y5381D01*
X3490Y5381D01*
X3490Y5381D01*
X3489Y5382D01*
X3489Y5382D01*
X3489Y5382D01*
X3489Y5382D01*
X3488Y5382D01*
X3488Y5382D01*
X3488Y5382D01*
X3487Y5382D01*
X3487Y5382D01*
X3487D01*
X3487Y5382D01*
X3487Y5382D01*
X3486Y5382D01*
X3486Y5382D01*
X3486Y5382D01*
X3486Y5383D01*
X3485Y5383D01*
X3484Y5383D01*
X3484Y5383D01*
X3484Y5383D01*
X3483Y5383D01*
X3483D01*
X3483Y5383D01*
X3483Y5383D01*
X3483Y5384D01*
X3483Y5384D01*
X3482Y5384D01*
X3482Y5384D01*
X3482Y5385D01*
X3482Y5385D01*
X3482Y5385D01*
X3481Y5385D01*
X3481Y5385D01*
X3481Y5386D01*
X3481Y5386D01*
X3481Y5386D01*
X3481Y5387D01*
X3481Y5387D01*
Y5387D01*
Y5387D01*
Y5387D01*
Y5387D01*
X3481Y5388D01*
X3481Y5388D01*
X3481Y5388D01*
X3481Y5389D01*
X3481Y5389D01*
X3482Y5390D01*
Y5390D01*
X3482Y5390D01*
X3482Y5390D01*
X3482Y5390D01*
X3482Y5390D01*
X3483Y5391D01*
X3483Y5391D01*
X3483Y5391D01*
X3484Y5391D01*
X3484D01*
X3484Y5391D01*
X3484Y5391D01*
X3484Y5392D01*
X3484Y5392D01*
X3485Y5392D01*
X3485Y5392D01*
X3485Y5392D01*
X3486Y5392D01*
X3487Y5392D01*
X3487Y5392D01*
X3487D01*
X3488Y5392D01*
D02*
G37*
G36*
X3405Y5192D02*
X3405Y5192D01*
X3406Y5192D01*
X3406Y5192D01*
X3407Y5191D01*
X3407D01*
X3407Y5191D01*
X3407D01*
X3407Y5191D01*
X3407Y5191D01*
X3408Y5191D01*
X3408Y5191D01*
X3408Y5191D01*
X3409Y5191D01*
X3409Y5190D01*
X3409D01*
X3409Y5190D01*
X3410Y5190D01*
X3410Y5190D01*
X3410Y5189D01*
X3410Y5189D01*
X3411Y5188D01*
X3411Y5188D01*
X3411Y5187D01*
Y5187D01*
X3411Y5187D01*
X3411Y5187D01*
X3412Y5187D01*
X3412Y5187D01*
X3412Y5186D01*
X3412Y5186D01*
X3412Y5186D01*
X3412Y5186D01*
X3412Y5185D01*
X3412Y5185D01*
X3412Y5184D01*
X3412Y5183D01*
Y5183D01*
Y5183D01*
Y5183D01*
Y5183D01*
X3412Y5182D01*
Y5182D01*
X3412Y5182D01*
X3412Y5181D01*
X3412Y5181D01*
X3412Y5180D01*
X3412Y5179D01*
Y5179D01*
X3412Y5179D01*
X3412Y5179D01*
X3412Y5179D01*
X3411Y5179D01*
X3411Y5178D01*
X3411Y5178D01*
X3411Y5178D01*
X3411Y5177D01*
X3410Y5177D01*
X3410Y5177D01*
X3410Y5177D01*
X3410Y5176D01*
X3410Y5176D01*
X3410Y5176D01*
X3409Y5176D01*
X3409Y5175D01*
X3409Y5175D01*
X3409Y5175D01*
X3409Y5175D01*
X3408Y5175D01*
X3408Y5175D01*
X3408Y5175D01*
X3408Y5175D01*
X3407Y5174D01*
X3407Y5174D01*
X3407D01*
X3407Y5174D01*
X3406Y5174D01*
X3406Y5174D01*
X3406Y5174D01*
X3405Y5174D01*
X3404Y5174D01*
X3404Y5174D01*
X3398D01*
Y5192D01*
X3404D01*
X3405Y5192D01*
D02*
G37*
G36*
X3326Y4892D02*
X3326Y4892D01*
X3326Y4892D01*
X3326Y4892D01*
X3327Y4892D01*
X3327Y4892D01*
X3328Y4891D01*
X3329Y4891D01*
X3329Y4891D01*
X3329Y4891D01*
X3330Y4891D01*
X3330Y4891D01*
X3330Y4891D01*
X3330Y4891D01*
X3330Y4890D01*
X3330Y4890D01*
X3330Y4890D01*
X3330Y4890D01*
X3331Y4890D01*
X3331Y4889D01*
X3331Y4889D01*
X3331Y4889D01*
X3331Y4888D01*
X3332Y4888D01*
X3332Y4888D01*
X3332Y4887D01*
X3330Y4886D01*
Y4886D01*
X3330Y4886D01*
X3330Y4887D01*
X3330Y4887D01*
X3330Y4887D01*
X3330Y4887D01*
X3329Y4887D01*
X3329Y4888D01*
X3329Y4888D01*
X3329Y4889D01*
X3328Y4889D01*
X3328Y4889D01*
X3328Y4889D01*
X3328Y4889D01*
X3327Y4890D01*
X3327Y4890D01*
X3326Y4890D01*
X3326Y4890D01*
X3325Y4890D01*
X3325D01*
X3325Y4890D01*
X3325D01*
X3324Y4890D01*
X3324Y4890D01*
X3323Y4890D01*
X3323Y4890D01*
X3322Y4889D01*
X3322Y4889D01*
X3322D01*
X3322Y4889D01*
X3322Y4889D01*
X3321Y4889D01*
X3321Y4888D01*
X3321Y4888D01*
X3320Y4888D01*
X3320Y4887D01*
X3320Y4886D01*
Y4886D01*
X3320Y4886D01*
X3320Y4886D01*
X3320Y4886D01*
X3320Y4886D01*
X3320Y4886D01*
X3320Y4885D01*
X3319Y4885D01*
X3319Y4884D01*
X3319Y4884D01*
X3319Y4883D01*
Y4883D01*
Y4883D01*
Y4883D01*
Y4883D01*
X3319Y4882D01*
Y4882D01*
X3319Y4882D01*
X3319Y4882D01*
X3319Y4881D01*
X3320Y4880D01*
X3320Y4880D01*
X3320Y4879D01*
Y4879D01*
X3320Y4879D01*
X3320Y4879D01*
X3320Y4879D01*
X3320Y4878D01*
X3320Y4878D01*
X3321Y4878D01*
X3321Y4877D01*
X3321Y4877D01*
X3322Y4877D01*
X3322D01*
X3322Y4877D01*
X3322Y4876D01*
X3322Y4876D01*
X3323Y4876D01*
X3323Y4876D01*
X3323Y4876D01*
X3324Y4876D01*
X3324Y4876D01*
X3325Y4876D01*
X3325D01*
X3325Y4876D01*
X3325D01*
X3326Y4876D01*
X3326Y4876D01*
X3327Y4876D01*
X3327Y4876D01*
X3328Y4877D01*
X3328Y4877D01*
X3328Y4877D01*
X3328Y4877D01*
X3329Y4877D01*
X3329Y4877D01*
X3329Y4878D01*
X3329Y4878D01*
X3330Y4879D01*
X3330Y4879D01*
X3330Y4880D01*
X3332Y4880D01*
Y4880D01*
X3332Y4880D01*
X3332Y4879D01*
X3332Y4879D01*
X3332Y4879D01*
X3332Y4879D01*
X3332Y4878D01*
X3332Y4878D01*
X3332Y4877D01*
X3331Y4877D01*
X3330Y4876D01*
X3330Y4876D01*
X3330Y4875D01*
X3330Y4875D01*
X3330Y4875D01*
X3330Y4875D01*
X3329Y4875D01*
X3329Y4875D01*
X3329Y4875D01*
X3329Y4875D01*
X3329Y4875D01*
X3328Y4874D01*
X3328Y4874D01*
X3327Y4874D01*
X3327Y4874D01*
X3326Y4874D01*
X3326Y4874D01*
X3325Y4874D01*
X3325D01*
X3325Y4874D01*
X3324D01*
X3324Y4874D01*
X3324Y4874D01*
X3324Y4874D01*
X3323Y4874D01*
X3322Y4874D01*
X3321Y4875D01*
X3321Y4875D01*
X3321Y4875D01*
X3320Y4875D01*
X3320Y4875D01*
X3320Y4875D01*
X3320Y4875D01*
X3320Y4875D01*
X3320Y4876D01*
X3319Y4876D01*
X3319Y4877D01*
X3318Y4877D01*
X3318Y4878D01*
Y4878D01*
X3318Y4878D01*
X3318Y4878D01*
X3318Y4879D01*
X3318Y4879D01*
X3318Y4879D01*
X3317Y4879D01*
X3317Y4880D01*
X3317Y4880D01*
X3317Y4880D01*
X3317Y4881D01*
X3317Y4882D01*
X3317Y4883D01*
Y4883D01*
Y4883D01*
Y4883D01*
X3317Y4883D01*
Y4884D01*
X3317Y4884D01*
X3317Y4884D01*
X3317Y4885D01*
X3317Y4885D01*
X3317Y4886D01*
X3318Y4887D01*
X3318Y4888D01*
Y4888D01*
X3318Y4888D01*
X3318Y4888D01*
X3318Y4888D01*
X3318Y4888D01*
X3318Y4889D01*
X3319Y4889D01*
X3319Y4889D01*
X3320Y4890D01*
X3320Y4891D01*
X3321Y4891D01*
X3321D01*
X3321Y4891D01*
X3321Y4891D01*
X3321Y4891D01*
X3321Y4891D01*
X3322Y4891D01*
X3322Y4891D01*
X3322Y4891D01*
X3322Y4892D01*
X3323Y4892D01*
X3324Y4892D01*
X3324Y4892D01*
X3325Y4892D01*
X3325D01*
X3326Y4892D01*
D02*
G37*
G36*
X6232Y5210D02*
X6233Y5210D01*
X6233Y5210D01*
X6233Y5210D01*
X6234Y5210D01*
X6235Y5209D01*
X6236Y5209D01*
X6236Y5209D01*
X6237Y5209D01*
X6237Y5208D01*
X6238Y5208D01*
X6238Y5208D01*
X6238Y5208D01*
X6238Y5208D01*
X6238Y5208D01*
X6239Y5207D01*
X6239Y5207D01*
X6239Y5207D01*
X6239Y5206D01*
X6240Y5206D01*
X6240Y5206D01*
X6240Y5205D01*
X6241Y5205D01*
X6241Y5204D01*
X6241Y5204D01*
X6242Y5202D01*
X6238Y5202D01*
Y5202D01*
X6238Y5202D01*
X6238Y5202D01*
X6238Y5202D01*
X6238Y5202D01*
X6238Y5203D01*
X6238Y5203D01*
X6237Y5204D01*
X6237Y5205D01*
X6236Y5205D01*
X6236Y5206D01*
X6236Y5206D01*
X6235Y5206D01*
X6235Y5206D01*
X6235Y5206D01*
X6234Y5207D01*
X6233Y5207D01*
X6232Y5207D01*
X6231Y5207D01*
X6231D01*
X6231Y5207D01*
X6231D01*
X6230Y5207D01*
X6230Y5207D01*
X6229Y5207D01*
X6228Y5206D01*
X6227Y5206D01*
X6227Y5206D01*
X6227D01*
X6227Y5206D01*
X6226Y5205D01*
X6226Y5205D01*
X6226Y5205D01*
X6225Y5204D01*
X6225Y5203D01*
X6224Y5203D01*
X6224Y5202D01*
Y5202D01*
X6224Y5202D01*
X6224Y5202D01*
X6224Y5201D01*
X6224Y5201D01*
X6224Y5201D01*
X6224Y5200D01*
X6223Y5200D01*
X6223Y5199D01*
X6223Y5198D01*
X6223Y5197D01*
Y5197D01*
Y5197D01*
Y5197D01*
Y5196D01*
X6223Y5196D01*
Y5196D01*
X6223Y5195D01*
X6223Y5195D01*
X6223Y5194D01*
X6224Y5193D01*
X6224Y5192D01*
X6224Y5191D01*
Y5191D01*
X6224Y5191D01*
X6224Y5191D01*
X6224Y5191D01*
X6224Y5191D01*
X6225Y5190D01*
X6225Y5189D01*
X6226Y5189D01*
X6226Y5188D01*
X6227Y5188D01*
X6227D01*
X6227Y5188D01*
X6227Y5188D01*
X6227Y5188D01*
X6228Y5187D01*
X6228Y5187D01*
X6229Y5187D01*
X6230Y5187D01*
X6230Y5187D01*
X6231Y5187D01*
X6232D01*
X6232Y5187D01*
X6232D01*
X6232Y5187D01*
X6233Y5187D01*
X6234Y5187D01*
X6234Y5187D01*
X6235Y5188D01*
X6236Y5188D01*
X6236Y5188D01*
X6236Y5188D01*
X6236Y5189D01*
X6237Y5189D01*
X6237Y5189D01*
X6237Y5190D01*
X6238Y5191D01*
X6238Y5192D01*
X6239Y5193D01*
X6242Y5192D01*
Y5192D01*
X6242Y5192D01*
X6242Y5192D01*
X6242Y5191D01*
X6242Y5191D01*
X6241Y5191D01*
X6241Y5190D01*
X6241Y5190D01*
X6241Y5189D01*
X6240Y5188D01*
X6239Y5187D01*
X6239Y5186D01*
X6238Y5186D01*
X6238Y5186D01*
X6238Y5186D01*
X6238Y5186D01*
X6238Y5186D01*
X6237Y5185D01*
X6237Y5185D01*
X6237Y5185D01*
X6236Y5185D01*
X6236Y5185D01*
X6235Y5184D01*
X6235Y5184D01*
X6234Y5184D01*
X6233Y5184D01*
X6232Y5184D01*
X6232Y5184D01*
X6231D01*
X6231Y5184D01*
X6230D01*
X6230Y5184D01*
X6230Y5184D01*
X6229Y5184D01*
X6228Y5184D01*
X6227Y5184D01*
X6226Y5185D01*
X6225Y5185D01*
X6225Y5185D01*
X6225Y5185D01*
X6225Y5185D01*
X6225Y5186D01*
X6224Y5186D01*
X6224Y5186D01*
X6223Y5187D01*
X6223Y5187D01*
X6222Y5188D01*
X6222Y5189D01*
X6221Y5190D01*
Y5190D01*
X6221Y5190D01*
X6221Y5191D01*
X6221Y5191D01*
X6221Y5191D01*
X6221Y5191D01*
X6220Y5192D01*
X6220Y5192D01*
X6220Y5193D01*
X6220Y5193D01*
X6220Y5194D01*
X6220Y5196D01*
X6220Y5197D01*
Y5197D01*
Y5197D01*
Y5197D01*
X6220Y5198D01*
Y5198D01*
X6220Y5198D01*
X6220Y5199D01*
X6220Y5199D01*
X6220Y5200D01*
X6220Y5202D01*
X6221Y5203D01*
X6221Y5204D01*
Y5204D01*
X6221Y5204D01*
X6221Y5204D01*
X6221Y5204D01*
X6222Y5205D01*
X6222Y5205D01*
X6222Y5206D01*
X6223Y5206D01*
X6224Y5207D01*
X6224Y5208D01*
X6225Y5208D01*
X6225D01*
X6226Y5208D01*
X6226Y5208D01*
X6226Y5209D01*
X6226Y5209D01*
X6226Y5209D01*
X6227Y5209D01*
X6227Y5209D01*
X6228Y5209D01*
X6228Y5209D01*
X6229Y5210D01*
X6230Y5210D01*
X6232Y5210D01*
X6232D01*
X6232Y5210D01*
D02*
G37*
G36*
X3394Y3967D02*
X3394Y3967D01*
X3395Y3967D01*
X3395Y3967D01*
X3395Y3966D01*
X3396Y3966D01*
X3396Y3966D01*
X3397Y3966D01*
X3398Y3965D01*
X3399Y3964D01*
X3400Y3964D01*
X3400Y3963D01*
X3400Y3963D01*
X3400Y3963D01*
X3400Y3963D01*
X3400Y3963D01*
X3401Y3962D01*
X3401Y3962D01*
X3401Y3962D01*
X3401Y3961D01*
X3401Y3961D01*
X3402Y3960D01*
X3402Y3960D01*
X3402Y3959D01*
X3402Y3958D01*
X3402Y3957D01*
X3402Y3957D01*
Y3956D01*
Y3956D01*
Y3956D01*
X3402Y3956D01*
Y3955D01*
X3402Y3955D01*
X3402Y3955D01*
X3402Y3954D01*
X3402Y3953D01*
X3402Y3952D01*
X3401Y3951D01*
X3401Y3950D01*
X3401Y3950D01*
X3401Y3950D01*
X3401Y3950D01*
X3400Y3950D01*
X3400Y3949D01*
X3400Y3949D01*
X3399Y3948D01*
X3399Y3948D01*
X3398Y3947D01*
X3397Y3947D01*
X3396Y3946D01*
X3396D01*
X3396Y3946D01*
X3395Y3946D01*
X3395Y3946D01*
X3395Y3946D01*
X3395Y3946D01*
X3394Y3945D01*
X3394Y3945D01*
X3393Y3945D01*
X3393Y3945D01*
X3392Y3945D01*
X3390Y3945D01*
X3389Y3945D01*
X3389D01*
X3388Y3945D01*
X3388D01*
X3388Y3945D01*
X3387Y3945D01*
X3387Y3945D01*
X3386Y3945D01*
X3384Y3945D01*
X3383Y3946D01*
X3382Y3946D01*
X3382D01*
X3382Y3946D01*
X3382Y3946D01*
X3382Y3946D01*
X3381Y3947D01*
X3381Y3947D01*
X3380Y3947D01*
X3380Y3948D01*
X3379Y3949D01*
X3378Y3949D01*
X3378Y3950D01*
Y3950D01*
X3378Y3951D01*
X3378Y3951D01*
X3377Y3951D01*
X3377Y3951D01*
X3377Y3951D01*
X3377Y3952D01*
X3377Y3952D01*
X3377Y3953D01*
X3377Y3953D01*
X3376Y3954D01*
X3376Y3955D01*
X3376Y3957D01*
Y3957D01*
Y3957D01*
Y3957D01*
X3376Y3957D01*
X3376Y3958D01*
X3376Y3958D01*
X3376Y3958D01*
X3376Y3959D01*
X3377Y3960D01*
X3377Y3961D01*
X3377Y3961D01*
X3377Y3962D01*
X3378Y3962D01*
X3378Y3963D01*
X3378Y3963D01*
X3378Y3963D01*
X3378Y3963D01*
X3378Y3963D01*
X3379Y3964D01*
X3379Y3964D01*
X3379Y3964D01*
X3380Y3964D01*
X3380Y3965D01*
X3380Y3965D01*
X3381Y3965D01*
X3381Y3966D01*
X3382Y3966D01*
X3382Y3966D01*
X3384Y3967D01*
X3384Y3963D01*
X3384D01*
X3384Y3963D01*
X3384Y3963D01*
X3384Y3963D01*
X3384Y3963D01*
X3383Y3963D01*
X3383Y3963D01*
X3382Y3962D01*
X3381Y3962D01*
X3381Y3961D01*
X3380Y3961D01*
X3380Y3961D01*
X3380Y3960D01*
X3380Y3960D01*
X3380Y3960D01*
X3379Y3959D01*
X3379Y3958D01*
X3379Y3957D01*
X3379Y3956D01*
Y3956D01*
Y3956D01*
Y3956D01*
X3379Y3956D01*
Y3956D01*
X3379Y3955D01*
X3379Y3955D01*
X3379Y3954D01*
X3380Y3953D01*
X3380Y3952D01*
X3380Y3952D01*
Y3952D01*
X3380Y3952D01*
X3381Y3951D01*
X3381Y3951D01*
X3381Y3951D01*
X3382Y3950D01*
X3383Y3950D01*
X3383Y3949D01*
X3384Y3949D01*
X3384D01*
X3384Y3949D01*
X3384Y3949D01*
X3385Y3949D01*
X3385Y3949D01*
X3385Y3949D01*
X3386Y3949D01*
X3386Y3948D01*
X3387Y3948D01*
X3388Y3948D01*
X3389Y3948D01*
X3390D01*
X3390Y3948D01*
X3390D01*
X3391Y3948D01*
X3391Y3948D01*
X3392Y3948D01*
X3393Y3949D01*
X3394Y3949D01*
X3395Y3949D01*
X3395D01*
X3395Y3949D01*
X3395Y3949D01*
X3395Y3949D01*
X3395Y3949D01*
X3396Y3950D01*
X3397Y3950D01*
X3397Y3951D01*
X3398Y3951D01*
X3398Y3952D01*
Y3952D01*
X3398Y3952D01*
X3398Y3952D01*
X3398Y3952D01*
X3399Y3953D01*
X3399Y3953D01*
X3399Y3954D01*
X3399Y3955D01*
X3399Y3955D01*
X3399Y3956D01*
Y3956D01*
Y3956D01*
Y3957D01*
X3399Y3957D01*
Y3957D01*
X3399Y3957D01*
X3399Y3958D01*
X3399Y3959D01*
X3399Y3959D01*
X3398Y3960D01*
X3398Y3961D01*
X3398Y3961D01*
X3398Y3961D01*
X3397Y3961D01*
X3397Y3962D01*
X3397Y3962D01*
X3396Y3962D01*
X3395Y3963D01*
X3394Y3963D01*
X3393Y3964D01*
X3394Y3967D01*
X3394D01*
X3394Y3967D01*
D02*
G37*
G36*
X2391Y4472D02*
X2391Y4472D01*
X2392Y4472D01*
X2392Y4472D01*
X2392Y4472D01*
X2393Y4472D01*
X2393Y4471D01*
X2393Y4471D01*
X2394Y4471D01*
X2394Y4471D01*
X2394Y4471D01*
X2395Y4470D01*
X2395Y4470D01*
X2395Y4470D01*
X2395Y4470D01*
X2395Y4470D01*
X2395Y4470D01*
X2395Y4470D01*
X2395Y4469D01*
X2395Y4469D01*
X2396Y4469D01*
X2396Y4469D01*
X2396Y4468D01*
X2396Y4468D01*
X2396Y4467D01*
X2396Y4467D01*
X2396Y4467D01*
X2396Y4466D01*
Y4466D01*
Y4466D01*
Y4466D01*
X2396Y4466D01*
X2396Y4465D01*
X2396Y4465D01*
X2396Y4465D01*
X2396Y4465D01*
X2396Y4464D01*
X2396Y4463D01*
X2396Y4463D01*
X2395Y4463D01*
X2395Y4463D01*
X2395Y4462D01*
X2395Y4462D01*
X2395Y4462D01*
X2395Y4462D01*
X2395Y4462D01*
X2394Y4462D01*
X2394Y4462D01*
X2394Y4462D01*
X2394Y4461D01*
X2393Y4461D01*
X2393Y4461D01*
X2392Y4461D01*
X2392Y4461D01*
X2391Y4460D01*
X2391Y4463D01*
X2391D01*
X2391Y4463D01*
X2391D01*
X2391Y4463D01*
X2392Y4463D01*
X2392Y4463D01*
X2392Y4463D01*
X2393Y4463D01*
X2393Y4464D01*
X2394Y4464D01*
X2394Y4464D01*
X2394Y4464D01*
X2394Y4464D01*
X2394Y4465D01*
X2394Y4465D01*
X2394Y4465D01*
X2394Y4466D01*
X2394Y4466D01*
Y4466D01*
Y4466D01*
Y4466D01*
X2394Y4466D01*
X2394Y4467D01*
X2394Y4467D01*
X2394Y4467D01*
X2394Y4468D01*
X2394Y4468D01*
X2393Y4469D01*
X2393Y4469D01*
X2393Y4469D01*
X2393Y4469D01*
X2393Y4469D01*
X2392Y4469D01*
X2392Y4470D01*
X2391Y4470D01*
X2391Y4470D01*
X2391D01*
X2391Y4470D01*
X2390Y4470D01*
X2390Y4470D01*
X2390Y4469D01*
X2389Y4469D01*
X2389Y4469D01*
X2388Y4469D01*
X2388Y4469D01*
X2388Y4469D01*
X2388Y4468D01*
X2388Y4468D01*
X2388Y4468D01*
X2387Y4467D01*
X2387Y4467D01*
X2387Y4466D01*
Y4466D01*
Y4466D01*
Y4466D01*
X2387Y4466D01*
X2387Y4466D01*
X2387Y4465D01*
X2387Y4465D01*
X2388Y4465D01*
X2386Y4465D01*
Y4465D01*
Y4465D01*
X2386Y4465D01*
Y4465D01*
Y4465D01*
Y4465D01*
Y4465D01*
Y4466D01*
X2386Y4466D01*
X2386Y4466D01*
X2386Y4467D01*
X2385Y4467D01*
X2385Y4467D01*
X2385Y4468D01*
X2385Y4468D01*
X2385Y4468D01*
X2385Y4468D01*
X2384Y4468D01*
X2384Y4469D01*
X2384Y4469D01*
X2383Y4469D01*
X2383Y4469D01*
X2383D01*
X2382Y4469D01*
X2382Y4469D01*
X2382Y4469D01*
X2381Y4469D01*
X2381Y4468D01*
X2381Y4468D01*
X2381Y4468D01*
X2381Y4468D01*
X2381Y4468D01*
X2380Y4468D01*
X2380Y4467D01*
X2380Y4467D01*
X2380Y4467D01*
X2380Y4466D01*
Y4466D01*
Y4466D01*
Y4466D01*
X2380Y4466D01*
X2380Y4465D01*
X2380Y4465D01*
X2380Y4465D01*
X2381Y4464D01*
X2381Y4464D01*
X2381Y4464D01*
X2381Y4464D01*
X2381Y4464D01*
X2381Y4464D01*
X2382Y4463D01*
X2382Y4463D01*
X2383Y4463D01*
X2383Y4463D01*
X2383Y4461D01*
X2383D01*
X2383Y4461D01*
X2383Y4461D01*
X2382Y4461D01*
X2382Y4461D01*
X2382Y4461D01*
X2382Y4461D01*
X2381Y4461D01*
X2380Y4462D01*
X2380Y4462D01*
X2379Y4462D01*
X2379Y4463D01*
X2379Y4463D01*
X2379Y4463D01*
X2379Y4463D01*
X2379Y4463D01*
X2379Y4463D01*
X2379Y4463D01*
X2379Y4464D01*
X2378Y4465D01*
X2378Y4465D01*
X2378Y4466D01*
Y4466D01*
Y4466D01*
Y4466D01*
Y4466D01*
Y4466D01*
X2378Y4467D01*
X2378Y4467D01*
X2378Y4467D01*
X2378Y4468D01*
X2379Y4468D01*
X2379Y4469D01*
Y4469D01*
X2379Y4469D01*
X2379Y4469D01*
X2379Y4469D01*
X2379Y4469D01*
X2380Y4470D01*
X2380Y4470D01*
X2380Y4470D01*
X2381Y4471D01*
X2381Y4471D01*
X2381Y4471D01*
X2381Y4471D01*
X2381Y4471D01*
X2382Y4471D01*
X2382Y4471D01*
X2382Y4471D01*
X2383Y4471D01*
X2383D01*
X2383Y4471D01*
X2383Y4471D01*
X2384Y4471D01*
X2384Y4471D01*
X2385Y4471D01*
X2385Y4471D01*
X2385Y4471D01*
X2385Y4470D01*
X2385Y4470D01*
X2385Y4470D01*
X2386Y4470D01*
X2386Y4470D01*
X2386Y4469D01*
X2386Y4469D01*
Y4469D01*
X2386Y4469D01*
Y4469D01*
X2386Y4469D01*
X2387Y4469D01*
X2387Y4470D01*
X2387Y4470D01*
X2387Y4470D01*
X2387Y4471D01*
X2388Y4471D01*
X2388Y4471D01*
X2388Y4471D01*
X2388Y4471D01*
X2389Y4472D01*
X2389Y4472D01*
X2390Y4472D01*
X2390Y4472D01*
X2391Y4472D01*
X2391D01*
X2391Y4472D01*
D02*
G37*
G36*
X6253Y5209D02*
X6254Y5209D01*
X6255Y5209D01*
X6255Y5209D01*
X6256Y5209D01*
X6256Y5209D01*
X6257D01*
X6257Y5209D01*
X6257Y5208D01*
X6257Y5208D01*
X6257Y5208D01*
X6258Y5208D01*
X6258Y5207D01*
X6259Y5207D01*
X6259Y5206D01*
X6259Y5206D01*
X6259Y5206D01*
X6259Y5206D01*
X6260Y5205D01*
X6260Y5205D01*
X6260Y5204D01*
X6260Y5204D01*
X6260Y5203D01*
Y5203D01*
Y5203D01*
X6260Y5202D01*
X6260Y5202D01*
X6260Y5202D01*
X6260Y5201D01*
X6260Y5201D01*
X6259Y5200D01*
X6259Y5200D01*
X6259Y5200D01*
X6259Y5200D01*
X6259Y5199D01*
X6258Y5199D01*
X6258Y5199D01*
X6257Y5198D01*
X6257Y5198D01*
X6257D01*
X6257Y5198D01*
X6257D01*
X6257Y5198D01*
X6257Y5198D01*
X6258Y5197D01*
X6258Y5197D01*
X6259Y5197D01*
X6260Y5196D01*
X6260Y5196D01*
X6260Y5196D01*
X6260Y5195D01*
X6260Y5195D01*
X6261Y5195D01*
X6261Y5194D01*
X6261Y5193D01*
X6261Y5193D01*
X6261Y5192D01*
Y5192D01*
Y5191D01*
Y5191D01*
X6261Y5191D01*
X6261Y5191D01*
X6261Y5190D01*
X6261Y5190D01*
X6261Y5190D01*
X6261Y5189D01*
X6261Y5188D01*
X6260Y5188D01*
X6260Y5187D01*
X6260Y5187D01*
X6259Y5186D01*
X6259Y5186D01*
X6259Y5186D01*
X6259Y5186D01*
X6259Y5186D01*
X6258Y5186D01*
X6258Y5185D01*
X6258Y5185D01*
X6258Y5185D01*
X6257Y5185D01*
X6257Y5185D01*
X6256Y5184D01*
X6256Y5184D01*
X6255Y5184D01*
X6255Y5184D01*
X6254Y5184D01*
X6253Y5184D01*
X6253Y5184D01*
X6253D01*
X6252Y5184D01*
X6252Y5184D01*
X6252Y5184D01*
X6251Y5184D01*
X6251Y5184D01*
X6250Y5184D01*
X6249Y5185D01*
X6249Y5185D01*
X6248Y5185D01*
X6248Y5185D01*
X6247Y5186D01*
X6247Y5186D01*
X6247Y5186D01*
X6247Y5186D01*
X6247Y5186D01*
X6247Y5186D01*
X6247Y5187D01*
X6246Y5187D01*
X6246Y5187D01*
X6246Y5188D01*
X6245Y5189D01*
X6245Y5190D01*
X6245Y5190D01*
X6245Y5191D01*
X6248Y5191D01*
Y5191D01*
X6248Y5191D01*
Y5191D01*
X6248Y5191D01*
X6248Y5190D01*
X6248Y5190D01*
X6249Y5189D01*
X6249Y5189D01*
X6249Y5188D01*
X6250Y5187D01*
X6250Y5187D01*
X6250Y5187D01*
X6250Y5187D01*
X6251Y5187D01*
X6251Y5187D01*
X6252Y5187D01*
X6252Y5186D01*
X6253Y5186D01*
X6253D01*
X6253Y5186D01*
X6254Y5186D01*
X6254Y5187D01*
X6255Y5187D01*
X6255Y5187D01*
X6256Y5187D01*
X6257Y5188D01*
X6257Y5188D01*
X6257Y5188D01*
X6257Y5188D01*
X6257Y5189D01*
X6258Y5189D01*
X6258Y5190D01*
X6258Y5191D01*
X6258Y5192D01*
Y5192D01*
Y5192D01*
Y5192D01*
X6258Y5192D01*
X6258Y5192D01*
X6258Y5193D01*
X6258Y5193D01*
X6257Y5194D01*
X6257Y5195D01*
X6257Y5195D01*
X6257Y5195D01*
X6256Y5195D01*
X6256Y5196D01*
X6256Y5196D01*
X6255Y5196D01*
X6255Y5196D01*
X6254Y5196D01*
X6253Y5196D01*
X6253D01*
X6252Y5196D01*
X6252Y5196D01*
X6252Y5196D01*
X6251Y5196D01*
X6251Y5196D01*
X6251Y5199D01*
X6251D01*
X6252Y5199D01*
X6252D01*
X6252Y5199D01*
X6253Y5199D01*
X6253Y5199D01*
X6254Y5199D01*
X6255Y5200D01*
X6255Y5200D01*
X6255Y5200D01*
X6256Y5200D01*
X6256Y5200D01*
X6256Y5201D01*
X6256Y5201D01*
X6257Y5202D01*
X6257Y5202D01*
X6257Y5203D01*
Y5203D01*
Y5203D01*
Y5203D01*
X6257Y5204D01*
X6257Y5204D01*
X6257Y5204D01*
X6256Y5205D01*
X6256Y5205D01*
X6256Y5206D01*
X6256Y5206D01*
X6256Y5206D01*
X6255Y5206D01*
X6255Y5206D01*
X6255Y5207D01*
X6254Y5207D01*
X6253Y5207D01*
X6253Y5207D01*
X6252D01*
X6252Y5207D01*
X6252Y5207D01*
X6251Y5207D01*
X6251Y5206D01*
X6250Y5206D01*
X6250Y5206D01*
X6250Y5206D01*
X6250Y5206D01*
X6249Y5205D01*
X6249Y5205D01*
X6249Y5205D01*
X6249Y5204D01*
X6248Y5203D01*
X6248Y5202D01*
X6245Y5203D01*
Y5203D01*
X6245Y5203D01*
X6245Y5203D01*
X6245Y5204D01*
X6245Y5204D01*
X6245Y5204D01*
X6246Y5205D01*
X6246Y5206D01*
X6246Y5206D01*
X6247Y5207D01*
X6248Y5208D01*
X6248Y5208D01*
X6248Y5208D01*
X6248Y5208D01*
X6248Y5208D01*
X6248Y5208D01*
X6248Y5208D01*
X6249Y5209D01*
X6250Y5209D01*
X6251Y5209D01*
X6252Y5209D01*
X6252Y5210D01*
X6253D01*
X6253Y5209D01*
D02*
G37*
G36*
X3402Y3978D02*
X3382D01*
X3382Y3978D01*
X3382Y3978D01*
X3382Y3978D01*
X3383Y3978D01*
X3383Y3977D01*
X3383Y3977D01*
X3384Y3976D01*
X3384Y3975D01*
Y3975D01*
X3384Y3975D01*
X3384Y3975D01*
X3385Y3975D01*
X3385Y3974D01*
X3385Y3974D01*
X3385Y3973D01*
X3386Y3973D01*
X3386Y3972D01*
X3383D01*
Y3972D01*
X3383Y3972D01*
X3383Y3972D01*
X3383Y3973D01*
X3382Y3973D01*
X3382Y3973D01*
X3382Y3974D01*
X3382Y3974D01*
X3381Y3975D01*
X3380Y3976D01*
X3380Y3977D01*
X3380Y3977D01*
X3380Y3977D01*
X3380Y3977D01*
X3379Y3977D01*
X3379Y3978D01*
X3378Y3978D01*
X3378Y3979D01*
X3377Y3979D01*
X3376Y3979D01*
Y3981D01*
X3402D01*
Y3978D01*
D02*
G37*
G36*
X3325Y4258D02*
X3325D01*
X3326Y4258D01*
X3327Y4258D01*
X3328Y4258D01*
X3330Y4258D01*
X3331Y4258D01*
X3332Y4257D01*
X3332D01*
X3333Y4257D01*
X3333Y4257D01*
X3333Y4257D01*
X3333Y4257D01*
X3334Y4256D01*
X3335Y4256D01*
X3336Y4255D01*
X3337Y4254D01*
X3338Y4253D01*
Y4252D01*
X3338Y4252D01*
X3338Y4252D01*
X3338Y4252D01*
X3338Y4252D01*
X3338Y4251D01*
X3339Y4251D01*
X3339Y4250D01*
X3339Y4250D01*
X3339Y4249D01*
X3339Y4248D01*
X3340Y4247D01*
X3340Y4246D01*
X3340Y4244D01*
Y4244D01*
Y4244D01*
Y4243D01*
X3340Y4243D01*
Y4242D01*
X3340Y4242D01*
X3340Y4241D01*
X3340Y4241D01*
X3339Y4239D01*
X3339Y4238D01*
X3339Y4236D01*
X3338Y4235D01*
Y4235D01*
X3338Y4235D01*
X3338Y4235D01*
X3338Y4235D01*
X3337Y4234D01*
X3337Y4233D01*
X3336Y4232D01*
X3335Y4232D01*
X3334Y4231D01*
X3333Y4230D01*
X3333D01*
X3333Y4230D01*
X3332Y4230D01*
X3332Y4230D01*
X3332Y4230D01*
X3331Y4230D01*
X3331Y4230D01*
X3330Y4230D01*
X3330Y4229D01*
X3329Y4229D01*
X3328Y4229D01*
X3327Y4229D01*
X3326Y4229D01*
X3325Y4229D01*
X3324Y4229D01*
X3301D01*
Y4234D01*
X3325D01*
X3325Y4234D01*
X3326Y4234D01*
X3327Y4234D01*
X3328Y4234D01*
X3330Y4234D01*
X3330Y4235D01*
X3331Y4235D01*
X3331Y4235D01*
X3331Y4235D01*
X3331Y4235D01*
X3332Y4235D01*
X3332Y4236D01*
X3333Y4236D01*
X3334Y4237D01*
X3334Y4238D01*
X3334Y4238D01*
X3334Y4238D01*
X3335Y4239D01*
X3335Y4239D01*
X3335Y4240D01*
X3335Y4241D01*
X3335Y4242D01*
X3335Y4243D01*
Y4243D01*
Y4244D01*
Y4244D01*
X3335Y4244D01*
Y4245D01*
X3335Y4245D01*
X3335Y4246D01*
X3335Y4248D01*
X3334Y4249D01*
X3334Y4250D01*
X3333Y4251D01*
X3333Y4251D01*
X3333D01*
X3333Y4251D01*
X3333Y4251D01*
X3332Y4252D01*
X3332Y4252D01*
X3332Y4252D01*
X3331Y4252D01*
X3331Y4252D01*
X3330Y4253D01*
X3329Y4253D01*
X3329Y4253D01*
X3328Y4253D01*
X3327Y4253D01*
X3326Y4253D01*
X3325Y4254D01*
X3301D01*
Y4259D01*
X3324D01*
X3325Y4258D01*
D02*
G37*
G36*
X3329Y4290D02*
X3329Y4290D01*
X3330Y4290D01*
X3330Y4289D01*
X3331Y4289D01*
X3332Y4289D01*
X3333Y4289D01*
X3334Y4288D01*
X3334Y4288D01*
X3335Y4287D01*
X3336Y4287D01*
X3336Y4286D01*
X3337Y4286D01*
X3337Y4286D01*
X3337Y4286D01*
X3337Y4285D01*
X3337Y4285D01*
X3338Y4285D01*
X3338Y4284D01*
X3338Y4284D01*
X3339Y4283D01*
X3339Y4282D01*
X3339Y4282D01*
X3339Y4281D01*
X3340Y4280D01*
X3340Y4279D01*
X3340Y4278D01*
X3340Y4277D01*
Y4277D01*
Y4277D01*
Y4277D01*
X3340Y4276D01*
X3340Y4276D01*
X3340Y4275D01*
X3340Y4275D01*
X3340Y4274D01*
X3339Y4273D01*
X3339Y4271D01*
X3338Y4271D01*
X3338Y4270D01*
X3337Y4269D01*
X3337Y4269D01*
X3337Y4269D01*
X3337Y4269D01*
X3337Y4269D01*
X3336Y4268D01*
X3336Y4268D01*
X3336Y4268D01*
X3335Y4267D01*
X3335Y4267D01*
X3334Y4266D01*
X3332Y4266D01*
X3331Y4265D01*
X3330Y4265D01*
X3329Y4265D01*
X3329Y4270D01*
X3329D01*
X3329Y4270D01*
X3329D01*
X3329Y4270D01*
X3330Y4270D01*
X3331Y4270D01*
X3332Y4271D01*
X3333Y4271D01*
X3334Y4272D01*
X3334Y4272D01*
X3334Y4272D01*
X3335Y4273D01*
X3335Y4273D01*
X3335Y4274D01*
X3335Y4274D01*
X3336Y4275D01*
X3336Y4276D01*
X3336Y4277D01*
Y4277D01*
Y4277D01*
Y4277D01*
X3336Y4278D01*
X3336Y4278D01*
X3336Y4279D01*
X3335Y4280D01*
X3335Y4281D01*
X3335Y4282D01*
X3334Y4283D01*
X3334Y4283D01*
X3333Y4283D01*
X3333Y4283D01*
X3332Y4284D01*
X3331Y4284D01*
X3330Y4284D01*
X3329Y4285D01*
X3328Y4285D01*
X3328D01*
X3328Y4285D01*
X3327Y4285D01*
X3326Y4285D01*
X3325Y4284D01*
X3325Y4284D01*
X3324Y4283D01*
X3323Y4283D01*
X3323Y4283D01*
X3323Y4282D01*
X3322Y4282D01*
X3322Y4281D01*
X3321Y4280D01*
X3321Y4280D01*
X3321Y4279D01*
X3321Y4277D01*
Y4277D01*
Y4277D01*
Y4277D01*
X3321Y4277D01*
X3321Y4276D01*
X3321Y4275D01*
X3321Y4275D01*
X3321Y4274D01*
X3317Y4275D01*
Y4275D01*
Y4275D01*
X3317Y4275D01*
Y4275D01*
Y4275D01*
Y4276D01*
Y4276D01*
Y4276D01*
X3317Y4276D01*
X3317Y4277D01*
X3317Y4278D01*
X3317Y4279D01*
X3316Y4280D01*
X3316Y4281D01*
X3316Y4281D01*
X3315Y4281D01*
X3315Y4281D01*
X3315Y4282D01*
X3314Y4282D01*
X3313Y4283D01*
X3312Y4283D01*
X3311Y4283D01*
X3311D01*
X3310Y4283D01*
X3309Y4283D01*
X3309Y4283D01*
X3308Y4282D01*
X3307Y4282D01*
X3307Y4281D01*
X3307Y4281D01*
X3306Y4281D01*
X3306Y4281D01*
X3306Y4280D01*
X3306Y4280D01*
X3305Y4279D01*
X3305Y4278D01*
X3305Y4277D01*
Y4277D01*
Y4277D01*
Y4277D01*
X3305Y4276D01*
X3305Y4275D01*
X3305Y4275D01*
X3306Y4274D01*
X3306Y4273D01*
X3307Y4272D01*
X3307Y4272D01*
X3307Y4272D01*
X3307Y4272D01*
X3308Y4272D01*
X3309Y4271D01*
X3310Y4271D01*
X3311Y4270D01*
X3312Y4270D01*
X3311Y4266D01*
X3311D01*
X3311Y4266D01*
X3311Y4266D01*
X3310Y4266D01*
X3310Y4266D01*
X3309Y4266D01*
X3308Y4266D01*
X3307Y4267D01*
X3306Y4267D01*
X3305Y4268D01*
X3304Y4269D01*
X3304Y4269D01*
X3304Y4269D01*
X3304Y4270D01*
X3303Y4270D01*
X3303Y4270D01*
X3303Y4271D01*
X3303Y4271D01*
X3302Y4272D01*
X3302Y4274D01*
X3301Y4275D01*
X3301Y4276D01*
Y4277D01*
Y4277D01*
Y4277D01*
Y4277D01*
Y4277D01*
X3301Y4278D01*
X3301Y4279D01*
X3302Y4280D01*
X3302Y4281D01*
X3302Y4282D01*
X3303Y4283D01*
Y4283D01*
X3303Y4283D01*
X3303Y4283D01*
X3303Y4283D01*
X3304Y4284D01*
X3304Y4285D01*
X3305Y4285D01*
X3305Y4286D01*
X3306Y4287D01*
X3306Y4287D01*
X3307Y4287D01*
X3307Y4287D01*
X3308Y4287D01*
X3308Y4287D01*
X3309Y4288D01*
X3310Y4288D01*
X3311Y4288D01*
X3311D01*
X3312Y4288D01*
X3313Y4288D01*
X3313Y4288D01*
X3314Y4287D01*
X3315Y4287D01*
X3316Y4287D01*
X3316Y4287D01*
X3316Y4286D01*
X3316Y4286D01*
X3317Y4286D01*
X3317Y4285D01*
X3318Y4284D01*
X3318Y4284D01*
X3319Y4283D01*
Y4283D01*
X3319Y4283D01*
Y4283D01*
X3319Y4283D01*
X3319Y4284D01*
X3319Y4285D01*
X3320Y4285D01*
X3320Y4286D01*
X3321Y4287D01*
X3322Y4288D01*
X3322Y4288D01*
X3322Y4288D01*
X3323Y4288D01*
X3324Y4289D01*
X3325Y4289D01*
X3326Y4289D01*
X3327Y4290D01*
X3328Y4290D01*
X3329D01*
X3329Y4290D01*
D02*
G37*
G36*
X3266Y4497D02*
X3266Y4497D01*
X3267Y4497D01*
X3267Y4496D01*
X3267Y4496D01*
X3267D01*
X3267Y4496D01*
X3268Y4496D01*
X3268Y4496D01*
X3268Y4496D01*
X3269Y4496D01*
X3269Y4495D01*
X3270Y4495D01*
X3271Y4494D01*
X3271D01*
X3271Y4494D01*
X3271Y4494D01*
X3271Y4494D01*
X3272Y4493D01*
X3272Y4493D01*
X3273Y4492D01*
X3274Y4491D01*
X3274Y4490D01*
X3275Y4490D01*
X3275Y4490D01*
X3275Y4490D01*
X3275Y4490D01*
X3275Y4489D01*
X3276Y4489D01*
X3276Y4488D01*
X3277Y4487D01*
X3278Y4486D01*
X3279Y4486D01*
X3279Y4485D01*
X3279Y4485D01*
X3280Y4485D01*
X3280D01*
X3280Y4485D01*
X3280Y4484D01*
X3280Y4484D01*
X3281Y4484D01*
X3281Y4484D01*
X3282Y4484D01*
X3282Y4483D01*
X3283Y4483D01*
X3284Y4483D01*
X3284D01*
X3284Y4483D01*
X3284Y4483D01*
X3285Y4483D01*
X3285Y4483D01*
X3286Y4484D01*
X3286Y4484D01*
X3287Y4484D01*
X3287Y4485D01*
X3287Y4485D01*
X3287Y4485D01*
X3287Y4485D01*
X3288Y4486D01*
X3288Y4486D01*
X3288Y4487D01*
X3288Y4488D01*
Y4488D01*
Y4488D01*
Y4488D01*
X3288Y4488D01*
X3288Y4489D01*
X3288Y4489D01*
X3288Y4490D01*
X3287Y4490D01*
X3287Y4491D01*
X3287Y4492D01*
X3287Y4492D01*
X3286Y4492D01*
X3286Y4492D01*
X3286Y4492D01*
X3285Y4492D01*
X3284Y4493D01*
X3284Y4493D01*
X3283Y4493D01*
X3283Y4496D01*
X3283D01*
X3284Y4496D01*
X3284Y4496D01*
X3284Y4496D01*
X3284Y4496D01*
X3285Y4496D01*
X3286Y4495D01*
X3287Y4495D01*
X3288Y4494D01*
X3288Y4494D01*
X3289Y4494D01*
X3289Y4494D01*
X3289Y4494D01*
X3289Y4493D01*
X3289Y4493D01*
X3289Y4493D01*
X3289Y4493D01*
X3289Y4492D01*
X3290Y4492D01*
X3290Y4492D01*
X3290Y4491D01*
X3290Y4491D01*
X3290Y4490D01*
X3290Y4489D01*
X3290Y4489D01*
X3291Y4488D01*
Y4488D01*
Y4488D01*
Y4488D01*
X3290Y4487D01*
X3290Y4487D01*
X3290Y4487D01*
X3290Y4486D01*
X3290Y4486D01*
X3290Y4485D01*
X3290Y4484D01*
X3289Y4483D01*
X3289Y4483D01*
X3289Y4483D01*
X3288Y4482D01*
X3288Y4482D01*
X3288Y4482D01*
X3288Y4482D01*
X3288Y4482D01*
X3288Y4482D01*
X3288Y4481D01*
X3287Y4481D01*
X3286Y4481D01*
X3286Y4480D01*
X3285Y4480D01*
X3284Y4480D01*
X3284Y4480D01*
X3283D01*
X3283Y4480D01*
X3283Y4480D01*
X3282Y4480D01*
X3282Y4480D01*
X3281Y4480D01*
X3281Y4481D01*
X3280Y4481D01*
X3280Y4481D01*
X3280Y4481D01*
X3280Y4481D01*
X3279Y4481D01*
X3279Y4482D01*
X3278Y4482D01*
X3277Y4483D01*
X3277Y4483D01*
X3277Y4483D01*
X3277Y4483D01*
X3277Y4484D01*
X3276Y4484D01*
X3276Y4484D01*
X3276Y4484D01*
X3275Y4485D01*
X3275Y4485D01*
X3274Y4486D01*
X3274Y4486D01*
X3274Y4487D01*
X3273Y4487D01*
X3273Y4487D01*
X3273Y4488D01*
X3273Y4488D01*
X3273Y4488D01*
X3272Y4488D01*
X3272Y4489D01*
X3271Y4490D01*
X3271Y4490D01*
X3270Y4491D01*
X3270Y4491D01*
X3270Y4491D01*
X3270Y4491D01*
X3270Y4491D01*
X3269Y4491D01*
X3269Y4491D01*
X3269Y4492D01*
X3268Y4492D01*
Y4480D01*
X3265D01*
Y4497D01*
X3266D01*
X3266Y4497D01*
D02*
G37*
G36*
X3279Y4521D02*
X3279D01*
X3279Y4521D01*
X3280Y4521D01*
X3280Y4521D01*
X3281Y4521D01*
X3283Y4521D01*
X3284Y4520D01*
X3285Y4520D01*
X3285D01*
X3285Y4520D01*
X3285Y4520D01*
X3285Y4520D01*
X3286Y4519D01*
X3286Y4519D01*
X3287Y4519D01*
X3287Y4518D01*
X3288Y4517D01*
X3289Y4517D01*
X3289Y4516D01*
Y4516D01*
X3289Y4515D01*
X3289Y4515D01*
X3290Y4515D01*
X3290Y4515D01*
X3290Y4515D01*
X3290Y4514D01*
X3290Y4514D01*
X3290Y4513D01*
X3290Y4513D01*
X3291Y4512D01*
X3291Y4511D01*
X3291Y4509D01*
Y4509D01*
Y4509D01*
Y4509D01*
X3291Y4509D01*
X3291Y4508D01*
X3291Y4508D01*
X3291Y4508D01*
X3291Y4507D01*
X3290Y4506D01*
X3290Y4505D01*
X3290Y4505D01*
X3290Y4504D01*
X3289Y4504D01*
X3289Y4503D01*
X3289Y4503D01*
X3289Y4503D01*
X3289Y4503D01*
X3289Y4503D01*
X3288Y4502D01*
X3288Y4502D01*
X3288Y4502D01*
X3287Y4502D01*
X3287Y4501D01*
X3287Y4501D01*
X3286Y4501D01*
X3286Y4500D01*
X3285Y4500D01*
X3285Y4500D01*
X3283Y4499D01*
X3283Y4503D01*
X3283D01*
X3283Y4503D01*
X3283Y4503D01*
X3283Y4503D01*
X3283Y4503D01*
X3284Y4503D01*
X3284Y4503D01*
X3285Y4504D01*
X3286Y4504D01*
X3286Y4505D01*
X3287Y4505D01*
X3287Y4505D01*
X3287Y4506D01*
X3287Y4506D01*
X3287Y4506D01*
X3288Y4507D01*
X3288Y4508D01*
X3288Y4509D01*
X3288Y4510D01*
Y4510D01*
Y4510D01*
Y4510D01*
X3288Y4510D01*
Y4510D01*
X3288Y4511D01*
X3288Y4511D01*
X3288Y4512D01*
X3287Y4513D01*
X3287Y4514D01*
X3287Y4514D01*
Y4514D01*
X3287Y4514D01*
X3286Y4515D01*
X3286Y4515D01*
X3286Y4515D01*
X3285Y4516D01*
X3284Y4516D01*
X3284Y4517D01*
X3283Y4517D01*
X3283D01*
X3283Y4517D01*
X3283Y4517D01*
X3282Y4517D01*
X3282Y4517D01*
X3282Y4517D01*
X3281Y4517D01*
X3281Y4518D01*
X3280Y4518D01*
X3279Y4518D01*
X3278Y4518D01*
X3277D01*
X3277Y4518D01*
X3277D01*
X3276Y4518D01*
X3276Y4518D01*
X3275Y4518D01*
X3274Y4517D01*
X3273Y4517D01*
X3272Y4517D01*
X3272D01*
X3272Y4517D01*
X3272Y4517D01*
X3272Y4517D01*
X3272Y4517D01*
X3271Y4516D01*
X3270Y4516D01*
X3270Y4515D01*
X3269Y4515D01*
X3269Y4514D01*
Y4514D01*
X3269Y4514D01*
X3269Y4514D01*
X3269Y4514D01*
X3268Y4513D01*
X3268Y4513D01*
X3268Y4512D01*
X3268Y4511D01*
X3268Y4511D01*
X3268Y4510D01*
Y4510D01*
Y4510D01*
Y4509D01*
X3268Y4509D01*
Y4509D01*
X3268Y4509D01*
X3268Y4508D01*
X3268Y4507D01*
X3268Y4507D01*
X3269Y4506D01*
X3269Y4505D01*
X3269Y4505D01*
X3269Y4505D01*
X3270Y4505D01*
X3270Y4504D01*
X3270Y4504D01*
X3271Y4504D01*
X3272Y4503D01*
X3273Y4503D01*
X3274Y4502D01*
X3273Y4499D01*
X3273D01*
X3273Y4499D01*
X3273Y4499D01*
X3272Y4499D01*
X3272Y4499D01*
X3272Y4500D01*
X3271Y4500D01*
X3271Y4500D01*
X3270Y4500D01*
X3269Y4501D01*
X3268Y4502D01*
X3267Y4502D01*
X3267Y4503D01*
X3267Y4503D01*
X3267Y4503D01*
X3267Y4503D01*
X3267Y4503D01*
X3266Y4504D01*
X3266Y4504D01*
X3266Y4504D01*
X3266Y4505D01*
X3266Y4505D01*
X3265Y4506D01*
X3265Y4506D01*
X3265Y4507D01*
X3265Y4508D01*
X3265Y4509D01*
X3265Y4509D01*
Y4510D01*
Y4510D01*
Y4510D01*
X3265Y4510D01*
Y4511D01*
X3265Y4511D01*
X3265Y4511D01*
X3265Y4512D01*
X3265Y4513D01*
X3265Y4514D01*
X3266Y4515D01*
X3266Y4516D01*
X3266Y4516D01*
X3266Y4516D01*
X3266Y4516D01*
X3267Y4516D01*
X3267Y4517D01*
X3267Y4517D01*
X3268Y4518D01*
X3268Y4518D01*
X3269Y4519D01*
X3270Y4519D01*
X3271Y4520D01*
X3271D01*
X3271Y4520D01*
X3272Y4520D01*
X3272Y4520D01*
X3272Y4520D01*
X3272Y4520D01*
X3273Y4521D01*
X3273Y4521D01*
X3274Y4521D01*
X3274Y4521D01*
X3275Y4521D01*
X3277Y4521D01*
X3278Y4521D01*
X3278D01*
X3279Y4521D01*
D02*
G37*
G36*
X6304Y5357D02*
X6302D01*
X6295Y5375D01*
X6298D01*
X6302Y5362D01*
Y5362D01*
X6302Y5362D01*
X6302Y5362D01*
X6302Y5362D01*
X6302Y5361D01*
X6303Y5361D01*
X6303Y5360D01*
X6303Y5360D01*
X6303Y5359D01*
Y5359D01*
X6303Y5359D01*
X6303Y5359D01*
X6303Y5359D01*
X6303Y5360D01*
X6303Y5360D01*
X6304Y5360D01*
X6304Y5361D01*
X6304Y5361D01*
X6304Y5362D01*
X6309Y5375D01*
X6311D01*
X6304Y5357D01*
D02*
G37*
G36*
X6327Y5040D02*
X6328Y5040D01*
X6328Y5040D01*
X6329Y5040D01*
X6329Y5039D01*
X6329D01*
X6329Y5039D01*
X6329D01*
X6329Y5039D01*
X6330Y5039D01*
X6330Y5039D01*
X6330Y5039D01*
X6331Y5039D01*
X6331Y5039D01*
X6332Y5038D01*
X6332D01*
X6332Y5038D01*
X6332Y5038D01*
X6332Y5038D01*
X6332Y5037D01*
X6333Y5037D01*
X6333Y5036D01*
X6333Y5036D01*
X6334Y5035D01*
Y5035D01*
X6334Y5035D01*
X6334Y5035D01*
X6334Y5035D01*
X6334Y5035D01*
X6334Y5034D01*
X6334Y5034D01*
X6334Y5034D01*
X6334Y5034D01*
X6334Y5033D01*
X6334Y5033D01*
X6334Y5032D01*
X6334Y5031D01*
Y5031D01*
Y5031D01*
Y5031D01*
Y5031D01*
X6334Y5030D01*
Y5030D01*
X6334Y5030D01*
X6334Y5029D01*
X6334Y5029D01*
X6334Y5028D01*
X6334Y5027D01*
Y5027D01*
X6334Y5027D01*
X6334Y5027D01*
X6334Y5027D01*
X6334Y5027D01*
X6334Y5026D01*
X6334Y5026D01*
X6333Y5026D01*
X6333Y5025D01*
X6333Y5025D01*
X6333Y5025D01*
X6333Y5025D01*
X6333Y5024D01*
X6332Y5024D01*
X6332Y5024D01*
X6332Y5024D01*
X6331Y5023D01*
X6331Y5023D01*
X6331Y5023D01*
X6331Y5023D01*
X6331Y5023D01*
X6331Y5023D01*
X6330Y5023D01*
X6330Y5023D01*
X6330Y5022D01*
X6329Y5022D01*
X6329D01*
X6329Y5022D01*
X6329Y5022D01*
X6328Y5022D01*
X6328Y5022D01*
X6327Y5022D01*
X6327Y5022D01*
X6326Y5022D01*
X6320D01*
Y5040D01*
X6327D01*
X6327Y5040D01*
D02*
G37*
G36*
X3308Y4892D02*
X3308D01*
X3308Y4892D01*
X3309Y4892D01*
X3309Y4892D01*
X3310Y4892D01*
X3311Y4891D01*
X3311D01*
X3311Y4891D01*
X3311Y4891D01*
X3311Y4891D01*
X3311Y4891D01*
X3311Y4891D01*
X3312Y4891D01*
X3312Y4890D01*
X3313Y4890D01*
X3313Y4890D01*
X3313Y4889D01*
X3313Y4889D01*
X3313Y4889D01*
X3313Y4889D01*
X3313Y4888D01*
X3314Y4888D01*
X3314Y4887D01*
X3314Y4887D01*
X3312Y4887D01*
Y4887D01*
Y4887D01*
X3312Y4887D01*
X3312Y4887D01*
X3311Y4887D01*
X3311Y4888D01*
X3311Y4888D01*
X3311Y4888D01*
X3311Y4889D01*
X3310Y4889D01*
X3310Y4889D01*
X3310Y4889D01*
X3310Y4889D01*
X3310Y4890D01*
X3309Y4890D01*
X3309Y4890D01*
X3308Y4890D01*
X3307Y4890D01*
X3307D01*
X3307Y4890D01*
X3307D01*
X3306Y4890D01*
X3306Y4890D01*
X3305Y4890D01*
X3305Y4889D01*
X3304Y4889D01*
X3304Y4889D01*
X3304Y4889D01*
X3304Y4889D01*
X3304Y4889D01*
X3304Y4889D01*
X3304Y4888D01*
X3303Y4888D01*
X3303Y4888D01*
X3303Y4887D01*
Y4887D01*
Y4887D01*
X3303Y4887D01*
X3303Y4887D01*
X3303Y4886D01*
X3304Y4886D01*
X3304Y4886D01*
X3304Y4886D01*
X3304Y4886D01*
X3304Y4886D01*
X3304Y4886D01*
X3304Y4885D01*
X3304Y4885D01*
X3305Y4885D01*
X3305Y4885D01*
X3305Y4885D01*
X3305Y4885D01*
X3306Y4885D01*
X3306Y4885D01*
X3306Y4885D01*
X3307Y4885D01*
X3307Y4884D01*
X3307D01*
X3308Y4884D01*
X3308Y4884D01*
X3308Y4884D01*
X3308Y4884D01*
X3308Y4884D01*
X3309Y4884D01*
X3310Y4884D01*
X3310Y4884D01*
X3311Y4884D01*
X3311Y4884D01*
X3311Y4883D01*
X3311Y4883D01*
X3311D01*
X3311Y4883D01*
X3311Y4883D01*
X3312Y4883D01*
X3312Y4883D01*
X3312Y4883D01*
X3313Y4883D01*
X3313Y4882D01*
X3313Y4882D01*
X3314Y4882D01*
X3314Y4881D01*
X3314Y4881D01*
X3314Y4881D01*
X3314Y4881D01*
X3314Y4880D01*
X3314Y4880D01*
X3314Y4880D01*
X3314Y4879D01*
Y4879D01*
Y4879D01*
Y4879D01*
Y4879D01*
X3314Y4879D01*
X3314Y4878D01*
X3314Y4878D01*
X3314Y4877D01*
X3314Y4877D01*
X3314Y4876D01*
X3314Y4876D01*
X3313Y4876D01*
X3313Y4876D01*
X3313Y4876D01*
X3313Y4875D01*
X3312Y4875D01*
X3312Y4875D01*
X3311Y4874D01*
X3311D01*
X3311Y4874D01*
X3311Y4874D01*
X3311Y4874D01*
X3311Y4874D01*
X3311Y4874D01*
X3310Y4874D01*
X3310Y4874D01*
X3309Y4874D01*
X3309Y4874D01*
X3308Y4874D01*
X3307D01*
X3307Y4874D01*
X3307D01*
X3307Y4874D01*
X3306Y4874D01*
X3306Y4874D01*
X3305Y4874D01*
X3304Y4874D01*
X3304Y4874D01*
X3304D01*
X3304Y4874D01*
X3304Y4875D01*
X3304Y4875D01*
X3303Y4875D01*
X3303Y4875D01*
X3302Y4875D01*
X3302Y4876D01*
X3302Y4876D01*
X3301Y4877D01*
Y4877D01*
X3301Y4877D01*
X3301Y4877D01*
X3301Y4877D01*
X3301Y4877D01*
X3301Y4877D01*
X3301Y4877D01*
X3301Y4878D01*
X3300Y4878D01*
X3300Y4879D01*
X3300Y4880D01*
X3303Y4880D01*
Y4880D01*
Y4880D01*
X3303Y4880D01*
X3303Y4879D01*
X3303Y4879D01*
X3303Y4879D01*
X3303Y4878D01*
X3303Y4878D01*
X3303Y4878D01*
X3303Y4878D01*
X3303Y4878D01*
X3303Y4877D01*
X3304Y4877D01*
X3304Y4877D01*
X3304Y4877D01*
X3305Y4877D01*
X3305Y4876D01*
X3305D01*
X3305Y4876D01*
X3305Y4876D01*
X3305Y4876D01*
X3306Y4876D01*
X3306Y4876D01*
X3307Y4876D01*
X3307Y4876D01*
X3308Y4876D01*
X3308D01*
X3308Y4876D01*
X3308Y4876D01*
X3309Y4876D01*
X3309Y4876D01*
X3310Y4876D01*
X3310Y4876D01*
X3310Y4876D01*
X3310Y4876D01*
X3310Y4876D01*
X3311Y4877D01*
X3311Y4877D01*
X3311Y4877D01*
X3311Y4877D01*
X3312Y4877D01*
X3312Y4877D01*
X3312Y4877D01*
X3312Y4878D01*
X3312Y4878D01*
X3312Y4878D01*
X3312Y4878D01*
X3312Y4879D01*
X3312Y4879D01*
Y4879D01*
Y4879D01*
X3312Y4879D01*
X3312Y4879D01*
X3312Y4880D01*
X3312Y4880D01*
X3312Y4880D01*
X3312Y4880D01*
X3312Y4880D01*
X3312Y4880D01*
X3311Y4880D01*
X3311Y4881D01*
X3311Y4881D01*
X3311Y4881D01*
X3310Y4881D01*
X3310Y4881D01*
X3310Y4881D01*
X3310Y4881D01*
X3310Y4881D01*
X3310Y4881D01*
X3309Y4882D01*
X3309Y4882D01*
X3309Y4882D01*
X3309Y4882D01*
X3308Y4882D01*
X3308Y4882D01*
X3308Y4882D01*
X3307Y4882D01*
X3307Y4882D01*
X3307D01*
X3307Y4882D01*
X3307Y4882D01*
X3306Y4882D01*
X3306Y4882D01*
X3306Y4882D01*
X3306Y4883D01*
X3305Y4883D01*
X3304Y4883D01*
X3304Y4883D01*
X3304Y4883D01*
X3303Y4883D01*
X3303D01*
X3303Y4883D01*
X3303Y4883D01*
X3303Y4884D01*
X3303Y4884D01*
X3302Y4884D01*
X3302Y4884D01*
X3302Y4885D01*
X3302Y4885D01*
X3302Y4885D01*
X3301Y4885D01*
X3301Y4885D01*
X3301Y4886D01*
X3301Y4886D01*
X3301Y4886D01*
X3301Y4887D01*
X3301Y4887D01*
Y4887D01*
Y4887D01*
Y4887D01*
Y4887D01*
X3301Y4888D01*
X3301Y4888D01*
X3301Y4888D01*
X3301Y4889D01*
X3301Y4889D01*
X3302Y4890D01*
Y4890D01*
X3302Y4890D01*
X3302Y4890D01*
X3302Y4890D01*
X3302Y4890D01*
X3303Y4891D01*
X3303Y4891D01*
X3303Y4891D01*
X3304Y4891D01*
X3304D01*
X3304Y4891D01*
X3304Y4891D01*
X3304Y4892D01*
X3304Y4892D01*
X3305Y4892D01*
X3305Y4892D01*
X3305Y4892D01*
X3306Y4892D01*
X3307Y4892D01*
X3307Y4892D01*
X3307D01*
X3308Y4892D01*
D02*
G37*
G36*
X6293Y5372D02*
X6286D01*
X6285Y5368D01*
X6285Y5368D01*
X6285Y5368D01*
X6285Y5368D01*
X6285Y5368D01*
X6286Y5368D01*
X6286Y5368D01*
X6286Y5368D01*
X6287Y5368D01*
X6287Y5369D01*
X6288Y5369D01*
X6289Y5369D01*
X6289D01*
X6289Y5369D01*
X6289Y5369D01*
X6289Y5369D01*
X6290Y5369D01*
X6290Y5369D01*
X6290Y5368D01*
X6291Y5368D01*
X6291Y5368D01*
X6291Y5368D01*
X6292Y5368D01*
X6292Y5367D01*
X6292Y5367D01*
X6292Y5367D01*
X6292Y5367D01*
X6293Y5367D01*
X6293Y5367D01*
X6293Y5367D01*
X6293Y5366D01*
X6293Y5366D01*
X6293Y5366D01*
X6293Y5366D01*
X6294Y5365D01*
X6294Y5365D01*
X6294Y5365D01*
X6294Y5364D01*
X6294Y5364D01*
X6294Y5363D01*
X6294Y5363D01*
Y5363D01*
Y5363D01*
Y5363D01*
X6294Y5363D01*
X6294Y5362D01*
X6294Y5362D01*
X6294Y5362D01*
X6294Y5362D01*
X6294Y5361D01*
X6293Y5360D01*
X6293Y5360D01*
X6293Y5360D01*
X6293Y5359D01*
X6293Y5359D01*
X6293Y5359D01*
X6293Y5359D01*
X6292Y5359D01*
X6292Y5359D01*
X6292Y5358D01*
X6292Y5358D01*
X6292Y5358D01*
X6291Y5358D01*
X6291Y5358D01*
X6291Y5357D01*
X6290Y5357D01*
X6290Y5357D01*
X6289Y5357D01*
X6289Y5357D01*
X6289Y5357D01*
X6288Y5357D01*
X6288D01*
X6288Y5357D01*
X6287Y5357D01*
X6287Y5357D01*
X6287Y5357D01*
X6287Y5357D01*
X6286Y5357D01*
X6285Y5357D01*
X6285Y5357D01*
X6285Y5358D01*
X6284Y5358D01*
X6284Y5358D01*
X6284Y5358D01*
X6284Y5358D01*
X6284Y5358D01*
X6284Y5358D01*
X6284Y5358D01*
X6284Y5359D01*
X6283Y5359D01*
X6283Y5359D01*
X6283Y5360D01*
X6283Y5360D01*
X6282Y5361D01*
X6282Y5361D01*
X6282Y5362D01*
X6285Y5362D01*
Y5362D01*
Y5362D01*
X6285Y5362D01*
X6285Y5362D01*
X6285Y5361D01*
X6285Y5361D01*
X6285Y5360D01*
X6285Y5360D01*
X6285Y5360D01*
X6286Y5359D01*
X6286Y5359D01*
X6286Y5359D01*
X6286Y5359D01*
X6286Y5359D01*
X6287Y5359D01*
X6287Y5359D01*
X6288Y5359D01*
X6288Y5359D01*
X6288D01*
X6288Y5359D01*
X6289Y5359D01*
X6289Y5359D01*
X6289Y5359D01*
X6290Y5359D01*
X6290Y5359D01*
X6290Y5359D01*
X6291Y5360D01*
Y5360D01*
X6291Y5360D01*
X6291Y5360D01*
X6291Y5360D01*
X6291Y5361D01*
X6291Y5361D01*
X6292Y5362D01*
X6292Y5362D01*
X6292Y5363D01*
Y5363D01*
Y5363D01*
Y5363D01*
X6292Y5363D01*
Y5363D01*
X6292Y5363D01*
X6292Y5364D01*
X6291Y5364D01*
X6291Y5365D01*
X6291Y5365D01*
X6291Y5366D01*
X6291Y5366D01*
X6290Y5366D01*
X6290Y5366D01*
X6290Y5366D01*
X6290Y5366D01*
X6289Y5367D01*
X6289Y5367D01*
X6288Y5367D01*
X6288D01*
X6288Y5367D01*
X6287Y5367D01*
X6287Y5367D01*
X6287Y5367D01*
X6286Y5366D01*
X6286Y5366D01*
X6286Y5366D01*
X6286Y5366D01*
X6286Y5366D01*
X6286Y5366D01*
X6285Y5366D01*
X6285Y5366D01*
X6285Y5365D01*
X6285Y5365D01*
X6283Y5365D01*
X6284Y5374D01*
X6293D01*
Y5372D01*
D02*
G37*
G36*
X2567Y4091D02*
X2567Y4091D01*
X2568Y4091D01*
X2568Y4091D01*
X2568Y4090D01*
X2569Y4090D01*
X2569Y4090D01*
X2570Y4090D01*
X2571Y4089D01*
X2572Y4088D01*
X2573Y4088D01*
X2573Y4087D01*
X2573Y4087D01*
X2573Y4087D01*
X2573Y4087D01*
X2573Y4087D01*
X2574Y4086D01*
X2574Y4086D01*
X2574Y4086D01*
X2574Y4085D01*
X2574Y4085D01*
X2575Y4084D01*
X2575Y4084D01*
X2575Y4083D01*
X2575Y4082D01*
X2575Y4081D01*
X2575Y4081D01*
Y4080D01*
Y4080D01*
Y4080D01*
X2575Y4080D01*
Y4079D01*
X2575Y4079D01*
X2575Y4079D01*
X2575Y4078D01*
X2575Y4077D01*
X2575Y4076D01*
X2574Y4075D01*
X2574Y4074D01*
X2574Y4074D01*
X2574Y4074D01*
X2574Y4074D01*
X2573Y4074D01*
X2573Y4073D01*
X2573Y4073D01*
X2572Y4072D01*
X2572Y4072D01*
X2571Y4071D01*
X2570Y4071D01*
X2569Y4070D01*
X2569D01*
X2569Y4070D01*
X2568Y4070D01*
X2568Y4070D01*
X2568Y4070D01*
X2568Y4070D01*
X2567Y4069D01*
X2567Y4069D01*
X2566Y4069D01*
X2566Y4069D01*
X2565Y4069D01*
X2563Y4069D01*
X2562Y4069D01*
X2562D01*
X2561Y4069D01*
X2561D01*
X2561Y4069D01*
X2560Y4069D01*
X2560Y4069D01*
X2559Y4069D01*
X2557Y4069D01*
X2556Y4070D01*
X2555Y4070D01*
X2555D01*
X2555Y4070D01*
X2555Y4070D01*
X2555Y4070D01*
X2554Y4071D01*
X2554Y4071D01*
X2553Y4071D01*
X2553Y4072D01*
X2552Y4073D01*
X2551Y4073D01*
X2551Y4074D01*
Y4074D01*
X2551Y4075D01*
X2551Y4075D01*
X2550Y4075D01*
X2550Y4075D01*
X2550Y4075D01*
X2550Y4076D01*
X2550Y4076D01*
X2550Y4077D01*
X2550Y4077D01*
X2549Y4078D01*
X2549Y4079D01*
X2549Y4081D01*
Y4081D01*
Y4081D01*
Y4081D01*
X2549Y4081D01*
X2549Y4082D01*
X2549Y4082D01*
X2549Y4082D01*
X2549Y4083D01*
X2550Y4084D01*
X2550Y4085D01*
X2550Y4085D01*
X2550Y4086D01*
X2551Y4086D01*
X2551Y4087D01*
X2551Y4087D01*
X2551Y4087D01*
X2551Y4087D01*
X2551Y4087D01*
X2552Y4088D01*
X2552Y4088D01*
X2552Y4088D01*
X2553Y4088D01*
X2553Y4089D01*
X2553Y4089D01*
X2554Y4089D01*
X2554Y4090D01*
X2555Y4090D01*
X2555Y4090D01*
X2557Y4091D01*
X2557Y4087D01*
X2557D01*
X2557Y4087D01*
X2557Y4087D01*
X2557Y4087D01*
X2557Y4087D01*
X2556Y4087D01*
X2556Y4087D01*
X2555Y4086D01*
X2554Y4086D01*
X2554Y4085D01*
X2553Y4085D01*
X2553Y4085D01*
X2553Y4084D01*
X2553Y4084D01*
X2553Y4084D01*
X2552Y4083D01*
X2552Y4082D01*
X2552Y4081D01*
X2552Y4080D01*
Y4080D01*
Y4080D01*
Y4080D01*
X2552Y4080D01*
Y4080D01*
X2552Y4079D01*
X2552Y4079D01*
X2552Y4078D01*
X2553Y4077D01*
X2553Y4076D01*
X2553Y4076D01*
Y4076D01*
X2553Y4076D01*
X2554Y4075D01*
X2554Y4075D01*
X2554Y4075D01*
X2555Y4074D01*
X2556Y4074D01*
X2556Y4073D01*
X2557Y4073D01*
X2557D01*
X2557Y4073D01*
X2557Y4073D01*
X2558Y4073D01*
X2558Y4073D01*
X2558Y4073D01*
X2559Y4073D01*
X2559Y4072D01*
X2560Y4072D01*
X2561Y4072D01*
X2562Y4072D01*
X2563D01*
X2563Y4072D01*
X2563D01*
X2564Y4072D01*
X2564Y4072D01*
X2565Y4072D01*
X2566Y4073D01*
X2567Y4073D01*
X2568Y4073D01*
X2568D01*
X2568Y4073D01*
X2568Y4073D01*
X2568Y4073D01*
X2568Y4073D01*
X2569Y4074D01*
X2570Y4074D01*
X2570Y4075D01*
X2571Y4075D01*
X2571Y4076D01*
Y4076D01*
X2571Y4076D01*
X2571Y4076D01*
X2571Y4076D01*
X2572Y4077D01*
X2572Y4077D01*
X2572Y4078D01*
X2572Y4079D01*
X2572Y4079D01*
X2572Y4080D01*
Y4080D01*
Y4080D01*
Y4081D01*
X2572Y4081D01*
Y4081D01*
X2572Y4081D01*
X2572Y4082D01*
X2572Y4083D01*
X2572Y4083D01*
X2571Y4084D01*
X2571Y4085D01*
X2571Y4085D01*
X2571Y4085D01*
X2570Y4085D01*
X2570Y4086D01*
X2570Y4086D01*
X2569Y4086D01*
X2568Y4087D01*
X2567Y4087D01*
X2566Y4088D01*
X2567Y4091D01*
X2567D01*
X2567Y4091D01*
D02*
G37*
G36*
X2391Y4442D02*
X2391Y4442D01*
X2392Y4442D01*
X2392Y4442D01*
X2392Y4442D01*
X2393Y4441D01*
X2393Y4441D01*
X2393Y4441D01*
X2394Y4441D01*
X2394Y4441D01*
X2394Y4440D01*
X2395Y4440D01*
X2395Y4440D01*
X2395Y4440D01*
X2395Y4440D01*
X2395Y4440D01*
X2395Y4440D01*
X2395Y4439D01*
X2395Y4439D01*
X2395Y4439D01*
X2396Y4439D01*
X2396Y4438D01*
X2396Y4438D01*
X2396Y4438D01*
X2396Y4437D01*
X2396Y4437D01*
X2396Y4436D01*
X2396Y4436D01*
Y4436D01*
Y4436D01*
Y4436D01*
X2396Y4436D01*
X2396Y4435D01*
X2396Y4435D01*
X2396Y4435D01*
X2396Y4435D01*
X2396Y4434D01*
X2396Y4433D01*
X2396Y4433D01*
X2395Y4433D01*
X2395Y4432D01*
X2395Y4432D01*
X2395Y4432D01*
X2395Y4432D01*
X2395Y4432D01*
X2395Y4432D01*
X2394Y4432D01*
X2394Y4432D01*
X2394Y4431D01*
X2394Y4431D01*
X2393Y4431D01*
X2393Y4431D01*
X2392Y4430D01*
X2392Y4430D01*
X2391Y4430D01*
X2391Y4432D01*
X2391D01*
X2391Y4433D01*
X2391D01*
X2391Y4433D01*
X2392Y4433D01*
X2392Y4433D01*
X2392Y4433D01*
X2393Y4433D01*
X2393Y4433D01*
X2394Y4434D01*
X2394Y4434D01*
X2394Y4434D01*
X2394Y4434D01*
X2394Y4434D01*
X2394Y4435D01*
X2394Y4435D01*
X2394Y4435D01*
X2394Y4436D01*
Y4436D01*
Y4436D01*
Y4436D01*
X2394Y4436D01*
X2394Y4436D01*
X2394Y4437D01*
X2394Y4437D01*
X2394Y4438D01*
X2394Y4438D01*
X2393Y4438D01*
X2393Y4439D01*
X2393Y4439D01*
X2393Y4439D01*
X2393Y4439D01*
X2392Y4439D01*
X2392Y4439D01*
X2391Y4439D01*
X2391Y4440D01*
X2391D01*
X2391Y4440D01*
X2390Y4439D01*
X2390Y4439D01*
X2390Y4439D01*
X2389Y4439D01*
X2389Y4439D01*
X2388Y4439D01*
X2388Y4438D01*
X2388Y4438D01*
X2388Y4438D01*
X2388Y4438D01*
X2388Y4438D01*
X2387Y4437D01*
X2387Y4437D01*
X2387Y4436D01*
Y4436D01*
Y4436D01*
Y4436D01*
X2387Y4436D01*
X2387Y4435D01*
X2387Y4435D01*
X2387Y4435D01*
X2388Y4435D01*
X2386Y4435D01*
Y4435D01*
Y4435D01*
X2386Y4435D01*
Y4435D01*
Y4435D01*
Y4435D01*
Y4435D01*
Y4435D01*
X2386Y4436D01*
X2386Y4436D01*
X2386Y4436D01*
X2385Y4437D01*
X2385Y4437D01*
X2385Y4438D01*
X2385Y4438D01*
X2385Y4438D01*
X2385Y4438D01*
X2384Y4438D01*
X2384Y4438D01*
X2384Y4439D01*
X2383Y4439D01*
X2383Y4439D01*
X2383D01*
X2382Y4439D01*
X2382Y4439D01*
X2382Y4439D01*
X2381Y4438D01*
X2381Y4438D01*
X2381Y4438D01*
X2381Y4438D01*
X2381Y4438D01*
X2381Y4438D01*
X2380Y4437D01*
X2380Y4437D01*
X2380Y4437D01*
X2380Y4436D01*
X2380Y4436D01*
Y4436D01*
Y4436D01*
Y4436D01*
X2380Y4435D01*
X2380Y4435D01*
X2380Y4435D01*
X2380Y4434D01*
X2381Y4434D01*
X2381Y4434D01*
X2381Y4434D01*
X2381Y4434D01*
X2381Y4433D01*
X2381Y4433D01*
X2382Y4433D01*
X2382Y4433D01*
X2383Y4433D01*
X2383Y4433D01*
X2383Y4431D01*
X2383D01*
X2383Y4431D01*
X2383Y4431D01*
X2382Y4431D01*
X2382Y4431D01*
X2382Y4431D01*
X2382Y4431D01*
X2381Y4431D01*
X2380Y4431D01*
X2380Y4432D01*
X2379Y4432D01*
X2379Y4432D01*
X2379Y4432D01*
X2379Y4432D01*
X2379Y4433D01*
X2379Y4433D01*
X2379Y4433D01*
X2379Y4433D01*
X2379Y4434D01*
X2378Y4434D01*
X2378Y4435D01*
X2378Y4435D01*
Y4436D01*
Y4436D01*
Y4436D01*
Y4436D01*
Y4436D01*
X2378Y4436D01*
X2378Y4437D01*
X2378Y4437D01*
X2378Y4438D01*
X2379Y4438D01*
X2379Y4438D01*
Y4438D01*
X2379Y4439D01*
X2379Y4439D01*
X2379Y4439D01*
X2379Y4439D01*
X2380Y4439D01*
X2380Y4440D01*
X2380Y4440D01*
X2381Y4440D01*
X2381Y4440D01*
X2381Y4440D01*
X2381Y4441D01*
X2381Y4441D01*
X2382Y4441D01*
X2382Y4441D01*
X2382Y4441D01*
X2383Y4441D01*
X2383D01*
X2383Y4441D01*
X2383Y4441D01*
X2384Y4441D01*
X2384Y4441D01*
X2385Y4441D01*
X2385Y4440D01*
X2385Y4440D01*
X2385Y4440D01*
X2385Y4440D01*
X2385Y4440D01*
X2386Y4440D01*
X2386Y4439D01*
X2386Y4439D01*
X2386Y4439D01*
Y4439D01*
X2386Y4439D01*
Y4439D01*
X2386Y4439D01*
X2387Y4439D01*
X2387Y4439D01*
X2387Y4440D01*
X2387Y4440D01*
X2387Y4441D01*
X2388Y4441D01*
X2388Y4441D01*
X2388Y4441D01*
X2388Y4441D01*
X2389Y4441D01*
X2389Y4442D01*
X2390Y4442D01*
X2390Y4442D01*
X2391Y4442D01*
X2391D01*
X2391Y4442D01*
D02*
G37*
G36*
X2396Y4452D02*
Y4450D01*
X2378Y4443D01*
Y4446D01*
X2391Y4450D01*
X2391D01*
X2391Y4450D01*
X2391Y4450D01*
X2391Y4450D01*
X2392Y4450D01*
X2392Y4451D01*
X2393Y4451D01*
X2393Y4451D01*
X2394Y4451D01*
X2394D01*
X2394Y4451D01*
X2394Y4451D01*
X2394Y4451D01*
X2393Y4451D01*
X2393Y4451D01*
X2393Y4452D01*
X2392Y4452D01*
X2392Y4452D01*
X2391Y4452D01*
X2378Y4457D01*
Y4459D01*
X2396Y4452D01*
D02*
G37*
G36*
X6292Y5040D02*
X6292D01*
X6292Y5040D01*
X6293Y5040D01*
X6293Y5040D01*
X6294Y5040D01*
X6295Y5039D01*
X6295D01*
X6295Y5039D01*
X6295Y5039D01*
X6295Y5039D01*
X6295Y5039D01*
X6295Y5039D01*
X6296Y5039D01*
X6296Y5038D01*
X6297Y5038D01*
X6297Y5038D01*
X6297Y5038D01*
X6297Y5037D01*
X6297Y5037D01*
X6298Y5037D01*
X6298Y5036D01*
X6298Y5036D01*
X6298Y5035D01*
X6298Y5035D01*
X6296Y5034D01*
Y5034D01*
X6296Y5034D01*
X6296Y5034D01*
X6296Y5035D01*
X6296Y5035D01*
X6296Y5035D01*
X6296Y5036D01*
X6295Y5036D01*
X6295Y5036D01*
X6295Y5036D01*
X6295Y5036D01*
X6295Y5037D01*
X6295Y5037D01*
X6295Y5037D01*
X6294Y5037D01*
X6294Y5037D01*
X6294Y5038D01*
X6294Y5038D01*
X6293Y5038D01*
X6293Y5038D01*
X6293Y5038D01*
X6293Y5038D01*
X6292Y5038D01*
X6292Y5038D01*
X6291Y5038D01*
X6291D01*
X6291Y5038D01*
X6290Y5038D01*
X6290Y5038D01*
X6289Y5038D01*
X6289Y5038D01*
X6288Y5038D01*
X6288Y5037D01*
X6288Y5037D01*
X6288Y5037D01*
X6288Y5037D01*
X6287Y5037D01*
X6287Y5037D01*
X6287Y5037D01*
X6287Y5036D01*
X6286Y5036D01*
X6286Y5036D01*
X6286Y5036D01*
X6286Y5036D01*
X6286Y5035D01*
X6286Y5035D01*
X6286Y5035D01*
X6285Y5034D01*
Y5034D01*
X6285Y5034D01*
X6285Y5034D01*
X6285Y5034D01*
X6285Y5034D01*
X6285Y5034D01*
X6285Y5033D01*
X6285Y5033D01*
X6285Y5032D01*
X6285Y5032D01*
X6285Y5031D01*
Y5031D01*
Y5031D01*
Y5031D01*
X6285Y5031D01*
Y5030D01*
X6285Y5030D01*
X6285Y5030D01*
X6285Y5030D01*
X6285Y5029D01*
X6285Y5028D01*
X6285Y5028D01*
X6286Y5027D01*
Y5027D01*
X6286Y5027D01*
X6286Y5027D01*
X6286Y5027D01*
X6286Y5026D01*
X6286Y5026D01*
X6286Y5026D01*
X6287Y5025D01*
X6287Y5025D01*
X6288Y5025D01*
X6288D01*
X6288Y5025D01*
X6288Y5025D01*
X6288Y5024D01*
X6288Y5024D01*
X6288Y5024D01*
X6289Y5024D01*
X6289Y5024D01*
X6290Y5024D01*
X6291Y5024D01*
X6291Y5024D01*
X6291D01*
X6292Y5024D01*
X6292Y5024D01*
X6293Y5024D01*
X6293Y5024D01*
X6294Y5024D01*
X6294Y5024D01*
X6294D01*
X6294Y5024D01*
X6294Y5024D01*
X6294Y5025D01*
X6295Y5025D01*
X6295Y5025D01*
X6295Y5025D01*
X6296Y5025D01*
X6296Y5025D01*
X6296Y5026D01*
Y5029D01*
X6291D01*
Y5031D01*
X6299D01*
Y5025D01*
X6299Y5024D01*
X6299Y5024D01*
X6298Y5024D01*
X6298Y5024D01*
X6298Y5024D01*
X6298Y5024D01*
X6298Y5024D01*
X6297Y5023D01*
X6296Y5023D01*
X6296Y5023D01*
X6295Y5022D01*
X6295D01*
X6295Y5022D01*
X6295Y5022D01*
X6295Y5022D01*
X6295Y5022D01*
X6294Y5022D01*
X6294Y5022D01*
X6294Y5022D01*
X6293Y5022D01*
X6293Y5022D01*
X6292Y5022D01*
X6291Y5022D01*
X6291D01*
X6291Y5022D01*
X6291D01*
X6290Y5022D01*
X6290Y5022D01*
X6290Y5022D01*
X6289Y5022D01*
X6288Y5022D01*
X6287Y5022D01*
X6287Y5023D01*
X6287Y5023D01*
X6287Y5023D01*
X6286Y5023D01*
X6286Y5023D01*
X6286Y5023D01*
X6286Y5023D01*
X6285Y5024D01*
X6285Y5024D01*
X6284Y5025D01*
X6284Y5025D01*
X6283Y5026D01*
Y5026D01*
X6283Y5026D01*
X6283Y5026D01*
X6283Y5026D01*
X6283Y5027D01*
X6283Y5027D01*
X6283Y5027D01*
X6283Y5027D01*
X6283Y5028D01*
X6283Y5028D01*
X6282Y5029D01*
X6282Y5030D01*
X6282Y5031D01*
Y5031D01*
Y5031D01*
Y5031D01*
X6282Y5031D01*
Y5031D01*
X6282Y5032D01*
X6282Y5032D01*
X6282Y5032D01*
X6283Y5033D01*
X6283Y5034D01*
X6283Y5035D01*
X6283Y5036D01*
Y5036D01*
X6283Y5036D01*
X6283Y5036D01*
X6284Y5036D01*
X6284Y5036D01*
X6284Y5036D01*
X6284Y5037D01*
X6285Y5037D01*
X6285Y5038D01*
X6286Y5038D01*
X6286Y5039D01*
X6286Y5039D01*
X6287D01*
X6287Y5039D01*
X6287Y5039D01*
X6287Y5039D01*
X6287Y5039D01*
X6287Y5039D01*
X6288Y5039D01*
X6288Y5039D01*
X6288Y5040D01*
X6289Y5040D01*
X6289Y5040D01*
X6290Y5040D01*
X6291Y5040D01*
X6291D01*
X6292Y5040D01*
D02*
G37*
G36*
X6316Y5022D02*
X6314D01*
X6304Y5036D01*
Y5022D01*
X6302D01*
Y5040D01*
X6304D01*
X6314Y5026D01*
Y5040D01*
X6316D01*
Y5022D01*
D02*
G37*
%LPC*%
G36*
X2625Y4283D02*
X2617D01*
Y4272D01*
X2625Y4283D01*
D02*
G37*
G36*
X3404Y5190D02*
X3400D01*
Y5176D01*
X3404D01*
X3404Y5176D01*
X3405Y5176D01*
X3405Y5176D01*
X3406Y5176D01*
X3406Y5176D01*
X3406Y5176D01*
X3406Y5176D01*
X3407Y5177D01*
X3407Y5177D01*
X3407Y5177D01*
X3407Y5177D01*
X3407Y5177D01*
X3408Y5177D01*
X3408Y5177D01*
X3408Y5177D01*
X3408Y5178D01*
X3408Y5178D01*
X3408Y5178D01*
X3409Y5178D01*
X3409Y5179D01*
X3409Y5179D01*
X3409Y5180D01*
Y5180D01*
X3409Y5180D01*
X3409Y5180D01*
X3409Y5180D01*
X3409Y5180D01*
X3409Y5180D01*
X3409Y5181D01*
X3410Y5181D01*
X3410Y5182D01*
X3410Y5182D01*
X3410Y5183D01*
Y5183D01*
Y5183D01*
Y5183D01*
Y5183D01*
X3410Y5184D01*
X3410Y5184D01*
X3410Y5184D01*
X3410Y5185D01*
X3410Y5185D01*
X3409Y5186D01*
X3409Y5187D01*
X3409Y5187D01*
X3409Y5187D01*
Y5187D01*
X3409Y5187D01*
X3409Y5187D01*
X3409Y5188D01*
X3408Y5188D01*
X3408Y5188D01*
X3408Y5188D01*
X3407Y5189D01*
X3407Y5189D01*
X3407Y5189D01*
X3407Y5189D01*
X3406Y5189D01*
X3406Y5189D01*
X3406Y5189D01*
X3405Y5190D01*
X3405Y5190D01*
X3404Y5190D01*
X3404Y5190D01*
D02*
G37*
G36*
X3109Y5050D02*
X3108D01*
X3108Y5050D01*
X3108Y5050D01*
X3108Y5050D01*
X3108Y5050D01*
X3107Y5050D01*
X3107Y5050D01*
X3106Y5049D01*
X3106Y5049D01*
X3105Y5049D01*
X3105Y5049D01*
X3105Y5049D01*
X3104Y5048D01*
X3104Y5048D01*
X3104Y5048D01*
X3104Y5048D01*
X3104Y5048D01*
X3104Y5048D01*
X3104Y5048D01*
X3104Y5047D01*
X3104Y5047D01*
X3103Y5047D01*
X3103Y5046D01*
X3103Y5046D01*
X3103Y5045D01*
X3103Y5045D01*
X3103Y5044D01*
X3103Y5043D01*
X3103Y5043D01*
Y5043D01*
Y5042D01*
Y5042D01*
X3103Y5042D01*
X3103Y5042D01*
X3103Y5042D01*
X3103Y5041D01*
X3103Y5041D01*
X3103Y5040D01*
X3103Y5040D01*
X3103Y5039D01*
X3104Y5039D01*
X3104Y5038D01*
X3104Y5038D01*
X3104Y5038D01*
X3104Y5038D01*
X3104Y5037D01*
X3105Y5037D01*
X3105Y5037D01*
X3105Y5037D01*
X3105Y5037D01*
X3105Y5037D01*
X3106Y5037D01*
X3106Y5037D01*
X3106Y5036D01*
X3106Y5036D01*
X3107Y5036D01*
X3107Y5036D01*
X3108Y5036D01*
X3108Y5036D01*
X3109Y5036D01*
X3109D01*
X3109Y5036D01*
X3109Y5036D01*
X3110Y5036D01*
X3110Y5036D01*
X3110Y5036D01*
X3111Y5036D01*
X3111Y5036D01*
X3112Y5037D01*
X3112Y5037D01*
X3112Y5037D01*
X3113Y5037D01*
X3113Y5038D01*
X3113Y5038D01*
X3113Y5038D01*
X3113Y5038D01*
X3113Y5038D01*
X3113Y5038D01*
X3114Y5038D01*
X3114Y5039D01*
X3114Y5039D01*
X3114Y5039D01*
X3114Y5040D01*
X3114Y5040D01*
X3114Y5041D01*
X3115Y5041D01*
X3115Y5042D01*
X3115Y5042D01*
X3115Y5043D01*
Y5043D01*
Y5043D01*
Y5043D01*
Y5043D01*
X3115Y5043D01*
Y5044D01*
X3115Y5044D01*
X3115Y5045D01*
X3114Y5045D01*
X3114Y5046D01*
X3114Y5047D01*
Y5047D01*
X3114Y5047D01*
X3114Y5047D01*
X3114Y5047D01*
X3114Y5047D01*
X3113Y5048D01*
X3113Y5048D01*
X3113Y5048D01*
X3112Y5049D01*
X3112Y5049D01*
X3112D01*
X3112Y5049D01*
X3112Y5049D01*
X3112Y5049D01*
X3111Y5049D01*
X3111Y5050D01*
X3110Y5050D01*
X3110Y5050D01*
X3109Y5050D01*
X3109Y5050D01*
D02*
G37*
G36*
X6326Y5038D02*
X6322D01*
Y5024D01*
X6326D01*
X6327Y5024D01*
X6327Y5024D01*
X6327Y5024D01*
X6328Y5024D01*
X6328Y5024D01*
X6329Y5024D01*
X6329Y5024D01*
X6329Y5025D01*
X6329Y5025D01*
X6329Y5025D01*
X6330Y5025D01*
X6330Y5025D01*
X6330Y5025D01*
X6330Y5025D01*
X6330Y5025D01*
X6330Y5026D01*
X6331Y5026D01*
X6331Y5026D01*
X6331Y5026D01*
X6331Y5027D01*
X6331Y5027D01*
X6332Y5028D01*
Y5028D01*
X6332Y5028D01*
X6332Y5028D01*
X6332Y5028D01*
X6332Y5028D01*
X6332Y5028D01*
X6332Y5029D01*
X6332Y5029D01*
X6332Y5030D01*
X6332Y5030D01*
X6332Y5031D01*
Y5031D01*
Y5031D01*
Y5031D01*
Y5031D01*
X6332Y5032D01*
X6332Y5032D01*
X6332Y5032D01*
X6332Y5033D01*
X6332Y5033D01*
X6332Y5034D01*
X6331Y5035D01*
X6331Y5035D01*
X6331Y5035D01*
Y5035D01*
X6331Y5035D01*
X6331Y5035D01*
X6331Y5036D01*
X6331Y5036D01*
X6331Y5036D01*
X6330Y5036D01*
X6330Y5037D01*
X6329Y5037D01*
X6329Y5037D01*
X6329Y5037D01*
X6329Y5037D01*
X6329Y5037D01*
X6328Y5037D01*
X6328Y5038D01*
X6327Y5038D01*
X6327Y5038D01*
X6326Y5038D01*
D02*
G37*
G36*
X2560Y4465D02*
Y4457D01*
X2571D01*
X2560Y4465D01*
D02*
G37*
G36*
X3523Y5390D02*
X3523D01*
X3523Y5390D01*
X3522Y5390D01*
X3522Y5390D01*
X3522Y5390D01*
X3522Y5390D01*
X3521Y5390D01*
X3521Y5389D01*
X3520Y5389D01*
X3520Y5389D01*
X3520Y5389D01*
X3519Y5389D01*
X3519Y5388D01*
X3519Y5388D01*
X3519Y5388D01*
X3519Y5388D01*
X3519Y5388D01*
X3518Y5388D01*
X3518Y5388D01*
X3518Y5387D01*
X3518Y5387D01*
X3518Y5387D01*
X3518Y5386D01*
X3517Y5386D01*
X3517Y5385D01*
X3517Y5385D01*
X3517Y5384D01*
X3517Y5383D01*
X3517Y5383D01*
Y5383D01*
Y5382D01*
Y5382D01*
X3517Y5382D01*
X3517Y5382D01*
X3517Y5382D01*
X3517Y5381D01*
X3517Y5381D01*
X3517Y5380D01*
X3518Y5380D01*
X3518Y5379D01*
X3518Y5379D01*
X3518Y5378D01*
X3518Y5378D01*
X3519Y5378D01*
X3519Y5378D01*
X3519Y5377D01*
X3519Y5377D01*
X3519Y5377D01*
X3519Y5377D01*
X3519Y5377D01*
X3520Y5377D01*
X3520Y5377D01*
X3520Y5377D01*
X3521Y5376D01*
X3521Y5376D01*
X3521Y5376D01*
X3522Y5376D01*
X3522Y5376D01*
X3523Y5376D01*
X3523Y5376D01*
X3523D01*
X3523Y5376D01*
X3524Y5376D01*
X3524Y5376D01*
X3524Y5376D01*
X3525Y5376D01*
X3525Y5376D01*
X3526Y5376D01*
X3526Y5377D01*
X3526Y5377D01*
X3527Y5377D01*
X3527Y5377D01*
X3527Y5378D01*
X3527Y5378D01*
X3527Y5378D01*
X3528Y5378D01*
X3528Y5378D01*
X3528Y5378D01*
X3528Y5378D01*
X3528Y5379D01*
X3528Y5379D01*
X3528Y5379D01*
X3529Y5380D01*
X3529Y5380D01*
X3529Y5381D01*
X3529Y5381D01*
X3529Y5382D01*
X3529Y5382D01*
X3529Y5383D01*
Y5383D01*
Y5383D01*
Y5383D01*
Y5383D01*
X3529Y5383D01*
Y5384D01*
X3529Y5384D01*
X3529Y5385D01*
X3529Y5385D01*
X3529Y5386D01*
X3528Y5387D01*
Y5387D01*
X3528Y5387D01*
X3528Y5387D01*
X3528Y5387D01*
X3528Y5387D01*
X3528Y5388D01*
X3528Y5388D01*
X3527Y5388D01*
X3527Y5389D01*
X3526Y5389D01*
X3526D01*
X3526Y5389D01*
X3526Y5389D01*
X3526Y5389D01*
X3526Y5389D01*
X3525Y5390D01*
X3525Y5390D01*
X3524Y5390D01*
X3524Y5390D01*
X3523Y5390D01*
D02*
G37*
G36*
X3504Y5390D02*
X3500D01*
Y5376D01*
X3504D01*
X3504Y5376D01*
X3505Y5376D01*
X3505Y5376D01*
X3506Y5376D01*
X3506Y5376D01*
X3506Y5376D01*
X3506Y5376D01*
X3507Y5377D01*
X3507Y5377D01*
X3507Y5377D01*
X3507Y5377D01*
X3507Y5377D01*
X3508Y5377D01*
X3508Y5377D01*
X3508Y5377D01*
X3508Y5378D01*
X3508Y5378D01*
X3508Y5378D01*
X3509Y5378D01*
X3509Y5379D01*
X3509Y5379D01*
X3509Y5380D01*
Y5380D01*
X3509Y5380D01*
X3509Y5380D01*
X3509Y5380D01*
X3509Y5380D01*
X3509Y5380D01*
X3509Y5381D01*
X3510Y5381D01*
X3510Y5382D01*
X3510Y5382D01*
X3510Y5383D01*
Y5383D01*
Y5383D01*
Y5383D01*
Y5383D01*
X3510Y5384D01*
X3510Y5384D01*
X3510Y5384D01*
X3510Y5385D01*
X3510Y5385D01*
X3509Y5386D01*
X3509Y5387D01*
X3509Y5387D01*
X3509Y5387D01*
Y5387D01*
X3509Y5387D01*
X3509Y5387D01*
X3509Y5388D01*
X3508Y5388D01*
X3508Y5388D01*
X3508Y5388D01*
X3507Y5389D01*
X3507Y5389D01*
X3507Y5389D01*
X3507Y5389D01*
X3506Y5389D01*
X3506Y5389D01*
X3506Y5389D01*
X3505Y5390D01*
X3505Y5390D01*
X3504Y5390D01*
X3504Y5390D01*
D02*
G37*
%LPD*%
D17*
X6735Y2025D02*
X7950D01*
X7385Y5625D02*
X7950D01*
X7940Y2025D02*
Y3598D01*
Y4020D02*
Y5625D01*
Y2025D02*
X7960Y2085D01*
X7920D02*
X7940Y2025D01*
X7920Y5565D02*
X7940Y5625D01*
X7960Y5565D01*
X7475Y4760D02*
Y6245D01*
X1900Y4960D02*
Y6245D01*
X4882Y6235D02*
X7475D01*
X1900D02*
X4461D01*
X7415Y6255D02*
X7475Y6235D01*
X7415Y6215D02*
X7475Y6235D01*
X1900D02*
X1960Y6215D01*
X1900Y6235D02*
X1960Y6255D01*
D41*
X7926Y3614D02*
X7916Y3624D01*
Y3644D01*
X7926Y3654D01*
X7936D01*
X7946Y3644D01*
Y3634D01*
Y3644D01*
X7956Y3654D01*
X7966D01*
X7976Y3644D01*
Y3624D01*
X7966Y3614D01*
X7916Y3714D02*
X7926Y3694D01*
X7946Y3674D01*
X7966D01*
X7976Y3684D01*
Y3704D01*
X7966Y3714D01*
X7956D01*
X7946Y3704D01*
Y3674D01*
X7926Y3734D02*
X7916Y3744D01*
Y3764D01*
X7926Y3774D01*
X7966D01*
X7976Y3764D01*
Y3744D01*
X7966Y3734D01*
X7926D01*
Y3794D02*
X7916Y3804D01*
Y3824D01*
X7926Y3834D01*
X7966D01*
X7976Y3824D01*
Y3804D01*
X7966Y3794D01*
X7926D01*
X7976Y3854D02*
X7966D01*
Y3864D01*
X7976D01*
Y3854D01*
X7926Y3904D02*
X7916Y3914D01*
Y3934D01*
X7926Y3944D01*
X7966D01*
X7976Y3934D01*
Y3914D01*
X7966Y3904D01*
X7926D01*
Y3964D02*
X7916Y3974D01*
Y3994D01*
X7926Y4004D01*
X7966D01*
X7976Y3994D01*
Y3974D01*
X7966Y3964D01*
X7926D01*
X4517Y6259D02*
X4477D01*
Y6229D01*
X4497Y6239D01*
X4507D01*
X4517Y6229D01*
Y6209D01*
X4507Y6199D01*
X4487D01*
X4477Y6209D01*
X4577Y6259D02*
X4537D01*
Y6229D01*
X4557Y6239D01*
X4567D01*
X4577Y6229D01*
Y6209D01*
X4567Y6199D01*
X4547D01*
X4537Y6209D01*
X4597Y6259D02*
X4637D01*
Y6249D01*
X4597Y6209D01*
Y6199D01*
X4696Y6259D02*
X4657D01*
Y6229D01*
X4676Y6239D01*
X4686D01*
X4696Y6229D01*
Y6209D01*
X4686Y6199D01*
X4667D01*
X4657Y6209D01*
X4716Y6199D02*
Y6209D01*
X4726D01*
Y6199D01*
X4716D01*
X4766Y6249D02*
X4776Y6259D01*
X4796D01*
X4806Y6249D01*
Y6209D01*
X4796Y6199D01*
X4776D01*
X4766Y6209D01*
Y6249D01*
X4826D02*
X4836Y6259D01*
X4856D01*
X4866Y6249D01*
Y6209D01*
X4856Y6199D01*
X4836D01*
X4826Y6209D01*
Y6249D01*
M02*
