M48
;Layer_Color=9474304
;FILE_FORMAT=2:3
INCH,LZ
;TYPE=PLATED
T1F00S00C0.028
T2F00S00C0.035
T3F00S00C0.039
T4F00S00C0.045
T5F00S00C0.157
%
T01
X02728Y04143
X03324Y0447
X03512Y04754
T02
X07045Y04645
Y04745
Y04845
Y04945
Y05045
T03
X0245Y0449
X06342Y04968
Y05303
X0354Y0532
X0324
X0344Y0512
X0336Y0482
X0314Y0498
X0304Y0532
T04
X06341Y05505
X06541
X06641
X06741
X06841
X06941
X06241
X06141
X06041
X05941
X05841
X05741
X05641
X05541
X05441
X05341
X05241
X05141
X05041
X04941
X04841
X04741
X04641
X04541
X04441
X04341
X04241
X04141
X04041
X03941
X03841
X03741
X03641
X03541
X03441
X03341
X03241
X03141
X03041
X02941
X02841
X02741
X02641
X02541
X02441
T05
X0733Y0219
X02054
X0733Y05458
X02054
M30
