%FSLAX23Y23*%
%MOIN*%
G70*
G01*
G75*
G04 Layer_Color=8388736*
%ADD10C,0.010*%
%ADD11C,0.020*%
%ADD12C,0.015*%
%ADD13C,0.012*%
%ADD14R,0.060X0.023*%
%ADD15R,0.120X0.080*%
G04:AMPARAMS|DCode=16|XSize=51mil|YSize=59mil|CornerRadius=8mil|HoleSize=0mil|Usage=FLASHONLY|Rotation=90.000|XOffset=0mil|YOffset=0mil|HoleType=Round|Shape=RoundedRectangle|*
%AMROUNDEDRECTD16*
21,1,0.051,0.044,0,0,90.0*
21,1,0.036,0.059,0,0,90.0*
1,1,0.015,0.022,0.018*
1,1,0.015,0.022,-0.018*
1,1,0.015,-0.022,-0.018*
1,1,0.015,-0.022,0.018*
%
%ADD16ROUNDEDRECTD16*%
G04:AMPARAMS|DCode=17|XSize=24mil|YSize=24mil|CornerRadius=6mil|HoleSize=0mil|Usage=FLASHONLY|Rotation=90.000|XOffset=0mil|YOffset=0mil|HoleType=Round|Shape=RoundedRectangle|*
%AMROUNDEDRECTD17*
21,1,0.024,0.012,0,0,90.0*
21,1,0.012,0.024,0,0,90.0*
1,1,0.012,0.006,0.006*
1,1,0.012,0.006,-0.006*
1,1,0.012,-0.006,-0.006*
1,1,0.012,-0.006,0.006*
%
%ADD17ROUNDEDRECTD17*%
G04:AMPARAMS|DCode=18|XSize=51mil|YSize=59mil|CornerRadius=8mil|HoleSize=0mil|Usage=FLASHONLY|Rotation=180.000|XOffset=0mil|YOffset=0mil|HoleType=Round|Shape=RoundedRectangle|*
%AMROUNDEDRECTD18*
21,1,0.051,0.044,0,0,180.0*
21,1,0.036,0.059,0,0,180.0*
1,1,0.015,-0.018,0.022*
1,1,0.015,0.018,0.022*
1,1,0.015,0.018,-0.022*
1,1,0.015,-0.018,-0.022*
%
%ADD18ROUNDEDRECTD18*%
G04:AMPARAMS|DCode=19|XSize=24mil|YSize=24mil|CornerRadius=6mil|HoleSize=0mil|Usage=FLASHONLY|Rotation=0.000|XOffset=0mil|YOffset=0mil|HoleType=Round|Shape=RoundedRectangle|*
%AMROUNDEDRECTD19*
21,1,0.024,0.012,0,0,0.0*
21,1,0.012,0.024,0,0,0.0*
1,1,0.012,0.006,-0.006*
1,1,0.012,-0.006,-0.006*
1,1,0.012,-0.006,0.006*
1,1,0.012,0.006,0.006*
%
%ADD19ROUNDEDRECTD19*%
%ADD20P,0.024X4X360.0*%
%ADD21P,0.024X4X90.0*%
%ADD22R,0.017X0.017*%
G04:AMPARAMS|DCode=23|XSize=98mil|YSize=138mil|CornerRadius=25mil|HoleSize=0mil|Usage=FLASHONLY|Rotation=0.000|XOffset=0mil|YOffset=0mil|HoleType=Round|Shape=RoundedRectangle|*
%AMROUNDEDRECTD23*
21,1,0.098,0.089,0,0,0.0*
21,1,0.049,0.138,0,0,0.0*
1,1,0.049,0.025,-0.044*
1,1,0.049,-0.025,-0.044*
1,1,0.049,-0.025,0.044*
1,1,0.049,0.025,0.044*
%
%ADD23ROUNDEDRECTD23*%
G04:AMPARAMS|DCode=24|XSize=106mil|YSize=67mil|CornerRadius=10mil|HoleSize=0mil|Usage=FLASHONLY|Rotation=270.000|XOffset=0mil|YOffset=0mil|HoleType=Round|Shape=RoundedRectangle|*
%AMROUNDEDRECTD24*
21,1,0.106,0.047,0,0,270.0*
21,1,0.086,0.067,0,0,270.0*
1,1,0.020,-0.023,-0.043*
1,1,0.020,-0.023,0.043*
1,1,0.020,0.023,0.043*
1,1,0.020,0.023,-0.043*
%
%ADD24ROUNDEDRECTD24*%
G04:AMPARAMS|DCode=25|XSize=35mil|YSize=35mil|CornerRadius=5mil|HoleSize=0mil|Usage=FLASHONLY|Rotation=270.000|XOffset=0mil|YOffset=0mil|HoleType=Round|Shape=RoundedRectangle|*
%AMROUNDEDRECTD25*
21,1,0.035,0.025,0,0,270.0*
21,1,0.025,0.035,0,0,270.0*
1,1,0.011,-0.012,-0.012*
1,1,0.011,-0.012,0.012*
1,1,0.011,0.012,0.012*
1,1,0.011,0.012,-0.012*
%
%ADD25ROUNDEDRECTD25*%
G04:AMPARAMS|DCode=26|XSize=51mil|YSize=47mil|CornerRadius=7mil|HoleSize=0mil|Usage=FLASHONLY|Rotation=90.000|XOffset=0mil|YOffset=0mil|HoleType=Round|Shape=RoundedRectangle|*
%AMROUNDEDRECTD26*
21,1,0.051,0.033,0,0,90.0*
21,1,0.037,0.047,0,0,90.0*
1,1,0.014,0.017,0.019*
1,1,0.014,0.017,-0.019*
1,1,0.014,-0.017,-0.019*
1,1,0.014,-0.017,0.019*
%
%ADD26ROUNDEDRECTD26*%
G04:AMPARAMS|DCode=27|XSize=47mil|YSize=47mil|CornerRadius=12mil|HoleSize=0mil|Usage=FLASHONLY|Rotation=270.000|XOffset=0mil|YOffset=0mil|HoleType=Round|Shape=RoundedRectangle|*
%AMROUNDEDRECTD27*
21,1,0.047,0.024,0,0,270.0*
21,1,0.024,0.047,0,0,270.0*
1,1,0.024,-0.012,-0.012*
1,1,0.024,-0.012,0.012*
1,1,0.024,0.012,0.012*
1,1,0.024,0.012,-0.012*
%
%ADD27ROUNDEDRECTD27*%
G04:AMPARAMS|DCode=28|XSize=47mil|YSize=47mil|CornerRadius=12mil|HoleSize=0mil|Usage=FLASHONLY|Rotation=180.000|XOffset=0mil|YOffset=0mil|HoleType=Round|Shape=RoundedRectangle|*
%AMROUNDEDRECTD28*
21,1,0.047,0.024,0,0,180.0*
21,1,0.024,0.047,0,0,180.0*
1,1,0.024,-0.012,0.012*
1,1,0.024,0.012,0.012*
1,1,0.024,0.012,-0.012*
1,1,0.024,-0.012,-0.012*
%
%ADD28ROUNDEDRECTD28*%
%ADD29R,0.110X0.085*%
G04:AMPARAMS|DCode=30|XSize=47mil|YSize=47mil|CornerRadius=7mil|HoleSize=0mil|Usage=FLASHONLY|Rotation=180.000|XOffset=0mil|YOffset=0mil|HoleType=Round|Shape=RoundedRectangle|*
%AMROUNDEDRECTD30*
21,1,0.047,0.033,0,0,180.0*
21,1,0.033,0.047,0,0,180.0*
1,1,0.014,-0.017,0.017*
1,1,0.014,0.017,0.017*
1,1,0.014,0.017,-0.017*
1,1,0.014,-0.017,-0.017*
%
%ADD30ROUNDEDRECTD30*%
G04:AMPARAMS|DCode=31|XSize=47mil|YSize=47mil|CornerRadius=7mil|HoleSize=0mil|Usage=FLASHONLY|Rotation=270.000|XOffset=0mil|YOffset=0mil|HoleType=Round|Shape=RoundedRectangle|*
%AMROUNDEDRECTD31*
21,1,0.047,0.033,0,0,270.0*
21,1,0.033,0.047,0,0,270.0*
1,1,0.014,-0.017,-0.017*
1,1,0.014,-0.017,0.017*
1,1,0.014,0.017,0.017*
1,1,0.014,0.017,-0.017*
%
%ADD31ROUNDEDRECTD31*%
G04:AMPARAMS|DCode=32|XSize=35mil|YSize=35mil|CornerRadius=5mil|HoleSize=0mil|Usage=FLASHONLY|Rotation=0.000|XOffset=0mil|YOffset=0mil|HoleType=Round|Shape=RoundedRectangle|*
%AMROUNDEDRECTD32*
21,1,0.035,0.025,0,0,0.0*
21,1,0.025,0.035,0,0,0.0*
1,1,0.011,0.012,-0.012*
1,1,0.011,-0.012,-0.012*
1,1,0.011,-0.012,0.012*
1,1,0.011,0.012,0.012*
%
%ADD32ROUNDEDRECTD32*%
G04:AMPARAMS|DCode=33|XSize=28mil|YSize=51mil|CornerRadius=4mil|HoleSize=0mil|Usage=FLASHONLY|Rotation=180.000|XOffset=0mil|YOffset=0mil|HoleType=Round|Shape=RoundedRectangle|*
%AMROUNDEDRECTD33*
21,1,0.028,0.043,0,0,180.0*
21,1,0.019,0.051,0,0,180.0*
1,1,0.008,-0.010,0.021*
1,1,0.008,0.010,0.021*
1,1,0.008,0.010,-0.021*
1,1,0.008,-0.010,-0.021*
%
%ADD33ROUNDEDRECTD33*%
G04:AMPARAMS|DCode=34|XSize=28mil|YSize=51mil|CornerRadius=4mil|HoleSize=0mil|Usage=FLASHONLY|Rotation=270.000|XOffset=0mil|YOffset=0mil|HoleType=Round|Shape=RoundedRectangle|*
%AMROUNDEDRECTD34*
21,1,0.028,0.043,0,0,270.0*
21,1,0.019,0.051,0,0,270.0*
1,1,0.008,-0.021,-0.010*
1,1,0.008,-0.021,0.010*
1,1,0.008,0.021,0.010*
1,1,0.008,0.021,-0.010*
%
%ADD34ROUNDEDRECTD34*%
G04:AMPARAMS|DCode=35|XSize=24mil|YSize=24mil|CornerRadius=5mil|HoleSize=0mil|Usage=FLASHONLY|Rotation=180.000|XOffset=0mil|YOffset=0mil|HoleType=Round|Shape=RoundedRectangle|*
%AMROUNDEDRECTD35*
21,1,0.024,0.014,0,0,180.0*
21,1,0.014,0.024,0,0,180.0*
1,1,0.009,-0.007,0.007*
1,1,0.009,0.007,0.007*
1,1,0.009,0.007,-0.007*
1,1,0.009,-0.007,-0.007*
%
%ADD35ROUNDEDRECTD35*%
%ADD36R,0.157X0.118*%
%ADD37R,0.315X0.017*%
G04:AMPARAMS|DCode=38|XSize=24mil|YSize=24mil|CornerRadius=5mil|HoleSize=0mil|Usage=FLASHONLY|Rotation=270.000|XOffset=0mil|YOffset=0mil|HoleType=Round|Shape=RoundedRectangle|*
%AMROUNDEDRECTD38*
21,1,0.024,0.014,0,0,270.0*
21,1,0.014,0.024,0,0,270.0*
1,1,0.009,-0.007,-0.007*
1,1,0.009,-0.007,0.007*
1,1,0.009,0.007,0.007*
1,1,0.009,0.007,-0.007*
%
%ADD38ROUNDEDRECTD38*%
G04:AMPARAMS|DCode=39|XSize=114mil|YSize=213mil|CornerRadius=29mil|HoleSize=0mil|Usage=FLASHONLY|Rotation=90.000|XOffset=0mil|YOffset=0mil|HoleType=Round|Shape=RoundedRectangle|*
%AMROUNDEDRECTD39*
21,1,0.114,0.156,0,0,90.0*
21,1,0.057,0.213,0,0,90.0*
1,1,0.057,0.078,0.029*
1,1,0.057,0.078,-0.029*
1,1,0.057,-0.078,-0.029*
1,1,0.057,-0.078,0.029*
%
%ADD39ROUNDEDRECTD39*%
%ADD40R,0.051X0.106*%
%ADD41R,0.106X0.051*%
G04:AMPARAMS|DCode=42|XSize=12mil|YSize=26mil|CornerRadius=1mil|HoleSize=0mil|Usage=FLASHONLY|Rotation=90.000|XOffset=0mil|YOffset=0mil|HoleType=Round|Shape=RoundedRectangle|*
%AMROUNDEDRECTD42*
21,1,0.012,0.023,0,0,90.0*
21,1,0.009,0.026,0,0,90.0*
1,1,0.003,0.012,0.004*
1,1,0.003,0.012,-0.004*
1,1,0.003,-0.012,-0.004*
1,1,0.003,-0.012,0.004*
%
%ADD42ROUNDEDRECTD42*%
G04:AMPARAMS|DCode=43|XSize=32mil|YSize=28mil|CornerRadius=3mil|HoleSize=0mil|Usage=FLASHONLY|Rotation=180.000|XOffset=0mil|YOffset=0mil|HoleType=Round|Shape=RoundedRectangle|*
%AMROUNDEDRECTD43*
21,1,0.032,0.021,0,0,180.0*
21,1,0.025,0.028,0,0,180.0*
1,1,0.007,-0.012,0.010*
1,1,0.007,0.012,0.010*
1,1,0.007,0.012,-0.010*
1,1,0.007,-0.012,-0.010*
%
%ADD43ROUNDEDRECTD43*%
G04:AMPARAMS|DCode=44|XSize=31mil|YSize=51mil|CornerRadius=5mil|HoleSize=0mil|Usage=FLASHONLY|Rotation=270.000|XOffset=0mil|YOffset=0mil|HoleType=Round|Shape=RoundedRectangle|*
%AMROUNDEDRECTD44*
21,1,0.031,0.042,0,0,270.0*
21,1,0.022,0.051,0,0,270.0*
1,1,0.009,-0.021,-0.011*
1,1,0.009,-0.021,0.011*
1,1,0.009,0.021,0.011*
1,1,0.009,0.021,-0.011*
%
%ADD44ROUNDEDRECTD44*%
G04:AMPARAMS|DCode=45|XSize=31mil|YSize=51mil|CornerRadius=5mil|HoleSize=0mil|Usage=FLASHONLY|Rotation=0.000|XOffset=0mil|YOffset=0mil|HoleType=Round|Shape=RoundedRectangle|*
%AMROUNDEDRECTD45*
21,1,0.031,0.042,0,0,0.0*
21,1,0.022,0.051,0,0,0.0*
1,1,0.009,0.011,-0.021*
1,1,0.009,-0.011,-0.021*
1,1,0.009,-0.011,0.021*
1,1,0.009,0.011,0.021*
%
%ADD45ROUNDEDRECTD45*%
G04:AMPARAMS|DCode=46|XSize=59mil|YSize=157mil|CornerRadius=15mil|HoleSize=0mil|Usage=FLASHONLY|Rotation=0.000|XOffset=0mil|YOffset=0mil|HoleType=Round|Shape=RoundedRectangle|*
%AMROUNDEDRECTD46*
21,1,0.059,0.128,0,0,0.0*
21,1,0.030,0.157,0,0,0.0*
1,1,0.030,0.015,-0.064*
1,1,0.030,-0.015,-0.064*
1,1,0.030,-0.015,0.064*
1,1,0.030,0.015,0.064*
%
%ADD46ROUNDEDRECTD46*%
G04:AMPARAMS|DCode=47|XSize=421mil|YSize=339mil|CornerRadius=34mil|HoleSize=0mil|Usage=FLASHONLY|Rotation=0.000|XOffset=0mil|YOffset=0mil|HoleType=Round|Shape=RoundedRectangle|*
%AMROUNDEDRECTD47*
21,1,0.421,0.271,0,0,0.0*
21,1,0.354,0.339,0,0,0.0*
1,1,0.068,0.177,-0.135*
1,1,0.068,-0.177,-0.135*
1,1,0.068,-0.177,0.135*
1,1,0.068,0.177,0.135*
%
%ADD47ROUNDEDRECTD47*%
G04:AMPARAMS|DCode=48|XSize=16mil|YSize=40mil|CornerRadius=4mil|HoleSize=0mil|Usage=FLASHONLY|Rotation=90.000|XOffset=0mil|YOffset=0mil|HoleType=Round|Shape=RoundedRectangle|*
%AMROUNDEDRECTD48*
21,1,0.016,0.032,0,0,90.0*
21,1,0.008,0.040,0,0,90.0*
1,1,0.008,0.016,0.004*
1,1,0.008,0.016,-0.004*
1,1,0.008,-0.016,-0.004*
1,1,0.008,-0.016,0.004*
%
%ADD48ROUNDEDRECTD48*%
G04:AMPARAMS|DCode=49|XSize=12mil|YSize=13mil|CornerRadius=3mil|HoleSize=0mil|Usage=FLASHONLY|Rotation=0.000|XOffset=0mil|YOffset=0mil|HoleType=Round|Shape=RoundedRectangle|*
%AMROUNDEDRECTD49*
21,1,0.012,0.007,0,0,0.0*
21,1,0.006,0.013,0,0,0.0*
1,1,0.006,0.003,-0.003*
1,1,0.006,-0.003,-0.003*
1,1,0.006,-0.003,0.003*
1,1,0.006,0.003,0.003*
%
%ADD49ROUNDEDRECTD49*%
%ADD50R,0.012X0.013*%
G04:AMPARAMS|DCode=51|XSize=13mil|YSize=12mil|CornerRadius=3mil|HoleSize=0mil|Usage=FLASHONLY|Rotation=90.000|XOffset=0mil|YOffset=0mil|HoleType=Round|Shape=RoundedRectangle|*
%AMROUNDEDRECTD51*
21,1,0.013,0.006,0,0,90.0*
21,1,0.007,0.012,0,0,90.0*
1,1,0.006,0.003,0.003*
1,1,0.006,0.003,-0.003*
1,1,0.006,-0.003,-0.003*
1,1,0.006,-0.003,0.003*
%
%ADD51ROUNDEDRECTD51*%
%ADD52R,0.012X0.013*%
%ADD53R,0.012X0.012*%
G04:AMPARAMS|DCode=54|XSize=98mil|YSize=98mil|CornerRadius=10mil|HoleSize=0mil|Usage=FLASHONLY|Rotation=0.000|XOffset=0mil|YOffset=0mil|HoleType=Round|Shape=RoundedRectangle|*
%AMROUNDEDRECTD54*
21,1,0.098,0.079,0,0,0.0*
21,1,0.079,0.098,0,0,0.0*
1,1,0.020,0.039,-0.039*
1,1,0.020,-0.039,-0.039*
1,1,0.020,-0.039,0.039*
1,1,0.020,0.039,0.039*
%
%ADD54ROUNDEDRECTD54*%
%ADD55R,0.017X0.070*%
G04:AMPARAMS|DCode=56|XSize=17mil|YSize=24mil|CornerRadius=0mil|HoleSize=0mil|Usage=FLASHONLY|Rotation=135.000|XOffset=0mil|YOffset=0mil|HoleType=Round|Shape=Rectangle|*
%AMROTATEDRECTD56*
4,1,4,0.014,0.002,-0.002,-0.014,-0.014,-0.002,0.002,0.014,0.014,0.002,0.0*
%
%ADD56ROTATEDRECTD56*%

G04:AMPARAMS|DCode=57|XSize=17mil|YSize=24mil|CornerRadius=0mil|HoleSize=0mil|Usage=FLASHONLY|Rotation=45.000|XOffset=0mil|YOffset=0mil|HoleType=Round|Shape=Rectangle|*
%AMROTATEDRECTD57*
4,1,4,0.002,-0.014,-0.014,0.002,-0.002,0.014,0.014,-0.002,0.002,-0.014,0.0*
%
%ADD57ROTATEDRECTD57*%

%ADD58R,0.024X0.017*%
%ADD59C,0.025*%
%ADD60C,0.017*%
%ADD61C,0.079*%
%ADD62R,0.059X0.059*%
%ADD63C,0.059*%
%ADD64C,0.080*%
%ADD65C,0.061*%
%ADD66R,0.061X0.061*%
%ADD67C,0.028*%
%ADD68C,0.030*%
%ADD69C,0.008*%
%ADD70C,0.016*%
%ADD71C,0.020*%
%ADD72C,0.006*%
%ADD73C,0.006*%
%ADD74C,0.003*%
%ADD75C,0.004*%
%ADD76C,0.004*%
%ADD77C,0.003*%
%ADD78C,0.008*%
%ADD79R,0.017X0.008*%
G04:AMPARAMS|DCode=80|XSize=19mil|YSize=19mil|CornerRadius=4mil|HoleSize=0mil|Usage=FLASHONLY|Rotation=90.000|XOffset=0mil|YOffset=0mil|HoleType=Round|Shape=RoundedRectangle|*
%AMROUNDEDRECTD80*
21,1,0.019,0.012,0,0,90.0*
21,1,0.012,0.019,0,0,90.0*
1,1,0.007,0.006,0.006*
1,1,0.007,0.006,-0.006*
1,1,0.007,-0.006,-0.006*
1,1,0.007,-0.006,0.006*
%
%ADD80ROUNDEDRECTD80*%
G04:AMPARAMS|DCode=81|XSize=19mil|YSize=19mil|CornerRadius=4mil|HoleSize=0mil|Usage=FLASHONLY|Rotation=0.000|XOffset=0mil|YOffset=0mil|HoleType=Round|Shape=RoundedRectangle|*
%AMROUNDEDRECTD81*
21,1,0.019,0.012,0,0,0.0*
21,1,0.012,0.019,0,0,0.0*
1,1,0.007,0.006,-0.006*
1,1,0.007,-0.006,-0.006*
1,1,0.007,-0.006,0.006*
1,1,0.007,0.006,0.006*
%
%ADD81ROUNDEDRECTD81*%
%ADD82P,0.017X4X360.0*%
%ADD83P,0.017X4X90.0*%
%ADD84R,0.012X0.012*%
G04:AMPARAMS|DCode=85|XSize=12mil|YSize=19mil|CornerRadius=0mil|HoleSize=0mil|Usage=FLASHONLY|Rotation=135.000|XOffset=0mil|YOffset=0mil|HoleType=Round|Shape=Rectangle|*
%AMROTATEDRECTD85*
4,1,4,0.011,0.002,-0.002,-0.011,-0.011,-0.002,0.002,0.011,0.011,0.002,0.0*
%
%ADD85ROTATEDRECTD85*%

G04:AMPARAMS|DCode=86|XSize=12mil|YSize=19mil|CornerRadius=0mil|HoleSize=0mil|Usage=FLASHONLY|Rotation=45.000|XOffset=0mil|YOffset=0mil|HoleType=Round|Shape=Rectangle|*
%AMROTATEDRECTD86*
4,1,4,0.002,-0.011,-0.011,0.002,-0.002,0.011,0.011,-0.002,0.002,-0.011,0.0*
%
%ADD86ROTATEDRECTD86*%

%ADD87R,0.019X0.012*%
%ADD88R,0.068X0.031*%
%ADD89R,0.128X0.088*%
G04:AMPARAMS|DCode=90|XSize=59mil|YSize=67mil|CornerRadius=12mil|HoleSize=0mil|Usage=FLASHONLY|Rotation=90.000|XOffset=0mil|YOffset=0mil|HoleType=Round|Shape=RoundedRectangle|*
%AMROUNDEDRECTD90*
21,1,0.059,0.044,0,0,90.0*
21,1,0.036,0.067,0,0,90.0*
1,1,0.023,0.022,0.018*
1,1,0.023,0.022,-0.018*
1,1,0.023,-0.022,-0.018*
1,1,0.023,-0.022,0.018*
%
%ADD90ROUNDEDRECTD90*%
G04:AMPARAMS|DCode=91|XSize=32mil|YSize=32mil|CornerRadius=10mil|HoleSize=0mil|Usage=FLASHONLY|Rotation=90.000|XOffset=0mil|YOffset=0mil|HoleType=Round|Shape=RoundedRectangle|*
%AMROUNDEDRECTD91*
21,1,0.032,0.012,0,0,90.0*
21,1,0.012,0.032,0,0,90.0*
1,1,0.020,0.006,0.006*
1,1,0.020,0.006,-0.006*
1,1,0.020,-0.006,-0.006*
1,1,0.020,-0.006,0.006*
%
%ADD91ROUNDEDRECTD91*%
G04:AMPARAMS|DCode=92|XSize=59mil|YSize=67mil|CornerRadius=12mil|HoleSize=0mil|Usage=FLASHONLY|Rotation=180.000|XOffset=0mil|YOffset=0mil|HoleType=Round|Shape=RoundedRectangle|*
%AMROUNDEDRECTD92*
21,1,0.059,0.044,0,0,180.0*
21,1,0.036,0.067,0,0,180.0*
1,1,0.023,-0.018,0.022*
1,1,0.023,0.018,0.022*
1,1,0.023,0.018,-0.022*
1,1,0.023,-0.018,-0.022*
%
%ADD92ROUNDEDRECTD92*%
G04:AMPARAMS|DCode=93|XSize=32mil|YSize=32mil|CornerRadius=10mil|HoleSize=0mil|Usage=FLASHONLY|Rotation=0.000|XOffset=0mil|YOffset=0mil|HoleType=Round|Shape=RoundedRectangle|*
%AMROUNDEDRECTD93*
21,1,0.032,0.012,0,0,0.0*
21,1,0.012,0.032,0,0,0.0*
1,1,0.020,0.006,-0.006*
1,1,0.020,-0.006,-0.006*
1,1,0.020,-0.006,0.006*
1,1,0.020,0.006,0.006*
%
%ADD93ROUNDEDRECTD93*%
%ADD94P,0.035X4X360.0*%
%ADD95P,0.035X4X90.0*%
%ADD96R,0.025X0.025*%
G04:AMPARAMS|DCode=97|XSize=106mil|YSize=146mil|CornerRadius=29mil|HoleSize=0mil|Usage=FLASHONLY|Rotation=0.000|XOffset=0mil|YOffset=0mil|HoleType=Round|Shape=RoundedRectangle|*
%AMROUNDEDRECTD97*
21,1,0.106,0.089,0,0,0.0*
21,1,0.049,0.146,0,0,0.0*
1,1,0.057,0.025,-0.044*
1,1,0.057,-0.025,-0.044*
1,1,0.057,-0.025,0.044*
1,1,0.057,0.025,0.044*
%
%ADD97ROUNDEDRECTD97*%
G04:AMPARAMS|DCode=98|XSize=114mil|YSize=75mil|CornerRadius=14mil|HoleSize=0mil|Usage=FLASHONLY|Rotation=270.000|XOffset=0mil|YOffset=0mil|HoleType=Round|Shape=RoundedRectangle|*
%AMROUNDEDRECTD98*
21,1,0.114,0.047,0,0,270.0*
21,1,0.086,0.075,0,0,270.0*
1,1,0.028,-0.023,-0.043*
1,1,0.028,-0.023,0.043*
1,1,0.028,0.023,0.043*
1,1,0.028,0.023,-0.043*
%
%ADD98ROUNDEDRECTD98*%
G04:AMPARAMS|DCode=99|XSize=43mil|YSize=43mil|CornerRadius=9mil|HoleSize=0mil|Usage=FLASHONLY|Rotation=270.000|XOffset=0mil|YOffset=0mil|HoleType=Round|Shape=RoundedRectangle|*
%AMROUNDEDRECTD99*
21,1,0.043,0.025,0,0,270.0*
21,1,0.025,0.043,0,0,270.0*
1,1,0.019,-0.012,-0.012*
1,1,0.019,-0.012,0.012*
1,1,0.019,0.012,0.012*
1,1,0.019,0.012,-0.012*
%
%ADD99ROUNDEDRECTD99*%
G04:AMPARAMS|DCode=100|XSize=59mil|YSize=55mil|CornerRadius=11mil|HoleSize=0mil|Usage=FLASHONLY|Rotation=90.000|XOffset=0mil|YOffset=0mil|HoleType=Round|Shape=RoundedRectangle|*
%AMROUNDEDRECTD100*
21,1,0.059,0.033,0,0,90.0*
21,1,0.037,0.055,0,0,90.0*
1,1,0.022,0.017,0.019*
1,1,0.022,0.017,-0.019*
1,1,0.022,-0.017,-0.019*
1,1,0.022,-0.017,0.019*
%
%ADD100ROUNDEDRECTD100*%
G04:AMPARAMS|DCode=101|XSize=55mil|YSize=55mil|CornerRadius=16mil|HoleSize=0mil|Usage=FLASHONLY|Rotation=270.000|XOffset=0mil|YOffset=0mil|HoleType=Round|Shape=RoundedRectangle|*
%AMROUNDEDRECTD101*
21,1,0.055,0.024,0,0,270.0*
21,1,0.024,0.055,0,0,270.0*
1,1,0.032,-0.012,-0.012*
1,1,0.032,-0.012,0.012*
1,1,0.032,0.012,0.012*
1,1,0.032,0.012,-0.012*
%
%ADD101ROUNDEDRECTD101*%
G04:AMPARAMS|DCode=102|XSize=55mil|YSize=55mil|CornerRadius=16mil|HoleSize=0mil|Usage=FLASHONLY|Rotation=180.000|XOffset=0mil|YOffset=0mil|HoleType=Round|Shape=RoundedRectangle|*
%AMROUNDEDRECTD102*
21,1,0.055,0.024,0,0,180.0*
21,1,0.024,0.055,0,0,180.0*
1,1,0.032,-0.012,0.012*
1,1,0.032,0.012,0.012*
1,1,0.032,0.012,-0.012*
1,1,0.032,-0.012,-0.012*
%
%ADD102ROUNDEDRECTD102*%
%ADD103R,0.118X0.093*%
G04:AMPARAMS|DCode=104|XSize=55mil|YSize=55mil|CornerRadius=11mil|HoleSize=0mil|Usage=FLASHONLY|Rotation=180.000|XOffset=0mil|YOffset=0mil|HoleType=Round|Shape=RoundedRectangle|*
%AMROUNDEDRECTD104*
21,1,0.055,0.033,0,0,180.0*
21,1,0.033,0.055,0,0,180.0*
1,1,0.022,-0.017,0.017*
1,1,0.022,0.017,0.017*
1,1,0.022,0.017,-0.017*
1,1,0.022,-0.017,-0.017*
%
%ADD104ROUNDEDRECTD104*%
G04:AMPARAMS|DCode=105|XSize=55mil|YSize=55mil|CornerRadius=11mil|HoleSize=0mil|Usage=FLASHONLY|Rotation=270.000|XOffset=0mil|YOffset=0mil|HoleType=Round|Shape=RoundedRectangle|*
%AMROUNDEDRECTD105*
21,1,0.055,0.033,0,0,270.0*
21,1,0.033,0.055,0,0,270.0*
1,1,0.022,-0.017,-0.017*
1,1,0.022,-0.017,0.017*
1,1,0.022,0.017,0.017*
1,1,0.022,0.017,-0.017*
%
%ADD105ROUNDEDRECTD105*%
G04:AMPARAMS|DCode=106|XSize=43mil|YSize=43mil|CornerRadius=9mil|HoleSize=0mil|Usage=FLASHONLY|Rotation=0.000|XOffset=0mil|YOffset=0mil|HoleType=Round|Shape=RoundedRectangle|*
%AMROUNDEDRECTD106*
21,1,0.043,0.025,0,0,0.0*
21,1,0.025,0.043,0,0,0.0*
1,1,0.019,0.012,-0.012*
1,1,0.019,-0.012,-0.012*
1,1,0.019,-0.012,0.012*
1,1,0.019,0.012,0.012*
%
%ADD106ROUNDEDRECTD106*%
G04:AMPARAMS|DCode=107|XSize=36mil|YSize=59mil|CornerRadius=8mil|HoleSize=0mil|Usage=FLASHONLY|Rotation=180.000|XOffset=0mil|YOffset=0mil|HoleType=Round|Shape=RoundedRectangle|*
%AMROUNDEDRECTD107*
21,1,0.036,0.043,0,0,180.0*
21,1,0.019,0.059,0,0,180.0*
1,1,0.016,-0.010,0.021*
1,1,0.016,0.010,0.021*
1,1,0.016,0.010,-0.021*
1,1,0.016,-0.010,-0.021*
%
%ADD107ROUNDEDRECTD107*%
G04:AMPARAMS|DCode=108|XSize=36mil|YSize=59mil|CornerRadius=8mil|HoleSize=0mil|Usage=FLASHONLY|Rotation=270.000|XOffset=0mil|YOffset=0mil|HoleType=Round|Shape=RoundedRectangle|*
%AMROUNDEDRECTD108*
21,1,0.036,0.043,0,0,270.0*
21,1,0.019,0.059,0,0,270.0*
1,1,0.016,-0.021,-0.010*
1,1,0.016,-0.021,0.010*
1,1,0.016,0.021,0.010*
1,1,0.016,0.021,-0.010*
%
%ADD108ROUNDEDRECTD108*%
G04:AMPARAMS|DCode=109|XSize=32mil|YSize=32mil|CornerRadius=9mil|HoleSize=0mil|Usage=FLASHONLY|Rotation=180.000|XOffset=0mil|YOffset=0mil|HoleType=Round|Shape=RoundedRectangle|*
%AMROUNDEDRECTD109*
21,1,0.032,0.014,0,0,180.0*
21,1,0.014,0.032,0,0,180.0*
1,1,0.017,-0.007,0.007*
1,1,0.017,0.007,0.007*
1,1,0.017,0.007,-0.007*
1,1,0.017,-0.007,-0.007*
%
%ADD109ROUNDEDRECTD109*%
%ADD110R,0.165X0.126*%
%ADD111R,0.323X0.025*%
G04:AMPARAMS|DCode=112|XSize=32mil|YSize=32mil|CornerRadius=9mil|HoleSize=0mil|Usage=FLASHONLY|Rotation=270.000|XOffset=0mil|YOffset=0mil|HoleType=Round|Shape=RoundedRectangle|*
%AMROUNDEDRECTD112*
21,1,0.032,0.014,0,0,270.0*
21,1,0.014,0.032,0,0,270.0*
1,1,0.017,-0.007,-0.007*
1,1,0.017,-0.007,0.007*
1,1,0.017,0.007,0.007*
1,1,0.017,0.007,-0.007*
%
%ADD112ROUNDEDRECTD112*%
G04:AMPARAMS|DCode=113|XSize=122mil|YSize=221mil|CornerRadius=33mil|HoleSize=0mil|Usage=FLASHONLY|Rotation=90.000|XOffset=0mil|YOffset=0mil|HoleType=Round|Shape=RoundedRectangle|*
%AMROUNDEDRECTD113*
21,1,0.122,0.156,0,0,90.0*
21,1,0.057,0.221,0,0,90.0*
1,1,0.065,0.078,0.029*
1,1,0.065,0.078,-0.029*
1,1,0.065,-0.078,-0.029*
1,1,0.065,-0.078,0.029*
%
%ADD113ROUNDEDRECTD113*%
%ADD114R,0.059X0.114*%
%ADD115R,0.114X0.059*%
G04:AMPARAMS|DCode=116|XSize=18mil|YSize=32mil|CornerRadius=4mil|HoleSize=0mil|Usage=FLASHONLY|Rotation=90.000|XOffset=0mil|YOffset=0mil|HoleType=Round|Shape=RoundedRectangle|*
%AMROUNDEDRECTD116*
21,1,0.018,0.023,0,0,90.0*
21,1,0.009,0.032,0,0,90.0*
1,1,0.009,0.012,0.004*
1,1,0.009,0.012,-0.004*
1,1,0.009,-0.012,-0.004*
1,1,0.009,-0.012,0.004*
%
%ADD116ROUNDEDRECTD116*%
G04:AMPARAMS|DCode=117|XSize=38mil|YSize=34mil|CornerRadius=6mil|HoleSize=0mil|Usage=FLASHONLY|Rotation=180.000|XOffset=0mil|YOffset=0mil|HoleType=Round|Shape=RoundedRectangle|*
%AMROUNDEDRECTD117*
21,1,0.038,0.021,0,0,180.0*
21,1,0.025,0.034,0,0,180.0*
1,1,0.013,-0.012,0.010*
1,1,0.013,0.012,0.010*
1,1,0.013,0.012,-0.010*
1,1,0.013,-0.012,-0.010*
%
%ADD117ROUNDEDRECTD117*%
G04:AMPARAMS|DCode=118|XSize=39mil|YSize=59mil|CornerRadius=9mil|HoleSize=0mil|Usage=FLASHONLY|Rotation=270.000|XOffset=0mil|YOffset=0mil|HoleType=Round|Shape=RoundedRectangle|*
%AMROUNDEDRECTD118*
21,1,0.039,0.042,0,0,270.0*
21,1,0.022,0.059,0,0,270.0*
1,1,0.017,-0.021,-0.011*
1,1,0.017,-0.021,0.011*
1,1,0.017,0.021,0.011*
1,1,0.017,0.021,-0.011*
%
%ADD118ROUNDEDRECTD118*%
G04:AMPARAMS|DCode=119|XSize=39mil|YSize=59mil|CornerRadius=9mil|HoleSize=0mil|Usage=FLASHONLY|Rotation=0.000|XOffset=0mil|YOffset=0mil|HoleType=Round|Shape=RoundedRectangle|*
%AMROUNDEDRECTD119*
21,1,0.039,0.042,0,0,0.0*
21,1,0.022,0.059,0,0,0.0*
1,1,0.017,0.011,-0.021*
1,1,0.017,-0.011,-0.021*
1,1,0.017,-0.011,0.021*
1,1,0.017,0.011,0.021*
%
%ADD119ROUNDEDRECTD119*%
G04:AMPARAMS|DCode=120|XSize=67mil|YSize=165mil|CornerRadius=19mil|HoleSize=0mil|Usage=FLASHONLY|Rotation=0.000|XOffset=0mil|YOffset=0mil|HoleType=Round|Shape=RoundedRectangle|*
%AMROUNDEDRECTD120*
21,1,0.067,0.128,0,0,0.0*
21,1,0.030,0.165,0,0,0.0*
1,1,0.038,0.015,-0.064*
1,1,0.038,-0.015,-0.064*
1,1,0.038,-0.015,0.064*
1,1,0.038,0.015,0.064*
%
%ADD120ROUNDEDRECTD120*%
G04:AMPARAMS|DCode=121|XSize=429mil|YSize=347mil|CornerRadius=38mil|HoleSize=0mil|Usage=FLASHONLY|Rotation=0.000|XOffset=0mil|YOffset=0mil|HoleType=Round|Shape=RoundedRectangle|*
%AMROUNDEDRECTD121*
21,1,0.429,0.271,0,0,0.0*
21,1,0.354,0.347,0,0,0.0*
1,1,0.076,0.177,-0.135*
1,1,0.076,-0.177,-0.135*
1,1,0.076,-0.177,0.135*
1,1,0.076,0.177,0.135*
%
%ADD121ROUNDEDRECTD121*%
G04:AMPARAMS|DCode=122|XSize=24mil|YSize=48mil|CornerRadius=8mil|HoleSize=0mil|Usage=FLASHONLY|Rotation=90.000|XOffset=0mil|YOffset=0mil|HoleType=Round|Shape=RoundedRectangle|*
%AMROUNDEDRECTD122*
21,1,0.024,0.032,0,0,90.0*
21,1,0.008,0.048,0,0,90.0*
1,1,0.016,0.016,0.004*
1,1,0.016,0.016,-0.004*
1,1,0.016,-0.016,-0.004*
1,1,0.016,-0.016,0.004*
%
%ADD122ROUNDEDRECTD122*%
G04:AMPARAMS|DCode=123|XSize=16mil|YSize=17mil|CornerRadius=5mil|HoleSize=0mil|Usage=FLASHONLY|Rotation=0.000|XOffset=0mil|YOffset=0mil|HoleType=Round|Shape=RoundedRectangle|*
%AMROUNDEDRECTD123*
21,1,0.016,0.007,0,0,0.0*
21,1,0.006,0.017,0,0,0.0*
1,1,0.010,0.003,-0.003*
1,1,0.010,-0.003,-0.003*
1,1,0.010,-0.003,0.003*
1,1,0.010,0.003,0.003*
%
%ADD123ROUNDEDRECTD123*%
%ADD124R,0.016X0.017*%
G04:AMPARAMS|DCode=125|XSize=17mil|YSize=16mil|CornerRadius=5mil|HoleSize=0mil|Usage=FLASHONLY|Rotation=90.000|XOffset=0mil|YOffset=0mil|HoleType=Round|Shape=RoundedRectangle|*
%AMROUNDEDRECTD125*
21,1,0.017,0.006,0,0,90.0*
21,1,0.007,0.016,0,0,90.0*
1,1,0.010,0.003,0.003*
1,1,0.010,0.003,-0.003*
1,1,0.010,-0.003,-0.003*
1,1,0.010,-0.003,0.003*
%
%ADD125ROUNDEDRECTD125*%
%ADD126R,0.016X0.017*%
%ADD127R,0.016X0.016*%
G04:AMPARAMS|DCode=128|XSize=102mil|YSize=102mil|CornerRadius=12mil|HoleSize=0mil|Usage=FLASHONLY|Rotation=0.000|XOffset=0mil|YOffset=0mil|HoleType=Round|Shape=RoundedRectangle|*
%AMROUNDEDRECTD128*
21,1,0.102,0.079,0,0,0.0*
21,1,0.079,0.102,0,0,0.0*
1,1,0.024,0.039,-0.039*
1,1,0.024,-0.039,-0.039*
1,1,0.024,-0.039,0.039*
1,1,0.024,0.039,0.039*
%
%ADD128ROUNDEDRECTD128*%
%ADD129R,0.025X0.078*%
G04:AMPARAMS|DCode=130|XSize=25mil|YSize=32mil|CornerRadius=0mil|HoleSize=0mil|Usage=FLASHONLY|Rotation=135.000|XOffset=0mil|YOffset=0mil|HoleType=Round|Shape=Rectangle|*
%AMROTATEDRECTD130*
4,1,4,0.020,0.002,-0.002,-0.020,-0.020,-0.002,0.002,0.020,0.020,0.002,0.0*
%
%ADD130ROTATEDRECTD130*%

G04:AMPARAMS|DCode=131|XSize=25mil|YSize=32mil|CornerRadius=0mil|HoleSize=0mil|Usage=FLASHONLY|Rotation=45.000|XOffset=0mil|YOffset=0mil|HoleType=Round|Shape=Rectangle|*
%AMROTATEDRECTD131*
4,1,4,0.002,-0.020,-0.020,0.002,-0.002,0.020,0.020,-0.002,0.002,-0.020,0.0*
%
%ADD131ROTATEDRECTD131*%

%ADD132R,0.032X0.025*%
%ADD133C,0.087*%
%ADD134R,0.067X0.067*%
%ADD135C,0.067*%
%ADD136C,0.088*%
%ADD137C,0.069*%
%ADD138R,0.069X0.069*%
D88*
X4215Y2060D02*
D03*
X4375D02*
D03*
X4215Y1545D02*
D03*
X4375D02*
D03*
D89*
X4295Y2135D02*
D03*
Y1985D02*
D03*
Y1620D02*
D03*
Y1470D02*
D03*
D90*
X4065Y2618D02*
D03*
Y2692D02*
D03*
X3955Y2977D02*
D03*
Y2903D02*
D03*
X1450Y4472D02*
D03*
Y4398D02*
D03*
X3230D02*
D03*
Y4472D02*
D03*
X4530Y4318D02*
D03*
Y4392D02*
D03*
D91*
X4387Y1120D02*
D03*
X4343D02*
D03*
X4493D02*
D03*
X4537D02*
D03*
X4397Y2480D02*
D03*
X4353D02*
D03*
X4493D02*
D03*
X4537D02*
D03*
X2277Y1735D02*
D03*
X2233D02*
D03*
X2277Y1785D02*
D03*
X2233D02*
D03*
X1358Y3795D02*
D03*
X1402D02*
D03*
X1293Y3245D02*
D03*
X1337D02*
D03*
X3058Y1305D02*
D03*
X3102D02*
D03*
X1353Y2600D02*
D03*
X1397D02*
D03*
X3267Y1525D02*
D03*
X3223D02*
D03*
X3267Y1470D02*
D03*
X3223D02*
D03*
X1692Y1815D02*
D03*
X1648D02*
D03*
X3813Y1735D02*
D03*
X3857D02*
D03*
X3957D02*
D03*
X3913D02*
D03*
X4492Y2910D02*
D03*
X4448D02*
D03*
D92*
X2292Y1510D02*
D03*
X2218D02*
D03*
X1417Y3895D02*
D03*
X1343D02*
D03*
X1352Y3320D02*
D03*
X1278D02*
D03*
X1943Y3895D02*
D03*
X2017D02*
D03*
X3117Y1370D02*
D03*
X3043D02*
D03*
X1412Y2695D02*
D03*
X1338D02*
D03*
X3117Y1600D02*
D03*
X3043D02*
D03*
X1963Y2695D02*
D03*
X2037D02*
D03*
X1633Y1750D02*
D03*
X1707D02*
D03*
X1633Y1515D02*
D03*
X1707D02*
D03*
X3043Y3145D02*
D03*
X3117D02*
D03*
X3043Y3060D02*
D03*
X3117D02*
D03*
D93*
X2105Y1578D02*
D03*
Y1622D02*
D03*
X1200Y2278D02*
D03*
Y2235D02*
D03*
X1250Y2278D02*
D03*
Y2235D02*
D03*
X1470Y1662D02*
D03*
Y1618D02*
D03*
X1520Y1662D02*
D03*
Y1618D02*
D03*
X4595Y4377D02*
D03*
Y4333D02*
D03*
X4175D02*
D03*
Y4377D02*
D03*
D94*
X3971Y1825D02*
D03*
X3997Y1799D02*
D03*
D95*
X3971Y1835D02*
D03*
X3997Y1861D02*
D03*
D96*
X3962Y1830D02*
D03*
X3925D02*
D03*
D97*
X1890Y4561D02*
D03*
Y4305D02*
D03*
X2940Y4304D02*
D03*
Y4560D02*
D03*
D98*
X3128Y2555D02*
D03*
X3002D02*
D03*
X3128Y2420D02*
D03*
X3002D02*
D03*
X3128Y2690D02*
D03*
X3002D02*
D03*
D99*
X4570Y3155D02*
D03*
X4630D02*
D03*
X3670Y1590D02*
D03*
X3730D02*
D03*
D100*
X4561Y2970D02*
D03*
X4639D02*
D03*
D101*
X1355Y3520D02*
D03*
Y3410D02*
D03*
X1995Y3410D02*
D03*
Y3520D02*
D03*
X1350Y2345D02*
D03*
Y2235D02*
D03*
X2000Y2220D02*
D03*
Y2330D02*
D03*
D102*
X1340Y4475D02*
D03*
X1230D02*
D03*
X3955Y3115D02*
D03*
X4065D02*
D03*
X4065Y3240D02*
D03*
X3955D02*
D03*
D103*
X1285Y4355D02*
D03*
Y4180D02*
D03*
D104*
X1996Y3245D02*
D03*
X2074D02*
D03*
X1931Y2045D02*
D03*
X2009D02*
D03*
D105*
X1545Y1426D02*
D03*
Y1504D02*
D03*
X3200Y1679D02*
D03*
Y1601D02*
D03*
X3725Y2761D02*
D03*
Y2839D02*
D03*
D106*
X4230Y4325D02*
D03*
Y4385D02*
D03*
X4445Y2055D02*
D03*
Y2115D02*
D03*
X4440Y1545D02*
D03*
Y1485D02*
D03*
D107*
X2257Y4715D02*
D03*
X2183D02*
D03*
X2632D02*
D03*
X2558D02*
D03*
X3208Y1240D02*
D03*
X3282D02*
D03*
X3393D02*
D03*
X3467D02*
D03*
X3117D02*
D03*
X3043D02*
D03*
X2102Y1710D02*
D03*
X2028D02*
D03*
X3872Y1665D02*
D03*
X3798D02*
D03*
X3872Y1590D02*
D03*
X3798D02*
D03*
X2718Y2450D02*
D03*
X2792D02*
D03*
X2537D02*
D03*
X2463D02*
D03*
X2537Y2840D02*
D03*
X2463D02*
D03*
Y2920D02*
D03*
X2537D02*
D03*
X3138Y3990D02*
D03*
X3212D02*
D03*
X3558D02*
D03*
X3632D02*
D03*
X4563Y3230D02*
D03*
X4637D02*
D03*
X4433Y2850D02*
D03*
X4507D02*
D03*
X4563Y3480D02*
D03*
X4637D02*
D03*
X4507Y3405D02*
D03*
X4433D02*
D03*
X4563Y3935D02*
D03*
X4637D02*
D03*
X4418D02*
D03*
X4492D02*
D03*
X4187Y4770D02*
D03*
X4113D02*
D03*
X4337D02*
D03*
X4263D02*
D03*
X4563D02*
D03*
X4637D02*
D03*
X4418D02*
D03*
X4492D02*
D03*
D108*
X1570Y4472D02*
D03*
Y4398D02*
D03*
X3345D02*
D03*
Y4472D02*
D03*
X1385Y1677D02*
D03*
Y1603D02*
D03*
X3505Y1527D02*
D03*
Y1453D02*
D03*
X1385Y1502D02*
D03*
Y1428D02*
D03*
X3605Y1453D02*
D03*
Y1527D02*
D03*
X2025Y1642D02*
D03*
Y1568D02*
D03*
X3785Y1527D02*
D03*
Y1453D02*
D03*
X3885Y1527D02*
D03*
Y1453D02*
D03*
X2795Y2842D02*
D03*
Y2768D02*
D03*
X2720Y2643D02*
D03*
Y2717D02*
D03*
X2795D02*
D03*
Y2643D02*
D03*
X2625Y2843D02*
D03*
Y2917D02*
D03*
X2465Y2643D02*
D03*
Y2717D02*
D03*
X2540Y2643D02*
D03*
Y2717D02*
D03*
X3725Y2692D02*
D03*
Y2618D02*
D03*
X3800Y2692D02*
D03*
Y2618D02*
D03*
X3725Y2903D02*
D03*
Y2977D02*
D03*
X3800D02*
D03*
Y2903D02*
D03*
X3120Y3378D02*
D03*
Y3452D02*
D03*
X3650Y3378D02*
D03*
Y3452D02*
D03*
X4220Y4003D02*
D03*
Y4077D02*
D03*
X4295D02*
D03*
Y4003D02*
D03*
X4220Y4202D02*
D03*
Y4128D02*
D03*
X4565Y4202D02*
D03*
Y4128D02*
D03*
Y4003D02*
D03*
Y4077D02*
D03*
X4145Y4128D02*
D03*
Y4202D02*
D03*
X4640Y4077D02*
D03*
Y4003D02*
D03*
X4715Y4202D02*
D03*
Y4128D02*
D03*
X4415Y4077D02*
D03*
Y4003D02*
D03*
X4070Y4128D02*
D03*
Y4202D02*
D03*
X4490Y4077D02*
D03*
Y4003D02*
D03*
X4640Y4128D02*
D03*
Y4202D02*
D03*
X4715Y4003D02*
D03*
Y4077D02*
D03*
X4185Y4503D02*
D03*
Y4577D02*
D03*
Y4702D02*
D03*
Y4628D02*
D03*
X4110D02*
D03*
Y4702D02*
D03*
X4035Y4503D02*
D03*
Y4577D02*
D03*
X4335Y4628D02*
D03*
Y4702D02*
D03*
X4565Y4503D02*
D03*
Y4577D02*
D03*
X4260Y4628D02*
D03*
Y4702D02*
D03*
X4110Y4577D02*
D03*
Y4503D02*
D03*
X4035Y4702D02*
D03*
Y4628D02*
D03*
X4565Y4702D02*
D03*
Y4628D02*
D03*
X4640D02*
D03*
Y4702D02*
D03*
X4715Y4503D02*
D03*
Y4577D02*
D03*
X4415Y4628D02*
D03*
Y4702D02*
D03*
X4490Y4628D02*
D03*
Y4702D02*
D03*
X4640Y4577D02*
D03*
Y4503D02*
D03*
X4715Y4702D02*
D03*
Y4628D02*
D03*
X3650Y2353D02*
D03*
Y2427D02*
D03*
D109*
X4050Y2046D02*
D03*
Y2004D02*
D03*
X4000Y2046D02*
D03*
Y2004D02*
D03*
Y1586D02*
D03*
Y1544D02*
D03*
X4045Y1586D02*
D03*
Y1544D02*
D03*
X4510Y2141D02*
D03*
Y2099D02*
D03*
X4560Y2141D02*
D03*
Y2099D02*
D03*
X4505Y1459D02*
D03*
Y1501D02*
D03*
X4555Y1459D02*
D03*
Y1501D02*
D03*
D110*
X4906Y2193D02*
D03*
Y1917D02*
D03*
Y1683D02*
D03*
Y1407D02*
D03*
X4916Y3493D02*
D03*
Y3217D02*
D03*
D111*
X4828Y2055D02*
D03*
Y1545D02*
D03*
X4838Y3355D02*
D03*
D112*
X4449Y3105D02*
D03*
X4491D02*
D03*
X4621D02*
D03*
X4579D02*
D03*
Y2910D02*
D03*
X4621D02*
D03*
D113*
X2415Y4560D02*
D03*
Y4170D02*
D03*
D114*
X3008Y2825D02*
D03*
X3122D02*
D03*
D115*
X4065Y2883D02*
D03*
Y2997D02*
D03*
D116*
X4652Y2055D02*
D03*
X4578D02*
D03*
X4647Y1545D02*
D03*
X4573D02*
D03*
D117*
X4615Y2033D02*
D03*
Y2077D02*
D03*
X4610Y1523D02*
D03*
Y1567D02*
D03*
D118*
X1255Y3502D02*
D03*
Y3428D02*
D03*
X1350Y2157D02*
D03*
Y2083D02*
D03*
X1470Y1502D02*
D03*
Y1428D02*
D03*
X4445Y2163D02*
D03*
Y2237D02*
D03*
Y2283D02*
D03*
Y2357D02*
D03*
Y2403D02*
D03*
Y2477D02*
D03*
X4440Y1437D02*
D03*
Y1363D02*
D03*
Y1317D02*
D03*
Y1243D02*
D03*
Y1197D02*
D03*
Y1123D02*
D03*
X3650Y2618D02*
D03*
Y2692D02*
D03*
X3875Y2837D02*
D03*
Y2763D02*
D03*
X3800D02*
D03*
Y2837D02*
D03*
X3650Y2977D02*
D03*
Y2903D02*
D03*
Y2837D02*
D03*
Y2763D02*
D03*
X3875Y2903D02*
D03*
Y2977D02*
D03*
X3955Y2692D02*
D03*
Y2618D02*
D03*
X3120Y3248D02*
D03*
Y3322D02*
D03*
X3650Y3248D02*
D03*
Y3322D02*
D03*
X3995Y4128D02*
D03*
Y4202D02*
D03*
D119*
X1943Y3695D02*
D03*
X2017D02*
D03*
X2072Y3325D02*
D03*
X1998D02*
D03*
X2017Y3795D02*
D03*
X1943D02*
D03*
X3282Y1370D02*
D03*
X3208D02*
D03*
X1352Y3175D02*
D03*
X1278D02*
D03*
X1963Y2495D02*
D03*
X2037D02*
D03*
X2007Y2135D02*
D03*
X1933D02*
D03*
X2037Y2595D02*
D03*
X1963D02*
D03*
X3337Y1600D02*
D03*
X3263D02*
D03*
X1707Y1415D02*
D03*
X1633D02*
D03*
X3048Y1680D02*
D03*
X3122D02*
D03*
X2102Y1810D02*
D03*
X2028D02*
D03*
X4637Y3305D02*
D03*
X4563D02*
D03*
X4507Y3045D02*
D03*
X4433D02*
D03*
Y2775D02*
D03*
X4507D02*
D03*
X4637Y3045D02*
D03*
X4563D02*
D03*
X4637Y3405D02*
D03*
X4563D02*
D03*
D120*
X1575Y3829D02*
D03*
X1675D02*
D03*
X1775D02*
D03*
X1575Y2649D02*
D03*
X1675D02*
D03*
X1775D02*
D03*
D121*
X1675Y3411D02*
D03*
Y2231D02*
D03*
D122*
X2989Y1447D02*
D03*
Y1472D02*
D03*
Y1498D02*
D03*
Y1523D02*
D03*
X3171D02*
D03*
Y1498D02*
D03*
Y1472D02*
D03*
Y1447D02*
D03*
X1761Y1673D02*
D03*
Y1648D02*
D03*
Y1622D02*
D03*
Y1597D02*
D03*
X1579D02*
D03*
Y1622D02*
D03*
Y1648D02*
D03*
Y1673D02*
D03*
X2346D02*
D03*
Y1648D02*
D03*
Y1622D02*
D03*
Y1597D02*
D03*
X2164D02*
D03*
Y1622D02*
D03*
Y1648D02*
D03*
Y1673D02*
D03*
D123*
X3786Y1907D02*
D03*
X3884D02*
D03*
Y1773D02*
D03*
X3786D02*
D03*
D124*
X3805Y1907D02*
D03*
X3825D02*
D03*
X3845D02*
D03*
X3865D02*
D03*
Y1773D02*
D03*
X3845D02*
D03*
X3825D02*
D03*
X3805D02*
D03*
D125*
X3902Y1889D02*
D03*
Y1791D02*
D03*
X3768D02*
D03*
Y1889D02*
D03*
D126*
X3902Y1870D02*
D03*
Y1850D02*
D03*
Y1830D02*
D03*
Y1810D02*
D03*
D127*
X3768D02*
D03*
Y1830D02*
D03*
Y1850D02*
D03*
Y1870D02*
D03*
D128*
X3835Y1840D02*
D03*
D129*
X4298Y4238D02*
D03*
X4324D02*
D03*
X4349D02*
D03*
X4375D02*
D03*
X4401D02*
D03*
X4426D02*
D03*
X4452D02*
D03*
Y4472D02*
D03*
X4426D02*
D03*
X4401D02*
D03*
X4375D02*
D03*
X4349D02*
D03*
X4324D02*
D03*
X4298D02*
D03*
D130*
X4025Y1890D02*
D03*
X4055Y1920D02*
D03*
D131*
X4025Y1770D02*
D03*
X4055Y1740D02*
D03*
D132*
X4493Y2055D02*
D03*
X4537D02*
D03*
X4488Y1545D02*
D03*
X4532D02*
D03*
D133*
X1675Y3095D02*
D03*
X3190Y4840D02*
D03*
X2050Y3100D02*
D03*
Y2875D02*
D03*
X3590Y1300D02*
D03*
X1925Y1625D02*
D03*
X1675Y2880D02*
D03*
X3380Y1765D02*
D03*
X1470Y1290D02*
D03*
X1930Y1810D02*
D03*
X2795Y2555D02*
D03*
X2625Y3025D02*
D03*
X2465Y2555D02*
D03*
X3990Y2780D02*
D03*
X2990Y3240D02*
D03*
X3780D02*
D03*
X4075Y4355D02*
D03*
X4605Y3810D02*
D03*
X4835Y4075D02*
D03*
X4450Y3810D02*
D03*
X3915Y4355D02*
D03*
X4145Y4895D02*
D03*
X3915Y4630D02*
D03*
X4295Y4895D02*
D03*
X4605D02*
D03*
X4835Y4630D02*
D03*
X4455Y4895D02*
D03*
D134*
X1090Y4375D02*
D03*
D135*
Y4475D02*
D03*
D136*
X3475Y2290D02*
D03*
X3275Y2390D02*
D03*
X3475Y2490D02*
D03*
X3275Y3835D02*
D03*
X3175Y3635D02*
D03*
X3075Y3835D02*
D03*
X3695D02*
D03*
X3595Y3635D02*
D03*
X3495Y3835D02*
D03*
D137*
X3235Y2690D02*
D03*
Y2790D02*
D03*
Y2890D02*
D03*
Y2990D02*
D03*
X3535D02*
D03*
Y2890D02*
D03*
Y2790D02*
D03*
X3235Y3145D02*
D03*
Y3245D02*
D03*
Y3345D02*
D03*
Y3445D02*
D03*
X3535D02*
D03*
Y3345D02*
D03*
Y3245D02*
D03*
D138*
Y2690D02*
D03*
Y3145D02*
D03*
M02*
