%FSLAX23Y23*%
%MOIN*%
G70*
G01*
G75*
G04 Layer_Physical_Order=4*
G04 Layer_Color=16711680*
%ADD10C,0.010*%
%ADD11C,0.020*%
%ADD12C,0.015*%
%ADD13C,0.012*%
%ADD14R,0.060X0.023*%
%ADD15R,0.120X0.080*%
G04:AMPARAMS|DCode=16|XSize=51mil|YSize=59mil|CornerRadius=8mil|HoleSize=0mil|Usage=FLASHONLY|Rotation=90.000|XOffset=0mil|YOffset=0mil|HoleType=Round|Shape=RoundedRectangle|*
%AMROUNDEDRECTD16*
21,1,0.051,0.044,0,0,90.0*
21,1,0.036,0.059,0,0,90.0*
1,1,0.015,0.022,0.018*
1,1,0.015,0.022,-0.018*
1,1,0.015,-0.022,-0.018*
1,1,0.015,-0.022,0.018*
%
%ADD16ROUNDEDRECTD16*%
G04:AMPARAMS|DCode=17|XSize=24mil|YSize=24mil|CornerRadius=6mil|HoleSize=0mil|Usage=FLASHONLY|Rotation=90.000|XOffset=0mil|YOffset=0mil|HoleType=Round|Shape=RoundedRectangle|*
%AMROUNDEDRECTD17*
21,1,0.024,0.012,0,0,90.0*
21,1,0.012,0.024,0,0,90.0*
1,1,0.012,0.006,0.006*
1,1,0.012,0.006,-0.006*
1,1,0.012,-0.006,-0.006*
1,1,0.012,-0.006,0.006*
%
%ADD17ROUNDEDRECTD17*%
G04:AMPARAMS|DCode=18|XSize=51mil|YSize=59mil|CornerRadius=8mil|HoleSize=0mil|Usage=FLASHONLY|Rotation=180.000|XOffset=0mil|YOffset=0mil|HoleType=Round|Shape=RoundedRectangle|*
%AMROUNDEDRECTD18*
21,1,0.051,0.044,0,0,180.0*
21,1,0.036,0.059,0,0,180.0*
1,1,0.015,-0.018,0.022*
1,1,0.015,0.018,0.022*
1,1,0.015,0.018,-0.022*
1,1,0.015,-0.018,-0.022*
%
%ADD18ROUNDEDRECTD18*%
G04:AMPARAMS|DCode=19|XSize=24mil|YSize=24mil|CornerRadius=6mil|HoleSize=0mil|Usage=FLASHONLY|Rotation=0.000|XOffset=0mil|YOffset=0mil|HoleType=Round|Shape=RoundedRectangle|*
%AMROUNDEDRECTD19*
21,1,0.024,0.012,0,0,0.0*
21,1,0.012,0.024,0,0,0.0*
1,1,0.012,0.006,-0.006*
1,1,0.012,-0.006,-0.006*
1,1,0.012,-0.006,0.006*
1,1,0.012,0.006,0.006*
%
%ADD19ROUNDEDRECTD19*%
%ADD20P,0.024X4X360.0*%
%ADD21P,0.024X4X90.0*%
%ADD22R,0.017X0.017*%
G04:AMPARAMS|DCode=23|XSize=98mil|YSize=138mil|CornerRadius=25mil|HoleSize=0mil|Usage=FLASHONLY|Rotation=0.000|XOffset=0mil|YOffset=0mil|HoleType=Round|Shape=RoundedRectangle|*
%AMROUNDEDRECTD23*
21,1,0.098,0.089,0,0,0.0*
21,1,0.049,0.138,0,0,0.0*
1,1,0.049,0.025,-0.044*
1,1,0.049,-0.025,-0.044*
1,1,0.049,-0.025,0.044*
1,1,0.049,0.025,0.044*
%
%ADD23ROUNDEDRECTD23*%
G04:AMPARAMS|DCode=24|XSize=106mil|YSize=67mil|CornerRadius=10mil|HoleSize=0mil|Usage=FLASHONLY|Rotation=270.000|XOffset=0mil|YOffset=0mil|HoleType=Round|Shape=RoundedRectangle|*
%AMROUNDEDRECTD24*
21,1,0.106,0.047,0,0,270.0*
21,1,0.086,0.067,0,0,270.0*
1,1,0.020,-0.023,-0.043*
1,1,0.020,-0.023,0.043*
1,1,0.020,0.023,0.043*
1,1,0.020,0.023,-0.043*
%
%ADD24ROUNDEDRECTD24*%
G04:AMPARAMS|DCode=25|XSize=35mil|YSize=35mil|CornerRadius=5mil|HoleSize=0mil|Usage=FLASHONLY|Rotation=270.000|XOffset=0mil|YOffset=0mil|HoleType=Round|Shape=RoundedRectangle|*
%AMROUNDEDRECTD25*
21,1,0.035,0.025,0,0,270.0*
21,1,0.025,0.035,0,0,270.0*
1,1,0.011,-0.012,-0.012*
1,1,0.011,-0.012,0.012*
1,1,0.011,0.012,0.012*
1,1,0.011,0.012,-0.012*
%
%ADD25ROUNDEDRECTD25*%
G04:AMPARAMS|DCode=26|XSize=51mil|YSize=47mil|CornerRadius=7mil|HoleSize=0mil|Usage=FLASHONLY|Rotation=90.000|XOffset=0mil|YOffset=0mil|HoleType=Round|Shape=RoundedRectangle|*
%AMROUNDEDRECTD26*
21,1,0.051,0.033,0,0,90.0*
21,1,0.037,0.047,0,0,90.0*
1,1,0.014,0.017,0.019*
1,1,0.014,0.017,-0.019*
1,1,0.014,-0.017,-0.019*
1,1,0.014,-0.017,0.019*
%
%ADD26ROUNDEDRECTD26*%
G04:AMPARAMS|DCode=27|XSize=47mil|YSize=47mil|CornerRadius=12mil|HoleSize=0mil|Usage=FLASHONLY|Rotation=270.000|XOffset=0mil|YOffset=0mil|HoleType=Round|Shape=RoundedRectangle|*
%AMROUNDEDRECTD27*
21,1,0.047,0.024,0,0,270.0*
21,1,0.024,0.047,0,0,270.0*
1,1,0.024,-0.012,-0.012*
1,1,0.024,-0.012,0.012*
1,1,0.024,0.012,0.012*
1,1,0.024,0.012,-0.012*
%
%ADD27ROUNDEDRECTD27*%
G04:AMPARAMS|DCode=28|XSize=47mil|YSize=47mil|CornerRadius=12mil|HoleSize=0mil|Usage=FLASHONLY|Rotation=180.000|XOffset=0mil|YOffset=0mil|HoleType=Round|Shape=RoundedRectangle|*
%AMROUNDEDRECTD28*
21,1,0.047,0.024,0,0,180.0*
21,1,0.024,0.047,0,0,180.0*
1,1,0.024,-0.012,0.012*
1,1,0.024,0.012,0.012*
1,1,0.024,0.012,-0.012*
1,1,0.024,-0.012,-0.012*
%
%ADD28ROUNDEDRECTD28*%
%ADD29R,0.110X0.085*%
G04:AMPARAMS|DCode=30|XSize=47mil|YSize=47mil|CornerRadius=7mil|HoleSize=0mil|Usage=FLASHONLY|Rotation=180.000|XOffset=0mil|YOffset=0mil|HoleType=Round|Shape=RoundedRectangle|*
%AMROUNDEDRECTD30*
21,1,0.047,0.033,0,0,180.0*
21,1,0.033,0.047,0,0,180.0*
1,1,0.014,-0.017,0.017*
1,1,0.014,0.017,0.017*
1,1,0.014,0.017,-0.017*
1,1,0.014,-0.017,-0.017*
%
%ADD30ROUNDEDRECTD30*%
G04:AMPARAMS|DCode=31|XSize=47mil|YSize=47mil|CornerRadius=7mil|HoleSize=0mil|Usage=FLASHONLY|Rotation=270.000|XOffset=0mil|YOffset=0mil|HoleType=Round|Shape=RoundedRectangle|*
%AMROUNDEDRECTD31*
21,1,0.047,0.033,0,0,270.0*
21,1,0.033,0.047,0,0,270.0*
1,1,0.014,-0.017,-0.017*
1,1,0.014,-0.017,0.017*
1,1,0.014,0.017,0.017*
1,1,0.014,0.017,-0.017*
%
%ADD31ROUNDEDRECTD31*%
G04:AMPARAMS|DCode=32|XSize=35mil|YSize=35mil|CornerRadius=5mil|HoleSize=0mil|Usage=FLASHONLY|Rotation=0.000|XOffset=0mil|YOffset=0mil|HoleType=Round|Shape=RoundedRectangle|*
%AMROUNDEDRECTD32*
21,1,0.035,0.025,0,0,0.0*
21,1,0.025,0.035,0,0,0.0*
1,1,0.011,0.012,-0.012*
1,1,0.011,-0.012,-0.012*
1,1,0.011,-0.012,0.012*
1,1,0.011,0.012,0.012*
%
%ADD32ROUNDEDRECTD32*%
G04:AMPARAMS|DCode=33|XSize=28mil|YSize=51mil|CornerRadius=4mil|HoleSize=0mil|Usage=FLASHONLY|Rotation=180.000|XOffset=0mil|YOffset=0mil|HoleType=Round|Shape=RoundedRectangle|*
%AMROUNDEDRECTD33*
21,1,0.028,0.043,0,0,180.0*
21,1,0.019,0.051,0,0,180.0*
1,1,0.008,-0.010,0.021*
1,1,0.008,0.010,0.021*
1,1,0.008,0.010,-0.021*
1,1,0.008,-0.010,-0.021*
%
%ADD33ROUNDEDRECTD33*%
G04:AMPARAMS|DCode=34|XSize=28mil|YSize=51mil|CornerRadius=4mil|HoleSize=0mil|Usage=FLASHONLY|Rotation=270.000|XOffset=0mil|YOffset=0mil|HoleType=Round|Shape=RoundedRectangle|*
%AMROUNDEDRECTD34*
21,1,0.028,0.043,0,0,270.0*
21,1,0.019,0.051,0,0,270.0*
1,1,0.008,-0.021,-0.010*
1,1,0.008,-0.021,0.010*
1,1,0.008,0.021,0.010*
1,1,0.008,0.021,-0.010*
%
%ADD34ROUNDEDRECTD34*%
G04:AMPARAMS|DCode=35|XSize=24mil|YSize=24mil|CornerRadius=5mil|HoleSize=0mil|Usage=FLASHONLY|Rotation=180.000|XOffset=0mil|YOffset=0mil|HoleType=Round|Shape=RoundedRectangle|*
%AMROUNDEDRECTD35*
21,1,0.024,0.014,0,0,180.0*
21,1,0.014,0.024,0,0,180.0*
1,1,0.009,-0.007,0.007*
1,1,0.009,0.007,0.007*
1,1,0.009,0.007,-0.007*
1,1,0.009,-0.007,-0.007*
%
%ADD35ROUNDEDRECTD35*%
%ADD36R,0.157X0.118*%
%ADD37R,0.315X0.017*%
G04:AMPARAMS|DCode=38|XSize=24mil|YSize=24mil|CornerRadius=5mil|HoleSize=0mil|Usage=FLASHONLY|Rotation=270.000|XOffset=0mil|YOffset=0mil|HoleType=Round|Shape=RoundedRectangle|*
%AMROUNDEDRECTD38*
21,1,0.024,0.014,0,0,270.0*
21,1,0.014,0.024,0,0,270.0*
1,1,0.009,-0.007,-0.007*
1,1,0.009,-0.007,0.007*
1,1,0.009,0.007,0.007*
1,1,0.009,0.007,-0.007*
%
%ADD38ROUNDEDRECTD38*%
G04:AMPARAMS|DCode=39|XSize=114mil|YSize=213mil|CornerRadius=29mil|HoleSize=0mil|Usage=FLASHONLY|Rotation=90.000|XOffset=0mil|YOffset=0mil|HoleType=Round|Shape=RoundedRectangle|*
%AMROUNDEDRECTD39*
21,1,0.114,0.156,0,0,90.0*
21,1,0.057,0.213,0,0,90.0*
1,1,0.057,0.078,0.029*
1,1,0.057,0.078,-0.029*
1,1,0.057,-0.078,-0.029*
1,1,0.057,-0.078,0.029*
%
%ADD39ROUNDEDRECTD39*%
%ADD40R,0.051X0.106*%
%ADD41R,0.106X0.051*%
G04:AMPARAMS|DCode=42|XSize=12mil|YSize=26mil|CornerRadius=1mil|HoleSize=0mil|Usage=FLASHONLY|Rotation=90.000|XOffset=0mil|YOffset=0mil|HoleType=Round|Shape=RoundedRectangle|*
%AMROUNDEDRECTD42*
21,1,0.012,0.023,0,0,90.0*
21,1,0.009,0.026,0,0,90.0*
1,1,0.003,0.012,0.004*
1,1,0.003,0.012,-0.004*
1,1,0.003,-0.012,-0.004*
1,1,0.003,-0.012,0.004*
%
%ADD42ROUNDEDRECTD42*%
G04:AMPARAMS|DCode=43|XSize=32mil|YSize=28mil|CornerRadius=3mil|HoleSize=0mil|Usage=FLASHONLY|Rotation=180.000|XOffset=0mil|YOffset=0mil|HoleType=Round|Shape=RoundedRectangle|*
%AMROUNDEDRECTD43*
21,1,0.032,0.021,0,0,180.0*
21,1,0.025,0.028,0,0,180.0*
1,1,0.007,-0.012,0.010*
1,1,0.007,0.012,0.010*
1,1,0.007,0.012,-0.010*
1,1,0.007,-0.012,-0.010*
%
%ADD43ROUNDEDRECTD43*%
G04:AMPARAMS|DCode=44|XSize=31mil|YSize=51mil|CornerRadius=5mil|HoleSize=0mil|Usage=FLASHONLY|Rotation=270.000|XOffset=0mil|YOffset=0mil|HoleType=Round|Shape=RoundedRectangle|*
%AMROUNDEDRECTD44*
21,1,0.031,0.042,0,0,270.0*
21,1,0.022,0.051,0,0,270.0*
1,1,0.009,-0.021,-0.011*
1,1,0.009,-0.021,0.011*
1,1,0.009,0.021,0.011*
1,1,0.009,0.021,-0.011*
%
%ADD44ROUNDEDRECTD44*%
G04:AMPARAMS|DCode=45|XSize=31mil|YSize=51mil|CornerRadius=5mil|HoleSize=0mil|Usage=FLASHONLY|Rotation=0.000|XOffset=0mil|YOffset=0mil|HoleType=Round|Shape=RoundedRectangle|*
%AMROUNDEDRECTD45*
21,1,0.031,0.042,0,0,0.0*
21,1,0.022,0.051,0,0,0.0*
1,1,0.009,0.011,-0.021*
1,1,0.009,-0.011,-0.021*
1,1,0.009,-0.011,0.021*
1,1,0.009,0.011,0.021*
%
%ADD45ROUNDEDRECTD45*%
G04:AMPARAMS|DCode=46|XSize=59mil|YSize=157mil|CornerRadius=15mil|HoleSize=0mil|Usage=FLASHONLY|Rotation=0.000|XOffset=0mil|YOffset=0mil|HoleType=Round|Shape=RoundedRectangle|*
%AMROUNDEDRECTD46*
21,1,0.059,0.128,0,0,0.0*
21,1,0.030,0.157,0,0,0.0*
1,1,0.030,0.015,-0.064*
1,1,0.030,-0.015,-0.064*
1,1,0.030,-0.015,0.064*
1,1,0.030,0.015,0.064*
%
%ADD46ROUNDEDRECTD46*%
G04:AMPARAMS|DCode=47|XSize=421mil|YSize=339mil|CornerRadius=34mil|HoleSize=0mil|Usage=FLASHONLY|Rotation=0.000|XOffset=0mil|YOffset=0mil|HoleType=Round|Shape=RoundedRectangle|*
%AMROUNDEDRECTD47*
21,1,0.421,0.271,0,0,0.0*
21,1,0.354,0.339,0,0,0.0*
1,1,0.068,0.177,-0.135*
1,1,0.068,-0.177,-0.135*
1,1,0.068,-0.177,0.135*
1,1,0.068,0.177,0.135*
%
%ADD47ROUNDEDRECTD47*%
G04:AMPARAMS|DCode=48|XSize=16mil|YSize=40mil|CornerRadius=4mil|HoleSize=0mil|Usage=FLASHONLY|Rotation=90.000|XOffset=0mil|YOffset=0mil|HoleType=Round|Shape=RoundedRectangle|*
%AMROUNDEDRECTD48*
21,1,0.016,0.032,0,0,90.0*
21,1,0.008,0.040,0,0,90.0*
1,1,0.008,0.016,0.004*
1,1,0.008,0.016,-0.004*
1,1,0.008,-0.016,-0.004*
1,1,0.008,-0.016,0.004*
%
%ADD48ROUNDEDRECTD48*%
G04:AMPARAMS|DCode=49|XSize=12mil|YSize=13mil|CornerRadius=3mil|HoleSize=0mil|Usage=FLASHONLY|Rotation=0.000|XOffset=0mil|YOffset=0mil|HoleType=Round|Shape=RoundedRectangle|*
%AMROUNDEDRECTD49*
21,1,0.012,0.007,0,0,0.0*
21,1,0.006,0.013,0,0,0.0*
1,1,0.006,0.003,-0.003*
1,1,0.006,-0.003,-0.003*
1,1,0.006,-0.003,0.003*
1,1,0.006,0.003,0.003*
%
%ADD49ROUNDEDRECTD49*%
%ADD50R,0.012X0.013*%
G04:AMPARAMS|DCode=51|XSize=13mil|YSize=12mil|CornerRadius=3mil|HoleSize=0mil|Usage=FLASHONLY|Rotation=90.000|XOffset=0mil|YOffset=0mil|HoleType=Round|Shape=RoundedRectangle|*
%AMROUNDEDRECTD51*
21,1,0.013,0.006,0,0,90.0*
21,1,0.007,0.012,0,0,90.0*
1,1,0.006,0.003,0.003*
1,1,0.006,0.003,-0.003*
1,1,0.006,-0.003,-0.003*
1,1,0.006,-0.003,0.003*
%
%ADD51ROUNDEDRECTD51*%
%ADD52R,0.012X0.013*%
%ADD53R,0.012X0.012*%
G04:AMPARAMS|DCode=54|XSize=98mil|YSize=98mil|CornerRadius=10mil|HoleSize=0mil|Usage=FLASHONLY|Rotation=0.000|XOffset=0mil|YOffset=0mil|HoleType=Round|Shape=RoundedRectangle|*
%AMROUNDEDRECTD54*
21,1,0.098,0.079,0,0,0.0*
21,1,0.079,0.098,0,0,0.0*
1,1,0.020,0.039,-0.039*
1,1,0.020,-0.039,-0.039*
1,1,0.020,-0.039,0.039*
1,1,0.020,0.039,0.039*
%
%ADD54ROUNDEDRECTD54*%
%ADD55R,0.017X0.070*%
G04:AMPARAMS|DCode=56|XSize=17mil|YSize=24mil|CornerRadius=0mil|HoleSize=0mil|Usage=FLASHONLY|Rotation=135.000|XOffset=0mil|YOffset=0mil|HoleType=Round|Shape=Rectangle|*
%AMROTATEDRECTD56*
4,1,4,0.014,0.002,-0.002,-0.014,-0.014,-0.002,0.002,0.014,0.014,0.002,0.0*
%
%ADD56ROTATEDRECTD56*%

G04:AMPARAMS|DCode=57|XSize=17mil|YSize=24mil|CornerRadius=0mil|HoleSize=0mil|Usage=FLASHONLY|Rotation=45.000|XOffset=0mil|YOffset=0mil|HoleType=Round|Shape=Rectangle|*
%AMROTATEDRECTD57*
4,1,4,0.002,-0.014,-0.014,0.002,-0.002,0.014,0.014,-0.002,0.002,-0.014,0.0*
%
%ADD57ROTATEDRECTD57*%

%ADD58R,0.024X0.017*%
%ADD59C,0.025*%
%ADD60C,0.017*%
%ADD61C,0.079*%
%ADD62R,0.059X0.059*%
%ADD63C,0.059*%
%ADD64C,0.080*%
%ADD65C,0.061*%
%ADD66R,0.061X0.061*%
%ADD67C,0.028*%
%ADD68C,0.030*%
G36*
X4475Y2530D02*
X4490D01*
Y2520D01*
X4475D01*
Y2445D01*
X4375D01*
Y2505D01*
X4323D01*
X4322Y2505D01*
X4315Y2506D01*
X4308Y2505D01*
X4307Y2505D01*
X4275D01*
Y2445D01*
X3810D01*
Y2025D01*
X2875D01*
Y1225D01*
Y1115D01*
X3235D01*
Y1400D01*
X3435D01*
Y1115D01*
X3800D01*
Y1210D01*
X4250D01*
Y1150D01*
X4302D01*
X4303Y1145D01*
X4297Y1143D01*
X4291Y1139D01*
X4287Y1133D01*
X4285Y1127D01*
X4284Y1120D01*
X4285Y1113D01*
X4287Y1107D01*
X4291Y1101D01*
X4297Y1097D01*
X4303Y1095D01*
X4310Y1094D01*
X4317Y1095D01*
X4323Y1097D01*
X4329Y1101D01*
X4333Y1107D01*
X4335Y1113D01*
X4336Y1120D01*
X4335Y1127D01*
X4333Y1133D01*
X4329Y1139D01*
X4323Y1143D01*
X4317Y1145D01*
X4318Y1150D01*
X4480D01*
Y1091D01*
X4476Y1089D01*
X4475Y1089D01*
Y1075D01*
Y1061D01*
X4476Y1061D01*
X4480Y1059D01*
Y1025D01*
X1535D01*
Y1679D01*
X1539Y1681D01*
X1543Y1687D01*
X1545Y1693D01*
X1546Y1700D01*
X1545Y1707D01*
X1543Y1713D01*
X1539Y1719D01*
X1535Y1721D01*
Y1935D01*
X1660D01*
Y1225D01*
X2750D01*
Y2150D01*
X3700D01*
Y2595D01*
X3712D01*
X3712Y2595D01*
X3718Y2592D01*
X3725Y2591D01*
X3732Y2592D01*
X3738Y2595D01*
X3738Y2595D01*
X3787D01*
X3787Y2595D01*
X3793Y2592D01*
X3800Y2591D01*
X3807Y2592D01*
X3813Y2595D01*
X3813Y2595D01*
X4475D01*
Y2530D01*
D02*
G37*
G36*
X4915Y4976D02*
X4930Y4972D01*
X4943Y4965D01*
X4955Y4955D01*
X4965Y4943D01*
X4972Y4930D01*
X4976Y4915D01*
X4978Y4901D01*
X4978Y4900D01*
Y3140D01*
Y3130D01*
Y1395D01*
Y1175D01*
Y1100D01*
X4978Y1099D01*
X4976Y1085D01*
X4972Y1070D01*
X4965Y1057D01*
X4955Y1045D01*
X4943Y1035D01*
X4930Y1028D01*
X4915Y1024D01*
X4901Y1022D01*
X4900Y1022D01*
X4494D01*
X4492Y1025D01*
Y1059D01*
X4492Y1059D01*
X4494Y1061D01*
X4496Y1068D01*
X4497Y1075D01*
X4496Y1082D01*
X4494Y1089D01*
X4492Y1091D01*
X4492Y1091D01*
Y1150D01*
X4491Y1155D01*
X4489Y1159D01*
X4485Y1161D01*
X4480Y1162D01*
X4318D01*
X4317Y1162D01*
X4316D01*
X4315Y1162D01*
X4314Y1161D01*
X4313Y1161D01*
X4312Y1160D01*
X4311Y1159D01*
X4310Y1159D01*
X4309Y1159D01*
X4308Y1160D01*
X4307Y1161D01*
X4306Y1161D01*
X4305Y1162D01*
X4304Y1162D01*
X4303D01*
X4302Y1162D01*
X4262D01*
Y1210D01*
X4261Y1215D01*
X4259Y1219D01*
X4255Y1221D01*
X4250Y1222D01*
X3800D01*
X3795Y1221D01*
X3791Y1219D01*
X3789Y1215D01*
X3788Y1210D01*
Y1127D01*
X3447D01*
Y1400D01*
X3446Y1405D01*
X3444Y1409D01*
X3440Y1411D01*
X3435Y1412D01*
X3235D01*
X3230Y1411D01*
X3226Y1409D01*
X3224Y1405D01*
X3223Y1400D01*
Y1127D01*
X2887D01*
Y1225D01*
Y2013D01*
X3810D01*
X3815Y2014D01*
X3819Y2016D01*
X3821Y2020D01*
X3822Y2025D01*
Y2433D01*
X4275D01*
X4280Y2434D01*
X4284Y2436D01*
X4286Y2440D01*
X4287Y2445D01*
Y2493D01*
X4307D01*
X4307D01*
D01*
X4308Y2493D01*
X4310Y2493D01*
X4310Y2493D01*
X4315Y2494D01*
X4320Y2493D01*
X4320Y2493D01*
X4322Y2493D01*
X4323Y2493D01*
D01*
X4323D01*
X4363D01*
Y2445D01*
X4364Y2440D01*
X4366Y2436D01*
X4370Y2434D01*
X4375Y2433D01*
X4475D01*
X4480Y2434D01*
X4484Y2436D01*
X4486Y2440D01*
X4487Y2445D01*
Y2496D01*
X4490Y2499D01*
X4497Y2500D01*
X4503Y2502D01*
X4509Y2506D01*
X4513Y2512D01*
X4515Y2518D01*
X4516Y2525D01*
X4515Y2532D01*
X4513Y2538D01*
X4509Y2544D01*
X4503Y2548D01*
X4497Y2550D01*
X4490Y2551D01*
X4487Y2554D01*
Y2595D01*
X4486Y2600D01*
X4484Y2604D01*
X4480Y2606D01*
X4475Y2607D01*
X3813D01*
X3812Y2607D01*
X3810Y2607D01*
X3809Y2606D01*
X3809Y2606D01*
X3808Y2606D01*
X3804Y2604D01*
X3800Y2604D01*
X3796Y2604D01*
X3792Y2606D01*
X3791Y2606D01*
X3791Y2606D01*
X3790Y2607D01*
X3788Y2607D01*
X3787Y2607D01*
X3738D01*
X3737Y2607D01*
X3735Y2607D01*
X3734Y2606D01*
X3734Y2606D01*
X3733Y2606D01*
X3729Y2604D01*
X3725Y2604D01*
X3721Y2604D01*
X3717Y2606D01*
X3716Y2606D01*
X3716Y2606D01*
X3715Y2607D01*
X3713Y2607D01*
X3712Y2607D01*
X3700D01*
X3695Y2606D01*
X3691Y2604D01*
X3689Y2600D01*
X3688Y2595D01*
Y2162D01*
X2750D01*
X2745Y2161D01*
X2741Y2159D01*
X2739Y2155D01*
X2738Y2150D01*
Y1237D01*
X1672D01*
Y1935D01*
X1671Y1940D01*
X1669Y1944D01*
X1665Y1946D01*
X1660Y1947D01*
X1535D01*
X1530Y1946D01*
X1526Y1944D01*
X1524Y1940D01*
X1523Y1935D01*
Y1721D01*
X1523Y1720D01*
X1523Y1720D01*
X1523Y1718D01*
X1524Y1717D01*
X1524Y1716D01*
X1524Y1715D01*
X1525Y1714D01*
X1526Y1713D01*
X1527Y1712D01*
X1528Y1712D01*
X1530Y1710D01*
X1532Y1707D01*
X1533Y1704D01*
X1534Y1700D01*
X1533Y1696D01*
X1532Y1693D01*
X1530Y1690D01*
X1528Y1688D01*
X1527Y1688D01*
X1526Y1687D01*
X1525Y1686D01*
X1524Y1685D01*
X1524Y1684D01*
X1524Y1683D01*
X1523Y1682D01*
X1523Y1680D01*
X1523Y1680D01*
X1523Y1679D01*
Y1310D01*
X1518Y1309D01*
X1515Y1316D01*
X1507Y1327D01*
X1496Y1335D01*
X1483Y1340D01*
X1470Y1342D01*
X1457Y1340D01*
X1444Y1335D01*
X1433Y1327D01*
X1425Y1316D01*
X1420Y1303D01*
X1418Y1290D01*
X1420Y1277D01*
X1425Y1264D01*
X1433Y1253D01*
X1444Y1245D01*
X1457Y1240D01*
X1470Y1238D01*
X1483Y1240D01*
X1496Y1245D01*
X1507Y1253D01*
X1515Y1264D01*
X1518Y1271D01*
X1523Y1270D01*
Y1025D01*
X1521Y1022D01*
X1100D01*
X1099Y1022D01*
X1085Y1024D01*
X1070Y1028D01*
X1057Y1035D01*
X1045Y1045D01*
X1035Y1057D01*
X1028Y1070D01*
X1024Y1085D01*
X1022Y1099D01*
X1022Y1100D01*
Y4500D01*
Y4900D01*
X1022Y4901D01*
X1024Y4915D01*
X1028Y4930D01*
X1035Y4943D01*
X1045Y4955D01*
X1057Y4965D01*
X1070Y4972D01*
X1085Y4976D01*
X1099Y4978D01*
X1100Y4978D01*
X4900D01*
X4901Y4978D01*
X4915Y4976D01*
D02*
G37*
%LPC*%
G36*
X4405Y2538D02*
Y2530D01*
X4413D01*
X4413Y2530D01*
X4410Y2535D01*
X4405Y2538D01*
X4405Y2538D01*
D02*
G37*
G36*
X4458Y2520D02*
X4450D01*
Y2512D01*
X4450Y2512D01*
X4455Y2515D01*
X4458Y2520D01*
X4458Y2520D01*
D02*
G37*
G36*
X4395Y2538D02*
X4395Y2538D01*
X4390Y2535D01*
X4387Y2530D01*
X4387Y2530D01*
X4395D01*
Y2538D01*
D02*
G37*
G36*
X4440D02*
X4440Y2538D01*
X4435Y2535D01*
X4432Y2530D01*
X4432Y2530D01*
X4440D01*
Y2538D01*
D02*
G37*
G36*
X3578Y2733D02*
X3492D01*
Y2647D01*
X3578D01*
Y2733D01*
D02*
G37*
G36*
X3235Y2733D02*
X3224Y2731D01*
X3214Y2727D01*
X3205Y2720D01*
X3198Y2711D01*
X3194Y2701D01*
X3192Y2690D01*
X3194Y2679D01*
X3198Y2669D01*
X3205Y2660D01*
X3214Y2653D01*
X3224Y2649D01*
X3235Y2647D01*
X3246Y2649D01*
X3256Y2653D01*
X3265Y2660D01*
X3272Y2669D01*
X3276Y2679D01*
X3278Y2690D01*
X3276Y2701D01*
X3272Y2711D01*
X3265Y2720D01*
X3256Y2727D01*
X3246Y2731D01*
X3235Y2733D01*
D02*
G37*
G36*
X4450Y2538D02*
Y2530D01*
X4458D01*
X4458Y2530D01*
X4455Y2535D01*
X4450Y2538D01*
X4450Y2538D01*
D02*
G37*
G36*
X3475Y2542D02*
X3461Y2541D01*
X3449Y2535D01*
X3438Y2527D01*
X3430Y2516D01*
X3424Y2504D01*
X3423Y2490D01*
X3424Y2476D01*
X3430Y2464D01*
X3438Y2453D01*
X3449Y2445D01*
X3461Y2439D01*
X3475Y2438D01*
X3489Y2439D01*
X3501Y2445D01*
X3512Y2453D01*
X3520Y2464D01*
X3526Y2476D01*
X3527Y2490D01*
X3526Y2504D01*
X3520Y2516D01*
X3512Y2527D01*
X3501Y2535D01*
X3489Y2541D01*
X3475Y2542D01*
D02*
G37*
G36*
X2465Y2607D02*
X2452Y2605D01*
X2439Y2600D01*
X2428Y2592D01*
X2420Y2581D01*
X2415Y2568D01*
X2413Y2555D01*
X2415Y2542D01*
X2420Y2529D01*
X2428Y2518D01*
X2439Y2510D01*
X2452Y2505D01*
X2465Y2503D01*
X2478Y2505D01*
X2491Y2510D01*
X2502Y2518D01*
X2510Y2529D01*
X2515Y2542D01*
X2517Y2555D01*
X2515Y2568D01*
X2510Y2581D01*
X2502Y2592D01*
X2491Y2600D01*
X2478Y2605D01*
X2465Y2607D01*
D02*
G37*
G36*
X1620Y1889D02*
X1619Y1889D01*
X1614Y1886D01*
X1611Y1881D01*
X1611Y1880D01*
X1620D01*
Y1889D01*
D02*
G37*
G36*
X1630D02*
Y1880D01*
X1639D01*
X1639Y1881D01*
X1636Y1886D01*
X1631Y1889D01*
X1630Y1889D01*
D02*
G37*
G36*
X4413Y2520D02*
X4405D01*
Y2512D01*
X4405Y2512D01*
X4410Y2515D01*
X4413Y2520D01*
X4413Y2520D01*
D02*
G37*
G36*
X4440D02*
X4432D01*
X4432Y2520D01*
X4435Y2515D01*
X4440Y2512D01*
X4440Y2512D01*
Y2520D01*
D02*
G37*
G36*
X2795Y2607D02*
X2782Y2605D01*
X2769Y2600D01*
X2758Y2592D01*
X2750Y2581D01*
X2745Y2568D01*
X2743Y2555D01*
X2745Y2542D01*
X2750Y2529D01*
X2758Y2518D01*
X2769Y2510D01*
X2782Y2505D01*
X2795Y2503D01*
X2808Y2505D01*
X2821Y2510D01*
X2832Y2518D01*
X2840Y2529D01*
X2845Y2542D01*
X2847Y2555D01*
X2845Y2568D01*
X2840Y2581D01*
X2832Y2592D01*
X2821Y2600D01*
X2808Y2605D01*
X2795Y2607D01*
D02*
G37*
G36*
X4395Y2520D02*
X4387D01*
X4387Y2520D01*
X4390Y2515D01*
X4395Y2512D01*
X4395Y2512D01*
Y2520D01*
D02*
G37*
G36*
X3235Y3033D02*
X3224Y3031D01*
X3214Y3027D01*
X3205Y3020D01*
X3198Y3011D01*
X3194Y3001D01*
X3192Y2990D01*
X3194Y2979D01*
X3198Y2969D01*
X3205Y2960D01*
X3214Y2953D01*
X3224Y2949D01*
X3235Y2947D01*
X3246Y2949D01*
X3256Y2953D01*
X3265Y2960D01*
X3272Y2969D01*
X3276Y2979D01*
X3278Y2990D01*
X3276Y3001D01*
X3272Y3011D01*
X3265Y3020D01*
X3256Y3027D01*
X3246Y3031D01*
X3235Y3033D01*
D02*
G37*
G36*
X3725Y3004D02*
X3718Y3003D01*
X3712Y3000D01*
X3706Y2996D01*
X3702Y2991D01*
X3700Y2984D01*
X3699Y2977D01*
X3700Y2971D01*
X3702Y2964D01*
X3706Y2959D01*
X3712Y2955D01*
X3718Y2952D01*
X3725Y2951D01*
X3732Y2952D01*
X3738Y2955D01*
X3744Y2959D01*
X3748Y2964D01*
X3750Y2971D01*
X3751Y2977D01*
X3750Y2984D01*
X3748Y2991D01*
X3744Y2996D01*
X3738Y3000D01*
X3732Y3003D01*
X3725Y3004D01*
D02*
G37*
G36*
X1675Y2932D02*
X1662Y2930D01*
X1649Y2925D01*
X1638Y2917D01*
X1630Y2906D01*
X1625Y2893D01*
X1623Y2880D01*
X1625Y2867D01*
X1630Y2854D01*
X1638Y2843D01*
X1649Y2835D01*
X1662Y2830D01*
X1675Y2828D01*
X1688Y2830D01*
X1701Y2835D01*
X1712Y2843D01*
X1720Y2854D01*
X1725Y2867D01*
X1727Y2880D01*
X1725Y2893D01*
X1720Y2906D01*
X1712Y2917D01*
X1701Y2925D01*
X1688Y2930D01*
X1675Y2932D01*
D02*
G37*
G36*
X3235Y2933D02*
X3224Y2931D01*
X3214Y2927D01*
X3205Y2920D01*
X3198Y2911D01*
X3194Y2901D01*
X3192Y2890D01*
X3194Y2879D01*
X3198Y2869D01*
X3205Y2860D01*
X3214Y2853D01*
X3224Y2849D01*
X3235Y2847D01*
X3246Y2849D01*
X3256Y2853D01*
X3265Y2860D01*
X3272Y2869D01*
X3276Y2879D01*
X3278Y2890D01*
X3276Y2901D01*
X3272Y2911D01*
X3265Y2920D01*
X3256Y2927D01*
X3246Y2931D01*
X3235Y2933D01*
D02*
G37*
G36*
X1675Y3147D02*
X1662Y3145D01*
X1649Y3140D01*
X1638Y3132D01*
X1630Y3121D01*
X1625Y3108D01*
X1623Y3095D01*
X1625Y3082D01*
X1630Y3069D01*
X1638Y3058D01*
X1649Y3050D01*
X1662Y3045D01*
X1675Y3043D01*
X1688Y3045D01*
X1701Y3050D01*
X1712Y3058D01*
X1720Y3069D01*
X1725Y3082D01*
X1727Y3095D01*
X1725Y3108D01*
X1720Y3121D01*
X1712Y3132D01*
X1701Y3140D01*
X1688Y3145D01*
X1675Y3147D01*
D02*
G37*
G36*
X3535Y3288D02*
X3524Y3286D01*
X3514Y3282D01*
X3505Y3275D01*
X3498Y3266D01*
X3494Y3256D01*
X3492Y3245D01*
X3494Y3234D01*
X3498Y3224D01*
X3505Y3215D01*
X3513Y3209D01*
Y3188D01*
X3492D01*
Y3102D01*
X3578D01*
Y3188D01*
X3557D01*
Y3209D01*
X3565Y3215D01*
X3572Y3224D01*
X3576Y3234D01*
X3578Y3245D01*
X3576Y3256D01*
X3572Y3266D01*
X3565Y3275D01*
X3556Y3282D01*
X3546Y3286D01*
X3535Y3288D01*
D02*
G37*
G36*
X3800Y3004D02*
X3793Y3003D01*
X3787Y3000D01*
X3781Y2996D01*
X3777Y2991D01*
X3775Y2984D01*
X3774Y2977D01*
X3775Y2971D01*
X3777Y2964D01*
X3781Y2959D01*
X3787Y2955D01*
X3793Y2952D01*
X3800Y2951D01*
X3807Y2952D01*
X3813Y2955D01*
X3819Y2959D01*
X3823Y2964D01*
X3825Y2971D01*
X3826Y2977D01*
X3825Y2984D01*
X3823Y2991D01*
X3819Y2996D01*
X3813Y3000D01*
X3807Y3003D01*
X3800Y3004D01*
D02*
G37*
G36*
X2625Y3077D02*
X2612Y3075D01*
X2599Y3070D01*
X2588Y3062D01*
X2580Y3051D01*
X2575Y3038D01*
X2573Y3025D01*
X2575Y3012D01*
X2580Y2999D01*
X2588Y2988D01*
X2599Y2980D01*
X2612Y2975D01*
X2625Y2973D01*
X2638Y2975D01*
X2651Y2980D01*
X2662Y2988D01*
X2670Y2999D01*
X2675Y3012D01*
X2677Y3025D01*
X2675Y3038D01*
X2670Y3051D01*
X2662Y3062D01*
X2651Y3070D01*
X2638Y3075D01*
X2625Y3077D01*
D02*
G37*
G36*
X3800Y2719D02*
X3793Y2718D01*
X3787Y2715D01*
X3781Y2711D01*
X3777Y2706D01*
X3775Y2699D01*
X3774Y2692D01*
X3775Y2686D01*
X3777Y2679D01*
X3781Y2674D01*
X3787Y2670D01*
X3793Y2667D01*
X3800Y2666D01*
X3807Y2667D01*
X3813Y2670D01*
X3819Y2674D01*
X3823Y2679D01*
X3825Y2686D01*
X3826Y2692D01*
X3825Y2699D01*
X3823Y2706D01*
X3819Y2711D01*
X3813Y2715D01*
X3807Y2718D01*
X3800Y2719D01*
D02*
G37*
G36*
X3535Y2933D02*
X3524Y2931D01*
X3514Y2927D01*
X3505Y2920D01*
X3498Y2911D01*
X3494Y2901D01*
X3492Y2890D01*
X3494Y2879D01*
X3498Y2869D01*
X3505Y2860D01*
X3514Y2853D01*
X3524Y2849D01*
X3535Y2847D01*
X3546Y2849D01*
X3556Y2853D01*
X3565Y2860D01*
X3571Y2868D01*
X4336D01*
X4485Y2719D01*
X4485Y2718D01*
X4487Y2712D01*
X4491Y2706D01*
X4497Y2702D01*
X4503Y2700D01*
X4510Y2699D01*
X4517Y2700D01*
X4523Y2702D01*
X4529Y2706D01*
X4533Y2712D01*
X4535Y2718D01*
X4536Y2725D01*
X4535Y2732D01*
X4533Y2738D01*
X4529Y2744D01*
X4523Y2748D01*
X4517Y2750D01*
X4516Y2750D01*
X4361Y2906D01*
X4354Y2911D01*
X4345Y2912D01*
X3571D01*
X3565Y2920D01*
X3556Y2927D01*
X3546Y2931D01*
X3535Y2933D01*
D02*
G37*
G36*
X3650Y2719D02*
X3643Y2718D01*
X3637Y2715D01*
X3631Y2711D01*
X3627Y2706D01*
X3625Y2699D01*
X3624Y2692D01*
X3625Y2686D01*
X3627Y2679D01*
X3631Y2674D01*
X3637Y2670D01*
X3643Y2667D01*
X3650Y2666D01*
X3657Y2667D01*
X3663Y2670D01*
X3669Y2674D01*
X3673Y2679D01*
X3675Y2686D01*
X3676Y2692D01*
X3675Y2699D01*
X3673Y2706D01*
X3669Y2711D01*
X3663Y2715D01*
X3657Y2718D01*
X3650Y2719D01*
D02*
G37*
G36*
X3725D02*
X3718Y2718D01*
X3712Y2715D01*
X3706Y2711D01*
X3702Y2706D01*
X3700Y2699D01*
X3699Y2692D01*
X3700Y2686D01*
X3702Y2679D01*
X3706Y2674D01*
X3712Y2670D01*
X3718Y2667D01*
X3725Y2666D01*
X3732Y2667D01*
X3738Y2670D01*
X3744Y2674D01*
X3748Y2679D01*
X3750Y2686D01*
X3751Y2692D01*
X3750Y2699D01*
X3748Y2706D01*
X3744Y2711D01*
X3738Y2715D01*
X3732Y2718D01*
X3725Y2719D01*
D02*
G37*
G36*
X3235Y2833D02*
X3224Y2831D01*
X3214Y2827D01*
X3205Y2820D01*
X3198Y2811D01*
X3194Y2801D01*
X3192Y2790D01*
X3194Y2779D01*
X3198Y2769D01*
X3205Y2760D01*
X3214Y2753D01*
X3224Y2749D01*
X3235Y2747D01*
X3246Y2749D01*
X3256Y2753D01*
X3265Y2760D01*
X3272Y2769D01*
X3276Y2779D01*
X3278Y2790D01*
X3276Y2801D01*
X3272Y2811D01*
X3265Y2820D01*
X3256Y2827D01*
X3246Y2831D01*
X3235Y2833D01*
D02*
G37*
G36*
X3535D02*
X3524Y2831D01*
X3514Y2827D01*
X3505Y2820D01*
X3498Y2811D01*
X3494Y2801D01*
X3492Y2790D01*
X3494Y2779D01*
X3498Y2769D01*
X3505Y2760D01*
X3514Y2753D01*
X3524Y2749D01*
X3535Y2747D01*
X3546Y2749D01*
X3556Y2753D01*
X3565Y2760D01*
X3572Y2769D01*
X3576Y2779D01*
X3578Y2790D01*
X3576Y2801D01*
X3572Y2811D01*
X3565Y2820D01*
X3556Y2827D01*
X3546Y2831D01*
X3535Y2833D01*
D02*
G37*
G36*
X3990Y2832D02*
X3977Y2830D01*
X3964Y2825D01*
X3953Y2817D01*
X3945Y2806D01*
X3940Y2793D01*
X3938Y2780D01*
X3940Y2767D01*
X3945Y2754D01*
X3953Y2743D01*
X3964Y2735D01*
X3977Y2730D01*
X3990Y2728D01*
X4003Y2730D01*
X4016Y2735D01*
X4027Y2743D01*
X4035Y2754D01*
X4040Y2767D01*
X4042Y2780D01*
X4040Y2793D01*
X4035Y2806D01*
X4027Y2817D01*
X4016Y2825D01*
X4003Y2830D01*
X3990Y2832D01*
D02*
G37*
G36*
X3800Y2789D02*
X3793Y2788D01*
X3787Y2785D01*
X3781Y2781D01*
X3777Y2776D01*
X3775Y2769D01*
X3774Y2763D01*
X3775Y2756D01*
X3777Y2749D01*
X3781Y2744D01*
X3787Y2740D01*
X3793Y2737D01*
X3800Y2736D01*
X3807Y2737D01*
X3813Y2740D01*
X3819Y2744D01*
X3823Y2749D01*
X3825Y2756D01*
X3826Y2763D01*
X3825Y2769D01*
X3823Y2776D01*
X3819Y2781D01*
X3813Y2785D01*
X3807Y2788D01*
X3800Y2789D01*
D02*
G37*
G36*
X1580Y1889D02*
Y1880D01*
X1589D01*
X1589Y1881D01*
X1586Y1886D01*
X1581Y1889D01*
X1580Y1889D01*
D02*
G37*
G36*
X3280Y1194D02*
X3279Y1194D01*
X3274Y1191D01*
X3271Y1186D01*
X3271Y1185D01*
X3280D01*
Y1194D01*
D02*
G37*
G36*
X3290D02*
Y1185D01*
X3299D01*
X3299Y1186D01*
X3296Y1191D01*
X3291Y1194D01*
X3290Y1194D01*
D02*
G37*
G36*
X3385Y1175D02*
X3376D01*
X3376Y1174D01*
X3379Y1169D01*
X3384Y1166D01*
X3385Y1166D01*
Y1175D01*
D02*
G37*
G36*
X3404D02*
X3395D01*
Y1166D01*
X3396Y1166D01*
X3401Y1169D01*
X3404Y1174D01*
X3404Y1175D01*
D02*
G37*
G36*
X3335Y1235D02*
X3326D01*
X3326Y1234D01*
X3329Y1229D01*
X3334Y1226D01*
X3335Y1226D01*
Y1235D01*
D02*
G37*
G36*
X3354D02*
X3345D01*
Y1226D01*
X3346Y1226D01*
X3351Y1229D01*
X3354Y1234D01*
X3354Y1235D01*
D02*
G37*
G36*
X3385Y1194D02*
X3384Y1194D01*
X3379Y1191D01*
X3376Y1186D01*
X3376Y1185D01*
X3385D01*
Y1194D01*
D02*
G37*
G36*
X3395D02*
Y1185D01*
X3404D01*
X3404Y1186D01*
X3401Y1191D01*
X3396Y1194D01*
X3395Y1194D01*
D02*
G37*
G36*
X4465Y1070D02*
X4456D01*
X4456Y1069D01*
X4459Y1064D01*
X4464Y1061D01*
X4465Y1061D01*
Y1070D01*
D02*
G37*
G36*
X4405Y1089D02*
X4404Y1089D01*
X4399Y1086D01*
X4396Y1081D01*
X4396Y1080D01*
X4405D01*
Y1089D01*
D02*
G37*
G36*
Y1070D02*
X4396D01*
X4396Y1069D01*
X4399Y1064D01*
X4404Y1061D01*
X4405Y1061D01*
Y1070D01*
D02*
G37*
G36*
X4424D02*
X4415D01*
Y1061D01*
X4416Y1061D01*
X4421Y1064D01*
X4424Y1069D01*
X4424Y1070D01*
D02*
G37*
G36*
X3280Y1175D02*
X3271D01*
X3271Y1174D01*
X3274Y1169D01*
X3279Y1166D01*
X3280Y1166D01*
Y1175D01*
D02*
G37*
G36*
X3299D02*
X3290D01*
Y1166D01*
X3291Y1166D01*
X3296Y1169D01*
X3299Y1174D01*
X3299Y1175D01*
D02*
G37*
G36*
X4415Y1089D02*
Y1080D01*
X4424D01*
X4424Y1081D01*
X4421Y1086D01*
X4416Y1089D01*
X4415Y1089D01*
D02*
G37*
G36*
X4465D02*
X4464Y1089D01*
X4459Y1086D01*
X4456Y1081D01*
X4456Y1080D01*
X4465D01*
Y1089D01*
D02*
G37*
G36*
X3380Y1817D02*
X3367Y1815D01*
X3354Y1810D01*
X3343Y1802D01*
X3335Y1791D01*
X3330Y1778D01*
X3328Y1765D01*
X3330Y1752D01*
X3335Y1739D01*
X3343Y1728D01*
X3354Y1720D01*
X3367Y1715D01*
X3380Y1713D01*
X3393Y1715D01*
X3406Y1720D01*
X3417Y1728D01*
X3425Y1739D01*
X3430Y1752D01*
X3432Y1765D01*
X3430Y1778D01*
X3425Y1791D01*
X3417Y1802D01*
X3406Y1810D01*
X3393Y1815D01*
X3380Y1817D01*
D02*
G37*
G36*
X1570Y1870D02*
X1561D01*
X1561Y1869D01*
X1564Y1864D01*
X1569Y1861D01*
X1570Y1861D01*
Y1870D01*
D02*
G37*
G36*
X3385Y1319D02*
X3384Y1319D01*
X3379Y1316D01*
X3376Y1311D01*
X3376Y1310D01*
X3385D01*
Y1319D01*
D02*
G37*
G36*
X3395D02*
Y1310D01*
X3404D01*
X3404Y1311D01*
X3401Y1316D01*
X3396Y1319D01*
X3395Y1319D01*
D02*
G37*
G36*
X1639Y1870D02*
X1630D01*
Y1861D01*
X1631Y1861D01*
X1636Y1864D01*
X1639Y1869D01*
X1639Y1870D01*
D02*
G37*
G36*
X1570Y1889D02*
X1569Y1889D01*
X1564Y1886D01*
X1561Y1881D01*
X1561Y1880D01*
X1570D01*
Y1889D01*
D02*
G37*
G36*
X1589Y1870D02*
X1580D01*
Y1861D01*
X1581Y1861D01*
X1586Y1864D01*
X1589Y1869D01*
X1589Y1870D01*
D02*
G37*
G36*
X1620D02*
X1611D01*
X1611Y1869D01*
X1614Y1864D01*
X1619Y1861D01*
X1620Y1861D01*
Y1870D01*
D02*
G37*
G36*
X3280Y1300D02*
X3271D01*
X3271Y1299D01*
X3274Y1294D01*
X3279Y1291D01*
X3280Y1291D01*
Y1300D01*
D02*
G37*
G36*
X3299D02*
X3290D01*
Y1291D01*
X3291Y1291D01*
X3296Y1294D01*
X3299Y1299D01*
X3299Y1300D01*
D02*
G37*
G36*
X3335Y1254D02*
X3334Y1254D01*
X3329Y1251D01*
X3326Y1246D01*
X3326Y1245D01*
X3335D01*
Y1254D01*
D02*
G37*
G36*
X3345D02*
Y1245D01*
X3354D01*
X3354Y1246D01*
X3351Y1251D01*
X3346Y1254D01*
X3345Y1254D01*
D02*
G37*
G36*
X3280Y1319D02*
X3279Y1319D01*
X3274Y1316D01*
X3271Y1311D01*
X3271Y1310D01*
X3280D01*
Y1319D01*
D02*
G37*
G36*
X3290D02*
Y1310D01*
X3299D01*
X3299Y1311D01*
X3296Y1316D01*
X3291Y1319D01*
X3290Y1319D01*
D02*
G37*
G36*
X3385Y1300D02*
X3376D01*
X3376Y1299D01*
X3379Y1294D01*
X3384Y1291D01*
X3385Y1291D01*
Y1300D01*
D02*
G37*
G36*
X3404D02*
X3395D01*
Y1291D01*
X3396Y1291D01*
X3401Y1294D01*
X3404Y1299D01*
X3404Y1300D01*
D02*
G37*
G36*
X2990Y3292D02*
X2977Y3290D01*
X2964Y3285D01*
X2953Y3277D01*
X2945Y3266D01*
X2940Y3253D01*
X2938Y3240D01*
X2940Y3227D01*
X2945Y3214D01*
X2953Y3203D01*
X2964Y3195D01*
X2977Y3190D01*
X2990Y3188D01*
X3003Y3190D01*
X3016Y3195D01*
X3027Y3203D01*
X3035Y3214D01*
X3040Y3227D01*
X3042Y3240D01*
X3040Y3253D01*
X3035Y3266D01*
X3027Y3277D01*
X3016Y3285D01*
X3003Y3290D01*
X2990Y3292D01*
D02*
G37*
G36*
X4715Y4654D02*
X4708Y4653D01*
X4702Y4650D01*
X4696Y4646D01*
X4692Y4641D01*
X4690Y4634D01*
X4689Y4628D01*
X4690Y4621D01*
X4692Y4614D01*
X4696Y4609D01*
X4702Y4605D01*
Y4600D01*
X4696Y4596D01*
X4692Y4591D01*
X4690Y4584D01*
X4689Y4577D01*
X4690Y4571D01*
X4692Y4564D01*
X4696Y4559D01*
X4702Y4555D01*
X4708Y4552D01*
X4715Y4551D01*
X4722Y4552D01*
X4728Y4555D01*
X4734Y4559D01*
X4738Y4564D01*
X4740Y4571D01*
X4741Y4577D01*
X4740Y4584D01*
X4738Y4591D01*
X4734Y4596D01*
X4728Y4600D01*
Y4605D01*
X4734Y4609D01*
X4738Y4614D01*
X4740Y4621D01*
X4741Y4628D01*
X4740Y4634D01*
X4738Y4641D01*
X4734Y4646D01*
X4728Y4650D01*
X4722Y4653D01*
X4715Y4654D01*
D02*
G37*
G36*
X3915Y4682D02*
X3902Y4680D01*
X3889Y4675D01*
X3878Y4667D01*
X3870Y4656D01*
X3865Y4643D01*
X3863Y4630D01*
X3865Y4617D01*
X3870Y4604D01*
X3878Y4593D01*
X3889Y4585D01*
X3902Y4580D01*
X3915Y4578D01*
X3928Y4580D01*
X3941Y4585D01*
X3952Y4593D01*
X3960Y4604D01*
X3965Y4617D01*
X3967Y4630D01*
X3965Y4643D01*
X3960Y4656D01*
X3952Y4667D01*
X3941Y4675D01*
X3928Y4680D01*
X3915Y4682D01*
D02*
G37*
G36*
X4185Y4654D02*
X4178Y4653D01*
X4172Y4650D01*
X4166Y4646D01*
X4162Y4641D01*
X4160Y4634D01*
X4159Y4628D01*
X4160Y4621D01*
X4162Y4614D01*
X4166Y4609D01*
X4172Y4605D01*
Y4600D01*
X4166Y4596D01*
X4162Y4591D01*
X4160Y4584D01*
X4159Y4577D01*
X4160Y4571D01*
X4162Y4564D01*
X4166Y4559D01*
X4172Y4555D01*
X4178Y4552D01*
X4185Y4551D01*
X4192Y4552D01*
X4198Y4555D01*
X4204Y4559D01*
X4208Y4564D01*
X4210Y4571D01*
X4211Y4577D01*
X4210Y4584D01*
X4208Y4591D01*
X4204Y4596D01*
X4198Y4600D01*
Y4605D01*
X4204Y4609D01*
X4208Y4614D01*
X4210Y4621D01*
X4211Y4628D01*
X4210Y4634D01*
X4208Y4641D01*
X4204Y4646D01*
X4198Y4650D01*
X4192Y4653D01*
X4185Y4654D01*
D02*
G37*
G36*
X4565D02*
X4558Y4653D01*
X4552Y4650D01*
X4546Y4646D01*
X4542Y4641D01*
X4540Y4634D01*
X4539Y4628D01*
X4540Y4621D01*
X4542Y4614D01*
X4546Y4609D01*
X4552Y4605D01*
Y4600D01*
X4546Y4596D01*
X4542Y4591D01*
X4540Y4584D01*
X4539Y4577D01*
X4540Y4571D01*
X4542Y4564D01*
X4546Y4559D01*
X4552Y4555D01*
X4558Y4552D01*
X4565Y4551D01*
X4572Y4552D01*
X4578Y4555D01*
X4584Y4559D01*
X4588Y4564D01*
X4590Y4571D01*
X4591Y4577D01*
X4590Y4584D01*
X4588Y4591D01*
X4584Y4596D01*
X4578Y4600D01*
Y4605D01*
X4584Y4609D01*
X4588Y4614D01*
X4590Y4621D01*
X4591Y4628D01*
X4590Y4634D01*
X4588Y4641D01*
X4584Y4646D01*
X4578Y4650D01*
X4572Y4653D01*
X4565Y4654D01*
D02*
G37*
G36*
X4260D02*
X4253Y4653D01*
X4247Y4650D01*
X4241Y4646D01*
X4237Y4641D01*
X4235Y4634D01*
X4234Y4628D01*
X4235Y4621D01*
X4237Y4614D01*
X4241Y4609D01*
X4247Y4605D01*
X4253Y4602D01*
X4260Y4601D01*
X4267Y4602D01*
X4273Y4605D01*
X4279Y4609D01*
X4283Y4614D01*
X4285Y4621D01*
X4286Y4628D01*
X4285Y4634D01*
X4283Y4641D01*
X4279Y4646D01*
X4273Y4650D01*
X4267Y4653D01*
X4260Y4654D01*
D02*
G37*
G36*
X4335D02*
X4328Y4653D01*
X4322Y4650D01*
X4316Y4646D01*
X4312Y4641D01*
X4310Y4634D01*
X4309Y4628D01*
X4310Y4621D01*
X4312Y4614D01*
X4316Y4609D01*
X4322Y4605D01*
X4328Y4602D01*
X4335Y4601D01*
X4342Y4602D01*
X4348Y4605D01*
X4354Y4609D01*
X4358Y4614D01*
X4360Y4621D01*
X4361Y4628D01*
X4360Y4634D01*
X4358Y4641D01*
X4354Y4646D01*
X4348Y4650D01*
X4342Y4653D01*
X4335Y4654D01*
D02*
G37*
G36*
X4835Y4682D02*
X4822Y4680D01*
X4809Y4675D01*
X4798Y4667D01*
X4790Y4656D01*
X4785Y4643D01*
X4783Y4630D01*
X4785Y4617D01*
X4790Y4604D01*
X4798Y4593D01*
X4809Y4585D01*
X4822Y4580D01*
X4835Y4578D01*
X4848Y4580D01*
X4861Y4585D01*
X4872Y4593D01*
X4880Y4604D01*
X4885Y4617D01*
X4887Y4630D01*
X4885Y4643D01*
X4880Y4656D01*
X4872Y4667D01*
X4861Y4675D01*
X4848Y4680D01*
X4835Y4682D01*
D02*
G37*
G36*
X4110Y4654D02*
X4103Y4653D01*
X4097Y4650D01*
X4091Y4646D01*
X4087Y4641D01*
X4085Y4634D01*
X4084Y4628D01*
X4085Y4621D01*
X4087Y4614D01*
X4091Y4609D01*
X4097Y4605D01*
X4103Y4602D01*
X4110Y4601D01*
X4117Y4602D01*
X4123Y4605D01*
X4129Y4609D01*
X4133Y4614D01*
X4135Y4621D01*
X4136Y4628D01*
X4135Y4634D01*
X4133Y4641D01*
X4129Y4646D01*
X4123Y4650D01*
X4117Y4653D01*
X4110Y4654D01*
D02*
G37*
G36*
X4105Y4529D02*
X4098Y4528D01*
X4092Y4525D01*
X4086Y4521D01*
X4082Y4516D01*
X4080Y4509D01*
X4079Y4503D01*
X4080Y4496D01*
X4082Y4489D01*
X4086Y4484D01*
X4092Y4480D01*
X4098Y4477D01*
X4105Y4476D01*
X4112Y4477D01*
X4118Y4480D01*
X4124Y4484D01*
X4128Y4489D01*
X4130Y4496D01*
X4131Y4503D01*
X4130Y4509D01*
X4128Y4516D01*
X4124Y4521D01*
X4118Y4525D01*
X4112Y4528D01*
X4105Y4529D01*
D02*
G37*
G36*
X4185D02*
X4178Y4528D01*
X4172Y4525D01*
X4166Y4521D01*
X4162Y4516D01*
X4160Y4509D01*
X4159Y4503D01*
X4160Y4496D01*
X4162Y4489D01*
X4166Y4484D01*
X4172Y4480D01*
X4178Y4477D01*
X4185Y4476D01*
X4192Y4477D01*
X4198Y4480D01*
X4204Y4484D01*
X4208Y4489D01*
X4210Y4496D01*
X4211Y4503D01*
X4210Y4509D01*
X4208Y4516D01*
X4204Y4521D01*
X4198Y4525D01*
X4192Y4528D01*
X4185Y4529D01*
D02*
G37*
G36*
X1090Y4517D02*
X1079Y4515D01*
X1069Y4511D01*
X1060Y4505D01*
X1054Y4496D01*
X1050Y4486D01*
X1048Y4475D01*
X1050Y4464D01*
X1054Y4454D01*
X1060Y4445D01*
X1069Y4439D01*
X1079Y4435D01*
X1090Y4433D01*
X1101Y4435D01*
X1111Y4439D01*
X1120Y4445D01*
X1126Y4454D01*
X1130Y4464D01*
X1132Y4475D01*
X1130Y4486D01*
X1126Y4496D01*
X1120Y4505D01*
X1111Y4511D01*
X1101Y4515D01*
X1090Y4517D01*
D02*
G37*
G36*
X4035Y4529D02*
X4028Y4528D01*
X4022Y4525D01*
X4016Y4521D01*
X4012Y4516D01*
X4010Y4509D01*
X4009Y4503D01*
X4010Y4496D01*
X4012Y4489D01*
X4016Y4484D01*
X4022Y4480D01*
X4028Y4477D01*
X4035Y4476D01*
X4042Y4477D01*
X4048Y4480D01*
X4054Y4484D01*
X4058Y4489D01*
X4060Y4496D01*
X4061Y4503D01*
X4060Y4509D01*
X4058Y4516D01*
X4054Y4521D01*
X4048Y4525D01*
X4042Y4528D01*
X4035Y4529D01*
D02*
G37*
G36*
X4715D02*
X4708Y4528D01*
X4702Y4525D01*
X4696Y4521D01*
X4692Y4516D01*
X4690Y4509D01*
X4689Y4503D01*
X4690Y4496D01*
X4692Y4489D01*
X4696Y4484D01*
X4702Y4480D01*
X4708Y4477D01*
X4715Y4476D01*
X4722Y4477D01*
X4728Y4480D01*
X4734Y4484D01*
X4738Y4489D01*
X4740Y4496D01*
X4741Y4503D01*
X4740Y4509D01*
X4738Y4516D01*
X4734Y4521D01*
X4728Y4525D01*
X4722Y4528D01*
X4715Y4529D01*
D02*
G37*
G36*
X4035Y4654D02*
X4028Y4653D01*
X4022Y4650D01*
X4016Y4646D01*
X4012Y4641D01*
X4010Y4634D01*
X4009Y4628D01*
X4010Y4621D01*
X4012Y4614D01*
X4016Y4609D01*
X4022Y4605D01*
Y4600D01*
X4016Y4596D01*
X4012Y4591D01*
X4010Y4584D01*
X4009Y4577D01*
X4010Y4571D01*
X4012Y4564D01*
X4016Y4559D01*
X4022Y4555D01*
X4028Y4552D01*
X4035Y4551D01*
X4042Y4552D01*
X4048Y4555D01*
X4054Y4559D01*
X4058Y4564D01*
X4060Y4571D01*
X4061Y4577D01*
X4060Y4584D01*
X4058Y4591D01*
X4054Y4596D01*
X4048Y4600D01*
Y4605D01*
X4054Y4609D01*
X4058Y4614D01*
X4060Y4621D01*
X4061Y4628D01*
X4060Y4634D01*
X4058Y4641D01*
X4054Y4646D01*
X4048Y4650D01*
X4042Y4653D01*
X4035Y4654D01*
D02*
G37*
G36*
X4565Y4529D02*
X4558Y4528D01*
X4552Y4525D01*
X4546Y4521D01*
X4542Y4516D01*
X4540Y4509D01*
X4539Y4503D01*
X4540Y4496D01*
X4542Y4489D01*
X4546Y4484D01*
X4552Y4480D01*
X4558Y4477D01*
X4565Y4476D01*
X4572Y4477D01*
X4578Y4480D01*
X4584Y4484D01*
X4588Y4489D01*
X4590Y4496D01*
X4591Y4503D01*
X4590Y4509D01*
X4588Y4516D01*
X4584Y4521D01*
X4578Y4525D01*
X4572Y4528D01*
X4565Y4529D01*
D02*
G37*
G36*
X4640D02*
X4633Y4528D01*
X4627Y4525D01*
X4621Y4521D01*
X4617Y4516D01*
X4615Y4509D01*
X4614Y4503D01*
X4615Y4496D01*
X4617Y4489D01*
X4621Y4484D01*
X4627Y4480D01*
X4633Y4477D01*
X4640Y4476D01*
X4647Y4477D01*
X4653Y4480D01*
X4659Y4484D01*
X4663Y4489D01*
X4665Y4496D01*
X4666Y4503D01*
X4665Y4509D01*
X4663Y4516D01*
X4659Y4521D01*
X4653Y4525D01*
X4647Y4528D01*
X4640Y4529D01*
D02*
G37*
G36*
X4637Y4796D02*
X4631Y4795D01*
X4624Y4793D01*
X4619Y4789D01*
X4615Y4783D01*
X4612Y4777D01*
X4611Y4770D01*
X4612Y4763D01*
X4615Y4757D01*
X4619Y4751D01*
X4624Y4747D01*
X4631Y4745D01*
X4637Y4744D01*
X4644Y4745D01*
X4651Y4747D01*
X4656Y4751D01*
X4660Y4757D01*
X4663Y4763D01*
X4664Y4770D01*
X4663Y4777D01*
X4660Y4783D01*
X4656Y4789D01*
X4651Y4793D01*
X4644Y4795D01*
X4637Y4796D01*
D02*
G37*
G36*
X3190Y4892D02*
X3177Y4890D01*
X3164Y4885D01*
X3153Y4877D01*
X3145Y4866D01*
X3140Y4853D01*
X3138Y4840D01*
X3140Y4827D01*
X3145Y4814D01*
X3153Y4803D01*
X3164Y4795D01*
X3177Y4790D01*
X3190Y4788D01*
X3203Y4790D01*
X3216Y4795D01*
X3227Y4803D01*
X3235Y4814D01*
X3240Y4827D01*
X3242Y4840D01*
X3240Y4853D01*
X3235Y4866D01*
X3227Y4877D01*
X3216Y4885D01*
X3203Y4890D01*
X3190Y4892D01*
D02*
G37*
G36*
X4337Y4796D02*
X4331Y4795D01*
X4324Y4793D01*
X4319Y4789D01*
X4315Y4783D01*
X4312Y4777D01*
X4311Y4770D01*
X4312Y4763D01*
X4315Y4757D01*
X4319Y4751D01*
X4324Y4747D01*
X4331Y4745D01*
X4337Y4744D01*
X4344Y4745D01*
X4351Y4747D01*
X4356Y4751D01*
X4360Y4757D01*
X4363Y4763D01*
X4364Y4770D01*
X4363Y4777D01*
X4360Y4783D01*
X4356Y4789D01*
X4351Y4793D01*
X4344Y4795D01*
X4337Y4796D01*
D02*
G37*
G36*
X4418D02*
X4411Y4795D01*
X4404Y4793D01*
X4399Y4789D01*
X4395Y4783D01*
X4392Y4777D01*
X4391Y4770D01*
X4392Y4763D01*
X4395Y4757D01*
X4399Y4751D01*
X4404Y4747D01*
X4411Y4745D01*
X4418Y4744D01*
X4424Y4745D01*
X4431Y4747D01*
X4436Y4751D01*
X4440Y4757D01*
X4443Y4763D01*
X4444Y4770D01*
X4443Y4777D01*
X4440Y4783D01*
X4436Y4789D01*
X4431Y4793D01*
X4424Y4795D01*
X4418Y4796D01*
D02*
G37*
G36*
X4455Y4947D02*
X4442Y4945D01*
X4429Y4940D01*
X4418Y4932D01*
X4410Y4921D01*
X4405Y4908D01*
X4403Y4895D01*
X4405Y4882D01*
X4410Y4869D01*
X4418Y4858D01*
X4429Y4850D01*
X4442Y4845D01*
X4455Y4843D01*
X4468Y4845D01*
X4481Y4850D01*
X4492Y4858D01*
X4500Y4869D01*
X4505Y4882D01*
X4507Y4895D01*
X4505Y4908D01*
X4500Y4921D01*
X4492Y4932D01*
X4481Y4940D01*
X4468Y4945D01*
X4455Y4947D01*
D02*
G37*
G36*
X4605D02*
X4592Y4945D01*
X4579Y4940D01*
X4568Y4932D01*
X4560Y4921D01*
X4555Y4908D01*
X4553Y4895D01*
X4555Y4882D01*
X4560Y4869D01*
X4568Y4858D01*
X4579Y4850D01*
X4592Y4845D01*
X4605Y4843D01*
X4618Y4845D01*
X4631Y4850D01*
X4642Y4858D01*
X4650Y4869D01*
X4655Y4882D01*
X4657Y4895D01*
X4655Y4908D01*
X4650Y4921D01*
X4642Y4932D01*
X4631Y4940D01*
X4618Y4945D01*
X4605Y4947D01*
D02*
G37*
G36*
X4145D02*
X4132Y4945D01*
X4119Y4940D01*
X4108Y4932D01*
X4100Y4921D01*
X4095Y4908D01*
X4093Y4895D01*
X4095Y4882D01*
X4100Y4869D01*
X4108Y4858D01*
X4119Y4850D01*
X4132Y4845D01*
X4145Y4843D01*
X4158Y4845D01*
X4171Y4850D01*
X4182Y4858D01*
X4190Y4869D01*
X4195Y4882D01*
X4197Y4895D01*
X4195Y4908D01*
X4190Y4921D01*
X4182Y4932D01*
X4171Y4940D01*
X4158Y4945D01*
X4145Y4947D01*
D02*
G37*
G36*
X4295D02*
X4282Y4945D01*
X4269Y4940D01*
X4258Y4932D01*
X4250Y4921D01*
X4245Y4908D01*
X4243Y4895D01*
X4245Y4882D01*
X4250Y4869D01*
X4258Y4858D01*
X4269Y4850D01*
X4282Y4845D01*
X4295Y4843D01*
X4308Y4845D01*
X4321Y4850D01*
X4332Y4858D01*
X4340Y4869D01*
X4345Y4882D01*
X4347Y4895D01*
X4345Y4908D01*
X4340Y4921D01*
X4332Y4932D01*
X4321Y4940D01*
X4308Y4945D01*
X4295Y4947D01*
D02*
G37*
G36*
X4640Y4654D02*
X4633Y4653D01*
X4627Y4650D01*
X4621Y4646D01*
X4617Y4641D01*
X4615Y4634D01*
X4614Y4628D01*
X4615Y4621D01*
X4617Y4614D01*
X4621Y4609D01*
X4627Y4605D01*
X4633Y4602D01*
X4640Y4601D01*
X4647Y4602D01*
X4653Y4605D01*
X4659Y4609D01*
X4663Y4614D01*
X4665Y4621D01*
X4666Y4628D01*
X4665Y4634D01*
X4663Y4641D01*
X4659Y4646D01*
X4653Y4650D01*
X4647Y4653D01*
X4640Y4654D01*
D02*
G37*
G36*
X4110Y4729D02*
X4103Y4728D01*
X4097Y4725D01*
X4091Y4721D01*
X4087Y4716D01*
X4085Y4709D01*
X4084Y4702D01*
X4085Y4696D01*
X4087Y4689D01*
X4091Y4684D01*
X4097Y4680D01*
X4103Y4677D01*
X4110Y4676D01*
X4117Y4677D01*
X4123Y4680D01*
X4129Y4684D01*
X4133Y4689D01*
X4135Y4696D01*
X4136Y4702D01*
X4135Y4709D01*
X4133Y4716D01*
X4129Y4721D01*
X4123Y4725D01*
X4117Y4728D01*
X4110Y4729D01*
D02*
G37*
G36*
X4415Y4654D02*
X4408Y4653D01*
X4402Y4650D01*
X4396Y4646D01*
X4392Y4641D01*
X4390Y4634D01*
X4389Y4628D01*
X4390Y4621D01*
X4392Y4614D01*
X4396Y4609D01*
X4402Y4605D01*
X4408Y4602D01*
X4415Y4601D01*
X4422Y4602D01*
X4428Y4605D01*
X4434Y4609D01*
X4438Y4614D01*
X4440Y4621D01*
X4441Y4628D01*
X4440Y4634D01*
X4438Y4641D01*
X4434Y4646D01*
X4428Y4650D01*
X4422Y4653D01*
X4415Y4654D01*
D02*
G37*
G36*
X4490D02*
X4483Y4653D01*
X4477Y4650D01*
X4471Y4646D01*
X4467Y4641D01*
X4465Y4634D01*
X4464Y4628D01*
X4465Y4621D01*
X4467Y4614D01*
X4471Y4609D01*
X4477Y4605D01*
X4483Y4602D01*
X4490Y4601D01*
X4497Y4602D01*
X4503Y4605D01*
X4509Y4609D01*
X4513Y4614D01*
X4515Y4621D01*
X4516Y4628D01*
X4515Y4634D01*
X4513Y4641D01*
X4509Y4646D01*
X4503Y4650D01*
X4497Y4653D01*
X4490Y4654D01*
D02*
G37*
G36*
X4640Y4729D02*
X4633Y4728D01*
X4627Y4725D01*
X4621Y4721D01*
X4617Y4716D01*
X4615Y4709D01*
X4614Y4702D01*
X4615Y4696D01*
X4617Y4689D01*
X4621Y4684D01*
X4627Y4680D01*
X4633Y4677D01*
X4640Y4676D01*
X4647Y4677D01*
X4653Y4680D01*
X4659Y4684D01*
X4663Y4689D01*
X4665Y4696D01*
X4666Y4702D01*
X4665Y4709D01*
X4663Y4716D01*
X4659Y4721D01*
X4653Y4725D01*
X4647Y4728D01*
X4640Y4729D01*
D02*
G37*
G36*
X4113Y4796D02*
X4106Y4795D01*
X4099Y4793D01*
X4094Y4789D01*
X4090Y4783D01*
X4087Y4777D01*
X4086Y4770D01*
X4087Y4763D01*
X4090Y4757D01*
X4094Y4751D01*
X4099Y4747D01*
X4106Y4745D01*
X4113Y4744D01*
X4119Y4745D01*
X4126Y4747D01*
X4131Y4751D01*
X4135Y4757D01*
X4138Y4763D01*
X4139Y4770D01*
X4138Y4777D01*
X4135Y4783D01*
X4131Y4789D01*
X4126Y4793D01*
X4119Y4795D01*
X4113Y4796D01*
D02*
G37*
G36*
X4335Y4729D02*
X4328Y4728D01*
X4322Y4725D01*
X4316Y4721D01*
X4312Y4716D01*
X4310Y4709D01*
X4309Y4702D01*
X4310Y4696D01*
X4312Y4689D01*
X4316Y4684D01*
X4322Y4680D01*
X4328Y4677D01*
X4335Y4676D01*
X4342Y4677D01*
X4348Y4680D01*
X4354Y4684D01*
X4358Y4689D01*
X4360Y4696D01*
X4361Y4702D01*
X4360Y4709D01*
X4358Y4716D01*
X4354Y4721D01*
X4348Y4725D01*
X4342Y4728D01*
X4335Y4729D01*
D02*
G37*
G36*
X4415D02*
X4408Y4728D01*
X4402Y4725D01*
X4396Y4721D01*
X4392Y4716D01*
X4390Y4709D01*
X4389Y4702D01*
X4390Y4696D01*
X4392Y4689D01*
X4396Y4684D01*
X4402Y4680D01*
X4408Y4677D01*
X4415Y4676D01*
X4422Y4677D01*
X4428Y4680D01*
X4434Y4684D01*
X4438Y4689D01*
X4440Y4696D01*
X4441Y4702D01*
X4440Y4709D01*
X4438Y4716D01*
X4434Y4721D01*
X4428Y4725D01*
X4422Y4728D01*
X4415Y4729D01*
D02*
G37*
G36*
X4230Y4411D02*
X4223Y4410D01*
X4217Y4407D01*
X4211Y4403D01*
X4207Y4398D01*
X4205Y4391D01*
X4204Y4385D01*
X4205Y4378D01*
X4207Y4371D01*
X4211Y4366D01*
X4217Y4362D01*
X4223Y4359D01*
X4230Y4358D01*
X4237Y4359D01*
X4243Y4362D01*
X4249Y4366D01*
X4253Y4371D01*
X4255Y4378D01*
X4256Y4385D01*
X4255Y4391D01*
X4253Y4398D01*
X4249Y4403D01*
X4243Y4407D01*
X4237Y4410D01*
X4230Y4411D01*
D02*
G37*
G36*
X4295Y4029D02*
X4288Y4028D01*
X4282Y4025D01*
X4276Y4021D01*
X4272Y4016D01*
X4270Y4009D01*
X4269Y4003D01*
X4270Y3996D01*
X4272Y3989D01*
X4276Y3984D01*
X4282Y3980D01*
X4288Y3977D01*
X4295Y3976D01*
X4302Y3977D01*
X4308Y3980D01*
X4314Y3984D01*
X4318Y3989D01*
X4320Y3996D01*
X4321Y4003D01*
X4320Y4009D01*
X4318Y4016D01*
X4314Y4021D01*
X4308Y4025D01*
X4302Y4028D01*
X4295Y4029D01*
D02*
G37*
G36*
X4415D02*
X4408Y4028D01*
X4402Y4025D01*
X4396Y4021D01*
X4392Y4016D01*
X4390Y4009D01*
X4389Y4003D01*
X4390Y3996D01*
X4392Y3989D01*
X4396Y3984D01*
X4402Y3980D01*
X4408Y3977D01*
X4415Y3976D01*
X4422Y3977D01*
X4428Y3980D01*
X4434Y3984D01*
X4438Y3989D01*
X4440Y3996D01*
X4441Y4003D01*
X4440Y4009D01*
X4438Y4016D01*
X4434Y4021D01*
X4428Y4025D01*
X4422Y4028D01*
X4415Y4029D01*
D02*
G37*
G36*
X4637Y3961D02*
X4631Y3960D01*
X4624Y3958D01*
X4619Y3954D01*
X4615Y3948D01*
X4612Y3942D01*
X4611Y3935D01*
X4612Y3928D01*
X4615Y3922D01*
X4619Y3916D01*
X4624Y3912D01*
X4631Y3910D01*
X4637Y3909D01*
X4644Y3910D01*
X4651Y3912D01*
X4656Y3916D01*
X4660Y3922D01*
X4663Y3928D01*
X4664Y3935D01*
X4663Y3942D01*
X4660Y3948D01*
X4656Y3954D01*
X4651Y3958D01*
X4644Y3960D01*
X4637Y3961D01*
D02*
G37*
G36*
X4220Y4029D02*
X4213Y4028D01*
X4207Y4025D01*
X4201Y4021D01*
X4197Y4016D01*
X4195Y4009D01*
X4194Y4003D01*
X4195Y3996D01*
X4197Y3989D01*
X4201Y3984D01*
X4207Y3980D01*
X4213Y3977D01*
X4220Y3976D01*
X4227Y3977D01*
X4233Y3980D01*
X4239Y3984D01*
X4243Y3989D01*
X4245Y3996D01*
X4246Y4003D01*
X4245Y4009D01*
X4243Y4016D01*
X4239Y4021D01*
X4233Y4025D01*
X4227Y4028D01*
X4220Y4029D01*
D02*
G37*
G36*
Y4154D02*
X4213Y4153D01*
X4207Y4150D01*
X4201Y4146D01*
X4197Y4141D01*
X4195Y4134D01*
X4194Y4128D01*
X4195Y4121D01*
X4197Y4114D01*
X4201Y4109D01*
X4207Y4105D01*
X4208Y4104D01*
Y4099D01*
X4204Y4098D01*
X4199Y4094D01*
X4195Y4088D01*
X4192Y4082D01*
X4191Y4075D01*
X4192Y4068D01*
X4195Y4062D01*
X4199Y4056D01*
X4204Y4052D01*
X4211Y4050D01*
X4218Y4049D01*
X4224Y4050D01*
X4231Y4052D01*
X4236Y4056D01*
X4240Y4062D01*
X4243Y4068D01*
X4244Y4075D01*
X4243Y4082D01*
X4240Y4088D01*
X4236Y4094D01*
X4231Y4098D01*
X4229Y4098D01*
Y4103D01*
X4233Y4105D01*
X4239Y4109D01*
X4243Y4114D01*
X4245Y4121D01*
X4246Y4128D01*
X4245Y4134D01*
X4243Y4141D01*
X4239Y4146D01*
X4233Y4150D01*
X4227Y4153D01*
X4220Y4154D01*
D02*
G37*
G36*
X4415Y4104D02*
X4408Y4103D01*
X4402Y4100D01*
X4396Y4096D01*
X4392Y4091D01*
X4390Y4084D01*
X4389Y4077D01*
X4390Y4071D01*
X4392Y4064D01*
X4396Y4059D01*
X4402Y4055D01*
X4408Y4052D01*
X4415Y4051D01*
X4422Y4052D01*
X4428Y4055D01*
X4434Y4059D01*
X4438Y4064D01*
X4440Y4071D01*
X4441Y4077D01*
X4440Y4084D01*
X4438Y4091D01*
X4434Y4096D01*
X4428Y4100D01*
X4422Y4103D01*
X4415Y4104D01*
D02*
G37*
G36*
X4640Y4029D02*
X4633Y4028D01*
X4627Y4025D01*
X4621Y4021D01*
X4617Y4016D01*
X4615Y4009D01*
X4614Y4003D01*
X4615Y3996D01*
X4617Y3989D01*
X4621Y3984D01*
X4627Y3980D01*
X4633Y3977D01*
X4640Y3976D01*
X4647Y3977D01*
X4653Y3980D01*
X4659Y3984D01*
X4663Y3989D01*
X4665Y3996D01*
X4666Y4003D01*
X4665Y4009D01*
X4663Y4016D01*
X4659Y4021D01*
X4653Y4025D01*
X4647Y4028D01*
X4640Y4029D01*
D02*
G37*
G36*
X4835Y4127D02*
X4822Y4125D01*
X4809Y4120D01*
X4798Y4112D01*
X4790Y4101D01*
X4785Y4088D01*
X4783Y4075D01*
X4785Y4062D01*
X4790Y4049D01*
X4798Y4038D01*
X4809Y4030D01*
X4822Y4025D01*
X4835Y4023D01*
X4848Y4025D01*
X4861Y4030D01*
X4872Y4038D01*
X4880Y4049D01*
X4885Y4062D01*
X4887Y4075D01*
X4885Y4088D01*
X4880Y4101D01*
X4872Y4112D01*
X4861Y4120D01*
X4848Y4125D01*
X4835Y4127D01*
D02*
G37*
G36*
X3595Y3687D02*
X3581Y3686D01*
X3569Y3680D01*
X3558Y3672D01*
X3550Y3661D01*
X3544Y3649D01*
X3543Y3635D01*
X3544Y3621D01*
X3550Y3609D01*
X3558Y3598D01*
X3569Y3590D01*
X3581Y3584D01*
X3595Y3583D01*
X3609Y3584D01*
X3621Y3590D01*
X3632Y3598D01*
X3640Y3609D01*
X3646Y3621D01*
X3647Y3635D01*
X3646Y3649D01*
X3640Y3661D01*
X3632Y3672D01*
X3621Y3680D01*
X3609Y3686D01*
X3595Y3687D01*
D02*
G37*
G36*
X3075Y3887D02*
X3061Y3886D01*
X3049Y3880D01*
X3038Y3872D01*
X3030Y3861D01*
X3024Y3849D01*
X3023Y3835D01*
X3024Y3821D01*
X3030Y3809D01*
X3038Y3798D01*
X3049Y3790D01*
X3061Y3784D01*
X3075Y3783D01*
X3089Y3784D01*
X3090Y3785D01*
X3184Y3691D01*
X3181Y3687D01*
X3175Y3687D01*
X3161Y3686D01*
X3149Y3680D01*
X3138Y3672D01*
X3130Y3661D01*
X3124Y3649D01*
X3123Y3635D01*
X3124Y3621D01*
X3130Y3609D01*
X3138Y3598D01*
X3149Y3590D01*
X3161Y3584D01*
X3175Y3583D01*
X3189Y3584D01*
X3201Y3590D01*
X3212Y3598D01*
X3220Y3609D01*
X3226Y3621D01*
X3227Y3635D01*
X3227Y3641D01*
X3231Y3644D01*
X3275Y3600D01*
Y3470D01*
X3270Y3469D01*
X3265Y3475D01*
X3256Y3482D01*
X3246Y3486D01*
X3235Y3488D01*
X3224Y3486D01*
X3214Y3482D01*
X3205Y3475D01*
X3198Y3466D01*
X3194Y3456D01*
X3192Y3445D01*
X3194Y3434D01*
X3198Y3424D01*
X3205Y3415D01*
X3214Y3408D01*
X3224Y3404D01*
X3235Y3402D01*
X3246Y3404D01*
X3256Y3408D01*
X3265Y3415D01*
X3270Y3421D01*
X3275Y3420D01*
Y3370D01*
X3270Y3369D01*
X3265Y3375D01*
X3256Y3382D01*
X3246Y3386D01*
X3235Y3388D01*
X3224Y3386D01*
X3214Y3382D01*
X3205Y3375D01*
X3198Y3366D01*
X3194Y3356D01*
X3192Y3345D01*
X3194Y3334D01*
X3198Y3324D01*
X3205Y3315D01*
X3213Y3309D01*
Y3281D01*
X3205Y3275D01*
X3198Y3266D01*
X3194Y3256D01*
X3192Y3245D01*
X3194Y3234D01*
X3198Y3224D01*
X3205Y3215D01*
X3214Y3208D01*
X3224Y3204D01*
X3235Y3202D01*
X3246Y3204D01*
X3255Y3207D01*
X3258Y3203D01*
X3242Y3187D01*
X3235Y3188D01*
X3224Y3186D01*
X3214Y3182D01*
X3205Y3175D01*
X3198Y3166D01*
X3194Y3156D01*
X3192Y3145D01*
X3193Y3135D01*
X2884Y2826D01*
X2879Y2819D01*
X2878Y2810D01*
Y2788D01*
X2877Y2788D01*
X2875Y2782D01*
X2874Y2775D01*
X2875Y2768D01*
X2877Y2762D01*
X2878Y2762D01*
Y2568D01*
X2877Y2568D01*
X2875Y2562D01*
X2874Y2555D01*
X2875Y2548D01*
X2877Y2542D01*
X2878Y2542D01*
Y2433D01*
X2877Y2433D01*
X2875Y2427D01*
X2874Y2420D01*
X2875Y2413D01*
X2877Y2407D01*
X2881Y2401D01*
X2887Y2397D01*
X2893Y2395D01*
X2900Y2394D01*
X2907Y2395D01*
X2913Y2397D01*
X2919Y2401D01*
X2923Y2407D01*
X2925Y2413D01*
X2926Y2420D01*
X2925Y2427D01*
X2923Y2433D01*
X2922Y2433D01*
Y2542D01*
X2923Y2542D01*
X2925Y2548D01*
X2926Y2555D01*
X2925Y2562D01*
X2923Y2568D01*
X2922Y2568D01*
Y2762D01*
X2923Y2762D01*
X2925Y2768D01*
X2926Y2775D01*
X2925Y2782D01*
X2923Y2788D01*
X2922Y2788D01*
Y2801D01*
X3225Y3103D01*
X3235Y3102D01*
X3246Y3104D01*
X3256Y3108D01*
X3265Y3115D01*
X3272Y3124D01*
X3276Y3134D01*
X3278Y3145D01*
X3277Y3152D01*
X3318Y3192D01*
X3323Y3200D01*
X3325Y3210D01*
Y3610D01*
X3323Y3620D01*
X3318Y3628D01*
X3125Y3820D01*
X3126Y3821D01*
X3127Y3835D01*
X3126Y3849D01*
X3120Y3861D01*
X3112Y3872D01*
X3101Y3880D01*
X3089Y3886D01*
X3075Y3887D01*
D02*
G37*
G36*
X3780Y3292D02*
X3767Y3290D01*
X3754Y3285D01*
X3743Y3277D01*
X3735Y3266D01*
X3730Y3253D01*
X3728Y3240D01*
X3730Y3227D01*
X3735Y3214D01*
X3743Y3203D01*
X3754Y3195D01*
X3767Y3190D01*
X3780Y3188D01*
X3793Y3190D01*
X3806Y3195D01*
X3817Y3203D01*
X3825Y3214D01*
X3830Y3227D01*
X3832Y3240D01*
X3830Y3253D01*
X3825Y3266D01*
X3817Y3277D01*
X3806Y3285D01*
X3793Y3290D01*
X3780Y3292D01*
D02*
G37*
G36*
X3535Y3388D02*
X3524Y3386D01*
X3514Y3382D01*
X3505Y3375D01*
X3498Y3366D01*
X3494Y3356D01*
X3492Y3345D01*
X3494Y3334D01*
X3498Y3324D01*
X3505Y3315D01*
X3514Y3308D01*
X3524Y3304D01*
X3535Y3302D01*
X3546Y3304D01*
X3556Y3308D01*
X3565Y3315D01*
X3572Y3324D01*
X3576Y3334D01*
X3578Y3345D01*
X3576Y3356D01*
X3572Y3366D01*
X3565Y3375D01*
X3556Y3382D01*
X3546Y3386D01*
X3535Y3388D01*
D02*
G37*
G36*
X3495Y3887D02*
X3481Y3886D01*
X3469Y3880D01*
X3458Y3872D01*
X3450Y3861D01*
X3444Y3849D01*
X3443Y3835D01*
X3444Y3821D01*
X3450Y3809D01*
X3458Y3798D01*
X3469Y3790D01*
X3481Y3784D01*
X3495Y3783D01*
X3509Y3784D01*
X3521Y3790D01*
X3532Y3798D01*
X3540Y3809D01*
X3546Y3821D01*
X3547Y3835D01*
X3546Y3849D01*
X3540Y3861D01*
X3532Y3872D01*
X3521Y3880D01*
X3509Y3886D01*
X3495Y3887D01*
D02*
G37*
G36*
X4418Y3961D02*
X4411Y3960D01*
X4404Y3958D01*
X4399Y3954D01*
X4395Y3948D01*
X4392Y3942D01*
X4391Y3935D01*
X4392Y3928D01*
X4395Y3922D01*
X4399Y3916D01*
X4404Y3912D01*
X4411Y3910D01*
X4418Y3909D01*
X4424Y3910D01*
X4431Y3912D01*
X4436Y3916D01*
X4440Y3922D01*
X4443Y3928D01*
X4444Y3935D01*
X4443Y3942D01*
X4440Y3948D01*
X4436Y3954D01*
X4431Y3958D01*
X4424Y3960D01*
X4418Y3961D01*
D02*
G37*
G36*
X4450Y3862D02*
X4437Y3860D01*
X4424Y3855D01*
X4413Y3847D01*
X4405Y3836D01*
X4400Y3823D01*
X4398Y3810D01*
X4400Y3797D01*
X4405Y3784D01*
X4413Y3773D01*
X4424Y3765D01*
X4437Y3760D01*
X4450Y3758D01*
X4463Y3760D01*
X4476Y3765D01*
X4487Y3773D01*
X4495Y3784D01*
X4500Y3797D01*
X4502Y3810D01*
X4500Y3823D01*
X4495Y3836D01*
X4487Y3847D01*
X4476Y3855D01*
X4463Y3860D01*
X4450Y3862D01*
D02*
G37*
G36*
X4605D02*
X4592Y3860D01*
X4579Y3855D01*
X4568Y3847D01*
X4560Y3836D01*
X4555Y3823D01*
X4553Y3810D01*
X4555Y3797D01*
X4560Y3784D01*
X4568Y3773D01*
X4579Y3765D01*
X4592Y3760D01*
X4605Y3758D01*
X4618Y3760D01*
X4631Y3765D01*
X4642Y3773D01*
X4650Y3784D01*
X4655Y3797D01*
X4657Y3810D01*
X4655Y3823D01*
X4650Y3836D01*
X4642Y3847D01*
X4631Y3855D01*
X4618Y3860D01*
X4605Y3862D01*
D02*
G37*
G36*
X4565Y4229D02*
X4558Y4228D01*
X4552Y4225D01*
X4546Y4221D01*
X4542Y4216D01*
X4540Y4209D01*
X4539Y4202D01*
X4540Y4196D01*
X4542Y4189D01*
X4546Y4184D01*
X4552Y4180D01*
X4558Y4177D01*
X4565Y4176D01*
X4572Y4177D01*
X4578Y4180D01*
X4584Y4184D01*
X4588Y4189D01*
X4590Y4196D01*
X4591Y4202D01*
X4590Y4209D01*
X4588Y4216D01*
X4584Y4221D01*
X4578Y4225D01*
X4572Y4228D01*
X4565Y4229D01*
D02*
G37*
G36*
X4640D02*
X4633Y4228D01*
X4627Y4225D01*
X4621Y4221D01*
X4617Y4216D01*
X4615Y4209D01*
X4614Y4202D01*
X4615Y4196D01*
X4617Y4189D01*
X4621Y4184D01*
X4627Y4180D01*
X4633Y4177D01*
X4640Y4176D01*
X4647Y4177D01*
X4653Y4180D01*
X4659Y4184D01*
X4663Y4189D01*
X4665Y4196D01*
X4666Y4202D01*
X4665Y4209D01*
X4663Y4216D01*
X4659Y4221D01*
X4653Y4225D01*
X4647Y4228D01*
X4640Y4229D01*
D02*
G37*
G36*
X4145D02*
X4138Y4228D01*
X4132Y4225D01*
X4126Y4221D01*
X4122Y4216D01*
X4120Y4209D01*
X4119Y4202D01*
X4120Y4196D01*
X4122Y4189D01*
X4126Y4184D01*
X4132Y4180D01*
X4138Y4177D01*
X4145Y4176D01*
X4152Y4177D01*
X4158Y4180D01*
X4164Y4184D01*
X4168Y4189D01*
X4170Y4196D01*
X4171Y4202D01*
X4170Y4209D01*
X4168Y4216D01*
X4164Y4221D01*
X4158Y4225D01*
X4152Y4228D01*
X4145Y4229D01*
D02*
G37*
G36*
X4220D02*
X4213Y4228D01*
X4207Y4225D01*
X4201Y4221D01*
X4197Y4216D01*
X4195Y4209D01*
X4194Y4202D01*
X4195Y4196D01*
X4197Y4189D01*
X4201Y4184D01*
X4207Y4180D01*
X4213Y4177D01*
X4220Y4176D01*
X4227Y4177D01*
X4233Y4180D01*
X4239Y4184D01*
X4243Y4189D01*
X4245Y4196D01*
X4246Y4202D01*
X4245Y4209D01*
X4243Y4216D01*
X4239Y4221D01*
X4233Y4225D01*
X4227Y4228D01*
X4220Y4229D01*
D02*
G37*
G36*
X4230Y4352D02*
X4223Y4351D01*
X4217Y4348D01*
X4211Y4344D01*
X4207Y4339D01*
X4205Y4332D01*
X4204Y4325D01*
X4205Y4319D01*
X4207Y4312D01*
X4211Y4307D01*
X4217Y4303D01*
X4223Y4300D01*
X4230Y4299D01*
X4237Y4300D01*
X4243Y4303D01*
X4249Y4307D01*
X4253Y4312D01*
X4255Y4319D01*
X4256Y4325D01*
X4255Y4332D01*
X4253Y4339D01*
X4249Y4344D01*
X4243Y4348D01*
X4237Y4351D01*
X4230Y4352D01*
D02*
G37*
G36*
X4075Y4407D02*
X4062Y4405D01*
X4049Y4400D01*
X4038Y4392D01*
X4030Y4381D01*
X4025Y4368D01*
X4023Y4355D01*
X4025Y4342D01*
X4026Y4338D01*
X3746Y4057D01*
X2890D01*
X2881Y4056D01*
X2874Y4051D01*
X2234Y3411D01*
X2229Y3404D01*
X2228Y3395D01*
Y2074D01*
X1986Y1832D01*
X1976D01*
X1975Y1836D01*
X1967Y1847D01*
X1956Y1855D01*
X1943Y1860D01*
X1930Y1862D01*
X1917Y1860D01*
X1904Y1855D01*
X1893Y1847D01*
X1885Y1836D01*
X1880Y1823D01*
X1878Y1810D01*
X1880Y1797D01*
X1885Y1784D01*
X1893Y1773D01*
X1904Y1765D01*
X1917Y1760D01*
X1930Y1758D01*
X1943Y1760D01*
X1956Y1765D01*
X1967Y1773D01*
X1975Y1784D01*
X1976Y1788D01*
X1995D01*
X2004Y1789D01*
X2011Y1794D01*
X2266Y2049D01*
X2271Y2056D01*
X2272Y2065D01*
Y3386D01*
X2899Y4013D01*
X3755D01*
X3764Y4014D01*
X3771Y4019D01*
X3967Y4215D01*
X3971Y4212D01*
X3970Y4209D01*
X3969Y4202D01*
X3970Y4196D01*
X3972Y4189D01*
X3976Y4184D01*
X3982Y4180D01*
X3988Y4177D01*
X3995Y4176D01*
X4002Y4177D01*
X4008Y4180D01*
X4014Y4184D01*
X4018Y4189D01*
X4020Y4196D01*
X4021Y4202D01*
X4020Y4209D01*
X4018Y4216D01*
X4014Y4221D01*
X4008Y4225D01*
X4002Y4228D01*
X3995Y4229D01*
X3988Y4228D01*
X3985Y4226D01*
X3982Y4231D01*
X4058Y4306D01*
X4062Y4305D01*
X4075Y4303D01*
X4088Y4305D01*
X4101Y4310D01*
X4112Y4318D01*
X4120Y4329D01*
X4125Y4342D01*
X4127Y4355D01*
X4125Y4368D01*
X4120Y4381D01*
X4112Y4392D01*
X4101Y4400D01*
X4088Y4405D01*
X4075Y4407D01*
D02*
G37*
G36*
X4715Y4229D02*
X4708Y4228D01*
X4702Y4225D01*
X4696Y4221D01*
X4692Y4216D01*
X4690Y4209D01*
X4689Y4202D01*
X4690Y4196D01*
X4692Y4189D01*
X4696Y4184D01*
X4702Y4180D01*
X4708Y4177D01*
X4715Y4176D01*
X4722Y4177D01*
X4728Y4180D01*
X4734Y4184D01*
X4738Y4189D01*
X4740Y4196D01*
X4741Y4202D01*
X4740Y4209D01*
X4738Y4216D01*
X4734Y4221D01*
X4728Y4225D01*
X4722Y4228D01*
X4715Y4229D01*
D02*
G37*
G36*
X4530Y4344D02*
X4523Y4343D01*
X4517Y4340D01*
X4511Y4336D01*
X4507Y4331D01*
X4505Y4324D01*
X4504Y4318D01*
X4505Y4311D01*
X4507Y4304D01*
X4511Y4299D01*
X4517Y4295D01*
X4523Y4292D01*
X4530Y4291D01*
X4537Y4292D01*
X4543Y4295D01*
X4549Y4299D01*
X4553Y4304D01*
X4555Y4311D01*
X4556Y4318D01*
X4555Y4324D01*
X4553Y4331D01*
X4549Y4336D01*
X4543Y4340D01*
X4537Y4343D01*
X4530Y4344D01*
D02*
G37*
G36*
X4640Y4104D02*
X4633Y4103D01*
X4627Y4100D01*
X4621Y4096D01*
X4617Y4091D01*
X4615Y4084D01*
X4614Y4077D01*
X4615Y4071D01*
X4617Y4064D01*
X4621Y4059D01*
X4627Y4055D01*
X4633Y4052D01*
X4640Y4051D01*
X4647Y4052D01*
X4653Y4055D01*
X4659Y4059D01*
X4663Y4064D01*
X4665Y4071D01*
X4666Y4077D01*
X4665Y4084D01*
X4663Y4091D01*
X4659Y4096D01*
X4653Y4100D01*
X4647Y4103D01*
X4640Y4104D01*
D02*
G37*
G36*
X4715Y4154D02*
X4708Y4153D01*
X4702Y4150D01*
X4696Y4146D01*
X4692Y4141D01*
X4690Y4134D01*
X4689Y4128D01*
X4690Y4121D01*
X4692Y4114D01*
X4696Y4109D01*
X4702Y4105D01*
Y4100D01*
X4696Y4096D01*
X4692Y4091D01*
X4690Y4084D01*
X4689Y4077D01*
X4690Y4071D01*
X4692Y4064D01*
X4696Y4059D01*
X4702Y4055D01*
X4708Y4052D01*
X4715Y4051D01*
X4722Y4052D01*
X4728Y4055D01*
X4734Y4059D01*
X4738Y4064D01*
X4740Y4071D01*
X4741Y4077D01*
X4740Y4084D01*
X4738Y4091D01*
X4734Y4096D01*
X4728Y4100D01*
Y4105D01*
X4734Y4109D01*
X4738Y4114D01*
X4740Y4121D01*
X4741Y4128D01*
X4740Y4134D01*
X4738Y4141D01*
X4734Y4146D01*
X4728Y4150D01*
X4722Y4153D01*
X4715Y4154D01*
D02*
G37*
G36*
X4490Y4104D02*
X4483Y4103D01*
X4477Y4100D01*
X4471Y4096D01*
X4467Y4091D01*
X4465Y4084D01*
X4464Y4077D01*
X4465Y4071D01*
X4467Y4064D01*
X4471Y4059D01*
X4477Y4055D01*
X4483Y4052D01*
X4490Y4051D01*
X4497Y4052D01*
X4503Y4055D01*
X4509Y4059D01*
X4513Y4064D01*
X4515Y4071D01*
X4516Y4077D01*
X4515Y4084D01*
X4513Y4091D01*
X4509Y4096D01*
X4503Y4100D01*
X4497Y4103D01*
X4490Y4104D01*
D02*
G37*
G36*
X4565Y4154D02*
X4558Y4153D01*
X4552Y4150D01*
X4546Y4146D01*
X4542Y4141D01*
X4540Y4134D01*
X4539Y4128D01*
X4540Y4121D01*
X4542Y4114D01*
X4546Y4109D01*
X4552Y4105D01*
Y4100D01*
X4546Y4096D01*
X4542Y4091D01*
X4540Y4084D01*
X4539Y4077D01*
X4540Y4071D01*
X4542Y4064D01*
X4546Y4059D01*
X4552Y4055D01*
X4558Y4052D01*
X4565Y4051D01*
X4572Y4052D01*
X4578Y4055D01*
X4584Y4059D01*
X4588Y4064D01*
X4590Y4071D01*
X4591Y4077D01*
X4590Y4084D01*
X4588Y4091D01*
X4584Y4096D01*
X4578Y4100D01*
Y4105D01*
X4584Y4109D01*
X4588Y4114D01*
X4590Y4121D01*
X4591Y4128D01*
X4590Y4134D01*
X4588Y4141D01*
X4584Y4146D01*
X4578Y4150D01*
X4572Y4153D01*
X4565Y4154D01*
D02*
G37*
G36*
X4145D02*
X4138Y4153D01*
X4132Y4150D01*
X4126Y4146D01*
X4122Y4141D01*
X4120Y4134D01*
X4119Y4128D01*
X4120Y4121D01*
X4122Y4114D01*
X4126Y4109D01*
X4132Y4105D01*
X4138Y4102D01*
X4145Y4101D01*
X4152Y4102D01*
X4158Y4105D01*
X4164Y4109D01*
X4168Y4114D01*
X4170Y4121D01*
X4171Y4128D01*
X4170Y4134D01*
X4168Y4141D01*
X4164Y4146D01*
X4158Y4150D01*
X4152Y4153D01*
X4145Y4154D01*
D02*
G37*
G36*
X4275Y4201D02*
X4268Y4200D01*
X4262Y4198D01*
X4256Y4194D01*
X4252Y4188D01*
X4250Y4182D01*
X4249Y4175D01*
X4250Y4168D01*
X4252Y4162D01*
X4256Y4156D01*
X4262Y4152D01*
X4268Y4150D01*
X4273Y4149D01*
X4275Y4149D01*
X4275Y4149D01*
X4275D01*
D01*
X4276Y4148D01*
D01*
D01*
D01*
Y4148D01*
X4276Y4148D01*
X4324Y4100D01*
Y4097D01*
X4324Y4097D01*
X4324D01*
X4324Y4096D01*
X4324Y4096D01*
X4324D01*
X4324Y4096D01*
X4323Y4094D01*
X4321Y4092D01*
X4316D01*
X4314Y4096D01*
X4308Y4100D01*
X4302Y4103D01*
X4295Y4104D01*
X4288Y4103D01*
X4282Y4100D01*
X4276Y4096D01*
X4272Y4091D01*
X4270Y4084D01*
X4269Y4077D01*
X4270Y4071D01*
X4272Y4064D01*
X4276Y4059D01*
X4282Y4055D01*
X4288Y4052D01*
X4295Y4051D01*
X4302Y4052D01*
X4308Y4055D01*
X4314Y4059D01*
X4316Y4062D01*
X4321D01*
X4324Y4059D01*
X4329Y4055D01*
X4336Y4052D01*
X4342Y4051D01*
X4349Y4052D01*
X4356Y4055D01*
X4361Y4059D01*
X4365Y4064D01*
X4368Y4071D01*
X4369Y4077D01*
X4368Y4084D01*
X4365Y4091D01*
X4362Y4094D01*
X4361Y4096D01*
X4361Y4096D01*
X4361Y4097D01*
X4361Y4097D01*
X4361D01*
D01*
D01*
Y4097D01*
X4361Y4108D01*
Y4108D01*
X4360Y4113D01*
X4359Y4115D01*
X4355Y4121D01*
X4302Y4174D01*
D01*
Y4174D01*
X4302Y4174D01*
X4302Y4174D01*
D01*
Y4174D01*
Y4174D01*
D01*
D01*
Y4174D01*
D01*
D01*
D01*
D01*
X4302Y4175D01*
X4301Y4175D01*
X4301D01*
X4301Y4175D01*
D01*
X4301D01*
X4301D01*
X4301Y4175D01*
X4301D01*
X4301Y4177D01*
X4300Y4182D01*
X4298Y4188D01*
X4294Y4194D01*
X4288Y4198D01*
X4282Y4200D01*
X4275Y4201D01*
D02*
G37*
G36*
X3995Y4154D02*
X3988Y4153D01*
X3982Y4150D01*
X3976Y4146D01*
X3972Y4141D01*
X3970Y4134D01*
X3969Y4128D01*
X3970Y4121D01*
X3972Y4114D01*
X3976Y4109D01*
X3982Y4105D01*
X3988Y4102D01*
X3995Y4101D01*
X4002Y4102D01*
X4008Y4105D01*
X4014Y4109D01*
X4018Y4114D01*
X4020Y4121D01*
X4021Y4128D01*
X4020Y4134D01*
X4018Y4141D01*
X4014Y4146D01*
X4008Y4150D01*
X4002Y4153D01*
X3995Y4154D01*
D02*
G37*
G36*
X4070D02*
X4063Y4153D01*
X4057Y4150D01*
X4051Y4146D01*
X4047Y4141D01*
X4045Y4134D01*
X4044Y4128D01*
X4045Y4121D01*
X4047Y4114D01*
X4051Y4109D01*
X4057Y4105D01*
X4063Y4102D01*
X4070Y4101D01*
X4077Y4102D01*
X4083Y4105D01*
X4089Y4109D01*
X4093Y4114D01*
X4095Y4121D01*
X4096Y4128D01*
X4095Y4134D01*
X4093Y4141D01*
X4089Y4146D01*
X4083Y4150D01*
X4077Y4153D01*
X4070Y4154D01*
D02*
G37*
%LPD*%
D11*
X2250Y2065D02*
Y3395D01*
X3535Y3145D02*
Y3245D01*
X3235D02*
Y3345D01*
X3535Y2890D02*
X4345D01*
X4510Y2725D01*
X2900Y2555D02*
Y2775D01*
Y2420D02*
Y2555D01*
Y2775D02*
Y2810D01*
X3235Y3145D01*
X1995Y1810D02*
X2250Y2065D01*
Y3395D02*
X2890Y4035D01*
X3755D01*
X4075Y4355D01*
X1930Y1810D02*
X1995D01*
D13*
X4289Y4161D02*
G03*
X4275Y4167I-14J-14D01*
G01*
X4283Y4175D02*
G03*
X4289Y4161I19J0D01*
G01*
X4342Y4097D02*
G03*
X4348Y4083I19J0D01*
G01*
X4337D02*
G03*
X4342Y4097I-14J14D01*
G01*
Y4077D02*
Y4108D01*
X4275Y4175D02*
X4342Y4108D01*
D36*
X4896Y2193D02*
D03*
Y1917D02*
D03*
Y1683D02*
D03*
Y1407D02*
D03*
X4901Y3493D02*
D03*
Y3217D02*
D03*
D59*
X3235Y3145D02*
X3300Y3210D01*
Y3610D01*
X3075Y3835D02*
X3300Y3610D01*
D61*
X1675Y3095D02*
D03*
X3190Y4840D02*
D03*
X2050Y3100D02*
D03*
Y2875D02*
D03*
X3590Y1300D02*
D03*
X1925Y1625D02*
D03*
X1675Y2880D02*
D03*
X3380Y1765D02*
D03*
X1470Y1290D02*
D03*
X1930Y1810D02*
D03*
X2795Y2555D02*
D03*
X2625Y3025D02*
D03*
X2465Y2555D02*
D03*
X3990Y2780D02*
D03*
X2990Y3240D02*
D03*
X3780D02*
D03*
X4075Y4355D02*
D03*
X4605Y3810D02*
D03*
X4835Y4075D02*
D03*
X4450Y3810D02*
D03*
X3915Y4355D02*
D03*
X4145Y4895D02*
D03*
X3915Y4630D02*
D03*
X4295Y4895D02*
D03*
X4605D02*
D03*
X4835Y4630D02*
D03*
X4455Y4895D02*
D03*
D62*
X1090Y4375D02*
D03*
D63*
Y4475D02*
D03*
D64*
X3475Y2290D02*
D03*
X3275Y2390D02*
D03*
X3475Y2490D02*
D03*
X3275Y3835D02*
D03*
X3175Y3635D02*
D03*
X3075Y3835D02*
D03*
X3695D02*
D03*
X3595Y3635D02*
D03*
X3495Y3835D02*
D03*
X3835Y1840D02*
D03*
D65*
X3235Y2690D02*
D03*
Y2790D02*
D03*
Y2890D02*
D03*
Y2990D02*
D03*
X3535D02*
D03*
Y2890D02*
D03*
Y2790D02*
D03*
X3235Y3145D02*
D03*
Y3245D02*
D03*
Y3345D02*
D03*
Y3445D02*
D03*
X3535D02*
D03*
Y3345D02*
D03*
Y3245D02*
D03*
D66*
Y2690D02*
D03*
Y3145D02*
D03*
D67*
X3925Y1890D02*
D03*
X4870Y1210D02*
D03*
Y1060D02*
D03*
X4720D02*
D03*
Y1210D02*
D03*
X4570D02*
D03*
X4495Y1285D02*
D03*
X4100Y2250D02*
D03*
X4385Y2125D02*
D03*
Y2175D02*
D03*
X4250Y2250D02*
D03*
X3585Y1965D02*
D03*
X3510D02*
D03*
X3585Y1815D02*
D03*
X3510D02*
D03*
X3660Y1740D02*
D03*
X3735Y1640D02*
D03*
X3685Y1415D02*
D03*
X3760Y1340D02*
D03*
X3910D02*
D03*
X4850Y1800D02*
D03*
X4295Y1985D02*
D03*
Y1470D02*
D03*
X4345Y1360D02*
D03*
X4195D02*
D03*
X3975Y1650D02*
D03*
X4120Y1435D02*
D03*
X4045Y1365D02*
D03*
X4270Y1285D02*
D03*
X4120D02*
D03*
X3725Y1525D02*
D03*
X3390Y1470D02*
D03*
X3510Y1365D02*
D03*
X3185Y1790D02*
D03*
X3035D02*
D03*
X3550Y2525D02*
D03*
X3625Y4100D02*
D03*
X3775Y4250D02*
D03*
X3625D02*
D03*
X4260Y4702D02*
D03*
X4000Y4775D02*
D03*
Y4925D02*
D03*
X3850D02*
D03*
Y4775D02*
D03*
X3700D02*
D03*
Y4925D02*
D03*
X3225D02*
D03*
X3400D02*
D03*
X3550D02*
D03*
Y4775D02*
D03*
X3700Y4625D02*
D03*
Y4475D02*
D03*
X3550Y4625D02*
D03*
Y4475D02*
D03*
Y4325D02*
D03*
X3325Y4100D02*
D03*
X3025D02*
D03*
X2800Y4025D02*
D03*
X2950Y3875D02*
D03*
X2650D02*
D03*
X2575Y3950D02*
D03*
X2125Y3800D02*
D03*
Y3950D02*
D03*
X2275D02*
D03*
X2350Y3875D02*
D03*
X3850Y3275D02*
D03*
Y3425D02*
D03*
X3700Y3575D02*
D03*
X3850D02*
D03*
Y3875D02*
D03*
Y3725D02*
D03*
X3700D02*
D03*
X3550D02*
D03*
X3400Y3575D02*
D03*
Y3425D02*
D03*
Y3275D02*
D03*
Y3125D02*
D03*
Y2975D02*
D03*
X3250Y2525D02*
D03*
X3400Y2675D02*
D03*
X3550Y2225D02*
D03*
X3400D02*
D03*
X3250D02*
D03*
X3100D02*
D03*
X2950D02*
D03*
X2800D02*
D03*
Y2375D02*
D03*
X2725Y2300D02*
D03*
X2575D02*
D03*
X2425D02*
D03*
X2575Y2000D02*
D03*
X2275D02*
D03*
X2425D02*
D03*
Y2150D02*
D03*
X2700Y1775D02*
D03*
X2550Y1625D02*
D03*
X2700D02*
D03*
Y1475D02*
D03*
X2550D02*
D03*
X2700Y1325D02*
D03*
X2550D02*
D03*
X2400D02*
D03*
Y1775D02*
D03*
X2250Y1325D02*
D03*
X2100D02*
D03*
X2350Y2375D02*
D03*
Y2525D02*
D03*
Y2675D02*
D03*
Y2825D02*
D03*
Y2975D02*
D03*
Y3125D02*
D03*
Y3275D02*
D03*
X2500D02*
D03*
X2650D02*
D03*
X2800D02*
D03*
X2350Y3425D02*
D03*
X2500D02*
D03*
X2650D02*
D03*
X2800D02*
D03*
X2950D02*
D03*
X2500Y3575D02*
D03*
X2650D02*
D03*
X2800D02*
D03*
X2950D02*
D03*
X3100Y3725D02*
D03*
X2950D02*
D03*
X2800D02*
D03*
X2650D02*
D03*
X2500D02*
D03*
X2350D02*
D03*
Y3575D02*
D03*
X2200D02*
D03*
Y3425D02*
D03*
X2125Y3350D02*
D03*
X2200Y3275D02*
D03*
X2125Y3200D02*
D03*
X2200Y3125D02*
D03*
X1900Y2825D02*
D03*
Y2975D02*
D03*
X2200D02*
D03*
Y2825D02*
D03*
Y2675D02*
D03*
Y2525D02*
D03*
X2060Y2150D02*
D03*
X2200Y2225D02*
D03*
Y2375D02*
D03*
X1960Y1700D02*
D03*
X1725Y1850D02*
D03*
X1760Y1710D02*
D03*
X1875Y1550D02*
D03*
X1950Y1475D02*
D03*
X1800D02*
D03*
X1950Y1325D02*
D03*
X1800D02*
D03*
X1500Y1175D02*
D03*
X1425Y1100D02*
D03*
X1350Y1175D02*
D03*
X1125Y1100D02*
D03*
X1050Y1175D02*
D03*
X1350Y1325D02*
D03*
X1200D02*
D03*
Y1475D02*
D03*
X1050D02*
D03*
X1275Y1700D02*
D03*
X1200Y1625D02*
D03*
X1050Y1775D02*
D03*
Y2075D02*
D03*
Y2375D02*
D03*
X1200D02*
D03*
Y2525D02*
D03*
X1125Y2450D02*
D03*
X1050Y2675D02*
D03*
X1125Y2750D02*
D03*
X1050Y2975D02*
D03*
X1125Y3050D02*
D03*
X1050Y3275D02*
D03*
X1125Y3350D02*
D03*
Y3650D02*
D03*
Y3950D02*
D03*
Y4250D02*
D03*
X1050Y3575D02*
D03*
X1200Y3725D02*
D03*
Y3875D02*
D03*
X1050D02*
D03*
X1350Y4025D02*
D03*
X1200D02*
D03*
X1050Y4175D02*
D03*
X2850Y4775D02*
D03*
X2775Y4950D02*
D03*
X2625Y4800D02*
D03*
Y4950D02*
D03*
X1125Y4800D02*
D03*
X3075Y4550D02*
D03*
X3375Y4700D02*
D03*
X3225D02*
D03*
X2475Y4950D02*
D03*
X2325D02*
D03*
X2250Y4350D02*
D03*
X2175Y4950D02*
D03*
X2475Y4800D02*
D03*
X2325D02*
D03*
X2175D02*
D03*
X2025D02*
D03*
X2100Y4325D02*
D03*
X2025Y4950D02*
D03*
Y4400D02*
D03*
Y4175D02*
D03*
X1875Y4950D02*
D03*
X1275Y4800D02*
D03*
X1125Y4950D02*
D03*
X1275D02*
D03*
X1750Y4400D02*
D03*
X1950Y4305D02*
D03*
X1890Y4400D02*
D03*
X1425Y4800D02*
D03*
X1750Y4175D02*
D03*
X1450D02*
D03*
X1575Y4950D02*
D03*
X1600Y4175D02*
D03*
X1425Y4950D02*
D03*
X1575Y4800D02*
D03*
X1725D02*
D03*
X3510Y1240D02*
D03*
X3975Y1500D02*
D03*
X4045Y1510D02*
D03*
X3180Y2555D02*
D03*
X2060Y3895D02*
D03*
X2055Y3795D02*
D03*
X2170Y1545D02*
D03*
X4175Y4300D02*
D03*
X4375Y4415D02*
D03*
X4530Y4435D02*
D03*
X4595Y4415D02*
D03*
X4342Y4077D02*
D03*
X4275Y4175D02*
D03*
X3875Y2930D02*
D03*
X3800D02*
D03*
X4510Y2725D02*
D03*
X4445Y2525D02*
D03*
X4400D02*
D03*
X4490D02*
D03*
X2900Y2775D02*
D03*
Y2555D02*
D03*
Y2420D02*
D03*
X1450Y4325D02*
D03*
X1875Y4800D02*
D03*
X1525Y4400D02*
D03*
X1625D02*
D03*
X1725Y4950D02*
D03*
X1890Y4225D02*
D03*
X1825Y4305D02*
D03*
X2940Y4650D02*
D03*
Y4470D02*
D03*
X2870Y4560D02*
D03*
X3010D02*
D03*
X3290Y4475D02*
D03*
X3230Y4520D02*
D03*
X3345Y4515D02*
D03*
X3395Y4472D02*
D03*
X3177D02*
D03*
X1360Y4180D02*
D03*
X1210D02*
D03*
X1285Y4115D02*
D03*
X1290Y3895D02*
D03*
Y3795D02*
D03*
X1225Y3320D02*
D03*
Y3245D02*
D03*
X1285Y2695D02*
D03*
Y2600D02*
D03*
X1250Y2315D02*
D03*
X1200D02*
D03*
X1333Y1428D02*
D03*
X1520Y1700D02*
D03*
X1470D02*
D03*
X1715Y1675D02*
D03*
Y1625D02*
D03*
X1805Y1675D02*
D03*
Y1625D02*
D03*
Y1575D02*
D03*
X1715D02*
D03*
Y1465D02*
D03*
X2295Y1675D02*
D03*
Y1620D02*
D03*
Y1565D02*
D03*
X2395Y1675D02*
D03*
Y1620D02*
D03*
X2350Y1565D02*
D03*
X2295Y1455D02*
D03*
X2550Y1775D02*
D03*
X2320Y1785D02*
D03*
Y1735D02*
D03*
X1930Y1985D02*
D03*
X2085Y2595D02*
D03*
Y2695D02*
D03*
X1995Y3190D02*
D03*
X3260Y3990D02*
D03*
X3680D02*
D03*
X3120Y3500D02*
D03*
X2980Y3145D02*
D03*
Y3060D02*
D03*
X2465Y2980D02*
D03*
Y2780D02*
D03*
X2540Y2595D02*
D03*
X2720D02*
D03*
X2540Y2510D02*
D03*
X2720D02*
D03*
X3185Y2420D02*
D03*
X3180Y2490D02*
D03*
X2945Y2690D02*
D03*
X3060D02*
D03*
X3600Y2840D02*
D03*
X3955Y2692D02*
D03*
X3650Y3020D02*
D03*
Y3495D02*
D03*
X4187Y4770D02*
D03*
X4263D02*
D03*
X4185Y4702D02*
D03*
X4563Y4770D02*
D03*
X4490Y4702D02*
D03*
X4492Y4770D02*
D03*
X4715Y4702D02*
D03*
X4640Y4577D02*
D03*
X4375Y4365D02*
D03*
X4530Y4392D02*
D03*
X4625Y4375D02*
D03*
X4110Y4577D02*
D03*
X4035Y4702D02*
D03*
X4070Y4202D02*
D03*
X4640Y4128D02*
D03*
X4715Y4003D02*
D03*
X4492Y3935D02*
D03*
X4490Y4003D02*
D03*
X4565D02*
D03*
X4563Y3935D02*
D03*
X4635Y3540D02*
D03*
X4915Y3490D02*
D03*
Y3450D02*
D03*
X4960Y3410D02*
D03*
X4915Y3535D02*
D03*
X4865D02*
D03*
Y3490D02*
D03*
Y3450D02*
D03*
X4800Y3440D02*
D03*
X4700D02*
D03*
X4800Y3270D02*
D03*
X4700D02*
D03*
X4960Y3300D02*
D03*
X4915Y3260D02*
D03*
X4865D02*
D03*
X4915Y3215D02*
D03*
Y3175D02*
D03*
X4865Y3215D02*
D03*
Y3175D02*
D03*
X4545Y2850D02*
D03*
Y2910D02*
D03*
X4500Y2970D02*
D03*
X4700Y3160D02*
D03*
X4800D02*
D03*
Y2140D02*
D03*
X4700D02*
D03*
X4600D02*
D03*
X4850D02*
D03*
X4900D02*
D03*
Y2240D02*
D03*
Y2190D02*
D03*
X4850D02*
D03*
Y2240D02*
D03*
X4270Y2105D02*
D03*
X4800Y2240D02*
D03*
X4320Y2105D02*
D03*
X4615Y2025D02*
D03*
X4700Y2240D02*
D03*
X4270Y2015D02*
D03*
X4615Y2085D02*
D03*
X4295Y2135D02*
D03*
X4500Y2190D02*
D03*
X4600Y2240D02*
D03*
X4320Y2015D02*
D03*
X4500Y2240D02*
D03*
Y1970D02*
D03*
X4600D02*
D03*
X4700D02*
D03*
X4800D02*
D03*
X4850D02*
D03*
Y1920D02*
D03*
X4900D02*
D03*
Y1970D02*
D03*
X4895Y1680D02*
D03*
X4845D02*
D03*
X4400Y1970D02*
D03*
X4395Y1630D02*
D03*
X4495D02*
D03*
X4795D02*
D03*
X4695D02*
D03*
X4595D02*
D03*
X4845D02*
D03*
X4895D02*
D03*
X4595Y1460D02*
D03*
X4495Y1410D02*
D03*
X4295Y1620D02*
D03*
X4270Y1590D02*
D03*
X4320D02*
D03*
X4695Y1460D02*
D03*
X4610Y1515D02*
D03*
X4270Y1500D02*
D03*
X4795Y1460D02*
D03*
X4610Y1575D02*
D03*
X4845Y1460D02*
D03*
Y1410D02*
D03*
X4895D02*
D03*
Y1460D02*
D03*
Y1360D02*
D03*
X4845D02*
D03*
X4595D02*
D03*
X4695D02*
D03*
X4320Y1500D02*
D03*
X4795Y1360D02*
D03*
X4495D02*
D03*
X4570Y1120D02*
D03*
X4310D02*
D03*
X3925Y1790D02*
D03*
X3745D02*
D03*
Y1890D02*
D03*
X3785Y1930D02*
D03*
X3885D02*
D03*
X3835D02*
D03*
X3735Y1740D02*
D03*
X3785Y1750D02*
D03*
X3660Y1525D02*
D03*
X3760Y1415D02*
D03*
X3910D02*
D03*
X3305Y1470D02*
D03*
X2990Y1370D02*
D03*
Y1305D02*
D03*
Y1240D02*
D03*
X3080Y1485D02*
D03*
X3035Y1440D02*
D03*
Y1530D02*
D03*
X2935D02*
D03*
Y1485D02*
D03*
Y1440D02*
D03*
X2985Y1565D02*
D03*
Y1615D02*
D03*
Y1665D02*
D03*
X4500Y2325D02*
D03*
X4315Y2480D02*
D03*
X4575D02*
D03*
X3800Y2618D02*
D03*
X4575Y2400D02*
D03*
X4725D02*
D03*
X4875D02*
D03*
X4725Y2550D02*
D03*
X4875D02*
D03*
X4275Y2700D02*
D03*
X3725Y2618D02*
D03*
X4275Y2850D02*
D03*
Y3000D02*
D03*
Y3150D02*
D03*
X4125D02*
D03*
X4725Y2700D02*
D03*
X4575D02*
D03*
X4875D02*
D03*
X4725Y2850D02*
D03*
X4875D02*
D03*
X4725Y3000D02*
D03*
X4875D02*
D03*
X4275Y3300D02*
D03*
X4425D02*
D03*
X4275Y3450D02*
D03*
X4125D02*
D03*
Y3600D02*
D03*
X3975Y3450D02*
D03*
X4125Y3300D02*
D03*
X3975Y3600D02*
D03*
Y3750D02*
D03*
Y3900D02*
D03*
Y4050D02*
D03*
X4125D02*
D03*
X4275Y3600D02*
D03*
X4125Y3750D02*
D03*
Y3900D02*
D03*
X4275Y3750D02*
D03*
X4425Y3600D02*
D03*
X4575D02*
D03*
X4725D02*
D03*
X4875D02*
D03*
Y3750D02*
D03*
X4725D02*
D03*
X4275Y3900D02*
D03*
X4350Y3975D02*
D03*
X4875Y3900D02*
D03*
X4725D02*
D03*
X4950Y4125D02*
D03*
Y4275D02*
D03*
X4800D02*
D03*
X4650D02*
D03*
X4800Y4425D02*
D03*
X4950D02*
D03*
X4655D02*
D03*
X4950Y4575D02*
D03*
X4565Y4702D02*
D03*
X4875Y4800D02*
D03*
X4725D02*
D03*
X4875Y4950D02*
D03*
X4725D02*
D03*
X2730Y2915D02*
D03*
X2700Y2980D02*
D03*
X2465Y2885D02*
D03*
X2535Y3040D02*
D03*
X4325Y2325D02*
D03*
X4250Y2400D02*
D03*
X4960Y2000D02*
D03*
X4120Y1510D02*
D03*
X3835Y1255D02*
D03*
X3685D02*
D03*
X4050Y2080D02*
D03*
X4960Y1490D02*
D03*
X4100Y2400D02*
D03*
X4960Y2110D02*
D03*
X3950Y2400D02*
D03*
X4960Y1600D02*
D03*
X3950Y2250D02*
D03*
X4000Y2080D02*
D03*
X4395Y1730D02*
D03*
X4495D02*
D03*
X4595D02*
D03*
X4695D02*
D03*
X4795D02*
D03*
X4845D02*
D03*
X4895D02*
D03*
X4600Y1870D02*
D03*
X4700D02*
D03*
X4800D02*
D03*
X4850D02*
D03*
X4900D02*
D03*
X4300D02*
D03*
X4295Y1730D02*
D03*
X2575Y2150D02*
D03*
X4400Y1870D02*
D03*
X4500D02*
D03*
X4337Y4770D02*
D03*
X4418D02*
D03*
X4335Y4702D02*
D03*
X4415D02*
D03*
X4113Y4770D02*
D03*
X4110Y4702D02*
D03*
X4035Y4628D02*
D03*
Y4577D02*
D03*
X4110Y4628D02*
D03*
X4185D02*
D03*
Y4577D02*
D03*
X4260Y4628D02*
D03*
X4335D02*
D03*
X4415D02*
D03*
X4490D02*
D03*
X4565D02*
D03*
X4640D02*
D03*
Y4702D02*
D03*
X4715Y4628D02*
D03*
Y4577D02*
D03*
X4565D02*
D03*
X4637Y4770D02*
D03*
X4035Y4503D02*
D03*
X4105D02*
D03*
X4185D02*
D03*
X4565D02*
D03*
X4640D02*
D03*
X4715D02*
D03*
X4530Y4318D02*
D03*
X4230Y4325D02*
D03*
Y4385D02*
D03*
X3995Y4202D02*
D03*
Y4128D02*
D03*
X4070D02*
D03*
X4145D02*
D03*
Y4202D02*
D03*
X4220D02*
D03*
Y4128D02*
D03*
X4218Y4075D02*
D03*
X4295Y4077D02*
D03*
Y4003D02*
D03*
X4220D02*
D03*
X4415Y4077D02*
D03*
X4490D02*
D03*
X4415Y4003D02*
D03*
X4565Y4128D02*
D03*
Y4202D02*
D03*
X4640D02*
D03*
X4715D02*
D03*
Y4128D02*
D03*
X4640Y4077D02*
D03*
X4565D02*
D03*
X4715D02*
D03*
X4640Y4003D02*
D03*
X4637Y3935D02*
D03*
X4418D02*
D03*
X3725Y2977D02*
D03*
X3800D02*
D03*
Y2763D02*
D03*
Y2692D02*
D03*
X3725D02*
D03*
X3650D02*
D03*
X2700Y4625D02*
D03*
X3000Y4775D02*
D03*
X2700Y4475D02*
D03*
X2550Y4350D02*
D03*
D68*
X1625Y1875D02*
D03*
X1575D02*
D03*
X3340Y1240D02*
D03*
X3390Y1305D02*
D03*
X3285D02*
D03*
X3390Y1180D02*
D03*
X3285D02*
D03*
X4470Y1075D02*
D03*
X4410D02*
D03*
M02*
