%FSLAX23Y23*%
%MOIN*%
G70*
G01*
G75*
G04 Layer_Physical_Order=1*
G04 Layer_Color=255*
%ADD10C,0.010*%
%ADD11C,0.015*%
%ADD12C,0.012*%
%ADD13C,0.020*%
%ADD14R,0.315X0.017*%
%ADD15R,0.157X0.118*%
G04:AMPARAMS|DCode=16|XSize=28mil|YSize=51mil|CornerRadius=4mil|HoleSize=0mil|Usage=FLASHONLY|Rotation=270.000|XOffset=0mil|YOffset=0mil|HoleType=Round|Shape=RoundedRectangle|*
%AMROUNDEDRECTD16*
21,1,0.028,0.043,0,0,270.0*
21,1,0.019,0.051,0,0,270.0*
1,1,0.008,-0.021,-0.010*
1,1,0.008,-0.021,0.010*
1,1,0.008,0.021,0.010*
1,1,0.008,0.021,-0.010*
%
%ADD16ROUNDEDRECTD16*%
G04:AMPARAMS|DCode=17|XSize=24mil|YSize=24mil|CornerRadius=5mil|HoleSize=0mil|Usage=FLASHONLY|Rotation=0.000|XOffset=0mil|YOffset=0mil|HoleType=Round|Shape=RoundedRectangle|*
%AMROUNDEDRECTD17*
21,1,0.024,0.014,0,0,0.0*
21,1,0.014,0.024,0,0,0.0*
1,1,0.009,0.007,-0.007*
1,1,0.009,-0.007,-0.007*
1,1,0.009,-0.007,0.007*
1,1,0.009,0.007,0.007*
%
%ADD17ROUNDEDRECTD17*%
G04:AMPARAMS|DCode=18|XSize=24mil|YSize=24mil|CornerRadius=5mil|HoleSize=0mil|Usage=FLASHONLY|Rotation=270.000|XOffset=0mil|YOffset=0mil|HoleType=Round|Shape=RoundedRectangle|*
%AMROUNDEDRECTD18*
21,1,0.024,0.014,0,0,270.0*
21,1,0.014,0.024,0,0,270.0*
1,1,0.009,-0.007,-0.007*
1,1,0.009,-0.007,0.007*
1,1,0.009,0.007,0.007*
1,1,0.009,0.007,-0.007*
%
%ADD18ROUNDEDRECTD18*%
G04:AMPARAMS|DCode=19|XSize=28mil|YSize=51mil|CornerRadius=4mil|HoleSize=0mil|Usage=FLASHONLY|Rotation=0.000|XOffset=0mil|YOffset=0mil|HoleType=Round|Shape=RoundedRectangle|*
%AMROUNDEDRECTD19*
21,1,0.028,0.043,0,0,0.0*
21,1,0.019,0.051,0,0,0.0*
1,1,0.008,0.010,-0.021*
1,1,0.008,-0.010,-0.021*
1,1,0.008,-0.010,0.021*
1,1,0.008,0.010,0.021*
%
%ADD19ROUNDEDRECTD19*%
G04:AMPARAMS|DCode=20|XSize=24mil|YSize=24mil|CornerRadius=6mil|HoleSize=0mil|Usage=FLASHONLY|Rotation=90.000|XOffset=0mil|YOffset=0mil|HoleType=Round|Shape=RoundedRectangle|*
%AMROUNDEDRECTD20*
21,1,0.024,0.012,0,0,90.0*
21,1,0.012,0.024,0,0,90.0*
1,1,0.012,0.006,0.006*
1,1,0.012,0.006,-0.006*
1,1,0.012,-0.006,-0.006*
1,1,0.012,-0.006,0.006*
%
%ADD20ROUNDEDRECTD20*%
G04:AMPARAMS|DCode=21|XSize=24mil|YSize=24mil|CornerRadius=6mil|HoleSize=0mil|Usage=FLASHONLY|Rotation=135.000|XOffset=0mil|YOffset=0mil|HoleType=Round|Shape=RoundedRectangle|*
%AMROUNDEDRECTD21*
21,1,0.024,0.012,0,0,135.0*
21,1,0.012,0.024,0,0,135.0*
1,1,0.012,0.000,0.008*
1,1,0.012,0.008,0.000*
1,1,0.012,0.000,-0.008*
1,1,0.012,-0.008,0.000*
%
%ADD21ROUNDEDRECTD21*%
G04:AMPARAMS|DCode=22|XSize=24mil|YSize=24mil|CornerRadius=6mil|HoleSize=0mil|Usage=FLASHONLY|Rotation=45.000|XOffset=0mil|YOffset=0mil|HoleType=Round|Shape=RoundedRectangle|*
%AMROUNDEDRECTD22*
21,1,0.024,0.012,0,0,45.0*
21,1,0.012,0.024,0,0,45.0*
1,1,0.012,0.008,0.000*
1,1,0.012,0.000,-0.008*
1,1,0.012,-0.008,0.000*
1,1,0.012,0.000,0.008*
%
%ADD22ROUNDEDRECTD22*%
G04:AMPARAMS|DCode=23|XSize=35mil|YSize=35mil|CornerRadius=5mil|HoleSize=0mil|Usage=FLASHONLY|Rotation=270.000|XOffset=0mil|YOffset=0mil|HoleType=Round|Shape=RoundedRectangle|*
%AMROUNDEDRECTD23*
21,1,0.035,0.025,0,0,270.0*
21,1,0.025,0.035,0,0,270.0*
1,1,0.011,-0.012,-0.012*
1,1,0.011,-0.012,0.012*
1,1,0.011,0.012,0.012*
1,1,0.011,0.012,-0.012*
%
%ADD23ROUNDEDRECTD23*%
G04:AMPARAMS|DCode=24|XSize=31mil|YSize=51mil|CornerRadius=5mil|HoleSize=0mil|Usage=FLASHONLY|Rotation=270.000|XOffset=0mil|YOffset=0mil|HoleType=Round|Shape=RoundedRectangle|*
%AMROUNDEDRECTD24*
21,1,0.031,0.042,0,0,270.0*
21,1,0.022,0.051,0,0,270.0*
1,1,0.009,-0.021,-0.011*
1,1,0.009,-0.021,0.011*
1,1,0.009,0.021,0.011*
1,1,0.009,0.021,-0.011*
%
%ADD24ROUNDEDRECTD24*%
G04:AMPARAMS|DCode=25|XSize=31mil|YSize=51mil|CornerRadius=5mil|HoleSize=0mil|Usage=FLASHONLY|Rotation=0.000|XOffset=0mil|YOffset=0mil|HoleType=Round|Shape=RoundedRectangle|*
%AMROUNDEDRECTD25*
21,1,0.031,0.042,0,0,0.0*
21,1,0.022,0.051,0,0,0.0*
1,1,0.009,0.011,-0.021*
1,1,0.009,-0.011,-0.021*
1,1,0.009,-0.011,0.021*
1,1,0.009,0.011,0.021*
%
%ADD25ROUNDEDRECTD25*%
G04:AMPARAMS|DCode=26|XSize=98mil|YSize=98mil|CornerRadius=10mil|HoleSize=0mil|Usage=FLASHONLY|Rotation=0.000|XOffset=0mil|YOffset=0mil|HoleType=Round|Shape=RoundedRectangle|*
%AMROUNDEDRECTD26*
21,1,0.098,0.079,0,0,0.0*
21,1,0.079,0.098,0,0,0.0*
1,1,0.020,0.039,-0.039*
1,1,0.020,-0.039,-0.039*
1,1,0.020,-0.039,0.039*
1,1,0.020,0.039,0.039*
%
%ADD26ROUNDEDRECTD26*%
G04:AMPARAMS|DCode=27|XSize=13mil|YSize=12mil|CornerRadius=3mil|HoleSize=0mil|Usage=FLASHONLY|Rotation=90.000|XOffset=0mil|YOffset=0mil|HoleType=Round|Shape=RoundedRectangle|*
%AMROUNDEDRECTD27*
21,1,0.013,0.006,0,0,90.0*
21,1,0.007,0.012,0,0,90.0*
1,1,0.006,0.003,0.003*
1,1,0.006,0.003,-0.003*
1,1,0.006,-0.003,-0.003*
1,1,0.006,-0.003,0.003*
%
%ADD27ROUNDEDRECTD27*%
%ADD28R,0.012X0.012*%
G04:AMPARAMS|DCode=29|XSize=12mil|YSize=13mil|CornerRadius=3mil|HoleSize=0mil|Usage=FLASHONLY|Rotation=180.000|XOffset=0mil|YOffset=0mil|HoleType=Round|Shape=RoundedRectangle|*
%AMROUNDEDRECTD29*
21,1,0.012,0.007,0,0,180.0*
21,1,0.006,0.013,0,0,180.0*
1,1,0.006,-0.003,0.003*
1,1,0.006,0.003,0.003*
1,1,0.006,0.003,-0.003*
1,1,0.006,-0.003,-0.003*
%
%ADD29ROUNDEDRECTD29*%
%ADD30R,0.012X0.013*%
%ADD31R,0.012X0.013*%
%ADD32R,0.017X0.070*%
G04:AMPARAMS|DCode=33|XSize=24mil|YSize=24mil|CornerRadius=6mil|HoleSize=0mil|Usage=FLASHONLY|Rotation=0.000|XOffset=0mil|YOffset=0mil|HoleType=Round|Shape=RoundedRectangle|*
%AMROUNDEDRECTD33*
21,1,0.024,0.012,0,0,0.0*
21,1,0.012,0.024,0,0,0.0*
1,1,0.012,0.006,-0.006*
1,1,0.012,-0.006,-0.006*
1,1,0.012,-0.006,0.006*
1,1,0.012,0.006,0.006*
%
%ADD33ROUNDEDRECTD33*%
G04:AMPARAMS|DCode=34|XSize=51mil|YSize=59mil|CornerRadius=8mil|HoleSize=0mil|Usage=FLASHONLY|Rotation=270.000|XOffset=0mil|YOffset=0mil|HoleType=Round|Shape=RoundedRectangle|*
%AMROUNDEDRECTD34*
21,1,0.051,0.044,0,0,270.0*
21,1,0.036,0.059,0,0,270.0*
1,1,0.015,-0.022,-0.018*
1,1,0.015,-0.022,0.018*
1,1,0.015,0.022,0.018*
1,1,0.015,0.022,-0.018*
%
%ADD34ROUNDEDRECTD34*%
G04:AMPARAMS|DCode=35|XSize=106mil|YSize=67mil|CornerRadius=10mil|HoleSize=0mil|Usage=FLASHONLY|Rotation=270.000|XOffset=0mil|YOffset=0mil|HoleType=Round|Shape=RoundedRectangle|*
%AMROUNDEDRECTD35*
21,1,0.106,0.047,0,0,270.0*
21,1,0.086,0.067,0,0,270.0*
1,1,0.020,-0.023,-0.043*
1,1,0.020,-0.023,0.043*
1,1,0.020,0.023,0.043*
1,1,0.020,0.023,-0.043*
%
%ADD35ROUNDEDRECTD35*%
G04:AMPARAMS|DCode=36|XSize=51mil|YSize=59mil|CornerRadius=8mil|HoleSize=0mil|Usage=FLASHONLY|Rotation=180.000|XOffset=0mil|YOffset=0mil|HoleType=Round|Shape=RoundedRectangle|*
%AMROUNDEDRECTD36*
21,1,0.051,0.044,0,0,180.0*
21,1,0.036,0.059,0,0,180.0*
1,1,0.015,-0.018,0.022*
1,1,0.015,0.018,0.022*
1,1,0.015,0.018,-0.022*
1,1,0.015,-0.018,-0.022*
%
%ADD36ROUNDEDRECTD36*%
G04:AMPARAMS|DCode=37|XSize=35mil|YSize=35mil|CornerRadius=5mil|HoleSize=0mil|Usage=FLASHONLY|Rotation=0.000|XOffset=0mil|YOffset=0mil|HoleType=Round|Shape=RoundedRectangle|*
%AMROUNDEDRECTD37*
21,1,0.035,0.025,0,0,0.0*
21,1,0.025,0.035,0,0,0.0*
1,1,0.011,0.012,-0.012*
1,1,0.011,-0.012,-0.012*
1,1,0.011,-0.012,0.012*
1,1,0.011,0.012,0.012*
%
%ADD37ROUNDEDRECTD37*%
G04:AMPARAMS|DCode=38|XSize=47mil|YSize=47mil|CornerRadius=7mil|HoleSize=0mil|Usage=FLASHONLY|Rotation=270.000|XOffset=0mil|YOffset=0mil|HoleType=Round|Shape=RoundedRectangle|*
%AMROUNDEDRECTD38*
21,1,0.047,0.033,0,0,270.0*
21,1,0.033,0.047,0,0,270.0*
1,1,0.014,-0.017,-0.017*
1,1,0.014,-0.017,0.017*
1,1,0.014,0.017,0.017*
1,1,0.014,0.017,-0.017*
%
%ADD38ROUNDEDRECTD38*%
G04:AMPARAMS|DCode=39|XSize=51mil|YSize=47mil|CornerRadius=7mil|HoleSize=0mil|Usage=FLASHONLY|Rotation=90.000|XOffset=0mil|YOffset=0mil|HoleType=Round|Shape=RoundedRectangle|*
%AMROUNDEDRECTD39*
21,1,0.051,0.033,0,0,90.0*
21,1,0.037,0.047,0,0,90.0*
1,1,0.014,0.017,0.019*
1,1,0.014,0.017,-0.019*
1,1,0.014,-0.017,-0.019*
1,1,0.014,-0.017,0.019*
%
%ADD39ROUNDEDRECTD39*%
G04:AMPARAMS|DCode=40|XSize=114mil|YSize=213mil|CornerRadius=29mil|HoleSize=0mil|Usage=FLASHONLY|Rotation=90.000|XOffset=0mil|YOffset=0mil|HoleType=Round|Shape=RoundedRectangle|*
%AMROUNDEDRECTD40*
21,1,0.114,0.156,0,0,90.0*
21,1,0.057,0.213,0,0,90.0*
1,1,0.057,0.078,0.029*
1,1,0.057,0.078,-0.029*
1,1,0.057,-0.078,-0.029*
1,1,0.057,-0.078,0.029*
%
%ADD40ROUNDEDRECTD40*%
G04:AMPARAMS|DCode=41|XSize=47mil|YSize=47mil|CornerRadius=12mil|HoleSize=0mil|Usage=FLASHONLY|Rotation=90.000|XOffset=0mil|YOffset=0mil|HoleType=Round|Shape=RoundedRectangle|*
%AMROUNDEDRECTD41*
21,1,0.047,0.024,0,0,90.0*
21,1,0.024,0.047,0,0,90.0*
1,1,0.024,0.012,0.012*
1,1,0.024,0.012,-0.012*
1,1,0.024,-0.012,-0.012*
1,1,0.024,-0.012,0.012*
%
%ADD41ROUNDEDRECTD41*%
G04:AMPARAMS|DCode=42|XSize=47mil|YSize=47mil|CornerRadius=12mil|HoleSize=0mil|Usage=FLASHONLY|Rotation=0.000|XOffset=0mil|YOffset=0mil|HoleType=Round|Shape=RoundedRectangle|*
%AMROUNDEDRECTD42*
21,1,0.047,0.024,0,0,0.0*
21,1,0.024,0.047,0,0,0.0*
1,1,0.024,0.012,-0.012*
1,1,0.024,-0.012,-0.012*
1,1,0.024,-0.012,0.012*
1,1,0.024,0.012,0.012*
%
%ADD42ROUNDEDRECTD42*%
G04:AMPARAMS|DCode=43|XSize=32mil|YSize=28mil|CornerRadius=3mil|HoleSize=0mil|Usage=FLASHONLY|Rotation=180.000|XOffset=0mil|YOffset=0mil|HoleType=Round|Shape=RoundedRectangle|*
%AMROUNDEDRECTD43*
21,1,0.032,0.021,0,0,180.0*
21,1,0.025,0.028,0,0,180.0*
1,1,0.007,-0.012,0.010*
1,1,0.007,0.012,0.010*
1,1,0.007,0.012,-0.010*
1,1,0.007,-0.012,-0.010*
%
%ADD43ROUNDEDRECTD43*%
G04:AMPARAMS|DCode=44|XSize=12mil|YSize=26mil|CornerRadius=1mil|HoleSize=0mil|Usage=FLASHONLY|Rotation=90.000|XOffset=0mil|YOffset=0mil|HoleType=Round|Shape=RoundedRectangle|*
%AMROUNDEDRECTD44*
21,1,0.012,0.023,0,0,90.0*
21,1,0.009,0.026,0,0,90.0*
1,1,0.003,0.012,0.004*
1,1,0.003,0.012,-0.004*
1,1,0.003,-0.012,-0.004*
1,1,0.003,-0.012,0.004*
%
%ADD44ROUNDEDRECTD44*%
%ADD45R,0.110X0.085*%
%ADD46R,0.120X0.090*%
%ADD47R,0.060X0.060*%
G04:AMPARAMS|DCode=48|XSize=59mil|YSize=157mil|CornerRadius=15mil|HoleSize=0mil|Usage=FLASHONLY|Rotation=0.000|XOffset=0mil|YOffset=0mil|HoleType=Round|Shape=RoundedRectangle|*
%AMROUNDEDRECTD48*
21,1,0.059,0.128,0,0,0.0*
21,1,0.030,0.157,0,0,0.0*
1,1,0.030,0.015,-0.064*
1,1,0.030,-0.015,-0.064*
1,1,0.030,-0.015,0.064*
1,1,0.030,0.015,0.064*
%
%ADD48ROUNDEDRECTD48*%
G04:AMPARAMS|DCode=49|XSize=421mil|YSize=339mil|CornerRadius=34mil|HoleSize=0mil|Usage=FLASHONLY|Rotation=0.000|XOffset=0mil|YOffset=0mil|HoleType=Round|Shape=RoundedRectangle|*
%AMROUNDEDRECTD49*
21,1,0.421,0.271,0,0,0.0*
21,1,0.354,0.339,0,0,0.0*
1,1,0.068,0.177,-0.135*
1,1,0.068,-0.177,-0.135*
1,1,0.068,-0.177,0.135*
1,1,0.068,0.177,0.135*
%
%ADD49ROUNDEDRECTD49*%
G04:AMPARAMS|DCode=50|XSize=16mil|YSize=40mil|CornerRadius=4mil|HoleSize=0mil|Usage=FLASHONLY|Rotation=270.000|XOffset=0mil|YOffset=0mil|HoleType=Round|Shape=RoundedRectangle|*
%AMROUNDEDRECTD50*
21,1,0.016,0.032,0,0,270.0*
21,1,0.008,0.040,0,0,270.0*
1,1,0.008,-0.016,-0.004*
1,1,0.008,-0.016,0.004*
1,1,0.008,0.016,0.004*
1,1,0.008,0.016,-0.004*
%
%ADD50ROUNDEDRECTD50*%
%ADD51R,0.051X0.106*%
%ADD52R,0.106X0.051*%
G04:AMPARAMS|DCode=53|XSize=98mil|YSize=138mil|CornerRadius=25mil|HoleSize=0mil|Usage=FLASHONLY|Rotation=0.000|XOffset=0mil|YOffset=0mil|HoleType=Round|Shape=RoundedRectangle|*
%AMROUNDEDRECTD53*
21,1,0.098,0.089,0,0,0.0*
21,1,0.049,0.138,0,0,0.0*
1,1,0.049,0.025,-0.044*
1,1,0.049,-0.025,-0.044*
1,1,0.049,-0.025,0.044*
1,1,0.049,0.025,0.044*
%
%ADD53ROUNDEDRECTD53*%
G04:AMPARAMS|DCode=54|XSize=47mil|YSize=47mil|CornerRadius=7mil|HoleSize=0mil|Usage=FLASHONLY|Rotation=180.000|XOffset=0mil|YOffset=0mil|HoleType=Round|Shape=RoundedRectangle|*
%AMROUNDEDRECTD54*
21,1,0.047,0.033,0,0,180.0*
21,1,0.033,0.047,0,0,180.0*
1,1,0.014,-0.017,0.017*
1,1,0.014,0.017,0.017*
1,1,0.014,0.017,-0.017*
1,1,0.014,-0.017,-0.017*
%
%ADD54ROUNDEDRECTD54*%
%ADD55C,0.017*%
%ADD56C,0.025*%
%ADD57C,0.014*%
%ADD58C,0.079*%
%ADD59C,0.067*%
%ADD60R,0.051X0.051*%
%ADD61C,0.051*%
%ADD62C,0.059*%
%ADD63R,0.059X0.059*%
%ADD64C,0.028*%
%ADD65C,0.016*%
%ADD66C,0.080*%
%ADD67C,0.030*%
G36*
X4600Y3170D02*
X4599Y3167D01*
Y3143D01*
X4600Y3140D01*
Y3122D01*
X4598Y3119D01*
X4597Y3112D01*
Y3098D01*
X4598Y3091D01*
X4600Y3088D01*
Y3005D01*
X4587D01*
X4585Y3006D01*
X4577Y3008D01*
X4544D01*
X4537Y3006D01*
X4534Y3005D01*
X4477D01*
Y3091D01*
X4481Y3094D01*
X4484Y3093D01*
X4486D01*
Y3105D01*
Y3117D01*
X4484D01*
X4481Y3116D01*
X4477Y3119D01*
Y3160D01*
X4476Y3165D01*
X4474Y3169D01*
X4470Y3171D01*
Y3360D01*
X4600D01*
Y3170D01*
D02*
G37*
G36*
X4465Y3117D02*
X4460Y3116D01*
X4460Y3116D01*
X4456Y3117D01*
X4454D01*
Y3105D01*
Y3093D01*
X4456D01*
X4460Y3094D01*
X4460Y3094D01*
X4465Y3093D01*
Y2918D01*
X4460Y2917D01*
X4459Y2920D01*
X4454Y2922D01*
X4453D01*
Y2910D01*
Y2898D01*
X4454D01*
X4459Y2900D01*
X4460Y2903D01*
X4465Y2902D01*
Y2700D01*
X4375D01*
Y3160D01*
X4465D01*
Y3117D01*
D02*
G37*
G36*
X1260Y4445D02*
X1107D01*
X1106Y4450D01*
X1111Y4454D01*
X1116Y4460D01*
X1119Y4467D01*
X1119Y4470D01*
X1061D01*
X1061Y4467D01*
X1064Y4460D01*
X1069Y4454D01*
X1074Y4450D01*
X1073Y4445D01*
X1025D01*
Y4750D01*
X1260D01*
Y4445D01*
D02*
G37*
G36*
X4915Y4976D02*
X4930Y4972D01*
X4943Y4965D01*
X4955Y4955D01*
X4965Y4943D01*
X4972Y4930D01*
X4976Y4915D01*
X4978Y4901D01*
X4978Y4900D01*
Y3570D01*
X4979Y3561D01*
X4984Y3554D01*
X4991Y3549D01*
X5000Y3548D01*
X5000Y3547D01*
X5000Y3379D01*
X4997Y3376D01*
X4990D01*
Y3395D01*
X4825Y3415D01*
X4665D01*
Y3426D01*
X4664Y3432D01*
X4660Y3438D01*
X4655Y3442D01*
X4648Y3443D01*
X4626D01*
X4620Y3442D01*
X4614Y3438D01*
X4611Y3432D01*
X4609Y3426D01*
Y3384D01*
X4611Y3378D01*
X4614Y3372D01*
X4620Y3368D01*
X4626Y3367D01*
X4646D01*
X4655Y3358D01*
Y3352D01*
X4646Y3343D01*
X4626D01*
X4620Y3342D01*
X4617Y3339D01*
X4612Y3342D01*
Y3360D01*
X4611Y3365D01*
X4609Y3369D01*
X4605Y3371D01*
X4600Y3372D01*
X4591D01*
X4589Y3377D01*
X4589Y3378D01*
X4591Y3384D01*
Y3426D01*
X4589Y3432D01*
X4586Y3438D01*
X4585Y3438D01*
Y3449D01*
X4587Y3452D01*
X4589Y3459D01*
Y3501D01*
X4587Y3508D01*
X4584Y3513D01*
X4579Y3517D01*
X4572Y3518D01*
X4553D01*
X4547Y3517D01*
X4541Y3513D01*
X4538Y3508D01*
X4537Y3501D01*
Y3459D01*
X4538Y3452D01*
X4540Y3449D01*
Y3438D01*
X4540Y3438D01*
X4537Y3434D01*
X4532D01*
X4529Y3438D01*
X4523Y3442D01*
X4517Y3443D01*
X4498D01*
X4491Y3442D01*
X4486Y3438D01*
X4483Y3433D01*
X4481Y3426D01*
Y3384D01*
X4483Y3377D01*
X4483Y3377D01*
X4481Y3372D01*
X4470D01*
X4465Y3371D01*
X4461Y3369D01*
X4459Y3365D01*
X4458Y3360D01*
Y3172D01*
X4375D01*
X4370Y3171D01*
X4366Y3169D01*
X4364Y3165D01*
X4363Y3160D01*
Y2700D01*
X4364Y2695D01*
X4366Y2691D01*
X4370Y2689D01*
X4375Y2688D01*
X4465D01*
X4470Y2689D01*
X4474Y2691D01*
X4476Y2695D01*
X4477Y2700D01*
Y2744D01*
X4482Y2746D01*
X4484Y2742D01*
X4485Y2742D01*
Y2733D01*
X4485Y2732D01*
X4484Y2725D01*
X4485Y2718D01*
X4487Y2712D01*
X4491Y2706D01*
X4497Y2702D01*
X4503Y2700D01*
X4510Y2699D01*
X4517Y2700D01*
X4523Y2702D01*
X4529Y2706D01*
X4533Y2712D01*
X4535Y2718D01*
X4536Y2725D01*
X4535Y2732D01*
X4533Y2738D01*
X4530Y2741D01*
X4530Y2742D01*
X4534Y2748D01*
X4535Y2754D01*
Y2796D01*
X4534Y2802D01*
X4530Y2808D01*
X4525Y2812D01*
X4518Y2813D01*
X4496D01*
X4490Y2812D01*
X4484Y2808D01*
X4482Y2804D01*
X4477Y2806D01*
Y2902D01*
X4477Y2903D01*
Y2904D01*
X4477Y2905D01*
X4476Y2906D01*
X4476Y2907D01*
X4475Y2909D01*
X4474Y2909D01*
X4474Y2910D01*
X4474Y2911D01*
X4475Y2911D01*
X4476Y2913D01*
X4476Y2914D01*
X4477Y2915D01*
X4477Y2916D01*
Y2917D01*
X4477Y2918D01*
Y2993D01*
X4534D01*
X4536Y2993D01*
X4537D01*
X4538Y2993D01*
X4539Y2994D01*
X4540Y2994D01*
X4541Y2995D01*
X4541Y2995D01*
X4545Y2996D01*
X4576D01*
X4580Y2995D01*
X4580Y2995D01*
X4581Y2994D01*
X4582Y2994D01*
X4583Y2993D01*
X4584Y2993D01*
X4586D01*
X4587Y2993D01*
X4600D01*
X4604Y2989D01*
X4603Y2989D01*
Y2951D01*
X4605Y2944D01*
X4609Y2938D01*
Y2938D01*
Y2938D01*
X4609Y2938D01*
X4609D01*
X4608Y2933D01*
X4607Y2933D01*
X4602Y2929D01*
X4598Y2924D01*
X4597Y2917D01*
Y2903D01*
X4598Y2896D01*
X4602Y2891D01*
X4607Y2887D01*
X4614Y2886D01*
X4628D01*
X4634Y2887D01*
X4640Y2891D01*
X4644Y2896D01*
X4645Y2903D01*
Y2905D01*
X4652Y2912D01*
X4657Y2919D01*
X4658Y2927D01*
Y2933D01*
X4663Y2934D01*
X4670Y2938D01*
X4674Y2944D01*
X4675Y2951D01*
Y2989D01*
X4674Y2996D01*
X4670Y3002D01*
X4663Y3006D01*
X4661Y3007D01*
X4660Y3012D01*
X4660Y3012D01*
X4664Y3018D01*
X4665Y3024D01*
Y3066D01*
X4664Y3072D01*
X4660Y3078D01*
X4655Y3082D01*
X4648Y3083D01*
X4626D01*
X4620Y3082D01*
X4617Y3079D01*
X4612Y3082D01*
Y3088D01*
X4612Y3089D01*
Y3091D01*
X4612Y3092D01*
X4611Y3093D01*
X4611Y3094D01*
X4610Y3095D01*
X4609Y3096D01*
X4609Y3099D01*
Y3111D01*
X4609Y3114D01*
X4610Y3115D01*
X4611Y3116D01*
X4611Y3117D01*
X4612Y3118D01*
X4612Y3119D01*
Y3121D01*
X4612Y3122D01*
Y3140D01*
X4612Y3141D01*
Y3142D01*
X4612Y3144D01*
Y3166D01*
X4612Y3168D01*
Y3169D01*
X4612Y3170D01*
Y3268D01*
X4617Y3271D01*
X4620Y3268D01*
X4626Y3267D01*
X4648D01*
X4655Y3268D01*
X4660Y3272D01*
X4664Y3278D01*
X4665Y3284D01*
Y3295D01*
X4825D01*
X4990Y3315D01*
Y3334D01*
X5000D01*
X5000Y3163D01*
X5000Y3162D01*
X4991Y3161D01*
X4984Y3156D01*
X4979Y3149D01*
X4978Y3140D01*
Y2270D01*
X4979Y2261D01*
X4984Y2254D01*
X4991Y2249D01*
X5000Y2248D01*
X5000Y2247D01*
X5000Y2079D01*
X4997Y2076D01*
X4990D01*
Y2095D01*
X4825Y2115D01*
X4640D01*
Y2075D01*
X4640D01*
Y2073D01*
X4636Y2072D01*
X4631Y2069D01*
X4628Y2065D01*
X4627Y2059D01*
Y2051D01*
X4628Y2045D01*
X4631Y2041D01*
X4636Y2038D01*
X4640Y2037D01*
Y2035D01*
X4640Y2035D01*
X4640Y2035D01*
Y1995D01*
X4825D01*
X4990Y2015D01*
Y2034D01*
X5000D01*
X5000Y1634D01*
X4997Y1631D01*
X4990D01*
Y1650D01*
X4825Y1670D01*
X4640D01*
Y1630D01*
X4640Y1630D01*
X4640D01*
Y1628D01*
X4636Y1627D01*
X4631Y1624D01*
X4628Y1620D01*
X4627Y1614D01*
Y1606D01*
X4628Y1600D01*
X4631Y1596D01*
X4636Y1593D01*
X4640Y1592D01*
Y1590D01*
X4640Y1590D01*
X4640Y1590D01*
Y1550D01*
X4825D01*
X4990Y1570D01*
Y1589D01*
X5000D01*
X5000Y1418D01*
X5000Y1417D01*
X4991Y1416D01*
X4984Y1411D01*
X4979Y1404D01*
X4978Y1395D01*
Y1175D01*
Y1100D01*
X4978Y1099D01*
X4976Y1085D01*
X4972Y1070D01*
X4965Y1057D01*
X4955Y1045D01*
X4943Y1035D01*
X4930Y1028D01*
X4915Y1024D01*
X4901Y1022D01*
X4900Y1022D01*
X1100D01*
X1099Y1022D01*
X1085Y1024D01*
X1070Y1028D01*
X1057Y1035D01*
X1045Y1045D01*
X1035Y1057D01*
X1028Y1070D01*
X1024Y1085D01*
X1022Y1099D01*
X1022Y1100D01*
Y4431D01*
X1025Y4433D01*
X1073D01*
X1073Y4433D01*
X1074Y4433D01*
X1076Y4433D01*
X1077Y4434D01*
X1078Y4434D01*
X1078Y4434D01*
X1079Y4435D01*
X1079Y4435D01*
X1090Y4433D01*
X1101Y4435D01*
X1101Y4435D01*
X1102Y4434D01*
X1102Y4434D01*
X1103Y4434D01*
X1104Y4433D01*
X1106Y4433D01*
X1107Y4433D01*
X1107Y4433D01*
X1174D01*
X1175Y4431D01*
X1176Y4428D01*
X1174Y4425D01*
X1173Y4420D01*
Y4280D01*
X1174Y4275D01*
X1176Y4271D01*
X1180Y4269D01*
X1185Y4268D01*
X1375D01*
X1380Y4269D01*
X1384Y4271D01*
X1386Y4275D01*
X1387Y4280D01*
Y4433D01*
X1420D01*
X1422Y4433D01*
X1424Y4433D01*
X1424Y4434D01*
X1425Y4434D01*
X1426Y4435D01*
X1426Y4435D01*
X1428Y4434D01*
X1472D01*
X1474Y4435D01*
X1474Y4435D01*
X1475Y4434D01*
X1476Y4434D01*
X1476Y4433D01*
X1478Y4433D01*
X1480Y4433D01*
X2575D01*
X2580Y4434D01*
X2584Y4436D01*
X2586Y4440D01*
X2587Y4445D01*
Y4650D01*
X2586Y4655D01*
X2584Y4659D01*
X2580Y4661D01*
X2575Y4662D01*
X2217D01*
Y4750D01*
X2216Y4755D01*
X2214Y4759D01*
X2210Y4761D01*
X2205Y4762D01*
X1280D01*
X1275Y4761D01*
X1271Y4759D01*
X1269D01*
X1265Y4761D01*
X1260Y4762D01*
X1025D01*
X1022Y4764D01*
Y4900D01*
X1022Y4901D01*
X1024Y4915D01*
X1028Y4930D01*
X1035Y4943D01*
X1045Y4955D01*
X1057Y4965D01*
X1070Y4972D01*
X1085Y4976D01*
X1099Y4978D01*
X1100Y4978D01*
X4900D01*
X4901Y4978D01*
X4915Y4976D01*
D02*
G37*
G36*
X2205Y4650D02*
X2575D01*
Y4445D01*
X1480D01*
X1478Y4449D01*
X1479Y4451D01*
X1480Y4454D01*
Y4467D01*
X1420D01*
Y4454D01*
X1421Y4451D01*
X1422Y4449D01*
X1420Y4445D01*
X1375D01*
Y4280D01*
X1185D01*
Y4420D01*
X1280D01*
Y4750D01*
X2205D01*
Y4650D01*
D02*
G37*
%LPC*%
G36*
X4565Y3150D02*
X4552D01*
Y3143D01*
X4554Y3139D01*
X4558Y3137D01*
X4565D01*
Y3150D01*
D02*
G37*
G36*
X2037Y1748D02*
X2018D01*
X2012Y1747D01*
X2006Y1743D01*
X2003Y1738D01*
X2002Y1731D01*
Y1689D01*
X2003Y1682D01*
X2005Y1679D01*
Y1668D01*
X2004D01*
X1997Y1667D01*
X1992Y1664D01*
X1988Y1658D01*
X1987Y1652D01*
Y1633D01*
X1988Y1626D01*
X1992Y1621D01*
X1997Y1618D01*
X2004Y1616D01*
X2046D01*
X2053Y1618D01*
X2058Y1621D01*
X2062Y1626D01*
X2063Y1633D01*
Y1652D01*
X2062Y1658D01*
X2058Y1664D01*
X2053Y1667D01*
X2050Y1668D01*
Y1679D01*
X2052Y1682D01*
X2054Y1689D01*
Y1731D01*
X2052Y1738D01*
X2049Y1743D01*
X2044Y1747D01*
X2037Y1748D01*
D02*
G37*
G36*
X4589Y3150D02*
X4575D01*
Y3137D01*
X4583D01*
X4587Y3139D01*
X4589Y3143D01*
Y3150D01*
D02*
G37*
G36*
X1562Y1462D02*
X1528D01*
X1521Y1460D01*
X1515Y1456D01*
X1510Y1450D01*
X1510Y1448D01*
X1505Y1447D01*
X1503Y1451D01*
X1497Y1454D01*
X1491Y1456D01*
X1449D01*
X1443Y1454D01*
X1437Y1451D01*
X1433Y1445D01*
X1432Y1439D01*
Y1417D01*
X1433Y1410D01*
X1437Y1405D01*
X1443Y1401D01*
X1448Y1400D01*
Y1336D01*
X1444Y1335D01*
X1433Y1327D01*
X1425Y1316D01*
X1420Y1303D01*
X1418Y1290D01*
X1420Y1277D01*
X1425Y1264D01*
X1433Y1253D01*
X1444Y1245D01*
X1457Y1240D01*
X1470Y1238D01*
X1483Y1240D01*
X1496Y1245D01*
X1507Y1253D01*
X1515Y1264D01*
X1520Y1277D01*
X1522Y1290D01*
X1520Y1303D01*
X1515Y1316D01*
X1507Y1327D01*
X1496Y1335D01*
X1492Y1336D01*
Y1400D01*
X1497Y1401D01*
X1503Y1405D01*
X1505Y1407D01*
X1510Y1406D01*
X1510Y1402D01*
X1515Y1395D01*
X1521Y1391D01*
X1528Y1390D01*
X1562D01*
X1569Y1391D01*
X1575Y1395D01*
X1578Y1400D01*
X1583Y1400D01*
X1584Y1399D01*
X1591Y1394D01*
X1600Y1393D01*
X1605D01*
X1606Y1388D01*
X1610Y1382D01*
X1615Y1378D01*
X1622Y1377D01*
X1644D01*
X1650Y1378D01*
X1656Y1382D01*
X1659Y1388D01*
X1661Y1394D01*
Y1436D01*
X1659Y1442D01*
X1656Y1448D01*
X1650Y1452D01*
X1644Y1453D01*
X1622D01*
X1615Y1452D01*
X1610Y1448D01*
X1607Y1444D01*
X1602Y1443D01*
X1598Y1446D01*
X1589Y1448D01*
X1580D01*
X1580Y1450D01*
X1575Y1456D01*
X1569Y1460D01*
X1562Y1462D01*
D02*
G37*
G36*
X3626Y1479D02*
X3584D01*
X3577Y1477D01*
X3572Y1474D01*
X3570Y1471D01*
X3540D01*
X3538Y1474D01*
X3533Y1477D01*
X3526Y1479D01*
X3484D01*
X3477Y1477D01*
X3472Y1474D01*
X3468Y1469D01*
X3467Y1462D01*
Y1443D01*
X3468Y1437D01*
X3472Y1431D01*
X3477Y1428D01*
X3484Y1427D01*
X3526D01*
X3533Y1428D01*
X3538Y1431D01*
X3540Y1434D01*
X3570D01*
X3572Y1431D01*
X3577Y1428D01*
X3584Y1427D01*
X3626D01*
X3633Y1428D01*
X3638Y1431D01*
X3642Y1437D01*
X3643Y1443D01*
Y1462D01*
X3642Y1469D01*
X3638Y1474D01*
X3633Y1477D01*
X3626Y1479D01*
D02*
G37*
G36*
X4417Y1652D02*
X4333D01*
Y1568D01*
X4412D01*
X4415Y1564D01*
X4415Y1563D01*
Y1538D01*
X4416Y1531D01*
X4416Y1531D01*
X4416Y1531D01*
D01*
X4418Y1529D01*
D01*
D01*
X4412Y1525D01*
X4408Y1520D01*
X4407Y1513D01*
Y1491D01*
X4408Y1485D01*
X4412Y1479D01*
X4418Y1476D01*
X4424Y1474D01*
X4466D01*
X4472Y1476D01*
X4478Y1479D01*
X4482Y1485D01*
X4483Y1491D01*
Y1513D01*
X4482Y1520D01*
X4478Y1525D01*
X4472Y1529D01*
D01*
D01*
X4474Y1531D01*
D01*
X4474Y1531D01*
X4474Y1531D01*
X4475Y1538D01*
Y1563D01*
X4475Y1565D01*
X4479Y1567D01*
X4486Y1560D01*
Y1559D01*
X4487Y1552D01*
X4491Y1547D01*
X4496Y1543D01*
X4503Y1542D01*
X4517D01*
X4524Y1543D01*
X4529Y1547D01*
X4532Y1552D01*
X4537D01*
X4541Y1547D01*
X4546Y1543D01*
X4553Y1542D01*
X4567D01*
X4574Y1543D01*
X4579Y1547D01*
X4583Y1552D01*
X4584Y1559D01*
Y1573D01*
X4583Y1579D01*
X4579Y1585D01*
X4583Y1590D01*
X4586Y1591D01*
X4587Y1592D01*
X4589D01*
X4594Y1593D01*
X4599Y1596D01*
X4602Y1600D01*
X4603Y1606D01*
Y1614D01*
X4602Y1620D01*
X4599Y1624D01*
X4594Y1627D01*
X4589Y1628D01*
X4587D01*
X4586Y1629D01*
X4578Y1631D01*
X4552D01*
X4550Y1633D01*
X4543Y1634D01*
X4531D01*
X4524Y1633D01*
X4518Y1629D01*
X4517Y1628D01*
X4512D01*
X4512Y1629D01*
X4506Y1633D01*
X4499Y1634D01*
X4487D01*
X4480Y1633D01*
X4478Y1631D01*
X4472D01*
X4470Y1634D01*
X4464Y1638D01*
X4457Y1640D01*
X4433D01*
X4426Y1638D01*
X4421Y1635D01*
X4417Y1638D01*
Y1652D01*
D02*
G37*
G36*
X4592Y3100D02*
X4584D01*
Y3093D01*
X4586D01*
X4590Y3094D01*
X4592Y3098D01*
Y3100D01*
D02*
G37*
G36*
X4574D02*
X4567D01*
Y3098D01*
X4569Y3094D01*
X4572Y3093D01*
X4574D01*
Y3100D01*
D02*
G37*
G36*
X4503D02*
X4496D01*
Y3093D01*
X4498D01*
X4501Y3094D01*
X4503Y3098D01*
Y3100D01*
D02*
G37*
G36*
X4444Y3117D02*
X4442D01*
X4439Y3116D01*
X4437Y3112D01*
Y3110D01*
X4444D01*
Y3117D01*
D02*
G37*
G36*
X4586D02*
X4584D01*
Y3110D01*
X4592D01*
Y3112D01*
X4590Y3116D01*
X4586Y3117D01*
D02*
G37*
G36*
X4574D02*
X4572D01*
X4569Y3116D01*
X4567Y3112D01*
Y3110D01*
X4574D01*
Y3117D01*
D02*
G37*
G36*
X4498D02*
X4496D01*
Y3110D01*
X4503D01*
Y3112D01*
X4501Y3116D01*
X4498Y3117D01*
D02*
G37*
G36*
X1278Y3337D02*
X1225D01*
X1218Y3336D01*
X1213Y3332D01*
X1209Y3327D01*
X1208Y3320D01*
X1209Y3313D01*
X1213Y3308D01*
X1218Y3304D01*
X1225Y3303D01*
X1278D01*
X1284Y3304D01*
X1290Y3308D01*
X1294Y3313D01*
X1295Y3320D01*
X1294Y3327D01*
X1290Y3332D01*
X1284Y3336D01*
X1278Y3337D01*
D02*
G37*
G36*
X4558Y3331D02*
X4552D01*
X4548Y3329D01*
X4546Y3326D01*
Y3310D01*
X4558D01*
Y3331D01*
D02*
G37*
G36*
X4579Y3300D02*
X4568D01*
Y3279D01*
X4574D01*
X4577Y3281D01*
X4579Y3284D01*
Y3300D01*
D02*
G37*
G36*
X4466Y1456D02*
X4424D01*
X4418Y1454D01*
X4412Y1451D01*
X4408Y1445D01*
X4407Y1439D01*
Y1417D01*
X4408Y1410D01*
X4412Y1405D01*
X4408Y1400D01*
X4407Y1393D01*
Y1371D01*
X4408Y1365D01*
X4412Y1359D01*
X4418Y1356D01*
X4424Y1354D01*
X4466D01*
X4472Y1356D01*
X4478Y1359D01*
X4482Y1365D01*
X4483Y1371D01*
Y1393D01*
X4482Y1400D01*
X4478Y1405D01*
X4482Y1410D01*
X4483Y1417D01*
Y1439D01*
X4482Y1445D01*
X4478Y1451D01*
X4472Y1454D01*
X4466Y1456D01*
D02*
G37*
G36*
X3595Y3681D02*
X3583Y3679D01*
X3572Y3675D01*
X3563Y3667D01*
X3555Y3658D01*
X3551Y3647D01*
X3549Y3635D01*
X3551Y3623D01*
X3551Y3623D01*
X3459Y3531D01*
X3454Y3524D01*
X3453Y3515D01*
Y3405D01*
X3454Y3396D01*
X3459Y3389D01*
X3498Y3350D01*
X3497Y3345D01*
X3498Y3335D01*
X3502Y3326D01*
X3508Y3318D01*
X3516Y3312D01*
X3525Y3308D01*
X3535Y3307D01*
X3545Y3308D01*
X3554Y3312D01*
X3562Y3318D01*
X3568Y3326D01*
X3572Y3335D01*
X3573Y3345D01*
X3572Y3355D01*
X3568Y3364D01*
X3562Y3372D01*
X3554Y3378D01*
X3545Y3382D01*
X3535Y3383D01*
X3530Y3382D01*
X3497Y3414D01*
Y3506D01*
X3583Y3591D01*
X3583Y3591D01*
X3595Y3589D01*
X3607Y3591D01*
X3618Y3595D01*
X3627Y3603D01*
X3635Y3612D01*
X3639Y3623D01*
X3641Y3635D01*
X3639Y3647D01*
X3635Y3658D01*
X3627Y3667D01*
X3618Y3675D01*
X3607Y3679D01*
X3595Y3681D01*
D02*
G37*
G36*
X4436Y4029D02*
X4394D01*
X4387Y4027D01*
X4382Y4024D01*
X4378Y4019D01*
X4377Y4012D01*
Y3993D01*
X4378Y3987D01*
X4382Y3981D01*
X4387Y3978D01*
X4394Y3977D01*
X4397D01*
Y3968D01*
X4396Y3968D01*
X4393Y3963D01*
X4392Y3956D01*
Y3914D01*
X4393Y3907D01*
X4396Y3902D01*
X4399Y3900D01*
Y3842D01*
X4400Y3837D01*
X4401Y3835D01*
X4403Y3831D01*
X4400Y3823D01*
X4398Y3810D01*
X4400Y3797D01*
X4405Y3784D01*
X4413Y3773D01*
X4424Y3765D01*
X4437Y3760D01*
X4450Y3758D01*
X4463Y3760D01*
X4476Y3765D01*
X4487Y3773D01*
X4495Y3784D01*
X4500Y3797D01*
X4502Y3810D01*
X4500Y3823D01*
X4495Y3836D01*
X4487Y3847D01*
X4476Y3855D01*
X4463Y3860D01*
X4450Y3862D01*
X4440Y3860D01*
X4436Y3864D01*
Y3900D01*
X4439Y3902D01*
X4442Y3907D01*
X4444Y3914D01*
Y3956D01*
X4442Y3963D01*
X4439Y3968D01*
X4434Y3972D01*
X4435Y3977D01*
X4436D01*
X4443Y3978D01*
X4448Y3981D01*
X4452Y3987D01*
X4453Y3993D01*
Y4012D01*
X4452Y4019D01*
X4448Y4024D01*
X4443Y4027D01*
X4436Y4029D01*
D02*
G37*
G36*
X4574Y3331D02*
X4568D01*
Y3310D01*
X4579D01*
Y3326D01*
X4577Y3329D01*
X4574Y3331D01*
D02*
G37*
G36*
X3175Y3681D02*
X3163Y3679D01*
X3152Y3675D01*
X3143Y3667D01*
X3135Y3658D01*
X3131Y3647D01*
X3129Y3635D01*
X3131Y3623D01*
X3135Y3612D01*
X3143Y3603D01*
X3152Y3595D01*
X3163Y3591D01*
X3175Y3589D01*
X3187Y3591D01*
X3187Y3591D01*
X3213Y3566D01*
Y3475D01*
X3208Y3472D01*
X3202Y3464D01*
X3198Y3455D01*
X3197Y3445D01*
X3198Y3435D01*
X3202Y3426D01*
X3208Y3418D01*
X3216Y3412D01*
X3225Y3408D01*
X3235Y3407D01*
X3245Y3408D01*
X3254Y3412D01*
X3262Y3418D01*
X3268Y3426D01*
X3272Y3435D01*
X3273Y3445D01*
X3272Y3455D01*
X3268Y3464D01*
X3262Y3472D01*
X3257Y3475D01*
Y3575D01*
X3256Y3584D01*
X3251Y3591D01*
X3219Y3623D01*
X3219Y3623D01*
X3221Y3635D01*
X3219Y3647D01*
X3215Y3658D01*
X3207Y3667D01*
X3198Y3675D01*
X3187Y3679D01*
X3175Y3681D01*
D02*
G37*
G36*
X4558Y3300D02*
X4546D01*
Y3284D01*
X4548Y3281D01*
X4552Y3279D01*
X4558D01*
Y3300D01*
D02*
G37*
G36*
X3671Y3404D02*
X3629D01*
X3622Y3402D01*
X3617Y3399D01*
X3613Y3394D01*
X3612Y3387D01*
Y3368D01*
X3613Y3362D01*
X3617Y3356D01*
X3621Y3353D01*
Y3348D01*
X3617Y3345D01*
X3613Y3340D01*
X3612Y3333D01*
Y3311D01*
X3613Y3305D01*
X3617Y3299D01*
X3623Y3296D01*
X3629Y3294D01*
X3671D01*
X3677Y3296D01*
X3683Y3299D01*
X3687Y3305D01*
X3688Y3311D01*
Y3333D01*
X3687Y3340D01*
X3683Y3345D01*
X3679Y3348D01*
Y3352D01*
X3682Y3355D01*
X3808D01*
X3919Y3244D01*
Y3228D01*
X3921Y3219D01*
X3926Y3211D01*
X3934Y3206D01*
X3943Y3204D01*
X3967D01*
X3976Y3206D01*
X3984Y3211D01*
X3989Y3219D01*
X3991Y3228D01*
Y3252D01*
X3989Y3261D01*
X3984Y3269D01*
X3976Y3274D01*
X3967Y3276D01*
X3950D01*
X3833Y3393D01*
X3826Y3398D01*
X3817Y3400D01*
X3681D01*
X3678Y3402D01*
X3671Y3404D01*
D02*
G37*
G36*
X4558Y3225D02*
X4548D01*
Y3209D01*
X4550Y3205D01*
X4553Y3204D01*
X4558D01*
Y3225D01*
D02*
G37*
G36*
X4565Y3173D02*
X4558D01*
X4554Y3171D01*
X4552Y3167D01*
Y3160D01*
X4565D01*
Y3173D01*
D02*
G37*
G36*
X4583D02*
X4575D01*
Y3160D01*
X4589D01*
Y3167D01*
X4587Y3171D01*
X4583Y3173D01*
D02*
G37*
G36*
X4572Y3256D02*
X4568D01*
Y3235D01*
X4577D01*
Y3251D01*
X4575Y3255D01*
X4572Y3256D01*
D02*
G37*
G36*
X3141Y3404D02*
X3099D01*
X3092Y3402D01*
X3087Y3399D01*
X3083Y3394D01*
X3082Y3387D01*
Y3368D01*
X3083Y3362D01*
X3087Y3356D01*
X3091Y3353D01*
Y3348D01*
X3087Y3345D01*
X3083Y3340D01*
X3082Y3333D01*
Y3311D01*
X3083Y3305D01*
X3087Y3299D01*
X3093Y3296D01*
X3099Y3294D01*
X3116D01*
X3130Y3280D01*
X3128Y3276D01*
X3099D01*
X3093Y3274D01*
X3087Y3271D01*
X3087Y3270D01*
X3032D01*
X3027Y3277D01*
X3016Y3285D01*
X3003Y3290D01*
X2990Y3292D01*
X2977Y3290D01*
X2964Y3285D01*
X2953Y3277D01*
X2945Y3266D01*
X2940Y3253D01*
X2938Y3240D01*
X2940Y3227D01*
X2945Y3214D01*
X2953Y3203D01*
X2964Y3195D01*
X2977Y3190D01*
X2990Y3188D01*
X3003Y3190D01*
X3016Y3195D01*
X3027Y3203D01*
X3035Y3214D01*
X3039Y3225D01*
X3087D01*
X3087Y3225D01*
X3093Y3221D01*
X3099Y3220D01*
X3141D01*
X3147Y3221D01*
X3153Y3225D01*
X3153Y3225D01*
X3203D01*
X3208Y3218D01*
X3210Y3217D01*
X3208Y3212D01*
X3080D01*
X3075Y3211D01*
X3071Y3209D01*
X3069Y3205D01*
X3068Y3200D01*
Y3170D01*
X3068Y3169D01*
Y3167D01*
X3068Y3166D01*
Y3124D01*
X3068Y3123D01*
Y3121D01*
X3068Y3120D01*
Y3085D01*
X3068Y3084D01*
Y3082D01*
X3068Y3081D01*
Y3039D01*
X3068Y3038D01*
Y3036D01*
X3068Y3035D01*
Y3025D01*
X3069Y3020D01*
X3070Y3018D01*
X3068Y3013D01*
X2794Y3012D01*
X2691Y3116D01*
X2684Y3121D01*
X2675Y3122D01*
X2475D01*
X2466Y3121D01*
X2459Y3116D01*
X2384Y3041D01*
X2379Y3034D01*
X2378Y3025D01*
Y2782D01*
X2379Y2774D01*
X2384Y2767D01*
X2427Y2724D01*
Y2708D01*
X2428Y2701D01*
X2432Y2696D01*
X2437Y2693D01*
X2444Y2691D01*
X2486D01*
X2493Y2693D01*
X2496Y2695D01*
X2509D01*
X2512Y2693D01*
X2519Y2691D01*
X2561D01*
X2568Y2693D01*
X2573Y2696D01*
X2577Y2701D01*
X2578Y2708D01*
Y2727D01*
X2577Y2733D01*
X2573Y2739D01*
X2568Y2742D01*
X2561Y2743D01*
X2519D01*
X2512Y2742D01*
X2509Y2740D01*
X2496D01*
X2493Y2742D01*
X2486Y2743D01*
X2471D01*
X2422Y2792D01*
Y3016D01*
X2484Y3078D01*
X2605D01*
X2606Y3073D01*
X2599Y3070D01*
X2588Y3062D01*
X2580Y3051D01*
X2575Y3038D01*
X2573Y3025D01*
X2575Y3012D01*
X2580Y2999D01*
X2588Y2988D01*
X2599Y2980D01*
X2603Y2979D01*
Y2943D01*
X2598Y2942D01*
X2563D01*
X2562Y2948D01*
X2559Y2953D01*
X2553Y2957D01*
X2547Y2958D01*
X2528D01*
X2521Y2957D01*
X2516Y2953D01*
X2513Y2948D01*
X2511Y2941D01*
Y2899D01*
X2513Y2892D01*
X2516Y2887D01*
X2521Y2883D01*
X2526Y2882D01*
Y2878D01*
X2521Y2877D01*
X2516Y2873D01*
X2513Y2868D01*
X2511Y2861D01*
Y2819D01*
X2513Y2812D01*
X2516Y2807D01*
X2521Y2803D01*
X2528Y2802D01*
X2547D01*
X2553Y2803D01*
X2559Y2807D01*
X2562Y2812D01*
X2563Y2818D01*
X2598D01*
X2604Y2817D01*
X2646D01*
X2652Y2818D01*
X2767D01*
X2767Y2818D01*
X2774Y2816D01*
X2805D01*
X2807Y2812D01*
X2789Y2794D01*
X2774D01*
X2767Y2792D01*
X2762Y2789D01*
X2758Y2784D01*
X2757Y2777D01*
Y2758D01*
X2758Y2752D01*
X2762Y2746D01*
X2764Y2745D01*
Y2743D01*
X2760Y2740D01*
X2751D01*
X2748Y2742D01*
X2741Y2743D01*
X2699D01*
X2692Y2742D01*
X2687Y2739D01*
X2683Y2733D01*
X2682Y2727D01*
Y2708D01*
X2683Y2701D01*
X2687Y2696D01*
X2692Y2693D01*
X2699Y2691D01*
X2741D01*
X2748Y2693D01*
X2751Y2695D01*
X2764D01*
X2767Y2693D01*
X2774Y2691D01*
X2816D01*
X2823Y2693D01*
X2828Y2696D01*
X2832Y2701D01*
X2833Y2708D01*
Y2727D01*
X2832Y2733D01*
X2828Y2739D01*
X2826Y2740D01*
Y2745D01*
X2828Y2746D01*
X2832Y2752D01*
X2833Y2758D01*
Y2774D01*
X2947Y2888D01*
X2970D01*
Y2847D01*
X2950D01*
X2941Y2846D01*
X2934Y2841D01*
X2894Y2800D01*
X2893Y2800D01*
X2887Y2798D01*
X2881Y2794D01*
X2877Y2788D01*
X2875Y2782D01*
X2874Y2775D01*
X2875Y2768D01*
X2877Y2762D01*
X2878Y2762D01*
Y2568D01*
X2877Y2568D01*
X2875Y2562D01*
X2874Y2555D01*
X2875Y2548D01*
X2877Y2542D01*
X2878Y2542D01*
Y2433D01*
X2877Y2433D01*
X2875Y2427D01*
X2874Y2420D01*
X2875Y2413D01*
X2877Y2407D01*
X2881Y2401D01*
X2887Y2397D01*
X2893Y2395D01*
X2900Y2394D01*
X2907Y2395D01*
X2913Y2397D01*
X2913Y2398D01*
X2956D01*
Y2377D01*
X2958Y2368D01*
X2963Y2361D01*
X2970Y2356D01*
X2979Y2354D01*
X3025D01*
X3034Y2356D01*
X3041Y2361D01*
X3046Y2368D01*
X3048Y2377D01*
Y2463D01*
X3046Y2472D01*
X3041Y2479D01*
X3034Y2484D01*
X3028Y2485D01*
Y2490D01*
X3034Y2491D01*
X3041Y2496D01*
X3046Y2503D01*
X3048Y2512D01*
Y2598D01*
X3046Y2607D01*
X3041Y2614D01*
X3034Y2619D01*
X3025Y2621D01*
X2979D01*
X2970Y2619D01*
X2963Y2614D01*
X2958Y2607D01*
X2956Y2598D01*
Y2577D01*
X2922D01*
Y2762D01*
X2923Y2762D01*
X2925Y2768D01*
X2925Y2769D01*
X2959Y2803D01*
X2970D01*
Y2760D01*
X3046D01*
Y2888D01*
X3084D01*
Y2760D01*
X3100D01*
Y2755D01*
X3096Y2754D01*
X3089Y2749D01*
X3084Y2742D01*
X3082Y2733D01*
Y2647D01*
X3084Y2638D01*
X3089Y2631D01*
X3096Y2626D01*
X3105Y2624D01*
X3151D01*
X3160Y2626D01*
X3167Y2631D01*
X3172Y2638D01*
X3174Y2647D01*
Y2668D01*
X3205D01*
X3208Y2663D01*
X3216Y2657D01*
X3225Y2653D01*
X3235Y2652D01*
X3245Y2653D01*
X3254Y2657D01*
X3262Y2663D01*
X3268Y2671D01*
X3272Y2680D01*
X3273Y2690D01*
X3272Y2700D01*
X3268Y2709D01*
X3262Y2717D01*
X3254Y2723D01*
X3245Y2727D01*
X3235Y2728D01*
X3225Y2727D01*
X3216Y2723D01*
X3208Y2717D01*
X3205Y2712D01*
X3174D01*
Y2733D01*
X3172Y2742D01*
X3167Y2749D01*
X3160Y2754D01*
X3155Y2755D01*
X3155Y2760D01*
X3160D01*
Y2888D01*
X3197D01*
X3198Y2880D01*
X3202Y2871D01*
X3208Y2863D01*
X3216Y2857D01*
X3225Y2853D01*
X3235Y2852D01*
X3245Y2853D01*
X3254Y2857D01*
X3262Y2863D01*
X3268Y2871D01*
X3272Y2880D01*
X3273Y2890D01*
X3272Y2900D01*
X3268Y2909D01*
X3262Y2917D01*
X3260Y2918D01*
X3262Y2923D01*
X3271D01*
X3303Y2891D01*
Y2829D01*
X3286Y2812D01*
X3265D01*
X3262Y2817D01*
X3254Y2823D01*
X3245Y2827D01*
X3235Y2828D01*
X3225Y2827D01*
X3216Y2823D01*
X3208Y2817D01*
X3202Y2809D01*
X3198Y2800D01*
X3197Y2790D01*
X3198Y2780D01*
X3202Y2771D01*
X3208Y2763D01*
X3216Y2757D01*
X3225Y2753D01*
X3235Y2752D01*
X3245Y2753D01*
X3254Y2757D01*
X3262Y2763D01*
X3265Y2768D01*
X3295D01*
X3304Y2769D01*
X3311Y2774D01*
X3341Y2804D01*
X3346Y2811D01*
X3347Y2820D01*
Y2900D01*
X3346Y2909D01*
X3341Y2916D01*
X3296Y2961D01*
X3289Y2966D01*
X3280Y2967D01*
X3271D01*
X3268Y2972D01*
X3272Y2980D01*
X3273Y2990D01*
X3272Y3000D01*
X3268Y3009D01*
X3262Y3017D01*
X3254Y3023D01*
X3245Y3027D01*
X3235Y3028D01*
X3225Y3027D01*
X3216Y3023D01*
X3212Y3026D01*
Y3063D01*
X3300D01*
X3305Y3064D01*
X3309Y3066D01*
X3311Y3070D01*
X3312Y3075D01*
Y3200D01*
X3311Y3205D01*
X3309Y3209D01*
X3305Y3211D01*
X3300Y3212D01*
X3262D01*
X3260Y3217D01*
X3262Y3218D01*
X3268Y3226D01*
X3272Y3235D01*
X3273Y3245D01*
X3272Y3255D01*
X3268Y3263D01*
X3272Y3266D01*
X3359Y3179D01*
X3366Y3174D01*
X3375Y3173D01*
X3497D01*
Y3107D01*
X3573D01*
Y3173D01*
X3596D01*
X3669Y3099D01*
X3676Y3094D01*
X3685Y3093D01*
X3922D01*
X3926Y3086D01*
X3934Y3081D01*
X3943Y3079D01*
X3967D01*
X3976Y3081D01*
X3984Y3086D01*
X3989Y3094D01*
X3991Y3103D01*
Y3127D01*
X3989Y3136D01*
X3984Y3144D01*
X3976Y3149D01*
X3967Y3151D01*
X3943D01*
X3934Y3149D01*
X3926Y3144D01*
X3922Y3137D01*
X3694D01*
X3621Y3211D01*
X3614Y3216D01*
X3605Y3217D01*
X3567D01*
X3566Y3218D01*
X3569Y3223D01*
X3620D01*
X3623Y3221D01*
X3629Y3220D01*
X3671D01*
X3677Y3221D01*
X3680Y3223D01*
X3732D01*
X3735Y3214D01*
X3743Y3203D01*
X3754Y3195D01*
X3767Y3190D01*
X3780Y3188D01*
X3793Y3190D01*
X3806Y3195D01*
X3817Y3203D01*
X3825Y3214D01*
X3830Y3227D01*
X3832Y3240D01*
X3830Y3253D01*
X3825Y3266D01*
X3817Y3277D01*
X3806Y3285D01*
X3793Y3290D01*
X3780Y3292D01*
X3767Y3290D01*
X3754Y3285D01*
X3743Y3277D01*
X3736Y3267D01*
X3685D01*
X3683Y3271D01*
X3677Y3274D01*
X3671Y3276D01*
X3629D01*
X3623Y3274D01*
X3617Y3271D01*
X3615Y3267D01*
X3565D01*
X3562Y3272D01*
X3554Y3278D01*
X3545Y3282D01*
X3535Y3283D01*
X3525Y3282D01*
X3516Y3278D01*
X3508Y3272D01*
X3502Y3264D01*
X3498Y3255D01*
X3497Y3245D01*
X3498Y3235D01*
X3502Y3226D01*
X3505Y3222D01*
X3503Y3217D01*
X3384D01*
X3291Y3311D01*
X3284Y3316D01*
X3275Y3317D01*
X3267D01*
X3265Y3322D01*
X3268Y3326D01*
X3272Y3335D01*
X3273Y3345D01*
X3272Y3355D01*
X3268Y3364D01*
X3262Y3372D01*
X3254Y3378D01*
X3245Y3382D01*
X3235Y3383D01*
X3225Y3382D01*
X3216Y3378D01*
X3208Y3372D01*
X3202Y3364D01*
X3198Y3355D01*
X3197Y3345D01*
X3198Y3335D01*
X3202Y3326D01*
X3205Y3322D01*
X3203Y3317D01*
X3158D01*
Y3333D01*
X3157Y3340D01*
X3153Y3345D01*
X3149Y3348D01*
Y3353D01*
X3153Y3356D01*
X3157Y3362D01*
X3158Y3368D01*
Y3387D01*
X3157Y3394D01*
X3153Y3399D01*
X3148Y3402D01*
X3141Y3404D01*
D02*
G37*
G36*
X4577Y3225D02*
X4568D01*
Y3204D01*
X4572D01*
X4575Y3205D01*
X4577Y3209D01*
Y3225D01*
D02*
G37*
G36*
X4558Y3256D02*
X4553D01*
X4550Y3255D01*
X4548Y3251D01*
Y3235D01*
X4558D01*
Y3256D01*
D02*
G37*
G36*
X4428Y2770D02*
X4416D01*
Y2754D01*
X4418Y2751D01*
X4422Y2749D01*
X4428D01*
Y2770D01*
D02*
G37*
G36*
X4449D02*
X4438D01*
Y2749D01*
X4444D01*
X4447Y2751D01*
X4449Y2754D01*
Y2770D01*
D02*
G37*
G36*
X1338Y2712D02*
X1285D01*
X1278Y2711D01*
X1273Y2707D01*
X1269Y2702D01*
X1268Y2695D01*
X1269Y2688D01*
X1273Y2683D01*
X1278Y2679D01*
X1285Y2678D01*
X1338D01*
X1344Y2679D01*
X1350Y2683D01*
X1354Y2688D01*
X1355Y2695D01*
X1354Y2702D01*
X1350Y2707D01*
X1344Y2711D01*
X1338Y2712D01*
D02*
G37*
G36*
X1930Y1862D02*
X1917Y1860D01*
X1904Y1855D01*
X1893Y1847D01*
X1885Y1836D01*
X1880Y1823D01*
X1878Y1810D01*
X1880Y1797D01*
X1885Y1784D01*
X1893Y1773D01*
X1904Y1765D01*
X1917Y1760D01*
X1930Y1758D01*
X1943Y1760D01*
X1956Y1765D01*
X1967Y1773D01*
X1975Y1784D01*
X1976Y1788D01*
X2000D01*
X2001Y1783D01*
X2005Y1777D01*
X2010Y1773D01*
X2017Y1772D01*
X2039D01*
X2045Y1773D01*
X2051Y1777D01*
X2054Y1783D01*
X2056Y1789D01*
Y1831D01*
X2054Y1837D01*
X2051Y1843D01*
X2045Y1847D01*
X2039Y1848D01*
X2017D01*
X2010Y1847D01*
X2005Y1843D01*
X2001Y1837D01*
X2000Y1832D01*
X1976D01*
X1975Y1836D01*
X1967Y1847D01*
X1956Y1855D01*
X1943Y1860D01*
X1930Y1862D01*
D02*
G37*
G36*
X4428Y2845D02*
X4418D01*
Y2829D01*
X4420Y2825D01*
X4423Y2824D01*
X4428D01*
Y2845D01*
D02*
G37*
G36*
X4447D02*
X4438D01*
Y2824D01*
X4442D01*
X4445Y2825D01*
X4447Y2829D01*
Y2845D01*
D02*
G37*
G36*
X4428Y2801D02*
X4422D01*
X4418Y2799D01*
X4416Y2796D01*
Y2780D01*
X4428D01*
Y2801D01*
D02*
G37*
G36*
X4444D02*
X4438D01*
Y2780D01*
X4449D01*
Y2796D01*
X4447Y2799D01*
X4444Y2801D01*
D02*
G37*
G36*
X2816Y2669D02*
X2774D01*
X2767Y2667D01*
X2762Y2664D01*
X2758Y2659D01*
X2757Y2652D01*
Y2633D01*
X2758Y2627D01*
X2762Y2621D01*
X2767Y2618D01*
X2773Y2617D01*
Y2601D01*
X2769Y2600D01*
X2758Y2592D01*
X2750Y2581D01*
X2745Y2568D01*
X2743Y2555D01*
X2745Y2542D01*
X2750Y2529D01*
X2758Y2518D01*
X2769Y2510D01*
X2773Y2509D01*
Y2484D01*
X2771Y2483D01*
X2768Y2478D01*
X2766Y2471D01*
Y2429D01*
X2768Y2422D01*
X2771Y2417D01*
X2776Y2413D01*
X2783Y2412D01*
X2802D01*
X2808Y2413D01*
X2814Y2417D01*
X2817Y2422D01*
X2818Y2429D01*
Y2471D01*
X2817Y2477D01*
Y2509D01*
X2821Y2510D01*
X2832Y2518D01*
X2840Y2529D01*
X2845Y2542D01*
X2847Y2555D01*
X2845Y2568D01*
X2840Y2581D01*
X2832Y2592D01*
X2821Y2600D01*
X2817Y2601D01*
Y2617D01*
X2823Y2618D01*
X2828Y2621D01*
X2832Y2627D01*
X2833Y2633D01*
Y2652D01*
X2832Y2659D01*
X2828Y2664D01*
X2823Y2667D01*
X2816Y2669D01*
D02*
G37*
G36*
X4475Y2602D02*
X4300D01*
X4295Y2601D01*
X4291Y2599D01*
X4289Y2595D01*
X4288Y2590D01*
Y2460D01*
X4289Y2455D01*
X4291Y2451D01*
X4295Y2449D01*
X4300Y2448D01*
X4417D01*
X4418Y2448D01*
X4420D01*
X4421Y2448D01*
X4422Y2449D01*
X4423Y2449D01*
X4423Y2450D01*
X4424Y2449D01*
X4466D01*
X4472Y2451D01*
X4478Y2454D01*
X4482Y2460D01*
X4483Y2466D01*
Y2482D01*
X4484Y2483D01*
X4484Y2484D01*
X4485Y2485D01*
X4486Y2486D01*
X4486Y2487D01*
X4487Y2488D01*
X4487Y2489D01*
Y2490D01*
X4487Y2492D01*
Y2512D01*
X4487Y2513D01*
Y2514D01*
X4487Y2515D01*
X4486Y2516D01*
X4486Y2517D01*
X4485Y2519D01*
X4484Y2519D01*
X4484Y2520D01*
X4484Y2521D01*
X4485Y2521D01*
X4486Y2523D01*
X4486Y2524D01*
X4487Y2525D01*
X4487Y2526D01*
Y2527D01*
X4487Y2528D01*
Y2552D01*
X4487Y2553D01*
Y2554D01*
X4487Y2555D01*
X4486Y2556D01*
X4486Y2557D01*
X4485Y2559D01*
X4484Y2559D01*
X4484Y2560D01*
X4484Y2561D01*
X4485Y2561D01*
X4486Y2563D01*
X4486Y2564D01*
X4487Y2565D01*
X4487Y2566D01*
Y2567D01*
X4487Y2568D01*
Y2590D01*
X4486Y2595D01*
X4484Y2599D01*
X4480Y2601D01*
X4475Y2602D01*
D02*
G37*
G36*
X4466Y2431D02*
X4424D01*
X4418Y2429D01*
X4412Y2426D01*
X4408Y2420D01*
X4407Y2414D01*
Y2392D01*
X4408Y2385D01*
X4412Y2380D01*
X4408Y2375D01*
X4407Y2368D01*
Y2346D01*
X4408Y2340D01*
X4412Y2334D01*
X4418Y2331D01*
X4424Y2329D01*
X4466D01*
X4472Y2331D01*
X4478Y2334D01*
X4482Y2340D01*
X4483Y2346D01*
Y2368D01*
X4482Y2375D01*
X4478Y2380D01*
X4482Y2385D01*
X4483Y2392D01*
Y2414D01*
X4482Y2420D01*
X4478Y2426D01*
X4472Y2429D01*
X4466Y2431D01*
D02*
G37*
G36*
X2486Y2669D02*
X2444D01*
X2437Y2667D01*
X2432Y2664D01*
X2428Y2659D01*
X2427Y2652D01*
Y2633D01*
X2428Y2627D01*
X2432Y2621D01*
X2437Y2618D01*
X2443Y2617D01*
Y2601D01*
X2439Y2600D01*
X2428Y2592D01*
X2420Y2581D01*
X2415Y2568D01*
X2413Y2555D01*
X2415Y2542D01*
X2420Y2529D01*
X2428Y2518D01*
X2439Y2510D01*
X2443Y2509D01*
Y2484D01*
X2441Y2483D01*
X2438Y2478D01*
X2437Y2471D01*
Y2429D01*
X2438Y2422D01*
X2441Y2417D01*
X2447Y2413D01*
X2453Y2412D01*
X2472D01*
X2479Y2413D01*
X2484Y2417D01*
X2487Y2422D01*
X2489Y2429D01*
Y2471D01*
X2487Y2478D01*
X2487Y2478D01*
Y2509D01*
X2491Y2510D01*
X2502Y2518D01*
X2510Y2529D01*
X2515Y2542D01*
X2517Y2555D01*
X2515Y2568D01*
X2510Y2581D01*
X2502Y2592D01*
X2491Y2600D01*
X2487Y2601D01*
Y2617D01*
X2493Y2618D01*
X2498Y2621D01*
X2502Y2627D01*
X2503Y2633D01*
Y2652D01*
X2502Y2659D01*
X2498Y2664D01*
X2493Y2667D01*
X2486Y2669D01*
D02*
G37*
G36*
X4466Y2191D02*
X4424D01*
X4418Y2189D01*
X4412Y2186D01*
X4408Y2180D01*
X4407Y2174D01*
Y2152D01*
X4408Y2145D01*
X4412Y2140D01*
X4418Y2136D01*
X4418D01*
X4416Y2134D01*
D01*
X4416Y2134D01*
X4416Y2134D01*
X4415Y2127D01*
Y2102D01*
X4415Y2101D01*
X4412Y2097D01*
X4333D01*
Y2013D01*
X4417D01*
Y2027D01*
X4421Y2030D01*
X4426Y2027D01*
X4433Y2025D01*
X4457D01*
X4464Y2027D01*
X4470Y2031D01*
X4472Y2034D01*
X4478D01*
X4480Y2032D01*
X4487Y2031D01*
X4499D01*
X4506Y2032D01*
X4512Y2036D01*
X4512Y2037D01*
X4517D01*
X4518Y2036D01*
X4524Y2032D01*
X4531Y2031D01*
X4543D01*
X4550Y2032D01*
X4552Y2034D01*
X4578D01*
X4586Y2036D01*
X4587Y2037D01*
X4589D01*
X4594Y2038D01*
X4599Y2041D01*
X4602Y2045D01*
X4603Y2051D01*
Y2059D01*
X4602Y2065D01*
X4599Y2069D01*
X4594Y2072D01*
X4589Y2073D01*
X4587D01*
X4586Y2074D01*
X4583Y2075D01*
X4579Y2080D01*
X4583Y2086D01*
X4584Y2092D01*
Y2106D01*
X4583Y2113D01*
X4579Y2118D01*
X4574Y2122D01*
X4567Y2123D01*
X4553D01*
X4546Y2122D01*
X4541Y2118D01*
X4537Y2113D01*
X4532D01*
X4529Y2118D01*
X4524Y2122D01*
X4517Y2123D01*
X4503D01*
X4496Y2122D01*
X4491Y2118D01*
X4487Y2113D01*
X4486Y2106D01*
Y2105D01*
X4479Y2098D01*
X4475Y2100D01*
X4475Y2102D01*
Y2127D01*
X4474Y2134D01*
X4474Y2134D01*
X4474Y2134D01*
D01*
X4472Y2136D01*
X4472D01*
X4478Y2140D01*
X4482Y2145D01*
X4483Y2152D01*
Y2174D01*
X4482Y2180D01*
X4478Y2186D01*
X4472Y2189D01*
X4466Y2191D01*
D02*
G37*
G36*
X3465Y1962D02*
X2145D01*
X2140Y1961D01*
X2136Y1959D01*
X2134Y1955D01*
X2133Y1950D01*
Y1841D01*
X2128Y1839D01*
X2125Y1843D01*
X2120Y1847D01*
X2113Y1848D01*
X2091D01*
X2085Y1847D01*
X2079Y1843D01*
X2076Y1837D01*
X2074Y1831D01*
Y1789D01*
X2076Y1783D01*
X2079Y1777D01*
X2080Y1777D01*
Y1741D01*
X2078Y1738D01*
X2076Y1731D01*
Y1689D01*
X2078Y1682D01*
X2081Y1677D01*
X2084Y1675D01*
Y1637D01*
X2082Y1635D01*
X2081Y1628D01*
Y1616D01*
X2082Y1609D01*
X2086Y1603D01*
X2092Y1599D01*
X2099Y1597D01*
X2111D01*
X2118Y1599D01*
X2124Y1603D01*
X2124Y1604D01*
X2129D01*
X2132Y1601D01*
Y1593D01*
X2133Y1586D01*
X2137Y1581D01*
X2142Y1577D01*
X2148Y1576D01*
X2159D01*
X2186Y1549D01*
X2185Y1546D01*
X2181Y1540D01*
X2180Y1532D01*
Y1488D01*
X2181Y1480D01*
X2185Y1474D01*
X2192Y1470D01*
X2200Y1468D01*
X2236D01*
X2243Y1470D01*
X2250Y1474D01*
X2254Y1480D01*
X2256Y1488D01*
Y1532D01*
X2254Y1540D01*
X2250Y1546D01*
X2243Y1550D01*
X2236Y1552D01*
X2234D01*
X2231Y1556D01*
X2196Y1591D01*
X2197Y1593D01*
Y1601D01*
X2196Y1607D01*
X2194Y1609D01*
X2196Y1612D01*
X2197Y1618D01*
Y1626D01*
X2198Y1628D01*
X2250D01*
X2255Y1629D01*
X2259Y1631D01*
X2261Y1635D01*
X2262Y1640D01*
Y1727D01*
X2262Y1728D01*
Y1729D01*
X2262Y1730D01*
X2261Y1731D01*
X2261Y1732D01*
X2260Y1734D01*
X2259Y1734D01*
X2259Y1735D01*
X2259Y1736D01*
X2260Y1736D01*
X2261Y1738D01*
X2261Y1739D01*
X2262Y1740D01*
X2262Y1741D01*
Y1742D01*
X2262Y1743D01*
Y1777D01*
X2262Y1778D01*
Y1779D01*
X2262Y1780D01*
X2261Y1781D01*
X2261Y1782D01*
X2260Y1784D01*
X2259Y1784D01*
X2259Y1785D01*
X2259Y1786D01*
X2260Y1786D01*
X2261Y1788D01*
X2261Y1789D01*
X2262Y1790D01*
X2262Y1791D01*
Y1792D01*
X2262Y1793D01*
Y1813D01*
X3288D01*
Y1637D01*
X3283Y1634D01*
X3280Y1637D01*
X3274Y1638D01*
X3252D01*
X3245Y1637D01*
X3240Y1633D01*
X3237Y1629D01*
X3232D01*
X3230Y1631D01*
X3224Y1635D01*
X3217Y1637D01*
X3183D01*
X3176Y1635D01*
X3170Y1631D01*
X3165Y1625D01*
X3164Y1617D01*
Y1584D01*
X3165Y1577D01*
X3170Y1570D01*
X3176Y1566D01*
X3178Y1566D01*
Y1549D01*
X3175Y1548D01*
X3173Y1547D01*
X3152Y1568D01*
X3154Y1570D01*
X3155Y1578D01*
Y1622D01*
X3154Y1630D01*
X3150Y1636D01*
X3143Y1640D01*
X3144Y1646D01*
X3145Y1647D01*
X3149Y1653D01*
X3150Y1659D01*
Y1662D01*
X3164D01*
X3165Y1655D01*
X3170Y1649D01*
X3176Y1645D01*
X3183Y1643D01*
X3217D01*
X3224Y1645D01*
X3230Y1649D01*
X3235Y1655D01*
X3236Y1663D01*
Y1696D01*
X3235Y1703D01*
X3230Y1710D01*
X3224Y1714D01*
X3217Y1715D01*
X3183D01*
X3176Y1714D01*
X3170Y1710D01*
X3165Y1703D01*
X3164Y1698D01*
X3150D01*
Y1701D01*
X3149Y1707D01*
X3145Y1713D01*
X3140Y1717D01*
X3133Y1718D01*
X3111D01*
X3105Y1717D01*
X3099Y1713D01*
X3096Y1707D01*
X3094Y1701D01*
Y1659D01*
X3096Y1653D01*
X3099Y1647D01*
X3099Y1647D01*
X3099Y1645D01*
X3099Y1642D01*
X3092Y1640D01*
X3085Y1636D01*
X3081Y1630D01*
X3079Y1622D01*
Y1578D01*
X3081Y1570D01*
X3085Y1564D01*
X3092Y1560D01*
X3099Y1558D01*
X3110D01*
X3139Y1529D01*
X3138Y1527D01*
Y1519D01*
X3139Y1513D01*
X3141Y1511D01*
X3139Y1508D01*
X3138Y1502D01*
Y1494D01*
X3138Y1492D01*
X3137Y1491D01*
X3131Y1489D01*
X3130Y1489D01*
X3124Y1485D01*
X3104Y1465D01*
X3100Y1459D01*
X3100Y1458D01*
X3099Y1452D01*
Y1445D01*
Y1412D01*
X3092Y1410D01*
X3085Y1406D01*
X3081Y1400D01*
X3079Y1392D01*
Y1348D01*
X3081Y1340D01*
X3085Y1334D01*
X3088Y1332D01*
X3088Y1332D01*
Y1327D01*
X3083Y1324D01*
X3079Y1318D01*
X3077Y1311D01*
Y1299D01*
X3079Y1292D01*
X3083Y1286D01*
X3089Y1282D01*
X3096Y1281D01*
X3099D01*
Y1275D01*
X3096Y1273D01*
X3093Y1268D01*
X3091Y1261D01*
Y1219D01*
X3093Y1212D01*
X3096Y1207D01*
X3101Y1203D01*
X3108Y1202D01*
X3127D01*
X3133Y1203D01*
X3139Y1207D01*
X3142Y1212D01*
X3143Y1219D01*
Y1222D01*
X3182D01*
Y1219D01*
X3183Y1212D01*
X3186Y1207D01*
X3192Y1203D01*
X3198Y1202D01*
X3217D01*
X3224Y1203D01*
X3226Y1205D01*
X3230Y1203D01*
Y1135D01*
X3231Y1130D01*
X3234Y1126D01*
X3238Y1124D01*
X3243Y1123D01*
X3428D01*
X3432Y1124D01*
X3436Y1126D01*
X3439Y1130D01*
X3440Y1135D01*
Y1410D01*
X3439Y1415D01*
X3436Y1419D01*
X3432Y1421D01*
X3428Y1422D01*
X3243D01*
X3238Y1421D01*
X3234Y1419D01*
X3231Y1415D01*
X3230Y1410D01*
Y1409D01*
X3226Y1406D01*
X3225Y1407D01*
X3219Y1408D01*
X3197D01*
X3190Y1407D01*
X3185Y1403D01*
X3181Y1397D01*
X3180Y1391D01*
Y1388D01*
X3155D01*
Y1392D01*
X3154Y1400D01*
X3150Y1406D01*
X3143Y1410D01*
X3136Y1412D01*
Y1428D01*
X3147D01*
X3148Y1427D01*
X3155Y1426D01*
X3187D01*
X3193Y1427D01*
X3198Y1431D01*
X3202Y1436D01*
X3203Y1443D01*
Y1447D01*
X3207Y1449D01*
X3210Y1447D01*
X3217Y1446D01*
X3229D01*
X3236Y1447D01*
X3242Y1451D01*
X3246Y1457D01*
X3248Y1464D01*
Y1476D01*
X3246Y1483D01*
X3246Y1483D01*
Y1497D01*
Y1512D01*
X3246Y1512D01*
X3248Y1519D01*
Y1531D01*
X3246Y1538D01*
X3242Y1544D01*
X3236Y1548D01*
X3231Y1549D01*
X3222Y1558D01*
Y1566D01*
X3224Y1566D01*
X3230Y1570D01*
X3231Y1572D01*
X3232Y1572D01*
X3236D01*
X3240Y1567D01*
X3245Y1563D01*
X3252Y1562D01*
X3269D01*
X3319Y1512D01*
X3327Y1507D01*
X3335Y1505D01*
X3474D01*
X3477Y1503D01*
X3484Y1501D01*
X3526D01*
X3533Y1503D01*
X3538Y1506D01*
X3542Y1511D01*
X3543Y1518D01*
Y1537D01*
X3543Y1539D01*
X3546Y1543D01*
X3695D01*
X3700Y1544D01*
X3704Y1546D01*
X3706Y1550D01*
X3707Y1555D01*
Y1558D01*
X3711Y1561D01*
X3717Y1560D01*
X3742D01*
X3749Y1561D01*
X3754Y1565D01*
X3758Y1571D01*
X3758Y1572D01*
X3772D01*
Y1569D01*
X3773Y1562D01*
X3776Y1558D01*
X3773Y1553D01*
X3764D01*
X3757Y1552D01*
X3752Y1549D01*
X3748Y1543D01*
X3747Y1537D01*
Y1518D01*
X3748Y1511D01*
X3752Y1506D01*
X3757Y1503D01*
X3764Y1501D01*
X3806D01*
X3813Y1503D01*
X3818Y1506D01*
X3822Y1511D01*
X3823Y1518D01*
Y1537D01*
X3822Y1543D01*
X3818Y1549D01*
X3816Y1550D01*
Y1555D01*
X3819Y1557D01*
X3822Y1562D01*
X3824Y1569D01*
Y1611D01*
X3822Y1618D01*
X3819Y1623D01*
X3816Y1625D01*
Y1630D01*
X3819Y1632D01*
X3822Y1637D01*
X3824Y1644D01*
Y1686D01*
X3822Y1693D01*
X3819Y1698D01*
X3814Y1702D01*
X3807Y1703D01*
X3788D01*
X3782Y1702D01*
X3776Y1698D01*
X3773Y1693D01*
X3772Y1686D01*
Y1644D01*
X3773Y1637D01*
X3776Y1632D01*
X3779Y1630D01*
Y1625D01*
X3776Y1623D01*
X3773Y1618D01*
X3772Y1611D01*
Y1608D01*
X3758D01*
X3758Y1609D01*
X3754Y1615D01*
X3749Y1619D01*
X3742Y1620D01*
X3717D01*
X3711Y1619D01*
X3707Y1622D01*
Y1700D01*
X3706Y1705D01*
X3704Y1709D01*
X3700Y1711D01*
X3695Y1712D01*
X3477D01*
Y1950D01*
X3476Y1955D01*
X3474Y1959D01*
X3470Y1961D01*
X3465Y1962D01*
D02*
G37*
G36*
X4466Y2311D02*
X4424D01*
X4418Y2309D01*
X4412Y2306D01*
X4408Y2300D01*
X4407Y2294D01*
Y2272D01*
X4408Y2265D01*
X4412Y2260D01*
X4408Y2255D01*
X4407Y2248D01*
Y2226D01*
X4408Y2220D01*
X4412Y2214D01*
X4418Y2211D01*
X4424Y2209D01*
X4466D01*
X4472Y2211D01*
X4478Y2214D01*
X4482Y2220D01*
X4483Y2226D01*
Y2248D01*
X4482Y2255D01*
X4478Y2260D01*
X4482Y2265D01*
X4483Y2272D01*
Y2294D01*
X4482Y2300D01*
X4478Y2306D01*
X4472Y2309D01*
X4466Y2311D01*
D02*
G37*
G36*
X3185Y2577D02*
X3128D01*
X3119Y2576D01*
X3112Y2571D01*
X3107Y2564D01*
X3106Y2555D01*
X3107Y2546D01*
X3112Y2539D01*
X3119Y2534D01*
X3128Y2533D01*
X3185D01*
X3194Y2534D01*
X3201Y2539D01*
X3206Y2546D01*
X3207Y2555D01*
X3206Y2564D01*
X3201Y2571D01*
X3194Y2576D01*
X3185Y2577D01*
D02*
G37*
G36*
X4428Y2876D02*
X4423D01*
X4420Y2875D01*
X4418Y2871D01*
Y2855D01*
X4428D01*
Y2876D01*
D02*
G37*
G36*
X4444Y3071D02*
X4438D01*
Y3050D01*
X4449D01*
Y3066D01*
X4447Y3069D01*
X4444Y3071D01*
D02*
G37*
G36*
X4502D02*
X4496D01*
X4493Y3069D01*
X4491Y3066D01*
Y3050D01*
X4502D01*
Y3071D01*
D02*
G37*
G36*
X4579Y3040D02*
X4568D01*
Y3019D01*
X4574D01*
X4577Y3021D01*
X4579Y3024D01*
Y3040D01*
D02*
G37*
G36*
X4428Y3071D02*
X4422D01*
X4418Y3069D01*
X4416Y3066D01*
Y3050D01*
X4428D01*
Y3071D01*
D02*
G37*
G36*
X4574D02*
X4568D01*
Y3050D01*
X4579D01*
Y3066D01*
X4577Y3069D01*
X4574Y3071D01*
D02*
G37*
G36*
X4444Y3100D02*
X4437D01*
Y3098D01*
X4439Y3094D01*
X4442Y3093D01*
X4444D01*
Y3100D01*
D02*
G37*
G36*
X4518Y3071D02*
X4512D01*
Y3050D01*
X4524D01*
Y3066D01*
X4522Y3069D01*
X4518Y3071D01*
D02*
G37*
G36*
X4558D02*
X4552D01*
X4548Y3069D01*
X4546Y3066D01*
Y3050D01*
X4558D01*
Y3071D01*
D02*
G37*
G36*
X4443Y2922D02*
X4442D01*
X4438Y2920D01*
X4436Y2916D01*
Y2915D01*
X4443D01*
Y2922D01*
D02*
G37*
G36*
X4428Y3040D02*
X4416D01*
Y3024D01*
X4418Y3021D01*
X4422Y3019D01*
X4428D01*
Y3040D01*
D02*
G37*
G36*
X4442Y2876D02*
X4438D01*
Y2855D01*
X4447D01*
Y2871D01*
X4445Y2875D01*
X4442Y2876D01*
D02*
G37*
G36*
X4443Y2905D02*
X4436D01*
Y2904D01*
X4438Y2900D01*
X4442Y2898D01*
X4443D01*
Y2905D01*
D02*
G37*
G36*
X4524Y3040D02*
X4512D01*
Y3019D01*
X4518D01*
X4522Y3021D01*
X4524Y3024D01*
Y3040D01*
D02*
G37*
G36*
X4558D02*
X4546D01*
Y3024D01*
X4548Y3021D01*
X4552Y3019D01*
X4558D01*
Y3040D01*
D02*
G37*
G36*
X4449D02*
X4438D01*
Y3019D01*
X4444D01*
X4447Y3021D01*
X4449Y3024D01*
Y3040D01*
D02*
G37*
G36*
X4502D02*
X4491D01*
Y3024D01*
X4493Y3021D01*
X4496Y3019D01*
X4502D01*
Y3040D01*
D02*
G37*
G36*
X1596Y4467D02*
X1575D01*
Y4458D01*
X1591D01*
X1595Y4460D01*
X1596Y4463D01*
Y4467D01*
D02*
G37*
G36*
X1445Y4498D02*
X1428D01*
X1425Y4498D01*
X1423Y4496D01*
X1421Y4493D01*
X1420Y4490D01*
Y4477D01*
X1445D01*
Y4498D01*
D02*
G37*
G36*
X1565Y4467D02*
X1544D01*
Y4463D01*
X1545Y4460D01*
X1549Y4458D01*
X1565D01*
Y4467D01*
D02*
G37*
G36*
X1335Y4470D02*
X1316D01*
Y4463D01*
X1317Y4459D01*
X1320Y4455D01*
X1324Y4452D01*
X1328Y4451D01*
X1335D01*
Y4470D01*
D02*
G37*
G36*
X1364D02*
X1345D01*
Y4451D01*
X1352D01*
X1356Y4452D01*
X1360Y4455D01*
X1363Y4459D01*
X1364Y4463D01*
Y4470D01*
D02*
G37*
G36*
X1085Y4504D02*
X1082Y4504D01*
X1075Y4501D01*
X1069Y4496D01*
X1064Y4490D01*
X1061Y4483D01*
X1061Y4480D01*
X1085D01*
Y4504D01*
D02*
G37*
G36*
X1095D02*
Y4480D01*
X1119D01*
X1119Y4483D01*
X1116Y4490D01*
X1111Y4496D01*
X1105Y4501D01*
X1098Y4504D01*
X1095Y4504D01*
D02*
G37*
G36*
X1591Y4487D02*
X1575D01*
Y4477D01*
X1596D01*
Y4482D01*
X1595Y4485D01*
X1591Y4487D01*
D02*
G37*
G36*
X1472Y4498D02*
X1455D01*
Y4477D01*
X1480D01*
Y4490D01*
X1479Y4493D01*
X1477Y4496D01*
X1475Y4498D01*
X1472Y4498D01*
D02*
G37*
G36*
X1565Y4487D02*
X1549D01*
X1545Y4485D01*
X1544Y4482D01*
Y4477D01*
X1565D01*
Y4487D01*
D02*
G37*
G36*
X1340Y4350D02*
X1290D01*
Y4312D01*
X1340D01*
Y4350D01*
D02*
G37*
G36*
X1280Y4398D02*
X1230D01*
Y4360D01*
X1280D01*
Y4398D01*
D02*
G37*
G36*
Y4350D02*
X1230D01*
Y4312D01*
X1280D01*
Y4350D01*
D02*
G37*
G36*
X4016Y4230D02*
X3974D01*
X3968Y4229D01*
X3962Y4225D01*
X3962Y4225D01*
X3952D01*
X3944Y4223D01*
X3937Y4218D01*
X3884Y4166D01*
X3879Y4159D01*
X3878Y4150D01*
Y3465D01*
X3879Y3456D01*
X3884Y3449D01*
X4043Y3291D01*
Y3273D01*
X4036Y3269D01*
X4031Y3261D01*
X4029Y3252D01*
Y3228D01*
X4031Y3219D01*
X4036Y3211D01*
X4043Y3207D01*
Y3148D01*
X4036Y3144D01*
X4031Y3136D01*
X4029Y3127D01*
Y3103D01*
X4031Y3094D01*
X4036Y3086D01*
X4043Y3082D01*
Y3035D01*
X4000D01*
Y3005D01*
X3995Y3003D01*
X3991Y3010D01*
X3985Y3014D01*
X3977Y3015D01*
X3933D01*
X3925Y3014D01*
X3919Y3010D01*
X3915Y3003D01*
X3914Y3000D01*
X3908D01*
X3908Y3000D01*
X3902Y3004D01*
X3896Y3005D01*
X3854D01*
X3848Y3004D01*
X3842Y3000D01*
X3839Y2997D01*
X3834D01*
X3833Y2999D01*
X3828Y3002D01*
X3821Y3003D01*
X3779D01*
X3772Y3002D01*
X3769Y3000D01*
X3756D01*
X3753Y3002D01*
X3746Y3003D01*
X3704D01*
X3697Y3002D01*
X3692Y2999D01*
X3688Y2993D01*
X3687Y2987D01*
Y2968D01*
X3688Y2961D01*
X3692Y2956D01*
X3697Y2953D01*
X3704Y2951D01*
X3746D01*
X3753Y2953D01*
X3756Y2955D01*
X3769D01*
X3772Y2953D01*
X3779Y2951D01*
X3782D01*
X3784Y2947D01*
X3782Y2943D01*
X3780Y2935D01*
Y2903D01*
X3782Y2895D01*
X3786Y2889D01*
X3792Y2884D01*
X3800Y2883D01*
X3808Y2884D01*
X3814Y2889D01*
X3818Y2895D01*
X3820Y2903D01*
Y2935D01*
X3818Y2943D01*
X3816Y2947D01*
X3818Y2951D01*
X3821D01*
X3828Y2953D01*
X3833Y2956D01*
X3834Y2958D01*
X3839D01*
X3842Y2954D01*
X3848Y2951D01*
X3854Y2949D01*
X3856D01*
X3858Y2945D01*
X3857Y2943D01*
X3855Y2935D01*
Y2903D01*
X3857Y2895D01*
X3861Y2889D01*
X3867Y2884D01*
X3875Y2883D01*
X3883Y2884D01*
X3889Y2889D01*
X3893Y2895D01*
X3895Y2903D01*
Y2935D01*
X3893Y2943D01*
X3892Y2945D01*
X3894Y2949D01*
X3896D01*
X3902Y2951D01*
X3908Y2954D01*
X3908Y2955D01*
X3914D01*
X3915Y2952D01*
X3919Y2945D01*
X3923Y2943D01*
Y2938D01*
X3919Y2935D01*
X3915Y2928D01*
X3913Y2921D01*
Y2885D01*
X3915Y2877D01*
X3919Y2870D01*
X3922Y2869D01*
X3922Y2866D01*
X3919Y2862D01*
X3906D01*
X3902Y2864D01*
X3896Y2865D01*
X3854D01*
X3848Y2864D01*
X3844Y2862D01*
X3831D01*
X3827Y2864D01*
X3821Y2865D01*
X3779D01*
X3773Y2864D01*
X3769Y2862D01*
X3760D01*
X3760Y2863D01*
X3755Y2870D01*
X3751Y2873D01*
X3752Y2878D01*
X3753Y2878D01*
X3758Y2881D01*
X3762Y2887D01*
X3763Y2893D01*
Y2912D01*
X3762Y2919D01*
X3758Y2924D01*
X3753Y2927D01*
X3746Y2929D01*
X3704D01*
X3697Y2927D01*
X3694Y2925D01*
X3683D01*
X3683Y2926D01*
X3677Y2929D01*
X3671Y2931D01*
X3629D01*
X3623Y2929D01*
X3617Y2926D01*
X3617Y2925D01*
X3549D01*
X3545Y2927D01*
X3535Y2928D01*
X3525Y2927D01*
X3516Y2923D01*
X3508Y2917D01*
X3502Y2909D01*
X3498Y2900D01*
X3497Y2890D01*
X3498Y2880D01*
X3502Y2871D01*
X3508Y2863D01*
X3516Y2857D01*
X3525Y2853D01*
X3535Y2852D01*
X3545Y2853D01*
X3554Y2857D01*
X3562Y2863D01*
X3568Y2871D01*
X3572Y2880D01*
X3617D01*
X3617Y2880D01*
X3623Y2876D01*
X3629Y2875D01*
X3671D01*
X3677Y2876D01*
X3683Y2880D01*
X3683Y2880D01*
X3694D01*
X3697Y2878D01*
X3698Y2878D01*
X3699Y2873D01*
X3695Y2870D01*
X3690Y2863D01*
X3689Y2856D01*
Y2823D01*
X3690Y2815D01*
X3695Y2809D01*
X3701Y2805D01*
X3708Y2803D01*
X3742D01*
X3749Y2805D01*
X3755Y2809D01*
X3760Y2815D01*
X3760Y2817D01*
X3765D01*
X3767Y2814D01*
X3773Y2811D01*
X3779Y2809D01*
X3821D01*
X3827Y2811D01*
X3833Y2814D01*
X3835Y2817D01*
X3840D01*
X3842Y2814D01*
X3848Y2811D01*
X3854Y2809D01*
X3896D01*
X3902Y2811D01*
X3908Y2814D01*
X3910Y2817D01*
X3929D01*
X3938Y2819D01*
X3944Y2823D01*
X3948Y2819D01*
X3945Y2816D01*
X3940Y2803D01*
X3938Y2790D01*
X3938Y2789D01*
X3935Y2785D01*
X3908D01*
X3908Y2786D01*
X3902Y2789D01*
X3896Y2791D01*
X3854D01*
X3848Y2789D01*
X3842Y2786D01*
X3840Y2783D01*
X3835D01*
X3833Y2786D01*
X3827Y2789D01*
X3821Y2791D01*
X3779D01*
X3773Y2789D01*
X3767Y2786D01*
X3765Y2782D01*
X3760Y2783D01*
X3760Y2785D01*
X3755Y2791D01*
X3749Y2795D01*
X3742Y2797D01*
X3708D01*
X3701Y2795D01*
X3695Y2791D01*
X3691Y2785D01*
X3683D01*
X3683Y2786D01*
X3677Y2789D01*
X3671Y2791D01*
X3629D01*
X3623Y2789D01*
X3617Y2786D01*
X3613Y2780D01*
X3612Y2774D01*
Y2752D01*
X3613Y2745D01*
X3617Y2740D01*
X3623Y2736D01*
X3629Y2735D01*
X3671D01*
X3677Y2736D01*
X3683Y2740D01*
X3683Y2740D01*
X3690D01*
X3690Y2737D01*
X3695Y2730D01*
X3701Y2726D01*
X3708Y2725D01*
X3742D01*
X3749Y2726D01*
X3755Y2730D01*
X3760Y2737D01*
X3760Y2741D01*
X3765Y2742D01*
X3767Y2740D01*
X3773Y2736D01*
X3778Y2735D01*
Y2718D01*
X3772Y2717D01*
X3767Y2714D01*
X3766Y2712D01*
X3759D01*
X3758Y2714D01*
X3753Y2717D01*
X3746Y2718D01*
X3704D01*
X3697Y2717D01*
X3692Y2714D01*
X3691Y2712D01*
X3685D01*
X3683Y2715D01*
X3677Y2719D01*
X3671Y2720D01*
X3629D01*
X3623Y2719D01*
X3617Y2715D01*
X3615Y2712D01*
X3573D01*
Y2728D01*
X3511D01*
X3509Y2732D01*
X3530Y2753D01*
X3535Y2752D01*
X3545Y2753D01*
X3554Y2757D01*
X3562Y2763D01*
X3568Y2771D01*
X3572Y2780D01*
X3573Y2790D01*
X3572Y2800D01*
X3568Y2809D01*
X3562Y2817D01*
X3554Y2823D01*
X3545Y2827D01*
X3535Y2828D01*
X3525Y2827D01*
X3516Y2823D01*
X3508Y2817D01*
X3502Y2809D01*
X3498Y2800D01*
X3497Y2790D01*
X3498Y2785D01*
X3459Y2746D01*
X3454Y2739D01*
X3453Y2730D01*
Y2530D01*
X3452Y2530D01*
X3443Y2522D01*
X3435Y2513D01*
X3431Y2502D01*
X3429Y2490D01*
X3431Y2478D01*
X3435Y2467D01*
X3443Y2458D01*
X3452Y2450D01*
X3463Y2446D01*
X3475Y2444D01*
X3487Y2446D01*
X3487Y2446D01*
X3522Y2412D01*
X3529Y2407D01*
X3538Y2405D01*
X3619D01*
X3622Y2403D01*
X3629Y2401D01*
X3671D01*
X3678Y2403D01*
X3683Y2406D01*
X3687Y2411D01*
X3688Y2418D01*
Y2437D01*
X3687Y2443D01*
X3683Y2449D01*
X3678Y2452D01*
X3672Y2453D01*
Y2590D01*
X3677Y2591D01*
X3683Y2595D01*
X3687Y2600D01*
X3688Y2607D01*
Y2629D01*
X3687Y2635D01*
X3683Y2641D01*
X3677Y2644D01*
X3671Y2646D01*
X3629D01*
X3623Y2644D01*
X3617Y2641D01*
X3613Y2635D01*
X3612Y2629D01*
Y2607D01*
X3613Y2600D01*
X3617Y2595D01*
X3623Y2591D01*
X3628Y2590D01*
Y2453D01*
X3622Y2452D01*
X3619Y2450D01*
X3547D01*
X3519Y2478D01*
X3519Y2478D01*
X3521Y2490D01*
X3519Y2502D01*
X3515Y2513D01*
X3507Y2522D01*
X3498Y2530D01*
X3497Y2530D01*
Y2652D01*
X3573D01*
Y2668D01*
X3620D01*
X3623Y2666D01*
X3629Y2664D01*
X3671D01*
X3677Y2666D01*
X3680Y2668D01*
X3697D01*
X3697Y2668D01*
X3704Y2666D01*
X3746D01*
X3753Y2668D01*
X3753Y2668D01*
X3772D01*
X3772Y2668D01*
X3779Y2666D01*
X3821D01*
X3828Y2668D01*
X3833Y2671D01*
X3837Y2676D01*
X3838Y2683D01*
Y2702D01*
X3837Y2708D01*
X3833Y2714D01*
X3828Y2717D01*
X3822Y2718D01*
Y2735D01*
X3827Y2736D01*
X3833Y2740D01*
X3835Y2743D01*
X3840D01*
X3842Y2740D01*
X3848Y2736D01*
X3853Y2735D01*
Y2189D01*
X3644Y1981D01*
X3639Y1974D01*
X3638Y1965D01*
Y1880D01*
X3639Y1871D01*
X3644Y1864D01*
X3694Y1814D01*
X3701Y1809D01*
X3710Y1808D01*
X3719Y1809D01*
X3724Y1813D01*
X3734D01*
X3734Y1808D01*
X3729Y1807D01*
X3727Y1806D01*
X3724Y1803D01*
X3724Y1803D01*
X3723Y1802D01*
X3719Y1797D01*
X3718Y1790D01*
X3719Y1783D01*
X3723Y1778D01*
X3728Y1774D01*
X3735Y1773D01*
X3739Y1773D01*
X3768D01*
X3768Y1773D01*
Y1744D01*
X3768Y1740D01*
X3769Y1733D01*
X3773Y1728D01*
X3778Y1724D01*
X3785Y1723D01*
X3792Y1724D01*
X3797Y1728D01*
X3798Y1729D01*
X3798Y1729D01*
X3801Y1732D01*
X3802Y1734D01*
X3803Y1741D01*
X3803Y1741D01*
Y1755D01*
X3834D01*
X3836Y1751D01*
X3834Y1748D01*
X3832Y1741D01*
Y1729D01*
X3834Y1722D01*
X3838Y1716D01*
X3844Y1712D01*
X3851Y1711D01*
X3854D01*
Y1700D01*
X3851Y1698D01*
X3848Y1693D01*
X3846Y1686D01*
Y1644D01*
X3848Y1637D01*
X3851Y1632D01*
X3854Y1630D01*
Y1625D01*
X3851Y1623D01*
X3848Y1618D01*
X3846Y1611D01*
Y1569D01*
X3848Y1562D01*
X3851Y1557D01*
X3854Y1555D01*
Y1550D01*
X3852Y1549D01*
X3848Y1543D01*
X3847Y1537D01*
Y1518D01*
X3848Y1511D01*
X3852Y1506D01*
X3857Y1503D01*
X3864Y1501D01*
X3906D01*
X3913Y1503D01*
X3918Y1506D01*
X3922Y1511D01*
X3923Y1518D01*
Y1537D01*
X3922Y1543D01*
X3918Y1549D01*
X3913Y1552D01*
X3906Y1553D01*
X3897D01*
X3894Y1558D01*
X3897Y1562D01*
X3898Y1569D01*
Y1611D01*
X3897Y1618D01*
X3894Y1623D01*
X3891Y1625D01*
Y1630D01*
X3894Y1632D01*
X3897Y1637D01*
X3898Y1644D01*
Y1686D01*
X3897Y1693D01*
X3894Y1698D01*
X3891Y1700D01*
Y1713D01*
X3895Y1716D01*
X3900Y1712D01*
X3907Y1711D01*
X3919D01*
X3926Y1712D01*
X3932Y1716D01*
X3936Y1722D01*
X3938Y1729D01*
Y1741D01*
X3936Y1748D01*
X3932Y1754D01*
X3926Y1758D01*
X3919Y1759D01*
X3915D01*
X3905Y1769D01*
X3907Y1773D01*
X3931D01*
X3935Y1773D01*
X3942Y1774D01*
X3947Y1778D01*
X3951Y1783D01*
X3952Y1790D01*
X3951Y1797D01*
X3947Y1802D01*
X3949Y1807D01*
X3951Y1807D01*
X3957Y1811D01*
X3957Y1812D01*
X3963D01*
X3963Y1811D01*
X3969Y1807D01*
X3976Y1806D01*
X3986D01*
X3988Y1802D01*
X3997Y1794D01*
X4003Y1790D01*
X4010Y1789D01*
X4010Y1789D01*
X4014Y1785D01*
X4014Y1785D01*
X4015Y1778D01*
X4019Y1772D01*
X4027Y1763D01*
X4033Y1759D01*
X4033Y1759D01*
X4033D01*
X4034Y1759D01*
D01*
X4034Y1759D01*
X4033Y1751D01*
Y1701D01*
X4034Y1692D01*
X4039Y1685D01*
X4041Y1683D01*
X4042Y1677D01*
X4046Y1672D01*
X4051Y1668D01*
X4058Y1667D01*
X4072D01*
X4079Y1668D01*
X4084Y1672D01*
X4088Y1677D01*
X4089Y1684D01*
Y1698D01*
X4089Y1700D01*
X4093Y1702D01*
X4116Y1680D01*
X4116Y1676D01*
X4120Y1671D01*
X4126Y1667D01*
X4129Y1667D01*
X4173Y1622D01*
Y1568D01*
X4257D01*
Y1652D01*
X4203D01*
X4163Y1691D01*
Y1697D01*
X4162Y1704D01*
X4158Y1709D01*
X4153Y1713D01*
X4146Y1714D01*
X4140D01*
X4121Y1733D01*
X4121Y1737D01*
X4117Y1743D01*
X4108Y1751D01*
X4102Y1755D01*
X4095Y1756D01*
X4095Y1756D01*
X4091Y1760D01*
X4091Y1760D01*
X4090Y1767D01*
X4086Y1773D01*
X4078Y1782D01*
X4072Y1786D01*
X4071Y1786D01*
X4066Y1791D01*
X4066Y1792D01*
X4062Y1798D01*
X4053Y1806D01*
X4047Y1810D01*
X4040Y1811D01*
X4040Y1811D01*
X4036Y1815D01*
X4036Y1815D01*
X4035Y1822D01*
X4031Y1828D01*
X4029Y1830D01*
X4031Y1832D01*
X4035Y1838D01*
X4036Y1845D01*
X4036Y1845D01*
X4040Y1849D01*
X4040Y1849D01*
X4047Y1850D01*
X4053Y1854D01*
X4062Y1862D01*
X4066Y1868D01*
X4066Y1872D01*
X4068Y1874D01*
X4072Y1874D01*
X4078Y1878D01*
X4086Y1887D01*
X4090Y1893D01*
X4091Y1900D01*
X4091Y1900D01*
X4095Y1904D01*
X4095Y1904D01*
X4102Y1905D01*
X4108Y1909D01*
X4117Y1917D01*
X4121Y1923D01*
X4121Y1927D01*
X4140Y1946D01*
X4141D01*
X4148Y1947D01*
X4153Y1951D01*
X4157Y1956D01*
X4158Y1963D01*
Y1968D01*
X4203Y2013D01*
X4257D01*
Y2097D01*
X4173D01*
Y2042D01*
X4125Y1994D01*
X4121Y1993D01*
X4115Y1989D01*
X4111Y1984D01*
X4110Y1977D01*
Y1975D01*
X4095Y1960D01*
X4091Y1961D01*
X4089Y1969D01*
Y1971D01*
X4088Y1978D01*
X4084Y1983D01*
X4079Y1987D01*
X4072Y1988D01*
X4058D01*
X4051Y1987D01*
X4046Y1983D01*
X4042Y1978D01*
X4041Y1971D01*
Y1970D01*
X4040Y1969D01*
X4036Y1962D01*
X4034Y1954D01*
X4034Y1954D01*
Y1909D01*
X4034Y1909D01*
X4036Y1901D01*
D01*
X4033Y1901D01*
X4033D01*
X4033Y1901D01*
X4027Y1897D01*
X4019Y1888D01*
X4015Y1882D01*
X4014Y1875D01*
X4014Y1875D01*
X4010Y1871D01*
X4010Y1871D01*
X4003Y1870D01*
X3997Y1866D01*
X3988Y1858D01*
X3986Y1854D01*
X3976D01*
X3969Y1853D01*
X3963Y1849D01*
X3963Y1848D01*
X3957D01*
X3957Y1849D01*
X3951Y1853D01*
X3944Y1854D01*
X3932D01*
X3925Y1853D01*
X3924Y1852D01*
X3920Y1854D01*
Y1870D01*
Y1872D01*
X3934D01*
X3941Y1873D01*
X3946Y1877D01*
X3950Y1883D01*
X3952Y1889D01*
X3950Y1896D01*
X3946Y1901D01*
X3941Y1905D01*
X3934Y1907D01*
X3902D01*
X3896Y1905D01*
X3890Y1901D01*
X3886Y1896D01*
X3885Y1889D01*
Y1870D01*
Y1850D01*
X3885Y1849D01*
X3884Y1848D01*
X3884D01*
Y1832D01*
X3884Y1830D01*
X3884Y1828D01*
Y1812D01*
X3884D01*
X3885Y1811D01*
X3885Y1810D01*
Y1791D01*
X3881D01*
X3875Y1790D01*
X3872Y1788D01*
X3871Y1789D01*
X3865Y1790D01*
X3814D01*
X3813Y1795D01*
X3818Y1798D01*
X3847Y1828D01*
X3851Y1833D01*
X3852Y1840D01*
X3851Y1847D01*
X3847Y1852D01*
X3837Y1862D01*
X3832Y1866D01*
X3825Y1867D01*
X3819Y1866D01*
X3813Y1862D01*
X3809Y1856D01*
X3808Y1850D01*
X3809Y1843D01*
X3811Y1840D01*
X3793Y1823D01*
X3790Y1818D01*
X3786Y1820D01*
Y1848D01*
X3786D01*
X3785Y1849D01*
X3785Y1850D01*
Y1870D01*
Y1889D01*
X3784Y1896D01*
X3780Y1901D01*
X3774Y1905D01*
X3768Y1907D01*
X3736D01*
X3729Y1905D01*
X3724Y1901D01*
X3720Y1896D01*
X3718Y1889D01*
X3720Y1883D01*
X3724Y1877D01*
X3729Y1873D01*
X3736Y1872D01*
X3750D01*
Y1870D01*
Y1850D01*
X3739Y1847D01*
X3724D01*
X3682Y1889D01*
Y1956D01*
X3891Y2164D01*
X3896Y2171D01*
X3897Y2180D01*
Y2735D01*
X3902Y2736D01*
X3908Y2740D01*
X3908Y2740D01*
X3963D01*
X3971Y2742D01*
X3971Y2742D01*
X3977Y2740D01*
X3990Y2738D01*
X4003Y2740D01*
X4007Y2741D01*
X4027Y2721D01*
X4025Y2718D01*
X4023Y2710D01*
Y2674D01*
X4025Y2667D01*
X4029Y2660D01*
X4033Y2658D01*
Y2652D01*
X4029Y2650D01*
X4025Y2643D01*
X4024Y2640D01*
X3988D01*
X3988Y2641D01*
X3982Y2644D01*
X3976Y2646D01*
X3934D01*
X3928Y2644D01*
X3922Y2641D01*
X3918Y2635D01*
X3917Y2629D01*
Y2607D01*
X3918Y2600D01*
X3922Y2595D01*
X3928Y2591D01*
X3934Y2590D01*
X3976D01*
X3982Y2591D01*
X3988Y2595D01*
X3988Y2595D01*
X4024D01*
X4025Y2592D01*
X4029Y2585D01*
X4035Y2581D01*
X4043Y2580D01*
X4087D01*
X4095Y2581D01*
X4101Y2585D01*
X4105Y2592D01*
X4107Y2600D01*
Y2636D01*
X4105Y2643D01*
X4101Y2650D01*
X4097Y2652D01*
Y2658D01*
X4101Y2660D01*
X4105Y2667D01*
X4107Y2674D01*
Y2710D01*
X4105Y2718D01*
X4101Y2725D01*
X4095Y2729D01*
X4087Y2730D01*
X4081D01*
X4081Y2731D01*
X4039Y2773D01*
X4040Y2777D01*
X4042Y2790D01*
X4040Y2803D01*
X4039Y2807D01*
X4077Y2845D01*
X4130D01*
Y2921D01*
X4027D01*
X4025Y2925D01*
X4059Y2959D01*
X4130D01*
Y3035D01*
X4087D01*
Y3081D01*
X4094Y3086D01*
X4099Y3094D01*
X4101Y3103D01*
Y3127D01*
X4099Y3136D01*
X4094Y3144D01*
X4087Y3149D01*
Y3207D01*
X4094Y3211D01*
X4099Y3219D01*
X4101Y3228D01*
Y3252D01*
X4099Y3261D01*
X4094Y3269D01*
X4087Y3273D01*
Y3300D01*
X4086Y3309D01*
X4081Y3316D01*
X3922Y3474D01*
Y4141D01*
X3961Y4179D01*
X3962Y4179D01*
X3968Y4176D01*
X3974Y4174D01*
X4016D01*
X4022Y4176D01*
X4028Y4179D01*
X4032Y4185D01*
X4033Y4191D01*
Y4213D01*
X4032Y4220D01*
X4028Y4225D01*
X4022Y4229D01*
X4016Y4230D01*
D02*
G37*
G36*
X1950Y4322D02*
X1825D01*
X1818Y4321D01*
X1813Y4317D01*
X1809Y4312D01*
X1808Y4305D01*
X1809Y4298D01*
X1813Y4293D01*
X1818Y4289D01*
X1825Y4288D01*
X1873D01*
Y4225D01*
X1874Y4218D01*
X1878Y4213D01*
X1883Y4209D01*
X1890Y4208D01*
X1897Y4209D01*
X1902Y4213D01*
X1906Y4218D01*
X1907Y4225D01*
Y4288D01*
X1950D01*
X1957Y4289D01*
X1962Y4293D01*
X1966Y4298D01*
X1967Y4305D01*
X1966Y4312D01*
X1962Y4317D01*
X1957Y4321D01*
X1950Y4322D01*
D02*
G37*
G36*
X1225Y4470D02*
X1206D01*
Y4463D01*
X1207Y4459D01*
X1209Y4455D01*
X1213Y4452D01*
X1218Y4451D01*
X1225D01*
Y4470D01*
D02*
G37*
G36*
X1254D02*
X1235D01*
Y4451D01*
X1242D01*
X1246Y4452D01*
X1250Y4455D01*
X1253Y4459D01*
X1254Y4463D01*
Y4470D01*
D02*
G37*
G36*
X3085Y4967D02*
X2862D01*
X2854Y4966D01*
X2847Y4961D01*
X2639Y4753D01*
X2623D01*
X2616Y4752D01*
X2611Y4748D01*
X2608Y4743D01*
X2606Y4736D01*
Y4694D01*
X2608Y4687D01*
X2611Y4682D01*
X2616Y4678D01*
X2623Y4677D01*
X2642D01*
X2648Y4678D01*
X2654Y4682D01*
X2657Y4687D01*
X2658Y4694D01*
Y4709D01*
X2872Y4923D01*
X3076D01*
X3141Y4857D01*
X3140Y4853D01*
X3138Y4840D01*
X3140Y4827D01*
X3145Y4814D01*
X3153Y4803D01*
X3164Y4795D01*
X3177Y4790D01*
X3190Y4788D01*
X3203Y4790D01*
X3216Y4795D01*
X3227Y4803D01*
X3235Y4814D01*
X3236Y4818D01*
X3301D01*
X3428Y4691D01*
Y4429D01*
X3418Y4420D01*
X3412D01*
Y4430D01*
X3411Y4435D01*
X3409Y4439D01*
X3405Y4441D01*
X3400Y4442D01*
X3070D01*
X3065Y4441D01*
X3061Y4439D01*
X3045Y4422D01*
X2835D01*
X2830Y4421D01*
X2826Y4419D01*
X2720Y4312D01*
X2200D01*
X2195Y4311D01*
X2191Y4309D01*
X2020Y4137D01*
X1510D01*
X1505Y4136D01*
X1501Y4134D01*
X1381Y4014D01*
X1379Y4010D01*
X1378Y4005D01*
Y3925D01*
X1378Y3923D01*
X1378Y3921D01*
X1379Y3921D01*
X1379Y3920D01*
X1380Y3919D01*
X1380Y3919D01*
X1379Y3917D01*
Y3873D01*
X1380Y3871D01*
X1380Y3871D01*
X1379Y3870D01*
X1379Y3869D01*
X1378Y3869D01*
X1378Y3867D01*
X1378Y3865D01*
Y3809D01*
X1378Y3808D01*
X1378Y3807D01*
X1378Y3806D01*
X1378Y3806D01*
X1377Y3801D01*
Y3789D01*
X1378Y3784D01*
X1378Y3784D01*
X1378Y3783D01*
X1378Y3782D01*
X1378Y3781D01*
Y3737D01*
X1300D01*
X1295Y3736D01*
X1291Y3734D01*
X1289Y3730D01*
X1288Y3725D01*
Y3587D01*
X1200D01*
X1195Y3586D01*
X1191Y3584D01*
X1189Y3580D01*
X1188Y3575D01*
Y3500D01*
X1189Y3495D01*
X1191Y3491D01*
X1195Y3489D01*
X1200Y3488D01*
X1218D01*
X1218Y3485D01*
X1221Y3482D01*
X1218Y3477D01*
X1200D01*
X1195Y3476D01*
X1191Y3474D01*
X1189Y3470D01*
X1188Y3465D01*
Y3375D01*
X1189Y3370D01*
X1191Y3366D01*
X1195Y3364D01*
X1200Y3363D01*
X1313D01*
Y3350D01*
X1313Y3348D01*
X1313Y3346D01*
X1314Y3346D01*
X1314Y3345D01*
X1315Y3344D01*
X1315Y3344D01*
X1314Y3342D01*
Y3298D01*
X1315Y3296D01*
X1315Y3296D01*
X1314Y3295D01*
X1314Y3294D01*
X1313Y3294D01*
X1313Y3292D01*
X1313Y3290D01*
Y3259D01*
X1313Y3258D01*
X1313Y3257D01*
Y3257D01*
X1313Y3254D01*
X1313D01*
X1308Y3253D01*
X1306Y3257D01*
X1300Y3261D01*
X1293Y3262D01*
X1225D01*
X1218Y3261D01*
X1213Y3257D01*
X1209Y3252D01*
X1208Y3245D01*
X1209Y3238D01*
X1213Y3233D01*
X1218Y3229D01*
X1218Y3225D01*
X1217Y3224D01*
X1216Y3224D01*
X1214Y3220D01*
X1213Y3215D01*
Y2825D01*
X1214Y2820D01*
X1216Y2816D01*
X1220Y2814D01*
X1225Y2813D01*
X1368D01*
Y2616D01*
X1363Y2614D01*
X1360Y2616D01*
X1353Y2617D01*
X1285D01*
X1278Y2616D01*
X1273Y2612D01*
X1269Y2607D01*
X1268Y2600D01*
X1269Y2593D01*
X1273Y2588D01*
X1278Y2584D01*
X1285Y2583D01*
X1353D01*
X1360Y2584D01*
X1363Y2586D01*
X1368Y2584D01*
Y2537D01*
X1295D01*
X1290Y2536D01*
X1286Y2534D01*
X1284Y2530D01*
X1283Y2525D01*
Y2305D01*
X1284Y2300D01*
X1286Y2296D01*
Y2294D01*
X1284Y2290D01*
X1283Y2285D01*
Y2257D01*
X1265D01*
X1264Y2257D01*
X1263Y2258D01*
X1259Y2258D01*
X1258Y2263D01*
X1262Y2266D01*
X1266Y2272D01*
X1267Y2278D01*
Y2315D01*
X1266Y2322D01*
X1262Y2327D01*
X1257Y2331D01*
X1250Y2332D01*
X1243Y2331D01*
X1238Y2327D01*
X1234Y2322D01*
X1233Y2315D01*
Y2278D01*
X1234Y2272D01*
X1238Y2266D01*
X1242Y2263D01*
X1241Y2258D01*
X1237Y2258D01*
X1236Y2257D01*
X1235Y2257D01*
X1215D01*
X1214Y2257D01*
X1213Y2258D01*
X1209Y2258D01*
X1208Y2263D01*
X1212Y2266D01*
X1216Y2272D01*
X1217Y2278D01*
Y2315D01*
X1216Y2322D01*
X1212Y2327D01*
X1207Y2331D01*
X1200Y2332D01*
X1193Y2331D01*
X1188Y2327D01*
X1184Y2322D01*
X1183Y2315D01*
Y2278D01*
X1184Y2272D01*
X1188Y2266D01*
X1192Y2263D01*
X1191Y2258D01*
X1187Y2258D01*
X1186Y2257D01*
X1185Y2257D01*
X1150D01*
X1145Y2256D01*
X1141Y2254D01*
X1139Y2250D01*
X1138Y2245D01*
Y2125D01*
X1139Y2120D01*
X1141Y2116D01*
Y2114D01*
X1139Y2110D01*
X1138Y2105D01*
Y1800D01*
X1139Y1795D01*
X1141Y1791D01*
X1145Y1789D01*
X1150Y1788D01*
X1543D01*
X1546Y1684D01*
X1547Y1683D01*
X1547Y1682D01*
X1547Y1680D01*
X1547Y1679D01*
X1547Y1679D01*
X1547Y1677D01*
Y1669D01*
X1548Y1663D01*
X1548Y1663D01*
X1549Y1662D01*
X1549Y1661D01*
X1549Y1660D01*
X1549Y1659D01*
X1548Y1658D01*
X1547Y1652D01*
Y1644D01*
X1548Y1641D01*
X1547Y1641D01*
X1541Y1639D01*
X1540Y1639D01*
X1538Y1638D01*
X1533Y1641D01*
X1526Y1643D01*
X1514D01*
X1507Y1641D01*
X1501Y1637D01*
X1501Y1637D01*
X1489D01*
X1489Y1637D01*
X1483Y1641D01*
X1476Y1643D01*
X1464D01*
X1457Y1641D01*
X1451Y1637D01*
X1423Y1666D01*
X1423Y1668D01*
Y1687D01*
X1422Y1693D01*
X1418Y1699D01*
X1413Y1702D01*
X1406Y1703D01*
X1364D01*
X1357Y1702D01*
X1352Y1699D01*
X1348Y1693D01*
X1347Y1687D01*
Y1668D01*
X1348Y1661D01*
X1352Y1656D01*
X1357Y1653D01*
X1364Y1651D01*
X1385D01*
X1403Y1633D01*
X1401Y1629D01*
X1364D01*
X1357Y1627D01*
X1352Y1624D01*
X1348Y1619D01*
X1347Y1612D01*
Y1593D01*
X1348Y1587D01*
X1352Y1581D01*
X1357Y1578D01*
X1364Y1577D01*
X1367D01*
Y1528D01*
X1364D01*
X1357Y1527D01*
X1352Y1524D01*
X1348Y1518D01*
X1347Y1512D01*
Y1493D01*
X1348Y1486D01*
X1352Y1481D01*
X1357Y1478D01*
X1364Y1476D01*
X1406D01*
X1413Y1478D01*
X1418Y1481D01*
X1422Y1486D01*
X1423Y1493D01*
Y1512D01*
X1422Y1518D01*
X1418Y1524D01*
X1413Y1527D01*
X1406Y1528D01*
X1403D01*
Y1577D01*
X1406D01*
X1413Y1578D01*
X1418Y1581D01*
X1422Y1587D01*
X1423Y1593D01*
Y1607D01*
X1428Y1609D01*
X1431Y1605D01*
X1437Y1601D01*
X1438Y1601D01*
X1444Y1600D01*
X1451D01*
X1451Y1600D01*
X1457Y1596D01*
X1464Y1594D01*
X1476D01*
X1483Y1596D01*
X1489Y1600D01*
X1489Y1600D01*
X1498D01*
Y1533D01*
X1494Y1530D01*
X1491Y1530D01*
X1449D01*
X1443Y1529D01*
X1437Y1525D01*
X1433Y1520D01*
X1432Y1513D01*
Y1491D01*
X1433Y1485D01*
X1437Y1479D01*
X1443Y1476D01*
X1449Y1474D01*
X1491D01*
X1497Y1476D01*
X1503Y1479D01*
X1505Y1482D01*
X1510D01*
X1510Y1480D01*
X1515Y1474D01*
X1521Y1470D01*
X1528Y1468D01*
X1562D01*
X1569Y1470D01*
X1575Y1474D01*
X1580Y1480D01*
X1581Y1488D01*
Y1521D01*
X1580Y1528D01*
X1575Y1535D01*
X1569Y1539D01*
X1562Y1540D01*
X1542D01*
Y1590D01*
X1547Y1591D01*
X1548Y1586D01*
X1552Y1581D01*
X1557Y1577D01*
X1563Y1576D01*
X1574D01*
X1600Y1550D01*
X1596Y1545D01*
X1595Y1537D01*
Y1493D01*
X1596Y1485D01*
X1600Y1479D01*
X1607Y1475D01*
X1615Y1473D01*
X1651D01*
X1658Y1475D01*
X1665Y1479D01*
X1669Y1485D01*
X1671Y1493D01*
Y1537D01*
X1669Y1545D01*
X1665Y1551D01*
X1658Y1555D01*
X1651Y1557D01*
X1645D01*
X1611Y1591D01*
X1612Y1593D01*
Y1601D01*
X1611Y1607D01*
X1609Y1609D01*
X1611Y1612D01*
X1612Y1618D01*
Y1626D01*
X1613Y1628D01*
X1675D01*
X1680Y1629D01*
X1684Y1631D01*
X1686Y1635D01*
X1687Y1640D01*
Y1700D01*
X1686Y1705D01*
X1684Y1709D01*
X1680Y1711D01*
X1675Y1712D01*
X1672D01*
Y1720D01*
X1672Y1722D01*
X1672Y1724D01*
X1671Y1724D01*
X1671Y1725D01*
X1670Y1726D01*
X1670Y1726D01*
X1671Y1728D01*
Y1772D01*
X1670Y1774D01*
X1670Y1774D01*
X1671Y1775D01*
X1671Y1776D01*
X1672Y1776D01*
X1672Y1778D01*
X1672Y1780D01*
Y1801D01*
X1672Y1802D01*
X1672Y1803D01*
X1672Y1804D01*
X1672Y1804D01*
X1673Y1809D01*
Y1821D01*
X1672Y1826D01*
X1672Y1826D01*
X1672Y1827D01*
X1672Y1828D01*
X1672Y1829D01*
Y1935D01*
X1671Y1939D01*
X1675Y1943D01*
X1922D01*
X1923Y1943D01*
X1924D01*
X1925Y1943D01*
X1926Y1944D01*
X1927Y1944D01*
X1928Y1945D01*
X1929Y1946D01*
X1930Y1946D01*
X1931Y1947D01*
X1932Y1948D01*
X1932Y1949D01*
X1933Y1950D01*
X1933Y1952D01*
X1934Y1953D01*
X1935Y1958D01*
Y1959D01*
X1935Y1960D01*
X1935Y1961D01*
Y1962D01*
X1934Y1963D01*
X1934Y1965D01*
X1933Y1966D01*
X1933Y1967D01*
X1932Y1968D01*
X1931Y1969D01*
X1930Y1969D01*
X1929Y1970D01*
X1928Y1971D01*
X1927Y1971D01*
X1923Y1973D01*
X1920Y1975D01*
X1918Y1978D01*
X1917Y1981D01*
X1916Y1985D01*
X1917Y1989D01*
X1918Y1992D01*
X1920Y1995D01*
X1920Y1995D01*
X1922Y1997D01*
X1923Y1998D01*
X1923Y1998D01*
X1923Y1998D01*
X1924Y2001D01*
X1925Y2003D01*
X1925Y2003D01*
X1925Y2003D01*
X1925Y2005D01*
X1925Y2007D01*
X1924Y2012D01*
X1923Y2014D01*
X1922Y2016D01*
X1922Y2016D01*
X1922Y2017D01*
X1920Y2018D01*
X1919Y2020D01*
X1918Y2020D01*
X1918Y2020D01*
X1916Y2021D01*
X1914Y2021D01*
X1911Y2022D01*
X1909Y2024D01*
X1908Y2026D01*
X1907Y2030D01*
Y2060D01*
X1908Y2064D01*
X1909Y2066D01*
X1911Y2068D01*
X1915Y2069D01*
X1925D01*
X1930Y2070D01*
X1934Y2072D01*
X1936Y2076D01*
X1937Y2078D01*
X1975D01*
X1978Y2073D01*
X1975Y2069D01*
X1973Y2062D01*
Y2028D01*
X1975Y2021D01*
X1979Y2015D01*
X1985Y2010D01*
X1993Y2009D01*
X2026D01*
X2033Y2010D01*
X2040Y2015D01*
X2044Y2021D01*
X2045Y2028D01*
Y2062D01*
X2044Y2069D01*
X2040Y2075D01*
X2033Y2080D01*
X2030Y2080D01*
Y2102D01*
X2030Y2102D01*
X2034Y2108D01*
X2035Y2114D01*
Y2156D01*
X2035Y2157D01*
X2037Y2158D01*
X2037Y2158D01*
X2042Y2161D01*
X2043Y2162D01*
X2044Y2162D01*
X2044Y2163D01*
X2045Y2164D01*
X2046Y2165D01*
X2046Y2166D01*
X2047Y2167D01*
X2047Y2169D01*
Y2170D01*
X2047Y2171D01*
Y2196D01*
X2051Y2197D01*
X2058Y2202D01*
X2091Y2234D01*
X2096Y2241D01*
X2097Y2250D01*
Y2457D01*
X2096Y2466D01*
X2091Y2473D01*
X2065Y2499D01*
Y2516D01*
X2064Y2522D01*
X2060Y2528D01*
X2055Y2532D01*
X2048Y2533D01*
X2026D01*
X2020Y2532D01*
X2017Y2529D01*
X2012Y2532D01*
Y2670D01*
X2012Y2671D01*
Y2673D01*
X2012Y2674D01*
Y2716D01*
X2012Y2717D01*
Y2719D01*
X2012Y2720D01*
Y2775D01*
X2011Y2780D01*
X2009Y2784D01*
X2005Y2786D01*
X2000Y2787D01*
X1780D01*
X1775Y2786D01*
X1771Y2784D01*
X1762Y2774D01*
X1757Y2776D01*
Y2960D01*
X1756Y2965D01*
X1754Y2969D01*
X1750Y2971D01*
X1745Y2972D01*
X1605D01*
X1600Y2971D01*
X1596Y2969D01*
X1594D01*
X1590Y2971D01*
X1585Y2972D01*
X1326D01*
X1324Y2977D01*
X1325Y2978D01*
X1850D01*
X1855Y2979D01*
X1859Y2981D01*
X1861Y2985D01*
X1862Y2990D01*
Y3163D01*
X1940D01*
X1945Y3164D01*
X1949Y3166D01*
X1951Y3170D01*
X1952Y3175D01*
Y3278D01*
X2035D01*
X2040Y3279D01*
X2044Y3281D01*
X2046Y3285D01*
X2047Y3289D01*
X2052Y3288D01*
Y3280D01*
X2050Y3280D01*
X2044Y3275D01*
X2040Y3269D01*
X2038Y3262D01*
Y3228D01*
X2040Y3221D01*
X2044Y3215D01*
X2050Y3210D01*
X2058Y3209D01*
X2091D01*
X2098Y3210D01*
X2105Y3215D01*
X2109Y3221D01*
X2110Y3228D01*
Y3262D01*
X2109Y3269D01*
X2105Y3275D01*
X2098Y3280D01*
X2097Y3280D01*
Y3294D01*
X2099Y3298D01*
X2100Y3304D01*
Y3346D01*
X2099Y3352D01*
X2095Y3358D01*
X2090Y3362D01*
X2083Y3363D01*
X2061D01*
X2055Y3362D01*
X2052Y3359D01*
X2047Y3362D01*
Y3388D01*
X2055D01*
X2064Y3389D01*
X2071Y3394D01*
X2116Y3439D01*
X2121Y3446D01*
X2122Y3455D01*
Y3647D01*
X2285Y3810D01*
X3037D01*
X3043Y3803D01*
X3052Y3795D01*
X3063Y3791D01*
X3075Y3789D01*
X3084Y3790D01*
X3142Y3732D01*
X3150Y3727D01*
X3160Y3725D01*
X3410D01*
X3420Y3727D01*
X3428Y3732D01*
X3486Y3790D01*
X3495Y3789D01*
X3507Y3791D01*
X3518Y3795D01*
X3527Y3803D01*
X3535Y3812D01*
X3539Y3823D01*
X3541Y3835D01*
X3539Y3847D01*
X3535Y3858D01*
X3527Y3867D01*
X3520Y3873D01*
Y3917D01*
X3555Y3952D01*
X3567D01*
X3574Y3953D01*
X3579Y3957D01*
X3582Y3962D01*
X3584Y3969D01*
Y4011D01*
X3582Y4018D01*
X3580Y4021D01*
Y4228D01*
X3774Y4423D01*
X4097D01*
X4151Y4369D01*
X4152Y4364D01*
X4156Y4358D01*
X4160Y4355D01*
X4160Y4350D01*
X4159Y4349D01*
X4154Y4342D01*
X4153Y4333D01*
Y4300D01*
X4154Y4291D01*
X4156Y4289D01*
X4153Y4285D01*
X4138D01*
X4110Y4313D01*
X4111Y4318D01*
X4112Y4318D01*
X4120Y4329D01*
X4125Y4342D01*
X4127Y4355D01*
X4125Y4368D01*
X4120Y4381D01*
X4112Y4392D01*
X4101Y4400D01*
X4088Y4405D01*
X4075Y4407D01*
X4062Y4405D01*
X4049Y4400D01*
X4038Y4392D01*
X4030Y4381D01*
X4025Y4368D01*
X4023Y4355D01*
X4025Y4342D01*
X4030Y4329D01*
X4038Y4318D01*
X4049Y4310D01*
X4062Y4305D01*
X4062Y4305D01*
X4116Y4251D01*
X4122Y4247D01*
X4130Y4245D01*
X4230D01*
X4232Y4240D01*
X4220Y4228D01*
X4199D01*
X4192Y4227D01*
X4187Y4224D01*
X4186Y4222D01*
X4179D01*
X4178Y4224D01*
X4173Y4227D01*
X4166Y4228D01*
X4124D01*
X4117Y4227D01*
X4112Y4224D01*
X4108Y4218D01*
X4107Y4212D01*
Y4193D01*
X4108Y4186D01*
X4112Y4181D01*
X4117Y4178D01*
X4124Y4176D01*
X4166D01*
X4173Y4178D01*
X4178Y4181D01*
X4179Y4183D01*
X4186D01*
X4187Y4181D01*
X4192Y4178D01*
X4199Y4176D01*
X4241D01*
X4245Y4177D01*
X4249Y4174D01*
X4250Y4168D01*
X4252Y4162D01*
X4256Y4156D01*
X4262Y4152D01*
X4265Y4151D01*
X4264Y4146D01*
X4255D01*
X4253Y4149D01*
X4248Y4152D01*
X4241Y4154D01*
X4199D01*
X4192Y4152D01*
X4187Y4149D01*
X4185Y4146D01*
X4180D01*
X4178Y4149D01*
X4173Y4152D01*
X4166Y4154D01*
X4124D01*
X4117Y4152D01*
X4112Y4149D01*
X4111Y4147D01*
X4104D01*
X4103Y4149D01*
X4098Y4152D01*
X4091Y4154D01*
X4049D01*
X4042Y4152D01*
X4037Y4149D01*
X4036Y4147D01*
X4030D01*
X4028Y4151D01*
X4022Y4154D01*
X4016Y4156D01*
X3974D01*
X3968Y4154D01*
X3962Y4151D01*
X3958Y4145D01*
X3957Y4139D01*
Y4117D01*
X3958Y4110D01*
X3962Y4105D01*
X3968Y4101D01*
X3974Y4100D01*
X4016D01*
X4022Y4101D01*
X4028Y4105D01*
X4030Y4108D01*
X4036D01*
X4037Y4106D01*
X4042Y4103D01*
X4049Y4102D01*
X4091D01*
X4098Y4103D01*
X4103Y4106D01*
X4104Y4108D01*
X4111D01*
X4112Y4106D01*
X4117Y4103D01*
X4124Y4102D01*
X4166D01*
X4173Y4103D01*
X4178Y4106D01*
X4180Y4109D01*
X4185D01*
X4187Y4106D01*
X4189Y4105D01*
Y4100D01*
X4187Y4099D01*
X4183Y4093D01*
X4182Y4087D01*
Y4068D01*
X4182Y4066D01*
X4072Y3955D01*
X4068Y3949D01*
X4068Y3948D01*
X4067Y3942D01*
Y3715D01*
X4068Y3709D01*
X4068Y3708D01*
X4072Y3702D01*
X4382Y3392D01*
X4388Y3388D01*
X4389Y3388D01*
X4395Y3387D01*
X4407D01*
Y3384D01*
X4408Y3377D01*
X4411Y3372D01*
X4417Y3368D01*
X4423Y3367D01*
X4442D01*
X4449Y3368D01*
X4454Y3372D01*
X4457Y3377D01*
X4459Y3384D01*
Y3426D01*
X4457Y3433D01*
X4454Y3438D01*
X4449Y3442D01*
X4442Y3443D01*
X4423D01*
X4417Y3442D01*
X4411Y3438D01*
X4408Y3433D01*
X4407Y3426D01*
Y3426D01*
X4402Y3424D01*
X4103Y3723D01*
Y3935D01*
X4177Y4009D01*
X4182Y4007D01*
Y3993D01*
X4183Y3987D01*
X4187Y3981D01*
X4192Y3978D01*
X4199Y3977D01*
X4241D01*
X4248Y3978D01*
X4253Y3981D01*
X4255Y3984D01*
X4260D01*
X4262Y3981D01*
X4267Y3978D01*
X4274Y3977D01*
X4316D01*
X4323Y3978D01*
X4328Y3981D01*
X4332Y3987D01*
X4333Y3993D01*
Y4012D01*
X4332Y4019D01*
X4328Y4024D01*
X4323Y4027D01*
X4316Y4029D01*
X4274D01*
X4267Y4027D01*
X4262Y4024D01*
X4260Y4021D01*
X4255D01*
X4253Y4024D01*
X4248Y4027D01*
X4241Y4029D01*
X4204D01*
X4202Y4033D01*
X4220Y4051D01*
X4241D01*
X4248Y4053D01*
X4253Y4056D01*
X4255Y4059D01*
X4260D01*
X4262Y4056D01*
X4267Y4053D01*
X4274Y4051D01*
X4316D01*
X4323Y4053D01*
X4328Y4056D01*
X4329Y4055D01*
X4336Y4052D01*
X4342Y4051D01*
X4349Y4052D01*
X4356Y4055D01*
X4361Y4059D01*
X4365Y4064D01*
X4368Y4071D01*
X4369Y4077D01*
X4368Y4084D01*
X4365Y4091D01*
X4361Y4096D01*
X4356Y4100D01*
X4349Y4103D01*
X4342Y4104D01*
X4336Y4103D01*
X4329Y4100D01*
X4328Y4099D01*
X4323Y4102D01*
X4316Y4103D01*
X4274D01*
X4267Y4102D01*
X4262Y4099D01*
X4260Y4096D01*
X4255D01*
X4253Y4099D01*
X4251Y4100D01*
Y4105D01*
X4253Y4106D01*
X4255Y4109D01*
X4278D01*
X4283Y4110D01*
X4285Y4111D01*
X4291Y4115D01*
X4337Y4161D01*
X4341Y4167D01*
X4341Y4168D01*
X4342Y4174D01*
Y4191D01*
X4382D01*
Y4164D01*
X4383Y4159D01*
X4384Y4157D01*
X4388Y4151D01*
X4397Y4142D01*
Y4103D01*
X4394D01*
X4387Y4102D01*
X4382Y4099D01*
X4378Y4093D01*
X4377Y4087D01*
Y4068D01*
X4378Y4061D01*
X4382Y4056D01*
X4387Y4053D01*
X4394Y4051D01*
X4436D01*
X4443Y4053D01*
X4448Y4056D01*
X4450Y4059D01*
X4455D01*
X4457Y4056D01*
X4462Y4053D01*
X4469Y4051D01*
X4511D01*
X4518Y4053D01*
X4523Y4056D01*
X4525Y4059D01*
X4530D01*
X4532Y4056D01*
X4537Y4053D01*
X4544Y4051D01*
X4586D01*
X4593Y4053D01*
X4598Y4056D01*
X4600Y4059D01*
X4605D01*
X4607Y4056D01*
X4612Y4053D01*
X4619Y4051D01*
X4661D01*
X4668Y4053D01*
X4673Y4056D01*
X4675Y4059D01*
X4680D01*
X4682Y4056D01*
X4687Y4053D01*
X4694Y4051D01*
X4736D01*
X4743Y4053D01*
X4748Y4056D01*
X4748Y4057D01*
X4787D01*
X4790Y4049D01*
X4798Y4038D01*
X4809Y4030D01*
X4822Y4025D01*
X4835Y4023D01*
X4848Y4025D01*
X4861Y4030D01*
X4872Y4038D01*
X4880Y4049D01*
X4885Y4062D01*
X4887Y4075D01*
X4885Y4088D01*
X4880Y4101D01*
X4872Y4112D01*
X4861Y4120D01*
X4848Y4125D01*
X4835Y4127D01*
X4822Y4125D01*
X4809Y4120D01*
X4798Y4112D01*
X4790Y4101D01*
X4787Y4093D01*
X4752D01*
X4748Y4099D01*
X4746Y4100D01*
Y4105D01*
X4748Y4106D01*
X4752Y4112D01*
X4753Y4118D01*
Y4137D01*
X4752Y4144D01*
X4748Y4149D01*
X4743Y4152D01*
X4736Y4154D01*
X4694D01*
X4687Y4152D01*
X4682Y4149D01*
X4678Y4144D01*
X4677Y4137D01*
Y4118D01*
X4678Y4112D01*
X4682Y4106D01*
X4684Y4105D01*
Y4100D01*
X4682Y4099D01*
X4680Y4096D01*
X4675D01*
X4673Y4099D01*
X4668Y4102D01*
X4661Y4103D01*
X4619D01*
X4612Y4102D01*
X4607Y4099D01*
X4605Y4096D01*
X4600D01*
X4598Y4099D01*
X4596Y4100D01*
Y4105D01*
X4598Y4106D01*
X4602Y4112D01*
X4603Y4118D01*
Y4137D01*
X4602Y4144D01*
X4598Y4149D01*
X4593Y4152D01*
X4586Y4154D01*
X4544D01*
X4537Y4152D01*
X4532Y4149D01*
X4530Y4146D01*
X4485D01*
X4445Y4186D01*
X4446Y4191D01*
X4472D01*
Y4220D01*
X4522D01*
X4527Y4214D01*
X4527Y4212D01*
Y4193D01*
X4528Y4186D01*
X4532Y4181D01*
X4537Y4178D01*
X4544Y4176D01*
X4586D01*
X4593Y4178D01*
X4598Y4181D01*
X4600Y4184D01*
X4605D01*
X4607Y4181D01*
X4612Y4178D01*
X4619Y4176D01*
X4661D01*
X4668Y4178D01*
X4673Y4181D01*
X4675Y4184D01*
X4680D01*
X4682Y4181D01*
X4687Y4178D01*
X4694Y4176D01*
X4736D01*
X4743Y4178D01*
X4748Y4181D01*
X4752Y4186D01*
X4753Y4193D01*
Y4212D01*
X4752Y4218D01*
X4748Y4224D01*
X4743Y4227D01*
X4736Y4228D01*
X4694D01*
X4687Y4227D01*
X4682Y4224D01*
X4680Y4221D01*
X4675D01*
X4673Y4224D01*
X4668Y4227D01*
X4661Y4228D01*
X4619D01*
X4612Y4227D01*
X4607Y4224D01*
X4605Y4221D01*
X4600D01*
X4598Y4224D01*
X4593Y4227D01*
X4586Y4228D01*
X4565D01*
X4542Y4251D01*
X4536Y4255D01*
X4535Y4255D01*
X4529Y4256D01*
X4472D01*
Y4285D01*
X4395D01*
Y4306D01*
X4488D01*
Y4300D01*
X4490Y4292D01*
X4494Y4285D01*
X4500Y4281D01*
X4508Y4280D01*
X4552D01*
X4560Y4281D01*
X4566Y4285D01*
X4570Y4292D01*
X4572Y4300D01*
Y4306D01*
X4587D01*
X4595Y4307D01*
X4598Y4309D01*
X4601D01*
X4608Y4311D01*
X4614Y4315D01*
X4618Y4320D01*
X4619Y4327D01*
Y4339D01*
X4618Y4346D01*
X4614Y4352D01*
X4608Y4356D01*
X4608Y4356D01*
X4607Y4361D01*
X4609Y4363D01*
X4613Y4369D01*
X4615Y4377D01*
Y4415D01*
X4613Y4423D01*
X4609Y4429D01*
X4603Y4433D01*
X4595Y4435D01*
X4587Y4433D01*
X4581Y4429D01*
X4577Y4423D01*
X4575Y4415D01*
Y4377D01*
X4577Y4369D01*
X4581Y4363D01*
X4583Y4361D01*
X4582Y4356D01*
X4582Y4356D01*
X4576Y4352D01*
X4573Y4347D01*
X4568D01*
X4568Y4347D01*
X4566Y4350D01*
X4560Y4354D01*
X4552Y4356D01*
X4508D01*
X4500Y4354D01*
X4494Y4350D01*
X4491Y4345D01*
X4258D01*
X4255Y4350D01*
X4252Y4352D01*
Y4358D01*
X4255Y4360D01*
X4259Y4365D01*
X4260Y4372D01*
Y4397D01*
X4259Y4404D01*
X4255Y4409D01*
X4249Y4413D01*
X4242Y4415D01*
X4218D01*
X4211Y4413D01*
X4205Y4409D01*
X4201Y4404D01*
X4201Y4403D01*
X4183D01*
X4181Y4402D01*
X4123Y4461D01*
X4115Y4466D01*
X4107Y4467D01*
X3765D01*
X3756Y4466D01*
X3749Y4461D01*
X3542Y4253D01*
X3537Y4246D01*
X3535Y4238D01*
Y4021D01*
X3533Y4018D01*
X3532Y4011D01*
Y3999D01*
X3477Y3945D01*
X3472Y3937D01*
X3470Y3927D01*
Y3873D01*
X3463Y3867D01*
X3455Y3858D01*
X3451Y3847D01*
X3449Y3835D01*
X3450Y3826D01*
X3400Y3775D01*
X3170D01*
X3120Y3826D01*
X3121Y3835D01*
X3119Y3847D01*
X3115Y3858D01*
X3107Y3867D01*
X3100Y3873D01*
Y3917D01*
X3135Y3952D01*
X3147D01*
X3154Y3953D01*
X3159Y3957D01*
X3162Y3962D01*
X3164Y3969D01*
Y4011D01*
X3162Y4018D01*
X3159Y4023D01*
X3154Y4027D01*
X3147Y4028D01*
X3128D01*
X3122Y4027D01*
X3116Y4023D01*
X3113Y4018D01*
X3112Y4011D01*
Y3999D01*
X3057Y3945D01*
X3052Y3937D01*
X3050Y3927D01*
Y3873D01*
X3043Y3867D01*
X3037Y3860D01*
X2275D01*
X2265Y3858D01*
X2257Y3853D01*
X2098Y3694D01*
X2081Y3711D01*
X2074Y3716D01*
X2065Y3717D01*
X2045D01*
X2044Y3722D01*
X2040Y3728D01*
X2035Y3732D01*
X2028Y3733D01*
X2006D01*
X2000Y3732D01*
X1997Y3729D01*
X1992Y3732D01*
Y3784D01*
X1997Y3786D01*
X2002Y3779D01*
X2009Y3774D01*
X2017Y3773D01*
X2055D01*
X2064Y3774D01*
X2071Y3779D01*
X2076Y3786D01*
X2077Y3795D01*
X2076Y3804D01*
X2071Y3811D01*
X2064Y3816D01*
X2055Y3817D01*
X2017D01*
X2009Y3816D01*
X2002Y3811D01*
X1997Y3804D01*
X1992Y3806D01*
Y3870D01*
X1992Y3871D01*
Y3873D01*
X1992Y3874D01*
Y3886D01*
X1997Y3887D01*
X1997Y3886D01*
X2002Y3879D01*
X2009Y3874D01*
X2017Y3873D01*
X2060D01*
X2069Y3874D01*
X2076Y3879D01*
X2081Y3886D01*
X2082Y3895D01*
X2081Y3904D01*
X2076Y3911D01*
X2069Y3916D01*
X2060Y3917D01*
X2017D01*
X2009Y3916D01*
X2002Y3911D01*
X1997Y3904D01*
X1997Y3903D01*
X1992Y3904D01*
Y3916D01*
X1992Y3917D01*
Y3919D01*
X1992Y3920D01*
Y3975D01*
X1991Y3980D01*
X1989Y3983D01*
X1990Y3986D01*
X1991Y3988D01*
X2550D01*
X2555Y3989D01*
X2559Y3991D01*
X2730Y4163D01*
X3400D01*
X3405Y4164D01*
X3409Y4166D01*
X3411Y4170D01*
X3412Y4175D01*
Y4375D01*
X3428D01*
X3436Y4377D01*
X3443Y4382D01*
X3466Y4404D01*
X3471Y4411D01*
X3472Y4420D01*
Y4700D01*
X3471Y4709D01*
X3466Y4716D01*
X3326Y4856D01*
X3319Y4861D01*
X3310Y4862D01*
X3236D01*
X3235Y4866D01*
X3227Y4877D01*
X3216Y4885D01*
X3203Y4890D01*
X3190Y4892D01*
X3177Y4890D01*
X3173Y4889D01*
X3101Y4961D01*
X3094Y4966D01*
X3085Y4967D01*
D02*
G37*
G36*
X1340Y4398D02*
X1290D01*
Y4360D01*
X1340D01*
Y4398D01*
D02*
G37*
G36*
X4466Y1336D02*
X4424D01*
X4418Y1334D01*
X4412Y1331D01*
X4408Y1325D01*
X4407Y1319D01*
Y1297D01*
X4408Y1290D01*
X4412Y1285D01*
X4408Y1280D01*
X4407Y1273D01*
Y1251D01*
X4408Y1245D01*
X4411Y1242D01*
X4408Y1237D01*
X4325D01*
X4320Y1236D01*
X4316Y1234D01*
X4314Y1230D01*
X4313Y1225D01*
Y1050D01*
X4314Y1045D01*
X4316Y1041D01*
X4320Y1039D01*
X4325Y1038D01*
X4470D01*
X4475Y1039D01*
X4479Y1041D01*
X4481Y1045D01*
X4482Y1050D01*
Y1091D01*
X4482Y1092D01*
X4482Y1093D01*
X4482Y1094D01*
X4482Y1094D01*
X4483Y1099D01*
Y1111D01*
X4482Y1116D01*
X4482Y1116D01*
X4482Y1117D01*
X4482Y1118D01*
X4482Y1119D01*
Y1131D01*
X4482Y1132D01*
X4482Y1133D01*
X4482Y1134D01*
X4482Y1134D01*
X4483Y1139D01*
Y1151D01*
X4482Y1156D01*
X4482Y1156D01*
X4482Y1157D01*
X4482Y1158D01*
X4482Y1159D01*
Y1161D01*
Y1161D01*
Y1161D01*
X4482Y1163D01*
X4481Y1166D01*
X4481Y1166D01*
Y1166D01*
X4480Y1168D01*
X4482Y1170D01*
X4483Y1177D01*
Y1199D01*
X4482Y1205D01*
X4480Y1207D01*
X4481Y1209D01*
Y1209D01*
X4481Y1209D01*
X4482Y1212D01*
X4482Y1214D01*
Y1214D01*
Y1214D01*
Y1225D01*
X4481Y1230D01*
X4479Y1234D01*
X4478Y1234D01*
X4478Y1239D01*
X4478Y1239D01*
X4482Y1245D01*
X4483Y1251D01*
Y1273D01*
X4482Y1280D01*
X4478Y1285D01*
X4482Y1290D01*
X4483Y1297D01*
Y1319D01*
X4482Y1325D01*
X4478Y1331D01*
X4472Y1334D01*
X4466Y1336D01*
D02*
G37*
G36*
X1225Y4499D02*
X1218D01*
X1213Y4498D01*
X1209Y4495D01*
X1207Y4491D01*
X1206Y4487D01*
Y4480D01*
X1225D01*
Y4499D01*
D02*
G37*
G36*
X2178Y4710D02*
X2168D01*
Y4694D01*
X2170Y4690D01*
X2173Y4689D01*
X2178D01*
Y4710D01*
D02*
G37*
G36*
X2197D02*
X2188D01*
Y4689D01*
X2192D01*
X2195Y4690D01*
X2197Y4694D01*
Y4710D01*
D02*
G37*
G36*
X4605Y4947D02*
X4592Y4945D01*
X4579Y4940D01*
X4568Y4932D01*
X4560Y4921D01*
X4555Y4908D01*
X4553Y4895D01*
X4555Y4882D01*
X4560Y4869D01*
X4568Y4858D01*
X4579Y4850D01*
X4592Y4845D01*
X4605Y4843D01*
X4611Y4844D01*
X4615Y4841D01*
Y4801D01*
X4613Y4798D01*
X4611Y4791D01*
Y4749D01*
X4613Y4742D01*
X4615Y4739D01*
Y4728D01*
X4612Y4727D01*
X4607Y4724D01*
X4603Y4718D01*
X4602Y4712D01*
Y4693D01*
X4603Y4686D01*
X4607Y4681D01*
X4612Y4678D01*
X4619Y4676D01*
X4661D01*
X4668Y4678D01*
X4673Y4681D01*
X4677Y4686D01*
X4678Y4693D01*
Y4712D01*
X4677Y4718D01*
X4673Y4724D01*
X4668Y4727D01*
X4661Y4728D01*
X4660D01*
Y4739D01*
X4662Y4742D01*
X4663Y4749D01*
Y4791D01*
X4662Y4798D01*
X4660Y4801D01*
Y4863D01*
X4658Y4871D01*
X4654Y4878D01*
X4655Y4882D01*
X4657Y4895D01*
X4655Y4908D01*
X4650Y4921D01*
X4642Y4932D01*
X4631Y4940D01*
X4618Y4945D01*
X4605Y4947D01*
D02*
G37*
G36*
X1915Y4630D02*
X1895D01*
Y4566D01*
X1940D01*
Y4605D01*
X1938Y4615D01*
X1932Y4623D01*
X1924Y4628D01*
X1915Y4630D01*
D02*
G37*
G36*
X4835Y4682D02*
X4822Y4680D01*
X4809Y4675D01*
X4798Y4667D01*
X4790Y4656D01*
X4789Y4652D01*
X4743D01*
X4743Y4652D01*
X4736Y4654D01*
X4694D01*
X4687Y4652D01*
X4682Y4649D01*
X4680Y4646D01*
X4675D01*
X4673Y4649D01*
X4668Y4652D01*
X4661Y4654D01*
X4619D01*
X4612Y4652D01*
X4609Y4650D01*
X4596D01*
X4593Y4652D01*
X4586Y4654D01*
X4544D01*
X4537Y4652D01*
X4532Y4649D01*
X4530Y4646D01*
X4525D01*
X4523Y4649D01*
X4518Y4652D01*
X4511Y4654D01*
X4469D01*
X4462Y4652D01*
X4459Y4650D01*
X4446D01*
X4443Y4652D01*
X4436Y4654D01*
X4394D01*
X4387Y4652D01*
X4382Y4649D01*
X4378Y4644D01*
X4378Y4639D01*
X4372D01*
X4372Y4644D01*
X4368Y4649D01*
X4363Y4652D01*
X4356Y4654D01*
X4314D01*
X4307Y4652D01*
X4304Y4650D01*
X4291D01*
X4288Y4652D01*
X4281Y4654D01*
X4239D01*
X4232Y4652D01*
X4227Y4649D01*
X4225Y4646D01*
X4220D01*
X4218Y4649D01*
X4213Y4652D01*
X4206Y4654D01*
X4164D01*
X4157Y4652D01*
X4154Y4650D01*
X4141D01*
X4138Y4652D01*
X4131Y4654D01*
X4089D01*
X4082Y4652D01*
X4077Y4649D01*
X4075Y4646D01*
X4070D01*
X4068Y4649D01*
X4063Y4652D01*
X4056Y4654D01*
X4014D01*
X4007Y4652D01*
X4004Y4650D01*
X3962D01*
X3960Y4656D01*
X3952Y4667D01*
X3941Y4675D01*
X3928Y4680D01*
X3915Y4682D01*
X3902Y4680D01*
X3889Y4675D01*
X3878Y4667D01*
X3870Y4656D01*
X3865Y4643D01*
X3863Y4630D01*
X3865Y4617D01*
X3870Y4604D01*
X3878Y4593D01*
X3889Y4585D01*
X3902Y4580D01*
X3915Y4578D01*
X3928Y4580D01*
X3941Y4585D01*
X3952Y4593D01*
X3960Y4604D01*
X3960Y4605D01*
X4003D01*
X4004Y4602D01*
Y4600D01*
X4002Y4599D01*
X3998Y4593D01*
X3997Y4587D01*
Y4568D01*
X3998Y4561D01*
X4002Y4556D01*
X4007Y4553D01*
X4014Y4551D01*
X4056D01*
X4063Y4553D01*
X4068Y4556D01*
X4072Y4561D01*
X4073Y4568D01*
Y4587D01*
X4072Y4593D01*
X4068Y4599D01*
X4066Y4600D01*
Y4605D01*
X4068Y4606D01*
X4070Y4609D01*
X4075D01*
X4077Y4606D01*
X4082Y4603D01*
X4089Y4602D01*
X4131D01*
X4138Y4603D01*
X4141Y4605D01*
X4153D01*
X4154Y4602D01*
Y4600D01*
X4152Y4599D01*
X4148Y4593D01*
X4147Y4587D01*
Y4568D01*
X4148Y4561D01*
X4152Y4556D01*
X4157Y4553D01*
X4164Y4551D01*
X4206D01*
X4213Y4553D01*
X4218Y4556D01*
X4220Y4559D01*
X4275D01*
X4305Y4529D01*
Y4519D01*
X4278D01*
Y4490D01*
X4236D01*
X4223Y4493D01*
Y4512D01*
X4222Y4519D01*
X4218Y4524D01*
X4213Y4527D01*
X4206Y4529D01*
X4164D01*
X4157Y4527D01*
X4154Y4525D01*
X4141D01*
X4138Y4527D01*
X4131Y4529D01*
X4089D01*
X4082Y4527D01*
X4079Y4525D01*
X4066D01*
X4063Y4527D01*
X4056Y4529D01*
X4014D01*
X4007Y4527D01*
X4002Y4524D01*
X3998Y4519D01*
X3997Y4512D01*
Y4493D01*
X3998Y4487D01*
X4002Y4481D01*
X4007Y4478D01*
X4014Y4477D01*
X4056D01*
X4063Y4478D01*
X4066Y4480D01*
X4079D01*
X4082Y4478D01*
X4089Y4477D01*
X4131D01*
X4138Y4478D01*
X4141Y4480D01*
X4154D01*
X4157Y4478D01*
X4164Y4477D01*
X4185D01*
X4203Y4459D01*
X4209Y4455D01*
X4210Y4455D01*
X4216Y4454D01*
X4278D01*
Y4425D01*
X4355D01*
Y4415D01*
X4357Y4407D01*
X4361Y4401D01*
X4367Y4397D01*
X4375Y4395D01*
X4383Y4397D01*
X4389Y4401D01*
X4393Y4407D01*
X4395Y4415D01*
Y4425D01*
X4472D01*
Y4454D01*
X4513D01*
X4516Y4449D01*
X4512Y4443D01*
X4510Y4435D01*
Y4392D01*
X4512Y4385D01*
X4516Y4378D01*
X4522Y4374D01*
X4530Y4373D01*
X4538Y4374D01*
X4544Y4378D01*
X4548Y4385D01*
X4550Y4392D01*
Y4435D01*
X4548Y4443D01*
X4544Y4449D01*
X4542Y4450D01*
X4542Y4452D01*
Y4455D01*
X4547Y4459D01*
X4565Y4477D01*
X4586D01*
X4593Y4478D01*
X4596Y4480D01*
X4609D01*
X4612Y4478D01*
X4619Y4477D01*
X4661D01*
X4668Y4478D01*
X4671Y4480D01*
X4684D01*
X4687Y4478D01*
X4694Y4477D01*
X4736D01*
X4743Y4478D01*
X4748Y4481D01*
X4752Y4487D01*
X4753Y4493D01*
Y4512D01*
X4752Y4519D01*
X4748Y4524D01*
X4743Y4527D01*
X4736Y4529D01*
X4694D01*
X4687Y4527D01*
X4684Y4525D01*
X4671D01*
X4668Y4527D01*
X4661Y4529D01*
X4619D01*
X4612Y4527D01*
X4609Y4525D01*
X4596D01*
X4593Y4527D01*
X4586Y4529D01*
X4544D01*
X4537Y4527D01*
X4532Y4524D01*
X4528Y4519D01*
X4527Y4512D01*
Y4493D01*
X4514Y4490D01*
X4472D01*
Y4519D01*
X4446D01*
X4445Y4524D01*
X4480Y4559D01*
X4530D01*
X4532Y4556D01*
X4537Y4553D01*
X4544Y4551D01*
X4586D01*
X4593Y4553D01*
X4598Y4556D01*
X4602Y4561D01*
X4603Y4568D01*
Y4587D01*
X4602Y4593D01*
X4598Y4599D01*
X4596Y4600D01*
Y4602D01*
X4600Y4605D01*
X4609D01*
X4612Y4603D01*
X4619Y4602D01*
X4661D01*
X4668Y4603D01*
X4673Y4606D01*
X4675Y4609D01*
X4680D01*
X4682Y4606D01*
X4684Y4605D01*
Y4600D01*
X4682Y4599D01*
X4678Y4593D01*
X4677Y4587D01*
Y4568D01*
X4678Y4561D01*
X4682Y4556D01*
X4687Y4553D01*
X4694Y4551D01*
X4736D01*
X4743Y4553D01*
X4748Y4556D01*
X4752Y4561D01*
X4753Y4568D01*
Y4587D01*
X4752Y4593D01*
X4748Y4599D01*
X4746Y4600D01*
Y4604D01*
X4750Y4608D01*
X4789D01*
X4790Y4604D01*
X4798Y4593D01*
X4809Y4585D01*
X4822Y4580D01*
X4835Y4578D01*
X4848Y4580D01*
X4861Y4585D01*
X4872Y4593D01*
X4880Y4604D01*
X4885Y4617D01*
X4887Y4630D01*
X4885Y4643D01*
X4880Y4656D01*
X4872Y4667D01*
X4861Y4675D01*
X4848Y4680D01*
X4835Y4682D01*
D02*
G37*
G36*
X2567Y4753D02*
X2548D01*
X2542Y4752D01*
X2536Y4748D01*
X2533Y4743D01*
X2532Y4737D01*
X2283D01*
X2282Y4743D01*
X2279Y4748D01*
X2273Y4752D01*
X2267Y4753D01*
X2248D01*
X2241Y4752D01*
X2236Y4748D01*
X2233Y4743D01*
X2231Y4736D01*
Y4694D01*
X2233Y4687D01*
X2236Y4682D01*
X2241Y4678D01*
X2248Y4677D01*
X2267D01*
X2273Y4678D01*
X2279Y4682D01*
X2282Y4687D01*
X2283Y4693D01*
X2532D01*
X2533Y4687D01*
X2536Y4682D01*
X2542Y4678D01*
X2548Y4677D01*
X2567D01*
X2574Y4678D01*
X2579Y4682D01*
X2582Y4687D01*
X2584Y4694D01*
Y4736D01*
X2582Y4743D01*
X2579Y4748D01*
X2574Y4752D01*
X2567Y4753D01*
D02*
G37*
G36*
X4145Y4947D02*
X4132Y4945D01*
X4119Y4940D01*
X4108Y4932D01*
X4100Y4921D01*
X4095Y4908D01*
X4093Y4895D01*
X4095Y4882D01*
X4096Y4878D01*
X4092Y4871D01*
X4090Y4863D01*
Y4801D01*
X4088Y4798D01*
X4087Y4791D01*
Y4749D01*
X4088Y4742D01*
X4090Y4739D01*
Y4728D01*
X4089D01*
X4082Y4727D01*
X4077Y4724D01*
X4073Y4718D01*
X4072Y4712D01*
Y4693D01*
X4073Y4686D01*
X4077Y4681D01*
X4082Y4678D01*
X4089Y4676D01*
X4131D01*
X4138Y4678D01*
X4143Y4681D01*
X4147Y4686D01*
X4148Y4693D01*
Y4712D01*
X4147Y4718D01*
X4143Y4724D01*
X4138Y4727D01*
X4135Y4728D01*
Y4739D01*
X4137Y4742D01*
X4139Y4749D01*
Y4791D01*
X4137Y4798D01*
X4135Y4801D01*
Y4841D01*
X4139Y4844D01*
X4145Y4843D01*
X4158Y4845D01*
X4171Y4850D01*
X4182Y4858D01*
X4190Y4869D01*
X4195Y4882D01*
X4197Y4895D01*
X4195Y4908D01*
X4190Y4921D01*
X4182Y4932D01*
X4171Y4940D01*
X4158Y4945D01*
X4145Y4947D01*
D02*
G37*
G36*
X2192Y4741D02*
X2188D01*
Y4720D01*
X2197D01*
Y4736D01*
X2195Y4740D01*
X2192Y4741D01*
D02*
G37*
G36*
X4455Y4947D02*
X4442Y4945D01*
X4429Y4940D01*
X4418Y4932D01*
X4410Y4921D01*
X4405Y4908D01*
X4403Y4895D01*
X4405Y4882D01*
X4406Y4878D01*
X4402Y4873D01*
X4397Y4866D01*
X4395Y4858D01*
Y4801D01*
X4393Y4798D01*
X4392Y4791D01*
Y4749D01*
X4393Y4742D01*
X4395Y4739D01*
Y4728D01*
X4394D01*
X4387Y4727D01*
X4382Y4724D01*
X4378Y4718D01*
X4378Y4714D01*
X4372D01*
X4372Y4718D01*
X4368Y4724D01*
X4363Y4727D01*
X4360Y4728D01*
Y4739D01*
X4362Y4742D01*
X4363Y4749D01*
Y4791D01*
X4362Y4798D01*
X4360Y4801D01*
Y4853D01*
X4358Y4861D01*
X4353Y4868D01*
X4344Y4878D01*
X4345Y4882D01*
X4347Y4895D01*
X4345Y4908D01*
X4340Y4921D01*
X4332Y4932D01*
X4321Y4940D01*
X4308Y4945D01*
X4295Y4947D01*
X4282Y4945D01*
X4269Y4940D01*
X4258Y4932D01*
X4250Y4921D01*
X4245Y4908D01*
X4243Y4895D01*
X4245Y4882D01*
X4250Y4869D01*
X4258Y4858D01*
X4269Y4850D01*
X4282Y4845D01*
X4295Y4843D01*
X4308Y4845D01*
X4311Y4846D01*
X4315Y4843D01*
Y4801D01*
X4313Y4798D01*
X4311Y4791D01*
Y4749D01*
X4313Y4742D01*
X4315Y4739D01*
Y4728D01*
X4314D01*
X4307Y4727D01*
X4302Y4724D01*
X4298Y4718D01*
X4297Y4712D01*
Y4693D01*
X4298Y4686D01*
X4302Y4681D01*
X4307Y4678D01*
X4314Y4676D01*
X4356D01*
X4363Y4678D01*
X4368Y4681D01*
X4372Y4686D01*
X4372Y4691D01*
X4378D01*
X4378Y4686D01*
X4382Y4681D01*
X4387Y4678D01*
X4394Y4676D01*
X4436D01*
X4443Y4678D01*
X4448Y4681D01*
X4452Y4686D01*
X4453Y4693D01*
Y4712D01*
X4452Y4718D01*
X4448Y4724D01*
X4443Y4727D01*
X4440Y4728D01*
Y4739D01*
X4442Y4742D01*
X4444Y4749D01*
Y4791D01*
X4442Y4798D01*
X4440Y4801D01*
Y4841D01*
X4444Y4845D01*
X4455Y4843D01*
X4468Y4845D01*
X4481Y4850D01*
X4492Y4858D01*
X4500Y4869D01*
X4505Y4882D01*
X4507Y4895D01*
X4505Y4908D01*
X4500Y4921D01*
X4492Y4932D01*
X4481Y4940D01*
X4468Y4945D01*
X4455Y4947D01*
D02*
G37*
G36*
X2178Y4741D02*
X2173D01*
X2170Y4740D01*
X2168Y4736D01*
Y4720D01*
X2178D01*
Y4741D01*
D02*
G37*
G36*
X1885Y4556D02*
X1840D01*
Y4517D01*
X1842Y4507D01*
X1848Y4499D01*
X1856Y4493D01*
X1865Y4492D01*
X1885D01*
Y4556D01*
D02*
G37*
G36*
X1940D02*
X1895D01*
Y4492D01*
X1915D01*
X1924Y4493D01*
X1932Y4499D01*
X1938Y4507D01*
X1940Y4517D01*
Y4556D01*
D02*
G37*
G36*
X1352Y4499D02*
X1345D01*
Y4480D01*
X1364D01*
Y4487D01*
X1363Y4491D01*
X1360Y4495D01*
X1356Y4498D01*
X1352Y4499D01*
D02*
G37*
G36*
X1242D02*
X1235D01*
Y4480D01*
X1254D01*
Y4487D01*
X1253Y4491D01*
X1250Y4495D01*
X1246Y4498D01*
X1242Y4499D01*
D02*
G37*
G36*
X1335D02*
X1328D01*
X1324Y4498D01*
X1320Y4495D01*
X1317Y4491D01*
X1316Y4487D01*
Y4480D01*
X1335D01*
Y4499D01*
D02*
G37*
G36*
X2493Y4617D02*
X2420D01*
Y4565D01*
X2522D01*
Y4588D01*
X2521Y4596D01*
X2518Y4603D01*
X2513Y4609D01*
X2507Y4613D01*
X2500Y4616D01*
X2493Y4617D01*
D02*
G37*
G36*
X1885Y4630D02*
X1865D01*
X1856Y4628D01*
X1848Y4623D01*
X1842Y4615D01*
X1840Y4605D01*
Y4566D01*
X1885D01*
Y4630D01*
D02*
G37*
G36*
X2410Y4617D02*
X2337D01*
X2330Y4616D01*
X2323Y4613D01*
X2317Y4609D01*
X2312Y4603D01*
X2309Y4596D01*
X2308Y4588D01*
Y4565D01*
X2410D01*
Y4617D01*
D02*
G37*
G36*
Y4555D02*
X2308D01*
Y4531D01*
X2309Y4524D01*
X2312Y4517D01*
X2317Y4511D01*
X2323Y4506D01*
X2330Y4504D01*
X2337Y4503D01*
X2410D01*
Y4555D01*
D02*
G37*
G36*
X2522D02*
X2420D01*
Y4503D01*
X2493D01*
X2500Y4504D01*
X2507Y4506D01*
X2513Y4511D01*
X2518Y4517D01*
X2521Y4524D01*
X2522Y4531D01*
Y4555D01*
D02*
G37*
G36*
X4661Y4029D02*
X4619D01*
X4612Y4027D01*
X4607Y4024D01*
X4603Y4019D01*
X4602Y4012D01*
Y3993D01*
X4603Y3987D01*
X4607Y3981D01*
X4612Y3978D01*
X4619Y3977D01*
X4620D01*
X4621Y3972D01*
X4616Y3968D01*
X4613Y3963D01*
X4611Y3956D01*
Y3914D01*
X4613Y3907D01*
X4616Y3902D01*
X4621Y3898D01*
X4622Y3898D01*
Y3863D01*
X4618Y3860D01*
X4605Y3862D01*
X4592Y3860D01*
X4579Y3855D01*
X4568Y3847D01*
X4560Y3836D01*
X4555Y3823D01*
X4553Y3810D01*
X4555Y3797D01*
X4560Y3784D01*
X4568Y3773D01*
X4579Y3765D01*
X4592Y3760D01*
X4605Y3758D01*
X4618Y3760D01*
X4631Y3765D01*
X4642Y3773D01*
X4650Y3784D01*
X4655Y3797D01*
X4657Y3810D01*
X4655Y3823D01*
X4652Y3831D01*
X4653Y3832D01*
X4657Y3838D01*
X4658Y3845D01*
Y3902D01*
X4659Y3902D01*
X4662Y3907D01*
X4663Y3914D01*
Y3956D01*
X4662Y3963D01*
X4659Y3968D01*
X4658Y3968D01*
Y3977D01*
X4661D01*
X4668Y3978D01*
X4673Y3981D01*
X4677Y3987D01*
X4678Y3993D01*
Y4012D01*
X4677Y4019D01*
X4673Y4024D01*
X4668Y4027D01*
X4661Y4029D01*
D02*
G37*
%LPD*%
G36*
X4475Y2568D02*
X4470Y2567D01*
X4469Y2570D01*
X4464Y2572D01*
X4463D01*
Y2560D01*
Y2548D01*
X4464D01*
X4469Y2550D01*
X4470Y2553D01*
X4475Y2552D01*
Y2528D01*
X4470Y2527D01*
X4469Y2530D01*
X4464Y2532D01*
X4463D01*
Y2520D01*
Y2508D01*
X4464D01*
X4469Y2510D01*
X4470Y2513D01*
X4475Y2512D01*
Y2492D01*
X4470Y2491D01*
X4469Y2492D01*
X4466Y2494D01*
X4450D01*
Y2477D01*
X4445D01*
Y2472D01*
X4419D01*
Y2466D01*
X4420Y2464D01*
X4417Y2460D01*
X4300D01*
Y2590D01*
X4475D01*
Y2568D01*
D02*
G37*
G36*
X2000Y2720D02*
X1999Y2717D01*
Y2673D01*
X2000Y2670D01*
Y2450D01*
X2035Y2415D01*
Y2290D01*
X1940D01*
Y2435D01*
X1885Y2490D01*
X1745D01*
Y2571D01*
X1750Y2574D01*
X1754Y2571D01*
X1760Y2570D01*
X1770D01*
Y2649D01*
Y2728D01*
X1760D01*
X1754Y2727D01*
X1750Y2723D01*
X1745Y2726D01*
Y2740D01*
X1780Y2775D01*
X2000D01*
Y2720D01*
D02*
G37*
G36*
X1395Y1935D02*
X1660D01*
Y1829D01*
X1656Y1827D01*
X1654Y1827D01*
X1653D01*
Y1815D01*
Y1803D01*
X1654D01*
X1656Y1803D01*
X1660Y1801D01*
Y1780D01*
X1656Y1778D01*
X1654Y1779D01*
X1651Y1780D01*
X1638D01*
Y1750D01*
Y1720D01*
X1651D01*
X1654Y1721D01*
X1656Y1722D01*
X1660Y1720D01*
Y1700D01*
X1675D01*
Y1640D01*
X1604D01*
X1602Y1641D01*
X1601Y1641D01*
X1600Y1643D01*
X1579D01*
Y1648D01*
X1574D01*
Y1656D01*
X1563D01*
X1561Y1663D01*
X1563Y1665D01*
X1563Y1665D01*
X1574D01*
Y1673D01*
Y1682D01*
X1563D01*
X1563Y1682D01*
X1559Y1684D01*
X1555Y1800D01*
Y1800D01*
X1150D01*
Y2105D01*
X1395D01*
Y1935D01*
D02*
G37*
G36*
X4470Y1214D02*
X4466Y1204D01*
X4450D01*
Y1188D01*
Y1171D01*
X4466D01*
X4470Y1161D01*
Y1159D01*
X4466Y1157D01*
X4464Y1157D01*
X4463D01*
Y1145D01*
Y1133D01*
X4464D01*
X4466Y1133D01*
X4470Y1131D01*
Y1119D01*
X4466Y1117D01*
X4464Y1117D01*
X4463D01*
Y1105D01*
Y1093D01*
X4464D01*
X4466Y1093D01*
X4470Y1091D01*
Y1050D01*
X4325D01*
Y1225D01*
X4470D01*
Y1214D01*
D02*
G37*
G36*
X3428Y1135D02*
X3243D01*
Y1410D01*
X3428D01*
Y1135D01*
D02*
G37*
G36*
X3465Y1700D02*
X3695D01*
Y1555D01*
X3350D01*
X3336Y1569D01*
X3338Y1574D01*
X3348D01*
X3352Y1576D01*
X3354Y1579D01*
Y1595D01*
X3321D01*
Y1590D01*
X3317Y1588D01*
X3300Y1605D01*
Y1825D01*
X2250D01*
Y1793D01*
X2245Y1792D01*
X2244Y1795D01*
X2239Y1797D01*
X2238D01*
Y1785D01*
Y1773D01*
X2239D01*
X2244Y1775D01*
X2245Y1778D01*
X2250Y1777D01*
Y1743D01*
X2245Y1742D01*
X2244Y1745D01*
X2239Y1747D01*
X2238D01*
Y1735D01*
Y1723D01*
X2239D01*
X2244Y1725D01*
X2245Y1728D01*
X2250Y1727D01*
Y1640D01*
X2189D01*
X2187Y1641D01*
X2186Y1641D01*
X2185Y1643D01*
X2164D01*
Y1648D01*
X2159D01*
Y1656D01*
X2148D01*
X2147Y1661D01*
X2148Y1665D01*
X2159D01*
Y1673D01*
Y1682D01*
X2148D01*
X2145Y1690D01*
Y1950D01*
X3465D01*
Y1700D01*
D02*
G37*
G36*
X2077Y3652D02*
X2077Y3650D01*
X2078Y3649D01*
Y3464D01*
X2052Y3439D01*
X2047Y3440D01*
Y3470D01*
X2046Y3475D01*
X2044Y3478D01*
X2046Y3483D01*
X2050D01*
X2055Y3484D01*
X2059Y3486D01*
X2061Y3490D01*
X2062Y3495D01*
Y3640D01*
X2061Y3645D01*
X2059Y3649D01*
X2055Y3651D01*
X2050Y3652D01*
X2030D01*
X2029Y3657D01*
X2035Y3658D01*
X2040Y3662D01*
X2044Y3668D01*
X2045Y3673D01*
X2056D01*
X2077Y3652D01*
D02*
G37*
G36*
X1980Y3920D02*
X1979Y3917D01*
Y3873D01*
X1980Y3870D01*
Y3640D01*
X2050D01*
Y3495D01*
X2017D01*
X2015Y3500D01*
X2015Y3500D01*
X2018Y3504D01*
X2019Y3508D01*
Y3515D01*
X1995D01*
Y3520D01*
X1990D01*
Y3544D01*
X1983D01*
X1979Y3543D01*
X1975Y3541D01*
X1970Y3544D01*
Y3580D01*
X1885Y3665D01*
X1745D01*
Y3751D01*
X1750Y3754D01*
X1754Y3751D01*
X1760Y3750D01*
X1770D01*
Y3829D01*
Y3908D01*
X1760D01*
X1754Y3907D01*
X1750Y3903D01*
X1745Y3906D01*
Y3975D01*
X1980D01*
Y3920D01*
D02*
G37*
G36*
X2769Y2974D02*
X2776Y2969D01*
X2785Y2968D01*
X2883D01*
X2885Y2963D01*
X2882Y2961D01*
X2789Y2868D01*
X2774D01*
X2767Y2867D01*
X2762Y2864D01*
X2761Y2862D01*
X2659D01*
X2658Y2864D01*
X2653Y2867D01*
X2646Y2869D01*
X2604D01*
X2597Y2867D01*
X2592Y2864D01*
X2591Y2862D01*
X2563D01*
X2562Y2868D01*
X2559Y2873D01*
X2553Y2877D01*
X2549Y2878D01*
Y2882D01*
X2553Y2883D01*
X2559Y2887D01*
X2562Y2892D01*
X2563Y2898D01*
X2591D01*
X2592Y2896D01*
X2597Y2893D01*
X2604Y2891D01*
X2646D01*
X2653Y2893D01*
X2658Y2896D01*
X2662Y2901D01*
X2663Y2908D01*
Y2927D01*
X2662Y2933D01*
X2658Y2939D01*
X2653Y2942D01*
X2647Y2943D01*
Y2979D01*
X2651Y2980D01*
X2662Y2988D01*
X2670Y2999D01*
X2675Y3012D01*
X2677Y3025D01*
X2675Y3038D01*
X2670Y3051D01*
X2662Y3062D01*
X2651Y3070D01*
X2644Y3073D01*
X2645Y3078D01*
X2666D01*
X2769Y2974D01*
D02*
G37*
G36*
X3180Y1349D02*
X3181Y1343D01*
X3185Y1337D01*
X3190Y1333D01*
X3197Y1332D01*
X3219D01*
X3225Y1333D01*
X3226Y1334D01*
X3230Y1331D01*
Y1277D01*
X3226Y1275D01*
X3224Y1277D01*
X3217Y1278D01*
X3198D01*
X3192Y1277D01*
X3186Y1273D01*
X3183Y1268D01*
X3182Y1261D01*
Y1258D01*
X3143D01*
Y1261D01*
X3142Y1268D01*
X3139Y1273D01*
X3136Y1275D01*
Y1289D01*
X3134Y1296D01*
X3133Y1298D01*
X3130Y1302D01*
X3130Y1303D01*
Y1308D01*
X3130Y1308D01*
X3133Y1312D01*
X3134Y1314D01*
X3136Y1321D01*
Y1328D01*
X3143Y1330D01*
X3150Y1334D01*
X3154Y1340D01*
X3155Y1348D01*
Y1352D01*
X3180D01*
Y1349D01*
D02*
G37*
G36*
X3300Y3075D02*
X3200D01*
Y3025D01*
X3080D01*
Y3035D01*
X3081Y3038D01*
Y3082D01*
X3080Y3085D01*
Y3120D01*
X3081Y3123D01*
Y3167D01*
X3080Y3170D01*
Y3200D01*
X3300D01*
Y3075D01*
D02*
G37*
G36*
X1310Y2975D02*
Y2960D01*
X1585D01*
Y2760D01*
X1605Y2740D01*
Y2726D01*
X1600Y2723D01*
X1596Y2727D01*
X1590Y2728D01*
X1580D01*
Y2649D01*
Y2570D01*
X1590D01*
X1596Y2571D01*
X1600Y2574D01*
X1605Y2571D01*
Y2490D01*
X1395D01*
Y2305D01*
X1295D01*
Y2525D01*
X1380D01*
Y2592D01*
X1385Y2593D01*
X1386Y2590D01*
X1391Y2588D01*
X1392D01*
Y2600D01*
Y2612D01*
X1391D01*
X1386Y2610D01*
X1385Y2607D01*
X1380Y2608D01*
Y2825D01*
X1225D01*
Y3215D01*
X1310D01*
Y2975D01*
D02*
G37*
G36*
X1725Y3645D02*
X1870D01*
X1945Y3570D01*
Y3475D01*
X2030D01*
X2035Y3470D01*
Y3290D01*
X1940D01*
Y3175D01*
X1850D01*
Y2990D01*
X1325D01*
Y3231D01*
X1329Y3233D01*
X1331Y3233D01*
X1332D01*
Y3245D01*
Y3257D01*
X1331D01*
X1329Y3257D01*
X1325Y3259D01*
Y3290D01*
X1329Y3292D01*
X1331Y3291D01*
X1334Y3290D01*
X1347D01*
Y3320D01*
Y3350D01*
X1334D01*
X1331Y3349D01*
X1329Y3348D01*
X1325Y3350D01*
Y3375D01*
X1200D01*
Y3465D01*
X1430D01*
Y3645D01*
X1625D01*
Y3950D01*
X1650Y3975D01*
X1725D01*
Y3645D01*
D02*
G37*
G36*
X2956Y2512D02*
X2958Y2503D01*
X2963Y2496D01*
X2970Y2491D01*
X2976Y2490D01*
Y2485D01*
X2970Y2484D01*
X2963Y2479D01*
X2958Y2472D01*
X2956Y2463D01*
Y2442D01*
X2922D01*
Y2533D01*
X2956D01*
Y2512D01*
D02*
G37*
G36*
X1745Y2770D02*
X1725Y2750D01*
Y2470D01*
X1875D01*
X1920Y2425D01*
Y2270D01*
X2035D01*
Y2171D01*
X2030Y2168D01*
X2025Y2172D01*
X2018Y2173D01*
X1996D01*
X1990Y2172D01*
X1984Y2168D01*
X1981Y2162D01*
X1979Y2156D01*
Y2114D01*
X1981Y2108D01*
X1984Y2102D01*
X1985Y2102D01*
Y2090D01*
X1925D01*
Y2081D01*
X1914D01*
X1907Y2080D01*
X1900Y2075D01*
X1896Y2069D01*
X1895Y2062D01*
Y2028D01*
X1896Y2021D01*
X1900Y2015D01*
X1907Y2010D01*
X1912Y2009D01*
X1913Y2005D01*
X1911Y2004D01*
X1907Y1998D01*
X1905Y1992D01*
X1904Y1985D01*
X1905Y1978D01*
X1907Y1972D01*
X1911Y1966D01*
X1917Y1962D01*
X1923Y1960D01*
X1922Y1955D01*
X1415D01*
Y2125D01*
X1150D01*
Y2245D01*
X1185D01*
X1188Y2241D01*
Y2240D01*
X1212D01*
Y2241D01*
X1215Y2245D01*
X1235D01*
X1238Y2241D01*
Y2240D01*
X1262D01*
Y2241D01*
X1265Y2245D01*
X1295D01*
Y2285D01*
X1415D01*
Y2470D01*
X1625D01*
Y2750D01*
X1605Y2770D01*
Y2960D01*
X1745D01*
Y2770D01*
D02*
G37*
G36*
X3400Y4175D02*
X2725D01*
X2550Y4000D01*
X1650D01*
X1605Y3955D01*
Y3906D01*
X1600Y3903D01*
X1596Y3907D01*
X1590Y3908D01*
X1580D01*
Y3829D01*
Y3750D01*
X1590D01*
X1596Y3751D01*
X1600Y3754D01*
X1605Y3751D01*
Y3675D01*
X1410D01*
Y3500D01*
X1381D01*
X1378Y3504D01*
X1379Y3508D01*
Y3515D01*
X1331D01*
Y3508D01*
X1332Y3504D01*
X1329Y3500D01*
X1281D01*
Y3513D01*
X1279Y3517D01*
X1276Y3519D01*
X1260D01*
Y3502D01*
X1250D01*
Y3519D01*
X1234D01*
X1231Y3517D01*
X1229Y3513D01*
Y3500D01*
X1200D01*
Y3575D01*
X1300D01*
Y3725D01*
X1390D01*
Y3781D01*
X1394Y3783D01*
X1396Y3783D01*
X1397D01*
Y3795D01*
Y3807D01*
X1396D01*
X1394Y3807D01*
X1390Y3809D01*
Y3865D01*
X1394Y3867D01*
X1396Y3866D01*
X1399Y3865D01*
X1412D01*
Y3895D01*
Y3925D01*
X1399D01*
X1396Y3924D01*
X1394Y3923D01*
X1390Y3925D01*
Y4005D01*
X1510Y4125D01*
X2025D01*
X2200Y4300D01*
X2725D01*
X2835Y4410D01*
X3050D01*
X3070Y4430D01*
X3400D01*
Y4175D01*
D02*
G37*
%LPC*%
G36*
X4375Y1204D02*
X4374Y1204D01*
X4369Y1201D01*
X4366Y1196D01*
X4366Y1195D01*
X4375D01*
Y1204D01*
D02*
G37*
G36*
X2228Y1797D02*
X2227D01*
X2223Y1795D01*
X2221Y1791D01*
Y1790D01*
X2228D01*
Y1797D01*
D02*
G37*
G36*
X4440Y1204D02*
X4424D01*
X4421Y1202D01*
X4419Y1199D01*
Y1193D01*
X4440D01*
Y1204D01*
D02*
G37*
G36*
X1643Y1827D02*
X1642D01*
X1638Y1825D01*
X1636Y1821D01*
Y1820D01*
X1643D01*
Y1827D01*
D02*
G37*
G36*
Y1810D02*
X1636D01*
Y1809D01*
X1638Y1805D01*
X1642Y1803D01*
X1643D01*
Y1810D01*
D02*
G37*
G36*
X1580Y1889D02*
Y1880D01*
X1589D01*
X1589Y1881D01*
X1586Y1886D01*
X1581Y1889D01*
X1580Y1889D01*
D02*
G37*
G36*
X1570D02*
X1569Y1889D01*
X1564Y1886D01*
X1561Y1881D01*
X1561Y1880D01*
X1570D01*
Y1889D01*
D02*
G37*
G36*
X1630D02*
Y1880D01*
X1639D01*
X1639Y1881D01*
X1636Y1886D01*
X1631Y1889D01*
X1630Y1889D01*
D02*
G37*
G36*
X1620D02*
X1619Y1889D01*
X1614Y1886D01*
X1611Y1881D01*
X1611Y1880D01*
X1620D01*
Y1889D01*
D02*
G37*
G36*
X1589Y1870D02*
X1580D01*
Y1861D01*
X1581Y1861D01*
X1586Y1864D01*
X1589Y1869D01*
X1589Y1870D01*
D02*
G37*
G36*
X1570D02*
X1561D01*
X1561Y1869D01*
X1564Y1864D01*
X1569Y1861D01*
X1570Y1861D01*
Y1870D01*
D02*
G37*
G36*
X1639D02*
X1630D01*
Y1861D01*
X1631Y1861D01*
X1636Y1864D01*
X1639Y1869D01*
X1639Y1870D01*
D02*
G37*
G36*
X1620D02*
X1611D01*
X1611Y1869D01*
X1614Y1864D01*
X1619Y1861D01*
X1620Y1861D01*
Y1870D01*
D02*
G37*
G36*
X2228Y1780D02*
X2221D01*
Y1779D01*
X2223Y1775D01*
X2227Y1773D01*
X2228D01*
Y1780D01*
D02*
G37*
G36*
X3388Y1235D02*
X3378D01*
Y1219D01*
X3380Y1215D01*
X3383Y1214D01*
X3388D01*
Y1235D01*
D02*
G37*
G36*
X1995Y2325D02*
X1976D01*
Y2318D01*
X1977Y2314D01*
X1980Y2310D01*
X1984Y2307D01*
X1988Y2306D01*
X1995D01*
Y2325D01*
D02*
G37*
G36*
X3297Y1235D02*
X3287D01*
Y1214D01*
X3292D01*
X3295Y1215D01*
X3297Y1219D01*
Y1235D01*
D02*
G37*
G36*
X2024Y2325D02*
X2005D01*
Y2306D01*
X2012D01*
X2016Y2307D01*
X2020Y2310D01*
X2023Y2314D01*
X2024Y2318D01*
Y2325D01*
D02*
G37*
G36*
X1628Y1780D02*
X1615D01*
X1612Y1779D01*
X1609Y1777D01*
X1607Y1775D01*
X1607Y1772D01*
Y1755D01*
X1628D01*
Y1780D01*
D02*
G37*
G36*
X3375Y1804D02*
X3370Y1803D01*
X3360Y1799D01*
X3352Y1793D01*
X3346Y1785D01*
X3342Y1775D01*
X3341Y1770D01*
X3375D01*
Y1804D01*
D02*
G37*
G36*
X3407Y1235D02*
X3398D01*
Y1214D01*
X3402D01*
X3405Y1215D01*
X3407Y1219D01*
Y1235D01*
D02*
G37*
G36*
X3277D02*
X3268D01*
Y1219D01*
X3270Y1215D01*
X3273Y1214D01*
X3277D01*
Y1235D01*
D02*
G37*
G36*
X3385Y1804D02*
Y1770D01*
X3419D01*
X3418Y1775D01*
X3414Y1785D01*
X3408Y1793D01*
X3400Y1799D01*
X3390Y1803D01*
X3385Y1804D01*
D02*
G37*
G36*
X4375Y1185D02*
X4366D01*
X4366Y1184D01*
X4369Y1179D01*
X4374Y1176D01*
X4375Y1176D01*
Y1185D01*
D02*
G37*
G36*
X1852Y2401D02*
X1680D01*
Y2236D01*
X1886D01*
Y2367D01*
X1885Y2376D01*
X1881Y2384D01*
X1876Y2391D01*
X1869Y2396D01*
X1861Y2400D01*
X1852Y2401D01*
D02*
G37*
G36*
X1345Y2259D02*
X1338D01*
X1334Y2258D01*
X1330Y2255D01*
X1327Y2251D01*
X1326Y2247D01*
Y2240D01*
X1345D01*
Y2259D01*
D02*
G37*
G36*
X4394Y1185D02*
X4385D01*
Y1176D01*
X4386Y1176D01*
X4391Y1179D01*
X4394Y1184D01*
X4394Y1185D01*
D02*
G37*
G36*
X4385Y1204D02*
Y1195D01*
X4394D01*
X4394Y1196D01*
X4391Y1201D01*
X4386Y1204D01*
X4385Y1204D01*
D02*
G37*
G36*
X1362Y2259D02*
X1355D01*
Y2240D01*
X1374D01*
Y2247D01*
X1373Y2251D01*
X1370Y2255D01*
X1366Y2258D01*
X1362Y2259D01*
D02*
G37*
G36*
X3345Y1194D02*
Y1185D01*
X3354D01*
X3354Y1186D01*
X3351Y1191D01*
X3346Y1194D01*
X3345Y1194D01*
D02*
G37*
G36*
X1345Y2230D02*
X1326D01*
Y2223D01*
X1327Y2218D01*
X1330Y2214D01*
X1334Y2212D01*
X1338Y2211D01*
X1345D01*
Y2230D01*
D02*
G37*
G36*
X1374D02*
X1355D01*
Y2211D01*
X1362D01*
X1366Y2212D01*
X1370Y2214D01*
X1373Y2218D01*
X1374Y2223D01*
Y2230D01*
D02*
G37*
G36*
X2024Y2215D02*
X2005D01*
Y2196D01*
X2012D01*
X2016Y2197D01*
X2020Y2200D01*
X2023Y2204D01*
X2024Y2208D01*
Y2215D01*
D02*
G37*
G36*
X1345Y2174D02*
X1329D01*
X1326Y2172D01*
X1324Y2168D01*
Y2162D01*
X1345D01*
Y2174D01*
D02*
G37*
G36*
X1371D02*
X1355D01*
Y2162D01*
X1376D01*
Y2168D01*
X1374Y2172D01*
X1371Y2174D01*
D02*
G37*
G36*
X1995Y2215D02*
X1976D01*
Y2208D01*
X1977Y2204D01*
X1980Y2200D01*
X1984Y2197D01*
X1988Y2196D01*
X1995D01*
Y2215D01*
D02*
G37*
G36*
X1195Y2230D02*
X1188D01*
Y2229D01*
X1190Y2225D01*
X1194Y2223D01*
X1195D01*
Y2230D01*
D02*
G37*
G36*
X2012Y2244D02*
X2005D01*
Y2225D01*
X2024D01*
Y2232D01*
X2023Y2236D01*
X2020Y2240D01*
X2016Y2243D01*
X2012Y2244D01*
D02*
G37*
G36*
X3335Y1194D02*
X3334Y1194D01*
X3329Y1191D01*
X3326Y1186D01*
X3326Y1185D01*
X3335D01*
Y1194D01*
D02*
G37*
G36*
X1670Y2401D02*
X1498D01*
X1489Y2400D01*
X1481Y2396D01*
X1474Y2391D01*
X1469Y2384D01*
X1465Y2376D01*
X1464Y2367D01*
Y2236D01*
X1670D01*
Y2401D01*
D02*
G37*
G36*
X1995Y2244D02*
X1988D01*
X1984Y2243D01*
X1980Y2240D01*
X1977Y2236D01*
X1976Y2232D01*
Y2225D01*
X1995D01*
Y2244D01*
D02*
G37*
G36*
X1212Y2230D02*
X1205D01*
Y2223D01*
X1206D01*
X1210Y2225D01*
X1212Y2229D01*
Y2230D01*
D02*
G37*
G36*
X1245D02*
X1238D01*
Y2229D01*
X1240Y2225D01*
X1244Y2223D01*
X1245D01*
Y2230D01*
D02*
G37*
G36*
X1262D02*
X1255D01*
Y2223D01*
X1256D01*
X1260Y2225D01*
X1262Y2229D01*
Y2230D01*
D02*
G37*
G36*
X3290Y1194D02*
Y1185D01*
X3299D01*
X3299Y1186D01*
X3296Y1191D01*
X3291Y1194D01*
X3290Y1194D01*
D02*
G37*
G36*
X1376Y2078D02*
X1355D01*
Y2066D01*
X1371D01*
X1374Y2068D01*
X1376Y2072D01*
Y2078D01*
D02*
G37*
G36*
X1345Y2099D02*
X1329D01*
X1326Y2097D01*
X1324Y2094D01*
Y2088D01*
X1345D01*
Y2099D01*
D02*
G37*
G36*
X1371D02*
X1355D01*
Y2088D01*
X1376D01*
Y2094D01*
X1374Y2097D01*
X1371Y2099D01*
D02*
G37*
G36*
X1345Y2078D02*
X1324D01*
Y2072D01*
X1326Y2068D01*
X1329Y2066D01*
X1345D01*
Y2078D01*
D02*
G37*
G36*
X1670Y2226D02*
X1464D01*
Y2096D01*
X1465Y2087D01*
X1469Y2079D01*
X1474Y2072D01*
X1481Y2066D01*
X1489Y2063D01*
X1498Y2062D01*
X1670D01*
Y2226D01*
D02*
G37*
G36*
X3280Y1194D02*
X3279Y1194D01*
X3274Y1191D01*
X3271Y1186D01*
X3271Y1185D01*
X3280D01*
Y1194D01*
D02*
G37*
G36*
X1886Y2226D02*
X1680D01*
Y2062D01*
X1852D01*
X1861Y2063D01*
X1869Y2066D01*
X1876Y2072D01*
X1881Y2079D01*
X1885Y2087D01*
X1886Y2096D01*
Y2226D01*
D02*
G37*
G36*
X1928Y2130D02*
X1916D01*
Y2114D01*
X1918Y2111D01*
X1922Y2109D01*
X1928D01*
Y2130D01*
D02*
G37*
G36*
X1345Y2152D02*
X1324D01*
Y2146D01*
X1326Y2143D01*
X1329Y2141D01*
X1345D01*
Y2152D01*
D02*
G37*
G36*
X3385Y1194D02*
X3384Y1194D01*
X3379Y1191D01*
X3376Y1186D01*
X3376Y1185D01*
X3385D01*
Y1194D01*
D02*
G37*
G36*
X1376Y2152D02*
X1355D01*
Y2141D01*
X1371D01*
X1374Y2143D01*
X1376Y2146D01*
Y2152D01*
D02*
G37*
G36*
X1944Y2161D02*
X1938D01*
Y2140D01*
X1949D01*
Y2156D01*
X1947Y2159D01*
X1944Y2161D01*
D02*
G37*
G36*
X1949Y2130D02*
X1938D01*
Y2109D01*
X1944D01*
X1947Y2111D01*
X1949Y2114D01*
Y2130D01*
D02*
G37*
G36*
X3395Y1194D02*
Y1185D01*
X3404D01*
X3404Y1186D01*
X3401Y1191D01*
X3396Y1194D01*
X3395Y1194D01*
D02*
G37*
G36*
X1928Y2161D02*
X1922D01*
X1918Y2159D01*
X1916Y2156D01*
Y2140D01*
X1928D01*
Y2161D01*
D02*
G37*
G36*
X3335Y1235D02*
X3326D01*
X3326Y1234D01*
X3329Y1229D01*
X3334Y1226D01*
X3335Y1226D01*
Y1235D01*
D02*
G37*
G36*
X4453Y1140D02*
X4446D01*
Y1139D01*
X4448Y1135D01*
X4452Y1133D01*
X4453D01*
Y1140D01*
D02*
G37*
G36*
X4375Y1159D02*
X4374Y1159D01*
X4369Y1156D01*
X4366Y1151D01*
X4366Y1150D01*
X4375D01*
Y1159D01*
D02*
G37*
G36*
X3385Y1319D02*
X3384Y1319D01*
X3379Y1316D01*
X3376Y1311D01*
X3376Y1310D01*
X3385D01*
Y1319D01*
D02*
G37*
G36*
X4394Y1140D02*
X4385D01*
Y1131D01*
X4386Y1131D01*
X4391Y1134D01*
X4394Y1139D01*
X4394Y1140D01*
D02*
G37*
G36*
X3345Y1384D02*
Y1375D01*
X3354D01*
X3354Y1376D01*
X3351Y1381D01*
X3346Y1384D01*
X3345Y1384D01*
D02*
G37*
G36*
X3335D02*
X3334Y1384D01*
X3329Y1381D01*
X3326Y1376D01*
X3326Y1375D01*
X3335D01*
Y1384D01*
D02*
G37*
G36*
X3395D02*
Y1375D01*
X3404D01*
X3404Y1376D01*
X3401Y1381D01*
X3396Y1384D01*
X3395Y1384D01*
D02*
G37*
G36*
X3385D02*
X3384Y1384D01*
X3379Y1381D01*
X3376Y1376D01*
X3376Y1375D01*
X3385D01*
Y1384D01*
D02*
G37*
G36*
X3335Y1319D02*
X3334Y1319D01*
X3329Y1316D01*
X3326Y1311D01*
X3326Y1310D01*
X3335D01*
Y1319D01*
D02*
G37*
G36*
X3345D02*
Y1310D01*
X3354D01*
X3354Y1311D01*
X3351Y1316D01*
X3346Y1319D01*
X3345Y1319D01*
D02*
G37*
G36*
X3348Y1626D02*
X3342D01*
Y1605D01*
X3354D01*
Y1621D01*
X3352Y1624D01*
X3348Y1626D01*
D02*
G37*
G36*
X3332D02*
X3326D01*
X3323Y1624D01*
X3321Y1621D01*
Y1605D01*
X3332D01*
Y1626D01*
D02*
G37*
G36*
X3689Y1585D02*
X3675D01*
Y1572D01*
X3683D01*
X3687Y1574D01*
X3689Y1578D01*
Y1585D01*
D02*
G37*
G36*
X3665D02*
X3652D01*
Y1578D01*
X3654Y1574D01*
X3658Y1572D01*
X3665D01*
Y1585D01*
D02*
G37*
G36*
X3683Y1608D02*
X3675D01*
Y1595D01*
X3689D01*
Y1602D01*
X3687Y1606D01*
X3683Y1608D01*
D02*
G37*
G36*
X3665D02*
X3658D01*
X3654Y1606D01*
X3652Y1602D01*
Y1595D01*
X3665D01*
Y1608D01*
D02*
G37*
G36*
X3395Y1319D02*
Y1310D01*
X3404D01*
X3404Y1311D01*
X3401Y1316D01*
X3396Y1319D01*
X3395Y1319D01*
D02*
G37*
G36*
X3335Y1365D02*
X3326D01*
X3326Y1364D01*
X3329Y1359D01*
X3334Y1356D01*
X3335Y1356D01*
Y1365D01*
D02*
G37*
G36*
Y1175D02*
X3326D01*
X3326Y1174D01*
X3329Y1169D01*
X3334Y1166D01*
X3335Y1166D01*
Y1175D01*
D02*
G37*
G36*
X3299D02*
X3290D01*
Y1166D01*
X3291Y1166D01*
X3296Y1169D01*
X3299Y1174D01*
X3299Y1175D01*
D02*
G37*
G36*
X3354Y1365D02*
X3345D01*
Y1356D01*
X3346Y1356D01*
X3351Y1359D01*
X3354Y1364D01*
X3354Y1365D01*
D02*
G37*
G36*
X3404Y1175D02*
X3395D01*
Y1166D01*
X3396Y1166D01*
X3401Y1169D01*
X3404Y1174D01*
X3404Y1175D01*
D02*
G37*
G36*
X3299Y1365D02*
X3287D01*
Y1344D01*
X3293D01*
X3297Y1346D01*
X3299Y1349D01*
Y1365D01*
D02*
G37*
G36*
X3354Y1175D02*
X3345D01*
Y1166D01*
X3346Y1166D01*
X3351Y1169D01*
X3354Y1174D01*
X3354Y1175D01*
D02*
G37*
G36*
X3385D02*
X3376D01*
X3376Y1174D01*
X3379Y1169D01*
X3384Y1166D01*
X3385Y1166D01*
Y1175D01*
D02*
G37*
G36*
X3293Y1396D02*
X3287D01*
Y1375D01*
X3299D01*
Y1391D01*
X3297Y1394D01*
X3293Y1396D01*
D02*
G37*
G36*
X3277Y1365D02*
X3266D01*
Y1349D01*
X3268Y1346D01*
X3271Y1344D01*
X3277D01*
Y1365D01*
D02*
G37*
G36*
X4385Y1159D02*
Y1150D01*
X4394D01*
X4394Y1151D01*
X4391Y1156D01*
X4386Y1159D01*
X4385Y1159D01*
D02*
G37*
G36*
X4453Y1157D02*
X4452D01*
X4448Y1155D01*
X4446Y1151D01*
Y1150D01*
X4453D01*
Y1157D01*
D02*
G37*
G36*
X3385Y1365D02*
X3376D01*
X3376Y1364D01*
X3379Y1359D01*
X3384Y1356D01*
X3385Y1356D01*
Y1365D01*
D02*
G37*
G36*
X3280Y1175D02*
X3271D01*
X3271Y1174D01*
X3274Y1169D01*
X3279Y1166D01*
X3280Y1166D01*
Y1175D01*
D02*
G37*
G36*
X3277Y1396D02*
X3271D01*
X3268Y1394D01*
X3266Y1391D01*
Y1375D01*
X3277D01*
Y1396D01*
D02*
G37*
G36*
X3404Y1365D02*
X3395D01*
Y1356D01*
X3396Y1356D01*
X3401Y1359D01*
X3404Y1364D01*
X3404Y1365D01*
D02*
G37*
G36*
X3290Y1319D02*
Y1310D01*
X3299D01*
X3299Y1311D01*
X3296Y1316D01*
X3291Y1319D01*
X3290Y1319D01*
D02*
G37*
G36*
X2228Y1730D02*
X2221D01*
Y1729D01*
X2223Y1725D01*
X2227Y1723D01*
X2228D01*
Y1730D01*
D02*
G37*
G36*
X3280Y1300D02*
X3271D01*
X3271Y1299D01*
X3274Y1294D01*
X3279Y1291D01*
X3280Y1291D01*
Y1300D01*
D02*
G37*
G36*
X3402Y1266D02*
X3398D01*
Y1245D01*
X3407D01*
Y1261D01*
X3405Y1265D01*
X3402Y1266D01*
D02*
G37*
G36*
X3375Y1760D02*
X3341D01*
X3342Y1755D01*
X3346Y1745D01*
X3352Y1737D01*
X3360Y1731D01*
X3370Y1727D01*
X3375Y1726D01*
Y1760D01*
D02*
G37*
G36*
X3354Y1300D02*
X3345D01*
Y1291D01*
X3346Y1291D01*
X3351Y1294D01*
X3354Y1299D01*
X3354Y1300D01*
D02*
G37*
G36*
X3385D02*
X3376D01*
X3376Y1299D01*
X3379Y1294D01*
X3384Y1291D01*
X3385Y1291D01*
Y1300D01*
D02*
G37*
G36*
X3299D02*
X3290D01*
Y1291D01*
X3291Y1291D01*
X3296Y1294D01*
X3299Y1299D01*
X3299Y1300D01*
D02*
G37*
G36*
X3335D02*
X3326D01*
X3326Y1299D01*
X3329Y1294D01*
X3334Y1291D01*
X3335Y1291D01*
Y1300D01*
D02*
G37*
G36*
X3419Y1760D02*
X3385D01*
Y1726D01*
X3390Y1727D01*
X3400Y1731D01*
X3408Y1737D01*
X3414Y1745D01*
X3418Y1755D01*
X3419Y1760D01*
D02*
G37*
G36*
X3277Y1266D02*
X3273D01*
X3270Y1265D01*
X3268Y1261D01*
Y1245D01*
X3277D01*
Y1266D01*
D02*
G37*
G36*
X3354Y1235D02*
X3345D01*
Y1226D01*
X3346Y1226D01*
X3351Y1229D01*
X3354Y1234D01*
X3354Y1235D01*
D02*
G37*
G36*
X2228Y1747D02*
X2227D01*
X2223Y1745D01*
X2221Y1741D01*
Y1740D01*
X2228D01*
Y1747D01*
D02*
G37*
G36*
X3345Y1254D02*
Y1245D01*
X3354D01*
X3354Y1246D01*
X3351Y1251D01*
X3346Y1254D01*
X3345Y1254D01*
D02*
G37*
G36*
X3388Y1266D02*
X3383D01*
X3380Y1265D01*
X3378Y1261D01*
Y1245D01*
X3388D01*
Y1266D01*
D02*
G37*
G36*
X3292D02*
X3287D01*
Y1245D01*
X3297D01*
Y1261D01*
X3295Y1265D01*
X3292Y1266D01*
D02*
G37*
G36*
X3335Y1254D02*
X3334Y1254D01*
X3329Y1251D01*
X3326Y1246D01*
X3326Y1245D01*
X3335D01*
Y1254D01*
D02*
G37*
G36*
X1628Y1745D02*
X1607D01*
Y1728D01*
X1607Y1725D01*
X1609Y1723D01*
X1612Y1721D01*
X1615Y1720D01*
X1628D01*
Y1745D01*
D02*
G37*
G36*
X4453Y1100D02*
X4446D01*
Y1099D01*
X4448Y1095D01*
X4452Y1093D01*
X4453D01*
Y1100D01*
D02*
G37*
G36*
X4375Y1114D02*
X4374Y1114D01*
X4369Y1111D01*
X4366Y1106D01*
X4366Y1105D01*
X4375D01*
Y1114D01*
D02*
G37*
G36*
X1599Y1668D02*
X1584D01*
Y1665D01*
X1595D01*
X1599Y1666D01*
X1599Y1668D01*
D02*
G37*
G36*
X2180Y1656D02*
X2169D01*
Y1653D01*
X2184D01*
X2184Y1655D01*
X2180Y1656D01*
D02*
G37*
G36*
X1595D02*
X1584D01*
Y1653D01*
X1599D01*
X1599Y1655D01*
X1595Y1656D01*
D02*
G37*
G36*
X4375Y1140D02*
X4366D01*
X4366Y1139D01*
X4369Y1134D01*
X4374Y1131D01*
X4375Y1131D01*
Y1140D01*
D02*
G37*
G36*
X4385Y1114D02*
Y1105D01*
X4394D01*
X4394Y1106D01*
X4391Y1111D01*
X4386Y1114D01*
X4385Y1114D01*
D02*
G37*
G36*
X4453Y1117D02*
X4452D01*
X4448Y1115D01*
X4446Y1111D01*
Y1110D01*
X4453D01*
Y1117D01*
D02*
G37*
G36*
X2184Y1668D02*
X2169D01*
Y1665D01*
X2180D01*
X2184Y1666D01*
X2184Y1668D01*
D02*
G37*
G36*
X3404Y1300D02*
X3395D01*
Y1291D01*
X3396Y1291D01*
X3401Y1294D01*
X3404Y1299D01*
X3404Y1300D01*
D02*
G37*
G36*
X2180Y1682D02*
X2169D01*
Y1678D01*
X2184D01*
X2184Y1681D01*
X2180Y1682D01*
D02*
G37*
G36*
X1595D02*
X1584D01*
Y1678D01*
X1599D01*
X1599Y1681D01*
X1595Y1682D01*
D02*
G37*
G36*
X4375Y1095D02*
X4366D01*
X4366Y1094D01*
X4369Y1089D01*
X4374Y1086D01*
X4375Y1086D01*
Y1095D01*
D02*
G37*
G36*
X4394D02*
X4385D01*
Y1086D01*
X4386Y1086D01*
X4391Y1089D01*
X4394Y1094D01*
X4394Y1095D01*
D02*
G37*
G36*
X3280Y1319D02*
X3279Y1319D01*
X3274Y1316D01*
X3271Y1311D01*
X3271Y1310D01*
X3280D01*
Y1319D01*
D02*
G37*
G36*
X4440Y1183D02*
X4419D01*
Y1177D01*
X4421Y1173D01*
X4424Y1171D01*
X4440D01*
Y1183D01*
D02*
G37*
G36*
X2007Y3434D02*
X2000D01*
Y3415D01*
X2019D01*
Y3422D01*
X2018Y3426D01*
X2015Y3430D01*
X2011Y3433D01*
X2007Y3434D01*
D02*
G37*
G36*
X1990D02*
X1983D01*
X1979Y3433D01*
X1975Y3430D01*
X1972Y3426D01*
X1971Y3422D01*
Y3415D01*
X1990D01*
Y3434D01*
D02*
G37*
G36*
X1852Y3581D02*
X1680D01*
Y3416D01*
X1886D01*
Y3547D01*
X1885Y3556D01*
X1881Y3564D01*
X1876Y3571D01*
X1869Y3576D01*
X1861Y3580D01*
X1852Y3581D01*
D02*
G37*
G36*
X1670D02*
X1498D01*
X1489Y3580D01*
X1481Y3576D01*
X1474Y3571D01*
X1469Y3564D01*
X1465Y3556D01*
X1464Y3547D01*
Y3416D01*
X1670D01*
Y3581D01*
D02*
G37*
G36*
X1367Y3434D02*
X1360D01*
Y3415D01*
X1379D01*
Y3422D01*
X1378Y3426D01*
X1375Y3430D01*
X1371Y3433D01*
X1367Y3434D01*
D02*
G37*
G36*
X1250Y3423D02*
X1229D01*
Y3417D01*
X1231Y3413D01*
X1234Y3411D01*
X1250D01*
Y3423D01*
D02*
G37*
G36*
X2019Y3405D02*
X2000D01*
Y3386D01*
X2007D01*
X2011Y3387D01*
X2015Y3390D01*
X2018Y3394D01*
X2019Y3398D01*
Y3405D01*
D02*
G37*
G36*
X1350Y3434D02*
X1343D01*
X1339Y3433D01*
X1335Y3430D01*
X1332Y3426D01*
X1331Y3422D01*
Y3415D01*
X1350D01*
Y3434D01*
D02*
G37*
G36*
X1281Y3423D02*
X1260D01*
Y3411D01*
X1276D01*
X1279Y3413D01*
X1281Y3417D01*
Y3423D01*
D02*
G37*
G36*
X1959Y3690D02*
X1948D01*
Y3669D01*
X1954D01*
X1957Y3671D01*
X1959Y3674D01*
Y3690D01*
D02*
G37*
G36*
X1938D02*
X1926D01*
Y3674D01*
X1928Y3671D01*
X1932Y3669D01*
X1938D01*
Y3690D01*
D02*
G37*
G36*
X1954Y3721D02*
X1948D01*
Y3700D01*
X1959D01*
Y3716D01*
X1957Y3719D01*
X1954Y3721D01*
D02*
G37*
G36*
X1938D02*
X1932D01*
X1928Y3719D01*
X1926Y3716D01*
Y3700D01*
X1938D01*
Y3721D01*
D02*
G37*
G36*
X2007Y3544D02*
X2000D01*
Y3525D01*
X2019D01*
Y3532D01*
X2018Y3537D01*
X2015Y3541D01*
X2011Y3543D01*
X2007Y3544D01*
D02*
G37*
G36*
X1276Y3444D02*
X1260D01*
Y3433D01*
X1281D01*
Y3439D01*
X1279Y3442D01*
X1276Y3444D01*
D02*
G37*
G36*
X1250D02*
X1234D01*
X1231Y3442D01*
X1229Y3439D01*
Y3433D01*
X1250D01*
Y3444D01*
D02*
G37*
G36*
X1367Y3544D02*
X1360D01*
Y3525D01*
X1379D01*
Y3532D01*
X1378Y3536D01*
X1375Y3540D01*
X1371Y3543D01*
X1367Y3544D01*
D02*
G37*
G36*
X1350D02*
X1343D01*
X1339Y3543D01*
X1335Y3540D01*
X1332Y3536D01*
X1331Y3532D01*
Y3525D01*
X1350D01*
Y3544D01*
D02*
G37*
G36*
X1670Y3406D02*
X1464D01*
Y3276D01*
X1465Y3267D01*
X1469Y3259D01*
X1474Y3252D01*
X1481Y3246D01*
X1489Y3243D01*
X1498Y3242D01*
X1670D01*
Y3406D01*
D02*
G37*
G36*
X1349Y3240D02*
X1342D01*
Y3233D01*
X1343D01*
X1347Y3235D01*
X1349Y3239D01*
Y3240D01*
D02*
G37*
G36*
X1343Y3257D02*
X1342D01*
Y3250D01*
X1349D01*
Y3251D01*
X1347Y3255D01*
X1343Y3257D01*
D02*
G37*
G36*
X1886Y3406D02*
X1680D01*
Y3242D01*
X1852D01*
X1861Y3243D01*
X1869Y3246D01*
X1876Y3252D01*
X1881Y3259D01*
X1885Y3267D01*
X1886Y3276D01*
Y3406D01*
D02*
G37*
G36*
X1363Y3201D02*
X1357D01*
Y3180D01*
X1369D01*
Y3196D01*
X1367Y3199D01*
X1363Y3201D01*
D02*
G37*
G36*
X1273D02*
X1267D01*
X1263Y3199D01*
X1261Y3196D01*
Y3180D01*
X1273D01*
Y3201D01*
D02*
G37*
G36*
X3240Y3170D02*
Y3150D01*
X3260D01*
X3260Y3152D01*
X3257Y3158D01*
X3253Y3163D01*
X3248Y3167D01*
X3242Y3170D01*
X3240Y3170D01*
D02*
G37*
G36*
X1347Y3201D02*
X1341D01*
X1338Y3199D01*
X1336Y3196D01*
Y3180D01*
X1347D01*
Y3201D01*
D02*
G37*
G36*
X1289D02*
X1283D01*
Y3180D01*
X1294D01*
Y3196D01*
X1292Y3199D01*
X1289Y3201D01*
D02*
G37*
G36*
X1350Y3405D02*
X1331D01*
Y3398D01*
X1332Y3393D01*
X1335Y3389D01*
X1339Y3387D01*
X1343Y3386D01*
X1350D01*
Y3405D01*
D02*
G37*
G36*
X2009Y3351D02*
X2003D01*
Y3330D01*
X2014D01*
Y3346D01*
X2012Y3349D01*
X2009Y3351D01*
D02*
G37*
G36*
X1990Y3405D02*
X1971D01*
Y3398D01*
X1972Y3394D01*
X1975Y3390D01*
X1979Y3387D01*
X1983Y3386D01*
X1990D01*
Y3405D01*
D02*
G37*
G36*
X1379Y3405D02*
X1360D01*
Y3386D01*
X1367D01*
X1371Y3387D01*
X1375Y3389D01*
X1378Y3393D01*
X1379Y3398D01*
Y3405D01*
D02*
G37*
G36*
X1993Y3351D02*
X1987D01*
X1983Y3349D01*
X1981Y3346D01*
Y3330D01*
X1993D01*
Y3351D01*
D02*
G37*
G36*
Y3320D02*
X1981D01*
Y3304D01*
X1983Y3301D01*
X1987Y3299D01*
X1993D01*
Y3320D01*
D02*
G37*
G36*
X1378Y3315D02*
X1357D01*
Y3290D01*
X1370D01*
X1373Y3291D01*
X1376Y3293D01*
X1378Y3295D01*
X1378Y3298D01*
Y3315D01*
D02*
G37*
G36*
X1370Y3350D02*
X1357D01*
Y3325D01*
X1378D01*
Y3342D01*
X1378Y3345D01*
X1376Y3347D01*
X1373Y3349D01*
X1370Y3350D01*
D02*
G37*
G36*
X2014Y3320D02*
X2003D01*
Y3299D01*
X2009D01*
X2012Y3301D01*
X2014Y3304D01*
Y3320D01*
D02*
G37*
G36*
X2935Y4299D02*
X2890D01*
Y4260D01*
X2892Y4250D01*
X2898Y4242D01*
X2906Y4237D01*
X2915Y4235D01*
X2935D01*
Y4299D01*
D02*
G37*
G36*
X2493Y4227D02*
X2420D01*
Y4175D01*
X2522D01*
Y4199D01*
X2521Y4206D01*
X2518Y4213D01*
X2513Y4219D01*
X2507Y4224D01*
X2500Y4226D01*
X2493Y4227D01*
D02*
G37*
G36*
X2935Y4373D02*
X2915D01*
X2906Y4372D01*
X2898Y4366D01*
X2892Y4358D01*
X2890Y4348D01*
Y4309D01*
X2935D01*
Y4373D01*
D02*
G37*
G36*
X2990Y4299D02*
X2945D01*
Y4235D01*
X2965D01*
X2974Y4237D01*
X2982Y4242D01*
X2988Y4250D01*
X2990Y4260D01*
Y4299D01*
D02*
G37*
G36*
X2410Y4227D02*
X2337D01*
X2330Y4226D01*
X2323Y4224D01*
X2317Y4219D01*
X2312Y4213D01*
X2309Y4206D01*
X2308Y4199D01*
Y4175D01*
X2410D01*
Y4227D01*
D02*
G37*
G36*
X1961Y3925D02*
X1948D01*
Y3900D01*
X1968D01*
Y3917D01*
X1968Y3920D01*
X1966Y3922D01*
X1964Y3924D01*
X1961Y3925D01*
D02*
G37*
G36*
X1938D02*
X1925D01*
X1922Y3924D01*
X1919Y3922D01*
X1917Y3920D01*
X1917Y3917D01*
Y3900D01*
X1938D01*
Y3925D01*
D02*
G37*
G36*
X2522Y4165D02*
X2420D01*
Y4113D01*
X2493D01*
X2500Y4114D01*
X2507Y4117D01*
X2513Y4121D01*
X2518Y4127D01*
X2521Y4134D01*
X2522Y4142D01*
Y4165D01*
D02*
G37*
G36*
X2410D02*
X2308D01*
Y4142D01*
X2309Y4134D01*
X2312Y4127D01*
X2317Y4121D01*
X2323Y4117D01*
X2330Y4114D01*
X2337Y4113D01*
X2410D01*
Y4165D01*
D02*
G37*
G36*
X3252Y4423D02*
X3235D01*
Y4403D01*
X3260D01*
Y4416D01*
X3259Y4419D01*
X3257Y4421D01*
X3255Y4423D01*
X3252Y4423D01*
D02*
G37*
G36*
X3225D02*
X3208D01*
X3205Y4423D01*
X3203Y4421D01*
X3201Y4419D01*
X3200Y4416D01*
Y4403D01*
X3225D01*
Y4423D01*
D02*
G37*
G36*
X3366Y4412D02*
X3350D01*
Y4403D01*
X3371D01*
Y4407D01*
X3370Y4410D01*
X3366Y4412D01*
D02*
G37*
G36*
X3340D02*
X3324D01*
X3320Y4410D01*
X3319Y4407D01*
Y4403D01*
X3340D01*
Y4412D01*
D02*
G37*
G36*
X3371Y4393D02*
X3350D01*
Y4383D01*
X3366D01*
X3370Y4385D01*
X3371Y4388D01*
Y4393D01*
D02*
G37*
G36*
X3225D02*
X3200D01*
Y4380D01*
X3201Y4377D01*
X3203Y4374D01*
X3205Y4372D01*
X3208Y4372D01*
X3225D01*
Y4393D01*
D02*
G37*
G36*
X2965Y4373D02*
X2945D01*
Y4309D01*
X2990D01*
Y4348D01*
X2988Y4358D01*
X2982Y4366D01*
X2974Y4372D01*
X2965Y4373D01*
D02*
G37*
G36*
X3340Y4393D02*
X3319D01*
Y4388D01*
X3320Y4385D01*
X3324Y4383D01*
X3340D01*
Y4393D01*
D02*
G37*
G36*
X3260D02*
X3235D01*
Y4372D01*
X3252D01*
X3255Y4372D01*
X3257Y4374D01*
X3259Y4377D01*
X3260Y4380D01*
Y4393D01*
D02*
G37*
G36*
X1414Y3790D02*
X1407D01*
Y3783D01*
X1408D01*
X1412Y3785D01*
X1414Y3789D01*
Y3790D01*
D02*
G37*
G36*
X1959D02*
X1948D01*
Y3769D01*
X1954D01*
X1957Y3771D01*
X1959Y3774D01*
Y3790D01*
D02*
G37*
G36*
X1938Y3821D02*
X1932D01*
X1928Y3819D01*
X1926Y3816D01*
Y3800D01*
X1938D01*
Y3821D01*
D02*
G37*
G36*
X1408Y3807D02*
X1407D01*
Y3800D01*
X1414D01*
Y3801D01*
X1412Y3805D01*
X1408Y3807D01*
D02*
G37*
G36*
X1938Y3790D02*
X1926D01*
Y3774D01*
X1928Y3771D01*
X1932Y3769D01*
X1938D01*
Y3790D01*
D02*
G37*
G36*
X1670Y3824D02*
X1645D01*
Y3765D01*
X1646Y3759D01*
X1650Y3754D01*
X1654Y3751D01*
X1660Y3750D01*
X1670D01*
Y3824D01*
D02*
G37*
G36*
X1570D02*
X1545D01*
Y3765D01*
X1546Y3759D01*
X1550Y3754D01*
X1554Y3751D01*
X1560Y3750D01*
X1570D01*
Y3824D01*
D02*
G37*
G36*
X1805D02*
X1780D01*
Y3750D01*
X1790D01*
X1796Y3751D01*
X1800Y3754D01*
X1804Y3759D01*
X1805Y3765D01*
Y3824D01*
D02*
G37*
G36*
X1705D02*
X1680D01*
Y3750D01*
X1690D01*
X1696Y3751D01*
X1700Y3754D01*
X1704Y3759D01*
X1705Y3765D01*
Y3824D01*
D02*
G37*
G36*
X1938Y3890D02*
X1917D01*
Y3873D01*
X1917Y3870D01*
X1919Y3868D01*
X1922Y3866D01*
X1925Y3865D01*
X1938D01*
Y3890D01*
D02*
G37*
G36*
X1443D02*
X1422D01*
Y3865D01*
X1435D01*
X1438Y3866D01*
X1441Y3868D01*
X1443Y3870D01*
X1443Y3873D01*
Y3890D01*
D02*
G37*
G36*
X1435Y3925D02*
X1422D01*
Y3900D01*
X1443D01*
Y3917D01*
X1443Y3920D01*
X1441Y3922D01*
X1438Y3924D01*
X1435Y3925D01*
D02*
G37*
G36*
X1968Y3890D02*
X1948D01*
Y3865D01*
X1961D01*
X1964Y3866D01*
X1966Y3868D01*
X1968Y3870D01*
X1968Y3873D01*
Y3890D01*
D02*
G37*
G36*
X1790Y3908D02*
X1780D01*
Y3834D01*
X1805D01*
Y3893D01*
X1804Y3898D01*
X1800Y3903D01*
X1796Y3907D01*
X1790Y3908D01*
D02*
G37*
G36*
X1570D02*
X1560D01*
X1554Y3907D01*
X1550Y3903D01*
X1546Y3898D01*
X1545Y3893D01*
Y3834D01*
X1570D01*
Y3908D01*
D02*
G37*
G36*
X1954Y3821D02*
X1948D01*
Y3800D01*
X1959D01*
Y3816D01*
X1957Y3819D01*
X1954Y3821D01*
D02*
G37*
G36*
X1690Y3908D02*
X1680D01*
Y3834D01*
X1705D01*
Y3893D01*
X1704Y3898D01*
X1700Y3903D01*
X1696Y3907D01*
X1690Y3908D01*
D02*
G37*
G36*
X1670D02*
X1660D01*
X1654Y3907D01*
X1650Y3903D01*
X1646Y3898D01*
X1645Y3893D01*
Y3834D01*
X1670D01*
Y3908D01*
D02*
G37*
G36*
X4370Y2573D02*
X4370Y2573D01*
X4365Y2570D01*
X4362Y2565D01*
X4362Y2565D01*
X4370D01*
Y2573D01*
D02*
G37*
G36*
X4453Y2555D02*
X4446D01*
Y2554D01*
X4448Y2550D01*
X4452Y2548D01*
X4453D01*
Y2555D01*
D02*
G37*
G36*
Y2572D02*
X4452D01*
X4448Y2570D01*
X4446Y2566D01*
Y2565D01*
X4453D01*
Y2572D01*
D02*
G37*
G36*
X4380Y2573D02*
Y2565D01*
X4388D01*
X4388Y2565D01*
X4385Y2570D01*
X4380Y2573D01*
X4380Y2573D01*
D02*
G37*
G36*
X4388Y2555D02*
X4380D01*
Y2547D01*
X4380Y2547D01*
X4385Y2550D01*
X4388Y2555D01*
X4388Y2555D01*
D02*
G37*
G36*
X4380Y2533D02*
Y2525D01*
X4388D01*
X4388Y2525D01*
X4385Y2530D01*
X4380Y2533D01*
X4380Y2533D01*
D02*
G37*
G36*
X4370D02*
X4370Y2533D01*
X4365Y2530D01*
X4362Y2525D01*
X4362Y2525D01*
X4370D01*
Y2533D01*
D02*
G37*
G36*
Y2555D02*
X4362D01*
X4362Y2555D01*
X4365Y2550D01*
X4370Y2547D01*
X4370Y2547D01*
Y2555D01*
D02*
G37*
G36*
X4453Y2532D02*
X4452D01*
X4448Y2530D01*
X4446Y2526D01*
Y2525D01*
X4453D01*
Y2532D01*
D02*
G37*
G36*
X1409Y2595D02*
X1402D01*
Y2588D01*
X1403D01*
X1407Y2590D01*
X1409Y2594D01*
Y2595D01*
D02*
G37*
G36*
X1805Y2644D02*
X1780D01*
Y2570D01*
X1790D01*
X1796Y2571D01*
X1800Y2574D01*
X1804Y2579D01*
X1805Y2585D01*
Y2644D01*
D02*
G37*
G36*
X1974Y2621D02*
X1968D01*
Y2600D01*
X1979D01*
Y2616D01*
X1977Y2619D01*
X1974Y2621D01*
D02*
G37*
G36*
X1958D02*
X1952D01*
X1948Y2619D01*
X1946Y2616D01*
Y2600D01*
X1958D01*
Y2621D01*
D02*
G37*
G36*
X1705Y2644D02*
X1680D01*
Y2570D01*
X1690D01*
X1696Y2571D01*
X1700Y2574D01*
X1704Y2579D01*
X1705Y2585D01*
Y2644D01*
D02*
G37*
G36*
X1979Y2590D02*
X1968D01*
Y2569D01*
X1974D01*
X1977Y2571D01*
X1979Y2574D01*
Y2590D01*
D02*
G37*
G36*
X1958D02*
X1946D01*
Y2574D01*
X1948Y2571D01*
X1952Y2569D01*
X1958D01*
Y2590D01*
D02*
G37*
G36*
X1670Y2644D02*
X1645D01*
Y2585D01*
X1646Y2579D01*
X1650Y2574D01*
X1654Y2571D01*
X1660Y2570D01*
X1670D01*
Y2644D01*
D02*
G37*
G36*
X1570D02*
X1545D01*
Y2585D01*
X1546Y2579D01*
X1550Y2574D01*
X1554Y2571D01*
X1560Y2570D01*
X1570D01*
Y2644D01*
D02*
G37*
G36*
X4370Y2475D02*
X4362D01*
X4362Y2475D01*
X4365Y2470D01*
X4370Y2467D01*
X4370Y2467D01*
Y2475D01*
D02*
G37*
G36*
X1362Y2369D02*
X1355D01*
Y2350D01*
X1374D01*
Y2357D01*
X1373Y2361D01*
X1370Y2365D01*
X1366Y2368D01*
X1362Y2369D01*
D02*
G37*
G36*
X1958Y2490D02*
X1946D01*
Y2474D01*
X1948Y2471D01*
X1952Y2469D01*
X1958D01*
Y2490D01*
D02*
G37*
G36*
X4388Y2475D02*
X4380D01*
Y2467D01*
X4380Y2467D01*
X4385Y2470D01*
X4388Y2475D01*
X4388Y2475D01*
D02*
G37*
G36*
X1345Y2369D02*
X1338D01*
X1334Y2368D01*
X1330Y2365D01*
X1327Y2361D01*
X1326Y2357D01*
Y2350D01*
X1345D01*
Y2369D01*
D02*
G37*
G36*
X1374Y2340D02*
X1355D01*
Y2321D01*
X1362D01*
X1366Y2322D01*
X1370Y2325D01*
X1373Y2329D01*
X1374Y2333D01*
Y2340D01*
D02*
G37*
G36*
X1345D02*
X1326D01*
Y2333D01*
X1327Y2329D01*
X1330Y2325D01*
X1334Y2322D01*
X1338Y2321D01*
X1345D01*
Y2340D01*
D02*
G37*
G36*
X2012Y2354D02*
X2005D01*
Y2335D01*
X2024D01*
Y2342D01*
X2023Y2347D01*
X2020Y2351D01*
X2016Y2353D01*
X2012Y2354D01*
D02*
G37*
G36*
X1995D02*
X1988D01*
X1984Y2353D01*
X1980Y2351D01*
X1977Y2347D01*
X1976Y2342D01*
Y2335D01*
X1995D01*
Y2354D01*
D02*
G37*
G36*
X4370Y2515D02*
X4362D01*
X4362Y2515D01*
X4365Y2510D01*
X4370Y2507D01*
X4370Y2507D01*
Y2515D01*
D02*
G37*
G36*
X1974Y2521D02*
X1968D01*
Y2500D01*
X1979D01*
Y2516D01*
X1977Y2519D01*
X1974Y2521D01*
D02*
G37*
G36*
X4453Y2515D02*
X4446D01*
Y2514D01*
X4448Y2510D01*
X4452Y2508D01*
X4453D01*
Y2515D01*
D02*
G37*
G36*
X4388D02*
X4380D01*
Y2507D01*
X4380Y2507D01*
X4385Y2510D01*
X4388Y2515D01*
X4388Y2515D01*
D02*
G37*
G36*
X1958Y2521D02*
X1952D01*
X1948Y2519D01*
X1946Y2516D01*
Y2500D01*
X1958D01*
Y2521D01*
D02*
G37*
G36*
X4440Y2494D02*
X4424D01*
X4421Y2492D01*
X4419Y2488D01*
Y2482D01*
X4440D01*
Y2494D01*
D02*
G37*
G36*
X1979Y2490D02*
X1968D01*
Y2469D01*
X1974D01*
X1977Y2471D01*
X1979Y2474D01*
Y2490D01*
D02*
G37*
G36*
X4380Y2493D02*
Y2485D01*
X4388D01*
X4388Y2485D01*
X4385Y2490D01*
X4380Y2493D01*
X4380Y2493D01*
D02*
G37*
G36*
X4370D02*
X4370Y2493D01*
X4365Y2490D01*
X4362Y2485D01*
X4362Y2485D01*
X4370D01*
Y2493D01*
D02*
G37*
G36*
X1680Y3134D02*
Y3100D01*
X1714D01*
X1713Y3105D01*
X1709Y3115D01*
X1703Y3123D01*
X1695Y3129D01*
X1685Y3133D01*
X1680Y3134D01*
D02*
G37*
G36*
X1670D02*
X1665Y3133D01*
X1655Y3129D01*
X1647Y3123D01*
X1641Y3115D01*
X1637Y3105D01*
X1636Y3100D01*
X1670D01*
Y3134D01*
D02*
G37*
G36*
X3143Y3140D02*
X3122D01*
Y3115D01*
X3135D01*
X3138Y3116D01*
X3141Y3118D01*
X3143Y3120D01*
X3143Y3123D01*
Y3140D01*
D02*
G37*
G36*
X3112D02*
X3092D01*
Y3123D01*
X3092Y3120D01*
X3094Y3118D01*
X3096Y3116D01*
X3099Y3115D01*
X3112D01*
Y3140D01*
D02*
G37*
G36*
X3135Y3090D02*
X3122D01*
Y3065D01*
X3143D01*
Y3082D01*
X3143Y3085D01*
X3141Y3087D01*
X3138Y3089D01*
X3135Y3090D01*
D02*
G37*
G36*
X1670Y3090D02*
X1636D01*
X1637Y3085D01*
X1641Y3075D01*
X1647Y3067D01*
X1655Y3061D01*
X1665Y3057D01*
X1670Y3056D01*
Y3090D01*
D02*
G37*
G36*
X3143Y3055D02*
X3122D01*
Y3030D01*
X3135D01*
X3138Y3031D01*
X3141Y3033D01*
X3143Y3035D01*
X3143Y3038D01*
Y3055D01*
D02*
G37*
G36*
X3112Y3090D02*
X3099D01*
X3096Y3089D01*
X3094Y3087D01*
X3092Y3085D01*
X3092Y3082D01*
Y3065D01*
X3112D01*
Y3090D01*
D02*
G37*
G36*
X1714Y3090D02*
X1680D01*
Y3056D01*
X1685Y3057D01*
X1695Y3061D01*
X1703Y3067D01*
X1709Y3075D01*
X1713Y3085D01*
X1714Y3090D01*
D02*
G37*
G36*
X3112Y3175D02*
X3099D01*
X3096Y3174D01*
X3094Y3172D01*
X3092Y3170D01*
X3092Y3167D01*
Y3150D01*
X3112D01*
Y3175D01*
D02*
G37*
G36*
X1369Y3170D02*
X1357D01*
Y3149D01*
X1363D01*
X1367Y3151D01*
X1369Y3154D01*
Y3170D01*
D02*
G37*
G36*
X3230Y3170D02*
X3228Y3170D01*
X3222Y3167D01*
X3217Y3163D01*
X3213Y3158D01*
X3210Y3152D01*
X3210Y3150D01*
X3230D01*
Y3170D01*
D02*
G37*
G36*
X3135Y3175D02*
X3122D01*
Y3150D01*
X3143D01*
Y3167D01*
X3143Y3170D01*
X3141Y3172D01*
X3138Y3174D01*
X3135Y3175D01*
D02*
G37*
G36*
X1347Y3170D02*
X1336D01*
Y3154D01*
X1338Y3151D01*
X1341Y3149D01*
X1347D01*
Y3170D01*
D02*
G37*
G36*
X3260Y3140D02*
X3240D01*
Y3120D01*
X3242Y3120D01*
X3248Y3123D01*
X3253Y3127D01*
X3257Y3132D01*
X3260Y3138D01*
X3260Y3140D01*
D02*
G37*
G36*
X3230D02*
X3210D01*
X3210Y3138D01*
X3213Y3132D01*
X3217Y3127D01*
X3222Y3123D01*
X3228Y3120D01*
X3230Y3120D01*
Y3140D01*
D02*
G37*
G36*
X1294Y3170D02*
X1283D01*
Y3149D01*
X1289D01*
X1292Y3151D01*
X1294Y3154D01*
Y3170D01*
D02*
G37*
G36*
X1273D02*
X1261D01*
Y3154D01*
X1263Y3151D01*
X1267Y3149D01*
X1273D01*
Y3170D01*
D02*
G37*
G36*
X1438Y2690D02*
X1417D01*
Y2665D01*
X1430D01*
X1433Y2666D01*
X1436Y2668D01*
X1438Y2670D01*
X1438Y2673D01*
Y2690D01*
D02*
G37*
G36*
X1407D02*
X1387D01*
Y2673D01*
X1387Y2670D01*
X1389Y2668D01*
X1391Y2666D01*
X1394Y2665D01*
X1407D01*
Y2690D01*
D02*
G37*
G36*
X1988D02*
X1968D01*
Y2665D01*
X1981D01*
X1984Y2666D01*
X1986Y2668D01*
X1988Y2670D01*
X1988Y2673D01*
Y2690D01*
D02*
G37*
G36*
X1958D02*
X1937D01*
Y2673D01*
X1937Y2670D01*
X1939Y2668D01*
X1942Y2666D01*
X1945Y2665D01*
X1958D01*
Y2690D01*
D02*
G37*
G36*
X1790Y2728D02*
X1780D01*
Y2654D01*
X1805D01*
Y2713D01*
X1804Y2718D01*
X1800Y2723D01*
X1796Y2727D01*
X1790Y2728D01*
D02*
G37*
G36*
X1570D02*
X1560D01*
X1554Y2727D01*
X1550Y2723D01*
X1546Y2718D01*
X1545Y2713D01*
Y2654D01*
X1570D01*
Y2728D01*
D02*
G37*
G36*
X1403Y2612D02*
X1402D01*
Y2605D01*
X1409D01*
Y2606D01*
X1407Y2610D01*
X1403Y2612D01*
D02*
G37*
G36*
X1690Y2728D02*
X1680D01*
Y2654D01*
X1705D01*
Y2713D01*
X1704Y2718D01*
X1700Y2723D01*
X1696Y2727D01*
X1690Y2728D01*
D02*
G37*
G36*
X1670D02*
X1660D01*
X1654Y2727D01*
X1650Y2723D01*
X1646Y2718D01*
X1645Y2713D01*
Y2654D01*
X1670D01*
Y2728D01*
D02*
G37*
G36*
Y2914D02*
X1665Y2913D01*
X1655Y2909D01*
X1647Y2903D01*
X1641Y2895D01*
X1637Y2885D01*
X1636Y2880D01*
X1670D01*
Y2914D01*
D02*
G37*
G36*
X1714Y2870D02*
X1680D01*
Y2836D01*
X1685Y2837D01*
X1695Y2841D01*
X1703Y2847D01*
X1709Y2855D01*
X1713Y2865D01*
X1714Y2870D01*
D02*
G37*
G36*
X3112Y3055D02*
X3092D01*
Y3038D01*
X3092Y3035D01*
X3094Y3033D01*
X3096Y3031D01*
X3099Y3030D01*
X3112D01*
Y3055D01*
D02*
G37*
G36*
X1680Y2914D02*
Y2880D01*
X1714D01*
X1713Y2885D01*
X1709Y2895D01*
X1703Y2903D01*
X1695Y2909D01*
X1685Y2913D01*
X1680Y2914D01*
D02*
G37*
G36*
X1670Y2870D02*
X1636D01*
X1637Y2865D01*
X1641Y2855D01*
X1647Y2847D01*
X1655Y2841D01*
X1665Y2837D01*
X1670Y2836D01*
Y2870D01*
D02*
G37*
G36*
X1430Y2725D02*
X1417D01*
Y2700D01*
X1438D01*
Y2717D01*
X1438Y2720D01*
X1436Y2722D01*
X1433Y2724D01*
X1430Y2725D01*
D02*
G37*
G36*
X1407D02*
X1394D01*
X1391Y2724D01*
X1389Y2722D01*
X1387Y2720D01*
X1387Y2717D01*
Y2700D01*
X1407D01*
Y2725D01*
D02*
G37*
G36*
X1981D02*
X1968D01*
Y2700D01*
X1988D01*
Y2717D01*
X1988Y2720D01*
X1986Y2722D01*
X1984Y2724D01*
X1981Y2725D01*
D02*
G37*
G36*
X1958D02*
X1945D01*
X1942Y2724D01*
X1939Y2722D01*
X1937Y2720D01*
X1937Y2717D01*
Y2700D01*
X1958D01*
Y2725D01*
D02*
G37*
%LPD*%
D10*
X1944Y4299D02*
G03*
X1928Y4305I-15J-15D01*
G01*
D02*
G03*
X1944Y4311I0J22D01*
G01*
X3815Y1811D02*
G03*
X3805Y1810I-4J-6D01*
G01*
D02*
G03*
X3806Y1820I-5J5D01*
G01*
X1884Y4231D02*
G03*
X1890Y4247I-15J15D01*
G01*
D02*
G03*
X1896Y4231I22J0D01*
G01*
X1831Y4311D02*
G03*
X1847Y4305I15J15D01*
G01*
D02*
G03*
X1831Y4299I0J-22D01*
G01*
X1231Y3326D02*
G03*
X1247Y3320I15J15D01*
G01*
D02*
G03*
X1231Y3314I0J-22D01*
G01*
Y3251D02*
G03*
X1247Y3245I15J15D01*
G01*
D02*
G03*
X1231Y3239I0J-22D01*
G01*
X1291Y2701D02*
G03*
X1307Y2695I15J15D01*
G01*
D02*
G03*
X1291Y2689I0J-22D01*
G01*
Y2606D02*
G03*
X1307Y2600I15J15D01*
G01*
D02*
G03*
X1291Y2594I0J-22D01*
G01*
X1256Y2309D02*
G03*
X1250Y2293I15J-15D01*
G01*
D02*
G03*
X1244Y2309I-22J0D01*
G01*
X1206D02*
G03*
X1200Y2293I15J-15D01*
G01*
D02*
G03*
X1194Y2309I-22J0D01*
G01*
X3929Y1784D02*
G03*
X3911Y1791I-17J-17D01*
G01*
X3915D02*
G03*
X3929Y1796I0J19D01*
G01*
X3741D02*
G03*
X3755Y1791I13J13D01*
G01*
X3759D02*
G03*
X3741Y1784I0J-24D01*
G01*
Y1896D02*
G03*
X3759Y1889I17J17D01*
G01*
X3755D02*
G03*
X3741Y1884I0J-19D01*
G01*
X3929D02*
G03*
X3915Y1889I-13J-13D01*
G01*
X3911D02*
G03*
X3929Y1896I0J24D01*
G01*
X3779Y1746D02*
G03*
X3786Y1764I-17J17D01*
G01*
Y1760D02*
G03*
X3791Y1746I19J0D01*
G01*
X3902Y1889D02*
X3934D01*
X3736D02*
X3768D01*
Y1870D02*
Y1889D01*
X3934Y1791D02*
X3935Y1790D01*
X3902Y1791D02*
X3934D01*
X3785Y1740D02*
X3786Y1741D01*
Y1773D01*
X3735Y1790D02*
X3736Y1791D01*
X3768D01*
X3902Y1870D02*
Y1889D01*
X1200Y2278D02*
Y2315D01*
X1250Y2278D02*
Y2315D01*
X1285Y2600D02*
X1353D01*
X1285Y2695D02*
X1338D01*
X1225Y3245D02*
X1293D01*
X1225Y3320D02*
X1278D01*
X1890Y4225D02*
Y4305D01*
X1825D02*
X1890D01*
X3902Y1850D02*
Y1870D01*
Y1791D02*
Y1810D01*
X3845Y1773D02*
X3865D01*
X3825D02*
X3845D01*
X3805D02*
X3825D01*
X3786D02*
X3805D01*
Y1810D02*
X3835Y1840D01*
X3768Y1791D02*
Y1810D01*
X3825Y1850D02*
X3835Y1840D01*
X3768Y1850D02*
Y1870D01*
X3710Y1830D02*
X3768D01*
X3710Y1830D02*
X3710Y1830D01*
X1890Y4305D02*
X1950D01*
D11*
X4370Y4420D02*
G03*
X4375Y4431I-11J11D01*
G01*
D02*
G03*
X4380Y4420I16J0D01*
G01*
X4535Y4430D02*
G03*
X4530Y4419I11J-11D01*
G01*
D02*
G03*
X4525Y4430I-16J0D01*
G01*
X4600Y4410D02*
G03*
X4595Y4399I11J-11D01*
G01*
D02*
G03*
X4590Y4410I-16J0D01*
G01*
X3880Y2930D02*
G03*
X3875Y2919I11J-11D01*
G01*
D02*
G03*
X3870Y2930I-16J0D01*
G01*
X3805D02*
G03*
X3800Y2919I11J-11D01*
G01*
D02*
G03*
X3795Y2930I-16J0D01*
G01*
X3800Y2903D02*
Y2935D01*
X3875Y2903D02*
Y2935D01*
X4145Y4202D02*
X4220D01*
X4070Y4128D02*
X4145D01*
X3995D02*
X4070D01*
X4595Y4377D02*
Y4415D01*
X4530Y4392D02*
Y4435D01*
X4375Y4415D02*
Y4472D01*
X4130Y4265D02*
X4245D01*
X4075Y4320D02*
X4130Y4265D01*
X4075Y4320D02*
Y4355D01*
X4245Y4265D02*
X4280Y4300D01*
X4335D01*
X4349Y4286D01*
Y4238D02*
Y4286D01*
X4375Y4325D02*
X4587D01*
X4230D02*
X4375D01*
Y4238D02*
Y4325D01*
X4587D02*
X4595Y4333D01*
D12*
X4337Y4072D02*
G03*
X4323Y4077I-14J-14D01*
G01*
D02*
G03*
X4337Y4083I0J19D01*
G01*
X4275Y4183D02*
G03*
X4289Y4189I0J19D01*
G01*
X4289Y4189D02*
G03*
X4283Y4175I14J-14D01*
G01*
X2218Y1510D02*
Y1543D01*
X2164Y1597D02*
X2218Y1543D01*
X4085Y3942D02*
X4220Y4077D01*
X4085Y3715D02*
Y3942D01*
Y3715D02*
X4395Y3405D01*
X4433D01*
X4418Y3842D02*
X4450Y3810D01*
X4418Y3842D02*
Y3935D01*
X4415Y4077D02*
X4490D01*
X4175Y4377D02*
X4183Y4385D01*
X4230D01*
X4565Y4202D02*
X4640D01*
X4715D01*
X4717Y4075D02*
X4835D01*
X4715Y4077D02*
X4717Y4075D01*
X4715Y4077D02*
Y4128D01*
X4565Y4077D02*
Y4128D01*
Y4077D02*
X4640D01*
Y3845D02*
Y4003D01*
X4605Y3810D02*
X4640Y3845D01*
X4415Y3938D02*
Y4003D01*
X4220D02*
X4295D01*
X4298Y4198D02*
Y4238D01*
X4275Y4175D02*
X4298Y4198D01*
X4295Y4077D02*
X4342D01*
X4220D02*
Y4128D01*
X4278D01*
X4324Y4174D01*
Y4238D01*
X4415Y4077D02*
Y4150D01*
X4401Y4164D02*
X4415Y4150D01*
X4401Y4164D02*
Y4238D01*
X4477Y4128D02*
X4565D01*
X4426Y4179D02*
X4477Y4128D01*
X4426Y4179D02*
Y4238D01*
X4529D02*
X4565Y4202D01*
X4452Y4238D02*
X4529D01*
X4220Y4202D02*
X4256Y4238D01*
X4298D01*
X4534Y4472D02*
X4565Y4503D01*
X4452Y4472D02*
X4534D01*
X4472Y4577D02*
X4565D01*
X4426Y4531D02*
X4472Y4577D01*
X4426Y4472D02*
Y4531D01*
X4415Y4575D02*
Y4628D01*
X4401Y4561D02*
X4415Y4575D01*
X4401Y4472D02*
Y4561D01*
X4335Y4575D02*
Y4628D01*
Y4575D02*
X4349Y4561D01*
Y4472D02*
Y4561D01*
X4185Y4577D02*
X4283D01*
X4324Y4536D01*
Y4472D02*
Y4536D01*
X4185Y4503D02*
X4216Y4472D01*
X4298D01*
X1385Y1502D02*
Y1603D01*
Y1677D02*
X1444Y1618D01*
X1470D01*
X1520D01*
X1543D01*
X1547Y1622D01*
X1579D01*
Y1597D02*
X1633Y1543D01*
Y1515D02*
Y1543D01*
X2233Y1735D02*
X2233Y1735D01*
Y1785D01*
X2233Y1673D02*
X2233Y1673D01*
X2164Y1673D02*
X2233D01*
X2233Y1673D02*
Y1735D01*
X2208Y1648D02*
X2233Y1673D01*
X2164Y1648D02*
X2208D01*
X2102Y1624D02*
Y1710D01*
Y1624D02*
X2105Y1622D01*
X2106Y1622D01*
X2164D01*
X3122Y1680D02*
X3199D01*
X3117Y1577D02*
X3171Y1523D01*
X3117Y1577D02*
Y1600D01*
Y1240D02*
X3208D01*
X3117D02*
Y1289D01*
X3102Y1305D02*
X3117Y1289D01*
X3102Y1305D02*
X3117Y1321D01*
Y1370D01*
X3208D01*
X3117Y1445D02*
Y1452D01*
Y1370D02*
Y1445D01*
X3119Y1447D01*
X3171D01*
X3117Y1452D02*
X3137Y1472D01*
X3171D01*
X3223Y1498D02*
X3223Y1497D01*
X3171Y1498D02*
X3223D01*
X3505Y1453D02*
X3605D01*
X3798Y1540D02*
Y1590D01*
X3785Y1527D02*
X3798Y1540D01*
Y1590D02*
Y1665D01*
X3730Y1590D02*
X3798D01*
X3872Y1540D02*
Y1590D01*
Y1665D01*
Y1719D01*
X3857Y1735D02*
X3872Y1719D01*
X3882Y1762D02*
X3884Y1764D01*
X3882Y1761D02*
Y1762D01*
X3857Y1736D02*
X3882Y1761D01*
X3857Y1735D02*
Y1736D01*
X3884Y1764D02*
Y1773D01*
Y1764D02*
X3913Y1735D01*
X3938Y1830D02*
X3938Y1830D01*
X3902Y1830D02*
X3938D01*
D13*
X4384Y1194D02*
G03*
X4398Y1188I14J14D01*
G01*
X4507Y2741D02*
G03*
X4513Y2728I19J0D01*
G01*
X4055Y1701D02*
X4065Y1691D01*
X4055Y1701D02*
Y1751D01*
X4065Y1760D01*
X1930Y1810D02*
X2028D01*
Y1645D02*
Y1710D01*
X3995Y1830D02*
X4010Y1815D01*
X3995Y1830D02*
X4010Y1845D01*
X3982Y1830D02*
X3995D01*
X4040Y1785D02*
X4065Y1760D01*
X3660Y1965D02*
X3875Y2180D01*
X4445Y1502D02*
Y1550D01*
X4458Y1105D02*
Y1145D01*
X4445Y1158D02*
X4458Y1145D01*
X4445Y1158D02*
Y1188D01*
X4380Y1190D02*
X4382Y1188D01*
X4445D01*
X2900Y2555D02*
Y2775D01*
Y2420D02*
Y2555D01*
Y2420D02*
X3002D01*
X2900Y2555D02*
X3002D01*
X2900Y2775D02*
X2950Y2825D01*
X3008D01*
X4065Y3115D02*
Y3240D01*
Y3300D01*
X3900Y3465D02*
X4065Y3300D01*
X3900Y3465D02*
Y4150D01*
X3952Y4202D01*
X3995D01*
X3558Y3990D02*
Y4238D01*
X3765Y4445D01*
X4107D01*
X4175Y4377D01*
X4507Y3405D02*
X4563D01*
Y3480D01*
X4507Y2728D02*
Y2775D01*
Y2728D02*
X4510Y2725D01*
X3660Y1880D02*
X3710Y1830D01*
X3660Y1880D02*
Y1965D01*
X3875Y2180D02*
Y2763D01*
X3990Y2790D02*
X4065Y2715D01*
Y2692D02*
Y2715D01*
X3990Y2790D02*
X4065Y2865D01*
X3963Y2763D02*
X3990Y2790D01*
X4065Y2865D02*
Y2883D01*
X3875Y2763D02*
X3963D01*
X3345Y4398D02*
X3428D01*
X3450Y4420D01*
Y4700D01*
X3310Y4840D02*
X3450Y4700D01*
X3190Y4840D02*
X3310D01*
X3085Y4945D02*
X3190Y4840D01*
X2862Y4945D02*
X3085D01*
X2632Y4715D02*
X2862Y4945D01*
X3535Y3245D02*
X3775D01*
X3120Y3322D02*
X3147Y3295D01*
X3275D01*
X3375Y3195D01*
X3605D01*
X3685Y3115D01*
X3955D01*
X3650Y3378D02*
X3817D01*
X3955Y3240D01*
X3650Y3322D02*
Y3378D01*
X3775Y3245D02*
X3780Y3240D01*
X3475Y2490D02*
X3538Y2427D01*
X3650D01*
Y2618D01*
X3475Y2730D02*
X3535Y2790D01*
X3475Y2490D02*
Y2730D01*
X3128Y2690D02*
X3235D01*
X3122Y2696D02*
X3128Y2690D01*
X3122Y2696D02*
Y2825D01*
X2463Y2450D02*
X2465Y2452D01*
Y2555D01*
X2792Y2450D02*
X2795Y2453D01*
Y2555D01*
Y2643D01*
X2400Y2782D02*
X2465Y2717D01*
X2400Y2782D02*
Y3025D01*
X2475Y3100D01*
X2675D01*
X2785Y2990D01*
X3235D01*
X2720Y2717D02*
X2795D01*
Y2768D01*
X2937Y2910D01*
X3215D01*
X3235Y2890D01*
X2537Y2840D02*
X2793D01*
X3235Y2790D02*
X3295D01*
X3325Y2820D01*
Y2900D01*
X3280Y2945D02*
X3325Y2900D01*
X2898Y2945D02*
X3280D01*
X2795Y2842D02*
X2898Y2945D01*
X2793Y2840D02*
X2795Y2842D01*
X2465Y2555D02*
Y2643D01*
Y2717D02*
X2540D01*
X2622Y2920D02*
X2625Y2923D01*
Y3025D01*
X2537Y2920D02*
X2622D01*
X2998Y3248D02*
X3120D01*
X2990Y3240D02*
X2998Y3248D01*
X3232D02*
X3235Y3245D01*
X3120Y3248D02*
X3232D01*
X3120Y3322D02*
Y3378D01*
X3475Y3405D02*
X3535Y3345D01*
X3475Y3405D02*
Y3515D01*
X3595Y3635D01*
X3235Y3445D02*
Y3575D01*
X3175Y3635D02*
X3235Y3575D01*
X4175Y4300D02*
Y4333D01*
X2017Y3795D02*
X2055D01*
X2017Y3895D02*
X2060D01*
X3128Y2555D02*
X3185D01*
X3535Y2690D02*
X3798D01*
X3800Y2692D02*
Y2763D01*
X3798Y2690D02*
X3800Y2692D01*
X3955Y2618D02*
X4065D01*
X3650Y2763D02*
X3723D01*
X3725Y2839D02*
X3929D01*
X4065Y3115D02*
X4065Y3115D01*
X4065Y2997D02*
Y3115D01*
X3971Y2903D02*
X4065Y2997D01*
X3955Y2903D02*
X3971D01*
X3955Y2865D02*
Y2903D01*
X3929Y2839D02*
X3955Y2865D01*
X3875Y2977D02*
X3955D01*
X3725D02*
X3800D01*
X3650Y2903D02*
X3725D01*
X3548D02*
X3650D01*
X3535Y2890D02*
X3548Y2903D01*
X2072Y3325D02*
X2074Y3323D01*
Y3245D02*
Y3323D01*
X1998Y2218D02*
X2043D01*
X2075Y2250D01*
Y2457D01*
X2037Y2495D02*
X2075Y2457D01*
X1995Y3410D02*
X2055D01*
X2100Y3455D01*
Y3660D01*
X2065Y3695D02*
X2100Y3660D01*
X2017Y3695D02*
X2065D01*
X4110Y4503D02*
X4185D01*
X4035D02*
X4110D01*
X4035Y4577D02*
Y4628D01*
X3917D02*
X4035D01*
X3915Y4630D02*
X3917Y4628D01*
X4185Y4577D02*
Y4628D01*
X4110D02*
X4185D01*
X4260D02*
X4335D01*
X4415D02*
X4490D01*
X4717Y4630D02*
X4835D01*
X4715Y4628D02*
X4717Y4630D01*
X4715Y4577D02*
Y4628D01*
X4640Y4503D02*
X4715D01*
X4565D02*
X4640D01*
X4565Y4577D02*
Y4628D01*
X4640D01*
X4637Y4770D02*
Y4863D01*
Y4705D02*
Y4770D01*
Y4705D02*
X4640Y4702D01*
X4605Y4895D02*
X4637Y4863D01*
X4415Y4702D02*
X4418Y4705D01*
Y4770D01*
Y4858D01*
X4455Y4895D01*
X4335Y4702D02*
X4337Y4705D01*
Y4770D01*
Y4853D01*
X4295Y4895D02*
X4337Y4853D01*
X4113Y4705D02*
Y4770D01*
Y4863D01*
X4145Y4895D01*
X2257Y4715D02*
X2558D01*
X1963Y2595D02*
Y2695D01*
Y2495D02*
Y2595D01*
X1775Y2649D02*
X1916D01*
X1963Y2695D01*
Y2368D02*
Y2495D01*
Y2368D02*
X2000Y2330D01*
X1998Y2218D02*
X2000Y2220D01*
X2007Y2047D02*
X2009Y2045D01*
X2007Y2047D02*
Y2135D01*
X1470Y1290D02*
Y1428D01*
X1520Y1529D02*
Y1618D01*
Y1529D02*
X1545Y1504D01*
X1472D02*
X1545D01*
X1470Y1502D02*
X1472Y1504D01*
X1600Y1415D02*
X1633D01*
X1589Y1426D02*
X1600Y1415D01*
X1545Y1426D02*
X1589D01*
X2102Y1710D02*
Y1810D01*
X3223Y1497D02*
Y1525D01*
Y1470D02*
Y1497D01*
X3200Y1548D02*
Y1601D01*
Y1548D02*
X3223Y1525D01*
X3263Y1600D02*
X3335Y1527D01*
X3262Y1601D02*
X3263Y1600D01*
X3335Y1527D02*
X3505D01*
X3200Y1601D02*
X3262D01*
X3337Y1722D02*
X3380Y1765D01*
X3337Y1600D02*
Y1722D01*
Y1600D02*
X3485D01*
X3495Y1590D01*
X3670D01*
X4445Y1262D02*
Y1308D01*
Y1382D02*
Y1428D01*
Y2115D02*
Y2163D01*
Y2237D02*
Y2283D01*
Y2357D02*
Y2403D01*
X4458Y2520D02*
Y2560D01*
X4445Y2507D02*
X4458Y2520D01*
X4445Y2477D02*
Y2507D01*
D14*
X4838Y3355D02*
D03*
Y2055D02*
D03*
Y1610D02*
D03*
D15*
X4916Y3217D02*
D03*
Y3493D02*
D03*
Y1917D02*
D03*
Y2193D02*
D03*
Y1472D02*
D03*
Y1748D02*
D03*
D16*
X4640Y4503D02*
D03*
Y4577D02*
D03*
X4715Y4628D02*
D03*
Y4702D02*
D03*
X3650Y3452D02*
D03*
Y3378D02*
D03*
X4490Y4702D02*
D03*
Y4628D02*
D03*
X3120Y3452D02*
D03*
Y3378D02*
D03*
X4220Y4077D02*
D03*
Y4003D02*
D03*
Y4128D02*
D03*
Y4202D02*
D03*
X4145D02*
D03*
Y4128D02*
D03*
X4070Y4202D02*
D03*
Y4128D02*
D03*
X3785Y1527D02*
D03*
Y1453D02*
D03*
X2025Y1642D02*
D03*
Y1568D02*
D03*
X3885Y1527D02*
D03*
Y1453D02*
D03*
X3605D02*
D03*
Y1527D02*
D03*
X1385Y1502D02*
D03*
Y1428D02*
D03*
Y1677D02*
D03*
Y1603D02*
D03*
X3505Y1527D02*
D03*
Y1453D02*
D03*
X3650Y2427D02*
D03*
Y2353D02*
D03*
X4185Y4503D02*
D03*
Y4577D02*
D03*
X4565Y4503D02*
D03*
Y4577D02*
D03*
X4110Y4628D02*
D03*
Y4702D02*
D03*
X4260Y4628D02*
D03*
Y4702D02*
D03*
X4185D02*
D03*
Y4628D02*
D03*
X4640D02*
D03*
Y4702D02*
D03*
Y4128D02*
D03*
Y4202D02*
D03*
X4415Y4628D02*
D03*
Y4702D02*
D03*
X4565D02*
D03*
Y4628D02*
D03*
X4110Y4577D02*
D03*
Y4503D02*
D03*
X4415Y4077D02*
D03*
Y4003D02*
D03*
X4035Y4702D02*
D03*
Y4628D02*
D03*
X4640Y4077D02*
D03*
Y4003D02*
D03*
X4715Y4202D02*
D03*
Y4128D02*
D03*
X4565Y4202D02*
D03*
Y4128D02*
D03*
X4490Y4077D02*
D03*
Y4003D02*
D03*
X4335Y4628D02*
D03*
Y4702D02*
D03*
X4715Y4503D02*
D03*
Y4577D02*
D03*
Y4003D02*
D03*
Y4077D02*
D03*
X4035Y4503D02*
D03*
Y4577D02*
D03*
X4565Y4003D02*
D03*
Y4077D02*
D03*
X3725Y2903D02*
D03*
Y2977D02*
D03*
Y2692D02*
D03*
Y2618D02*
D03*
X2540Y2643D02*
D03*
Y2717D02*
D03*
X2465Y2643D02*
D03*
Y2717D02*
D03*
X3800Y2692D02*
D03*
Y2618D02*
D03*
X2795Y2842D02*
D03*
Y2768D02*
D03*
X2720Y2643D02*
D03*
Y2717D02*
D03*
X2625Y2843D02*
D03*
Y2917D02*
D03*
X2795Y2717D02*
D03*
Y2643D02*
D03*
X3800Y2977D02*
D03*
Y2903D02*
D03*
X4295Y4077D02*
D03*
Y4003D02*
D03*
X1570Y4398D02*
D03*
Y4472D02*
D03*
X3345Y4398D02*
D03*
Y4472D02*
D03*
D17*
X4510Y1566D02*
D03*
Y1524D02*
D03*
X4560Y1566D02*
D03*
Y1524D02*
D03*
X4065Y2006D02*
D03*
Y1964D02*
D03*
Y1649D02*
D03*
Y1691D02*
D03*
X4560Y2141D02*
D03*
Y2099D02*
D03*
X4510Y2141D02*
D03*
Y2099D02*
D03*
D18*
X4491Y3105D02*
D03*
X4449D02*
D03*
X4621D02*
D03*
X4579D02*
D03*
X4621Y2910D02*
D03*
X4579D02*
D03*
X4176Y1970D02*
D03*
X4134D02*
D03*
X4181Y1690D02*
D03*
X4139D02*
D03*
D19*
X3212Y3990D02*
D03*
X3138D02*
D03*
X4492Y4770D02*
D03*
X4418D02*
D03*
X4637Y3230D02*
D03*
X4563D02*
D03*
X4637Y3480D02*
D03*
X4563D02*
D03*
X4433Y3405D02*
D03*
X4507D02*
D03*
X3117Y1240D02*
D03*
X3043D02*
D03*
X3872Y1665D02*
D03*
X3798D02*
D03*
X3393Y1240D02*
D03*
X3467D02*
D03*
X3872Y1590D02*
D03*
X3798D02*
D03*
X2102Y1710D02*
D03*
X2028D02*
D03*
X4187Y4770D02*
D03*
X4113D02*
D03*
X4563Y3935D02*
D03*
X4637D02*
D03*
X4418D02*
D03*
X4492D02*
D03*
X4563Y4770D02*
D03*
X4637D02*
D03*
X4337D02*
D03*
X4263D02*
D03*
X3558Y3990D02*
D03*
X3632D02*
D03*
X2463Y2920D02*
D03*
X2537D02*
D03*
X2718Y2450D02*
D03*
X2792D02*
D03*
X2537Y2840D02*
D03*
X2463D02*
D03*
X2537Y2450D02*
D03*
X2463D02*
D03*
X4433Y2850D02*
D03*
X4507D02*
D03*
X3208Y1240D02*
D03*
X3282D02*
D03*
X2183Y4715D02*
D03*
X2257D02*
D03*
X2558D02*
D03*
X2632D02*
D03*
D20*
X4537Y1610D02*
D03*
X4493D02*
D03*
X4537Y2055D02*
D03*
X4493D02*
D03*
X3857Y1735D02*
D03*
X3813D02*
D03*
X3913D02*
D03*
X3957D02*
D03*
X3102Y1305D02*
D03*
X3058D02*
D03*
X3223Y1525D02*
D03*
X3267D02*
D03*
X4492Y2910D02*
D03*
X4448D02*
D03*
X3982Y1830D02*
D03*
X3938D02*
D03*
X1402Y3795D02*
D03*
X1358D02*
D03*
X1337Y3245D02*
D03*
X1293D02*
D03*
X1397Y2600D02*
D03*
X1353D02*
D03*
X3223Y1470D02*
D03*
X3267D02*
D03*
X4502Y1145D02*
D03*
X4458D02*
D03*
X4502Y2560D02*
D03*
X4458D02*
D03*
X4502Y2520D02*
D03*
X4458D02*
D03*
X4502Y1105D02*
D03*
X4458D02*
D03*
X2277Y1735D02*
D03*
X2233D02*
D03*
X2277Y1785D02*
D03*
X2233D02*
D03*
X1648Y1815D02*
D03*
X1692D02*
D03*
D21*
X4095Y1930D02*
D03*
X4065Y1900D02*
D03*
X4040Y1875D02*
D03*
X4010Y1845D02*
D03*
D22*
X4095Y1730D02*
D03*
X4065Y1760D02*
D03*
X4040Y1785D02*
D03*
X4010Y1815D02*
D03*
D23*
X4630Y3155D02*
D03*
X4570D02*
D03*
X3730Y1590D02*
D03*
X3670D02*
D03*
D24*
X3650Y2903D02*
D03*
Y2977D02*
D03*
X3995Y4202D02*
D03*
Y4128D02*
D03*
X1255Y3502D02*
D03*
Y3428D02*
D03*
X1470Y1502D02*
D03*
Y1428D02*
D03*
X1350Y2157D02*
D03*
Y2083D02*
D03*
X3120Y3248D02*
D03*
Y3322D02*
D03*
X3650Y3248D02*
D03*
Y3322D02*
D03*
X4445Y1262D02*
D03*
Y1188D02*
D03*
X3875Y2903D02*
D03*
Y2977D02*
D03*
X4445Y1502D02*
D03*
Y1428D02*
D03*
X3650Y2618D02*
D03*
Y2692D02*
D03*
X3800Y2837D02*
D03*
Y2763D02*
D03*
X4445Y1382D02*
D03*
Y1308D02*
D03*
X3955Y2692D02*
D03*
Y2618D02*
D03*
X3875Y2837D02*
D03*
Y2763D02*
D03*
X3650Y2837D02*
D03*
Y2763D02*
D03*
X4445Y2357D02*
D03*
Y2283D02*
D03*
Y2477D02*
D03*
Y2403D02*
D03*
Y2237D02*
D03*
Y2163D02*
D03*
D25*
X4507Y2775D02*
D03*
X4433D02*
D03*
X4563Y3045D02*
D03*
X4637D02*
D03*
X4563Y3405D02*
D03*
X4637D02*
D03*
X1352Y3175D02*
D03*
X1278D02*
D03*
X3282Y1370D02*
D03*
X3208D02*
D03*
X3337Y1600D02*
D03*
X3263D02*
D03*
X2102Y1810D02*
D03*
X2028D02*
D03*
X4637Y3305D02*
D03*
X4563D02*
D03*
X4507Y3045D02*
D03*
X4433D02*
D03*
X1963Y2595D02*
D03*
X2037D02*
D03*
X1633Y1415D02*
D03*
X1707D02*
D03*
X3122Y1680D02*
D03*
X3048D02*
D03*
X2037Y2495D02*
D03*
X1963D02*
D03*
X2017Y3695D02*
D03*
X1943D02*
D03*
X1998Y3325D02*
D03*
X2072D02*
D03*
X1943Y3795D02*
D03*
X2017D02*
D03*
X1933Y2135D02*
D03*
X2007D02*
D03*
D26*
X3835Y1840D02*
D03*
D27*
X3768Y1889D02*
D03*
Y1791D02*
D03*
X3902D02*
D03*
Y1889D02*
D03*
D28*
X3768Y1870D02*
D03*
Y1850D02*
D03*
Y1830D02*
D03*
Y1810D02*
D03*
D29*
X3786Y1773D02*
D03*
X3884D02*
D03*
Y1907D02*
D03*
X3786D02*
D03*
D30*
X3805Y1773D02*
D03*
X3825D02*
D03*
X3845D02*
D03*
X3865D02*
D03*
Y1907D02*
D03*
X3845D02*
D03*
X3825D02*
D03*
X3805D02*
D03*
D31*
X3902Y1810D02*
D03*
Y1830D02*
D03*
Y1850D02*
D03*
Y1870D02*
D03*
D32*
X4298Y4472D02*
D03*
X4324D02*
D03*
X4349D02*
D03*
X4375D02*
D03*
X4401D02*
D03*
X4426D02*
D03*
X4452D02*
D03*
Y4238D02*
D03*
X4426D02*
D03*
X4401D02*
D03*
X4375D02*
D03*
X4349D02*
D03*
X4324D02*
D03*
X4298D02*
D03*
D33*
X1250Y2235D02*
D03*
Y2278D02*
D03*
X1200Y2235D02*
D03*
Y2278D02*
D03*
X4175Y4333D02*
D03*
Y4377D02*
D03*
X4595D02*
D03*
Y4333D02*
D03*
X1520Y1618D02*
D03*
Y1662D02*
D03*
X2105Y1578D02*
D03*
Y1622D02*
D03*
X1470Y1618D02*
D03*
Y1662D02*
D03*
D34*
X4530Y4318D02*
D03*
Y4392D02*
D03*
X3955Y2903D02*
D03*
Y2977D02*
D03*
X4065Y2692D02*
D03*
Y2618D02*
D03*
X1450Y4398D02*
D03*
Y4472D02*
D03*
X3230D02*
D03*
Y4398D02*
D03*
D35*
X3128Y2555D02*
D03*
X3002D02*
D03*
X3128Y2420D02*
D03*
X3002D02*
D03*
X3128Y2690D02*
D03*
X3002D02*
D03*
D36*
X3117Y3145D02*
D03*
X3043D02*
D03*
Y1600D02*
D03*
X3117D02*
D03*
X3043Y1370D02*
D03*
X3117D02*
D03*
Y3060D02*
D03*
X3043D02*
D03*
X1343Y3895D02*
D03*
X1417D02*
D03*
X1278Y3320D02*
D03*
X1352D02*
D03*
X2017Y3895D02*
D03*
X1943D02*
D03*
X2037Y2695D02*
D03*
X1963D02*
D03*
X1338D02*
D03*
X1412D02*
D03*
X2218Y1510D02*
D03*
X2292D02*
D03*
X1707Y1750D02*
D03*
X1633D02*
D03*
X1707Y1515D02*
D03*
X1633D02*
D03*
D37*
X4230Y4325D02*
D03*
Y4385D02*
D03*
X4445Y1550D02*
D03*
Y1610D02*
D03*
Y2115D02*
D03*
Y2055D02*
D03*
D38*
X3725Y2761D02*
D03*
Y2839D02*
D03*
X3200Y1601D02*
D03*
Y1679D02*
D03*
X1545Y1504D02*
D03*
Y1426D02*
D03*
D39*
X4561Y2970D02*
D03*
X4639D02*
D03*
D40*
X2415Y4170D02*
D03*
Y4560D02*
D03*
D41*
X2000Y2330D02*
D03*
Y2220D02*
D03*
X1350Y2235D02*
D03*
Y2345D02*
D03*
X1995Y3520D02*
D03*
Y3410D02*
D03*
X1355Y3410D02*
D03*
Y3520D02*
D03*
D42*
X3955Y3115D02*
D03*
X4065D02*
D03*
X4065Y3240D02*
D03*
X3955D02*
D03*
X1230Y4475D02*
D03*
X1340D02*
D03*
D43*
X4615Y2077D02*
D03*
Y2033D02*
D03*
Y1632D02*
D03*
Y1588D02*
D03*
D44*
X4578Y2055D02*
D03*
X4652D02*
D03*
X4578Y1610D02*
D03*
X4652D02*
D03*
D45*
X1285Y4180D02*
D03*
Y4355D02*
D03*
D46*
X4295Y1715D02*
D03*
Y1505D02*
D03*
Y2160D02*
D03*
Y1950D02*
D03*
D47*
X4375Y1610D02*
D03*
X4215D02*
D03*
X4375Y2055D02*
D03*
X4215D02*
D03*
D48*
X1575Y3829D02*
D03*
X1675D02*
D03*
X1775D02*
D03*
X1575Y2649D02*
D03*
X1675D02*
D03*
X1775D02*
D03*
D49*
X1675Y3411D02*
D03*
Y2231D02*
D03*
D50*
X2346Y1673D02*
D03*
Y1648D02*
D03*
Y1622D02*
D03*
Y1597D02*
D03*
X2164D02*
D03*
Y1622D02*
D03*
Y1648D02*
D03*
Y1673D02*
D03*
X1579D02*
D03*
Y1648D02*
D03*
Y1622D02*
D03*
Y1597D02*
D03*
X1761D02*
D03*
Y1622D02*
D03*
Y1648D02*
D03*
Y1673D02*
D03*
X3171Y1447D02*
D03*
Y1472D02*
D03*
Y1498D02*
D03*
Y1523D02*
D03*
X2989D02*
D03*
Y1498D02*
D03*
Y1472D02*
D03*
Y1447D02*
D03*
D51*
X3122Y2825D02*
D03*
X3008D02*
D03*
D52*
X4065Y2883D02*
D03*
Y2997D02*
D03*
D53*
X1890Y4305D02*
D03*
Y4561D02*
D03*
X2940Y4560D02*
D03*
Y4304D02*
D03*
D54*
X2074Y3245D02*
D03*
X1996D02*
D03*
X2009Y2045D02*
D03*
X1931D02*
D03*
D55*
X4055Y1909D02*
X4065Y1900D01*
X4055Y1909D02*
Y1954D01*
X4065Y1964D01*
X4065Y1900D02*
X4065Y1900D01*
X4135Y1690D02*
X4139D01*
X4095Y1730D02*
X4135Y1690D01*
X4139Y1686D02*
X4215Y1610D01*
X4139Y1686D02*
Y1690D01*
X4040Y1875D02*
X4065Y1900D01*
X4134Y1969D02*
Y1970D01*
X4095Y1930D02*
X4134Y1969D01*
Y1974D02*
X4215Y2054D01*
X4134Y1970D02*
Y1974D01*
X4215Y2054D02*
Y2055D01*
X4375Y1610D02*
X4493D01*
Y1582D02*
X4510Y1566D01*
X4493Y1582D02*
Y1610D01*
X4375Y2055D02*
X4493D01*
Y2083D02*
X4510Y2099D01*
X4493Y2055D02*
Y2083D01*
X4637Y2927D02*
Y3045D01*
X4621Y2910D02*
X4637Y2927D01*
X4507Y3045D02*
X4563D01*
Y3088D02*
X4579Y3105D01*
X4563Y3045D02*
Y3088D01*
X4491Y3105D02*
X4507Y3088D01*
Y3045D02*
Y3088D01*
X4687Y3355D02*
X4838D01*
X4637Y3305D02*
X4687Y3355D01*
X4637Y3405D02*
X4687Y3355D01*
X4537Y1592D02*
X4560Y1569D01*
Y1566D02*
Y1569D01*
X4537Y1592D02*
Y1610D01*
Y2073D02*
Y2076D01*
X4560Y2099D01*
X4537Y2055D02*
Y2073D01*
X4215Y1610D02*
Y1620D01*
X4537Y1610D02*
X4578D01*
X4537Y2055D02*
X4578D01*
X4652Y1610D02*
X4838D01*
X4652Y2055D02*
X4838D01*
D56*
X2100Y3660D02*
X2275Y3835D01*
X3075D01*
Y3927D02*
X3138Y3990D01*
X3075Y3835D02*
Y3927D01*
Y3835D02*
X3160Y3750D01*
X3410D01*
X3495Y3835D01*
Y3927D01*
X3558Y3990D01*
X1090Y4475D02*
X1230D01*
X1340Y4410D02*
Y4475D01*
X1285Y4355D02*
X1340Y4410D01*
Y4475D02*
X1447D01*
X1455Y4472D02*
X1570D01*
X1447Y4475D02*
X1450Y4472D01*
X1452Y4470D01*
X1455Y4472D01*
D57*
X4250Y1535D02*
D03*
X4280D02*
D03*
X4310D02*
D03*
X4340D02*
D03*
X4235Y1505D02*
D03*
X4265D02*
D03*
X4295D02*
D03*
X4325D02*
D03*
X4355D02*
D03*
X4340Y1473D02*
D03*
X4310Y1475D02*
D03*
X4280D02*
D03*
X4250D02*
D03*
X4340Y1685D02*
D03*
X4310D02*
D03*
X4280D02*
D03*
X4250D02*
D03*
X4235Y1715D02*
D03*
X4265D02*
D03*
X4295D02*
D03*
X4325D02*
D03*
X4355D02*
D03*
X4340Y1745D02*
D03*
X4310D02*
D03*
X4280D02*
D03*
X4250D02*
D03*
Y1980D02*
D03*
X4280D02*
D03*
X4310D02*
D03*
X4340D02*
D03*
X4235Y1950D02*
D03*
X4265D02*
D03*
X4295D02*
D03*
X4325D02*
D03*
X4355D02*
D03*
X4340Y1918D02*
D03*
X4310Y1920D02*
D03*
X4280D02*
D03*
X4250D02*
D03*
X4340Y2130D02*
D03*
X4310D02*
D03*
X4280D02*
D03*
X4250D02*
D03*
X4235Y2160D02*
D03*
X4265D02*
D03*
X4295D02*
D03*
X4325D02*
D03*
X4355D02*
D03*
X4340Y2190D02*
D03*
X4310D02*
D03*
X4280D02*
D03*
X4250D02*
D03*
D58*
X4075Y4355D02*
D03*
X1470Y1290D02*
D03*
X2795Y2555D02*
D03*
X1720Y1290D02*
D03*
X3190Y4840D02*
D03*
X3990Y2790D02*
D03*
X2940Y4840D02*
D03*
X3780Y3240D02*
D03*
X3380Y1765D02*
D03*
X1995Y2875D02*
D03*
X2465Y2555D02*
D03*
X2990Y3240D02*
D03*
X2625Y3025D02*
D03*
X1930Y1810D02*
D03*
X1675Y3095D02*
D03*
X4605Y3810D02*
D03*
X1675Y2875D02*
D03*
X1995Y3095D02*
D03*
X4145Y4895D02*
D03*
X4835Y4075D02*
D03*
X4455Y4895D02*
D03*
X4295D02*
D03*
X4835Y4630D02*
D03*
X4450Y3810D02*
D03*
X3915Y4355D02*
D03*
Y4630D02*
D03*
X4605Y4895D02*
D03*
D59*
X3475Y2290D02*
D03*
X3275Y2390D02*
D03*
X3475Y2490D02*
D03*
X3695Y3835D02*
D03*
X3595Y3635D02*
D03*
X3495Y3835D02*
D03*
X3075D02*
D03*
X3175Y3635D02*
D03*
X3275Y3835D02*
D03*
D60*
X3535Y2690D02*
D03*
Y3145D02*
D03*
D61*
Y2790D02*
D03*
Y2890D02*
D03*
Y2990D02*
D03*
X3235D02*
D03*
Y2890D02*
D03*
Y2790D02*
D03*
Y2690D02*
D03*
Y3145D02*
D03*
Y3245D02*
D03*
Y3345D02*
D03*
Y3445D02*
D03*
X3535D02*
D03*
Y3345D02*
D03*
Y3245D02*
D03*
D62*
X1090Y4475D02*
D03*
D63*
Y4375D02*
D03*
D64*
X2650Y2075D02*
D03*
X2575Y2150D02*
D03*
X4150Y1925D02*
D03*
X4200D02*
D03*
Y1750D02*
D03*
X4150D02*
D03*
X4075Y1835D02*
D03*
X4100Y1795D02*
D03*
X4150D02*
D03*
X4200D02*
D03*
X4100Y1870D02*
D03*
X4150D02*
D03*
X4200D02*
D03*
X4250Y1795D02*
D03*
X4300D02*
D03*
X4350D02*
D03*
X4250Y1870D02*
D03*
X4300D02*
D03*
X4350D02*
D03*
X4950D02*
D03*
X4900D02*
D03*
X4850D02*
D03*
X4800D02*
D03*
X4750D02*
D03*
X4700D02*
D03*
X4650D02*
D03*
X4600D02*
D03*
X4550D02*
D03*
X4500D02*
D03*
X4450D02*
D03*
X4950Y1795D02*
D03*
X4900D02*
D03*
X4850D02*
D03*
X4800D02*
D03*
X4750D02*
D03*
X4700D02*
D03*
X4650D02*
D03*
X4600D02*
D03*
X4550D02*
D03*
X4500D02*
D03*
X4450D02*
D03*
X4400D02*
D03*
Y1870D02*
D03*
X4025Y2025D02*
D03*
X3950Y2100D02*
D03*
Y2175D02*
D03*
Y2250D02*
D03*
Y2325D02*
D03*
Y2400D02*
D03*
X4025D02*
D03*
X4100D02*
D03*
Y2325D02*
D03*
X4025D02*
D03*
Y2250D02*
D03*
Y2175D02*
D03*
Y2100D02*
D03*
X4100Y2025D02*
D03*
Y2100D02*
D03*
Y2175D02*
D03*
X3685Y1255D02*
D03*
X3760D02*
D03*
X3835D02*
D03*
X3910D02*
D03*
X4125Y1575D02*
D03*
X4000Y1735D02*
D03*
X3735Y1690D02*
D03*
X4175Y2325D02*
D03*
Y2400D02*
D03*
X4250D02*
D03*
X4325D02*
D03*
Y2325D02*
D03*
X4250D02*
D03*
X2535Y3040D02*
D03*
X2465Y2885D02*
D03*
X2700Y2980D02*
D03*
X2730Y2915D02*
D03*
X4725Y4950D02*
D03*
X4875D02*
D03*
X4725Y4800D02*
D03*
X4800Y4875D02*
D03*
X4950D02*
D03*
X4875Y4800D02*
D03*
X4800Y4725D02*
D03*
X4950D02*
D03*
Y4575D02*
D03*
X4655Y4425D02*
D03*
X4875Y4500D02*
D03*
X4950Y4425D02*
D03*
X4800D02*
D03*
X4725Y4350D02*
D03*
X4875D02*
D03*
X4650Y4275D02*
D03*
X4800D02*
D03*
X4875Y4200D02*
D03*
X4950Y4275D02*
D03*
Y4125D02*
D03*
X4725Y3900D02*
D03*
X4800Y3975D02*
D03*
X4950D02*
D03*
X4875Y3900D02*
D03*
X4950Y3825D02*
D03*
X4800D02*
D03*
X4350Y3975D02*
D03*
X4275Y3900D02*
D03*
X4350Y3825D02*
D03*
X4725Y3750D02*
D03*
X4875D02*
D03*
X4950Y3675D02*
D03*
X4875Y3600D02*
D03*
X4800Y3675D02*
D03*
X4650D02*
D03*
X4500D02*
D03*
X4725Y3600D02*
D03*
X4575D02*
D03*
X4500Y3525D02*
D03*
X4425Y3600D02*
D03*
X4350Y3675D02*
D03*
X4275Y3750D02*
D03*
X4125Y3900D02*
D03*
X4200Y3825D02*
D03*
X4125Y3750D02*
D03*
X4200Y3675D02*
D03*
X4275Y3600D02*
D03*
X4350Y3525D02*
D03*
X4125Y4050D02*
D03*
X3975D02*
D03*
X4050Y3975D02*
D03*
X3975Y3900D02*
D03*
X4050Y3825D02*
D03*
X3975Y3750D02*
D03*
Y3600D02*
D03*
X4050Y3675D02*
D03*
X4125Y3300D02*
D03*
X3975Y3450D02*
D03*
X4050Y3375D02*
D03*
Y3530D02*
D03*
X4125Y3600D02*
D03*
Y3450D02*
D03*
X4200Y3525D02*
D03*
X4275Y3450D02*
D03*
X4200Y3375D02*
D03*
X4425Y3300D02*
D03*
X4350Y3375D02*
D03*
Y3225D02*
D03*
X4275Y3300D02*
D03*
X4950Y3100D02*
D03*
X4900D02*
D03*
X4850D02*
D03*
X4875Y3000D02*
D03*
X4725D02*
D03*
X4800Y2925D02*
D03*
X4950D02*
D03*
X4875Y2850D02*
D03*
X4725D02*
D03*
X4650Y2775D02*
D03*
X4800D02*
D03*
X4950D02*
D03*
X4875Y2700D02*
D03*
X4575D02*
D03*
X4725D02*
D03*
X4125Y3150D02*
D03*
X4200Y3225D02*
D03*
X4275Y3150D02*
D03*
X4200Y3075D02*
D03*
X4275Y3000D02*
D03*
X4200Y2925D02*
D03*
X4275Y2850D02*
D03*
X4125Y2700D02*
D03*
X4200Y2775D02*
D03*
X4275Y2700D02*
D03*
X4500Y2625D02*
D03*
X4875Y2550D02*
D03*
X4650Y2625D02*
D03*
X4725Y2550D02*
D03*
X4950Y2475D02*
D03*
X4875Y2400D02*
D03*
X4725D02*
D03*
X4575D02*
D03*
X4200Y2625D02*
D03*
X4350D02*
D03*
X4575Y2325D02*
D03*
X4650Y2400D02*
D03*
X4800D02*
D03*
X4875Y2325D02*
D03*
X4950Y2625D02*
D03*
X4800D02*
D03*
X4725Y2325D02*
D03*
X4950Y2400D02*
D03*
X4800Y2475D02*
D03*
X4500D02*
D03*
X4650D02*
D03*
X4950Y2325D02*
D03*
X4800D02*
D03*
X4535Y2520D02*
D03*
Y2560D02*
D03*
X4650Y2325D02*
D03*
X4500D02*
D03*
X2985Y1715D02*
D03*
Y1665D02*
D03*
Y1615D02*
D03*
Y1565D02*
D03*
X2935Y1440D02*
D03*
Y1485D02*
D03*
Y1530D02*
D03*
X3080D02*
D03*
X3035D02*
D03*
Y1440D02*
D03*
X3080D02*
D03*
X3035Y1485D02*
D03*
X3080D02*
D03*
X2990Y1240D02*
D03*
Y1305D02*
D03*
Y1370D02*
D03*
X3305Y1470D02*
D03*
X3910Y1415D02*
D03*
X3760D02*
D03*
X3660Y1525D02*
D03*
X3785Y1740D02*
D03*
X3735D02*
D03*
Y1940D02*
D03*
X3935D02*
D03*
X3835D02*
D03*
X3885D02*
D03*
X3785D02*
D03*
X3935Y1890D02*
D03*
X3735D02*
D03*
Y1790D02*
D03*
X3935D02*
D03*
X4550Y1100D02*
D03*
Y1145D02*
D03*
X4500Y1425D02*
D03*
X4800D02*
D03*
X4750D02*
D03*
X4700D02*
D03*
X4650D02*
D03*
X4600D02*
D03*
X4850D02*
D03*
X4900D02*
D03*
X4950D02*
D03*
Y1475D02*
D03*
Y1525D02*
D03*
X4900D02*
D03*
Y1475D02*
D03*
X4850D02*
D03*
Y1525D02*
D03*
X4800Y1475D02*
D03*
Y1525D02*
D03*
X4750D02*
D03*
Y1475D02*
D03*
X4700D02*
D03*
Y1525D02*
D03*
X4650D02*
D03*
Y1475D02*
D03*
X4600D02*
D03*
X4550D02*
D03*
X4500D02*
D03*
X4600Y1525D02*
D03*
X4550Y1425D02*
D03*
X4950Y1695D02*
D03*
X4900D02*
D03*
X4850D02*
D03*
X4600D02*
D03*
X4650D02*
D03*
X4700D02*
D03*
X4750D02*
D03*
X4800D02*
D03*
X4550D02*
D03*
X4500D02*
D03*
X4450D02*
D03*
X4400D02*
D03*
Y1745D02*
D03*
X4450D02*
D03*
X4400Y1920D02*
D03*
X4450D02*
D03*
X4400Y1970D02*
D03*
X4450D02*
D03*
X4500Y1745D02*
D03*
X4550D02*
D03*
X4800D02*
D03*
X4750D02*
D03*
X4700D02*
D03*
X4650D02*
D03*
X4600D02*
D03*
X4850D02*
D03*
X4900D02*
D03*
X4950D02*
D03*
Y1920D02*
D03*
Y1970D02*
D03*
X4900D02*
D03*
Y1920D02*
D03*
X4850D02*
D03*
Y1970D02*
D03*
X4800Y1920D02*
D03*
Y1970D02*
D03*
X4750D02*
D03*
Y1920D02*
D03*
X4700D02*
D03*
Y1970D02*
D03*
X4650D02*
D03*
Y1920D02*
D03*
X4600D02*
D03*
X4550D02*
D03*
X4500D02*
D03*
X4600Y1970D02*
D03*
X4550D02*
D03*
X4500D02*
D03*
Y2240D02*
D03*
X4550D02*
D03*
X4600D02*
D03*
X4500Y2190D02*
D03*
X4550D02*
D03*
X4600D02*
D03*
X4650D02*
D03*
Y2240D02*
D03*
X4700D02*
D03*
Y2190D02*
D03*
X4750D02*
D03*
Y2240D02*
D03*
X4800D02*
D03*
Y2190D02*
D03*
X4850Y2240D02*
D03*
Y2190D02*
D03*
X4900D02*
D03*
Y2240D02*
D03*
X4950D02*
D03*
Y2190D02*
D03*
Y2140D02*
D03*
X4900D02*
D03*
X4850D02*
D03*
X4600D02*
D03*
X4650D02*
D03*
X4700D02*
D03*
X4750D02*
D03*
X4800D02*
D03*
X4700Y3540D02*
D03*
X4750D02*
D03*
X4800D02*
D03*
X4700Y3490D02*
D03*
X4750D02*
D03*
X4800D02*
D03*
Y3160D02*
D03*
X4750D02*
D03*
X4800Y3215D02*
D03*
X4750D02*
D03*
X4700D02*
D03*
Y3160D02*
D03*
Y3105D02*
D03*
X4500Y2970D02*
D03*
X4545Y2910D02*
D03*
Y2850D02*
D03*
X4865Y3175D02*
D03*
Y3215D02*
D03*
X4965Y3175D02*
D03*
Y3215D02*
D03*
X4915Y3175D02*
D03*
Y3215D02*
D03*
X4865Y3260D02*
D03*
X4915D02*
D03*
X4965D02*
D03*
Y3300D02*
D03*
X4700Y3270D02*
D03*
X4750D02*
D03*
X4800D02*
D03*
X4700Y3440D02*
D03*
X4750D02*
D03*
X4800D02*
D03*
X4865Y3450D02*
D03*
Y3490D02*
D03*
Y3535D02*
D03*
X4915D02*
D03*
X4965D02*
D03*
Y3490D02*
D03*
Y3410D02*
D03*
Y3450D02*
D03*
X4915D02*
D03*
Y3490D02*
D03*
X4635Y3540D02*
D03*
X4525Y3890D02*
D03*
X4565Y4035D02*
D03*
X4490D02*
D03*
X4525Y3935D02*
D03*
X4715Y3960D02*
D03*
X4640Y4160D02*
D03*
X4070Y4245D02*
D03*
X4035Y4745D02*
D03*
X4110Y4545D02*
D03*
X4325Y4365D02*
D03*
X4425D02*
D03*
X4375D02*
D03*
X4640Y4545D02*
D03*
X4715Y4745D02*
D03*
X4525Y4810D02*
D03*
Y4770D02*
D03*
Y4730D02*
D03*
X4225D02*
D03*
Y4810D02*
D03*
Y4770D02*
D03*
X3650Y3495D02*
D03*
Y3020D02*
D03*
X4000Y2690D02*
D03*
X3600Y2840D02*
D03*
X3060Y2690D02*
D03*
X2945D02*
D03*
X3180Y2490D02*
D03*
X3185Y2420D02*
D03*
X2625Y2510D02*
D03*
X2720D02*
D03*
X2540D02*
D03*
X2625Y2595D02*
D03*
X2720D02*
D03*
X2540D02*
D03*
X2465Y2780D02*
D03*
Y2980D02*
D03*
X2980Y3060D02*
D03*
Y3145D02*
D03*
X3120Y3500D02*
D03*
X3680Y3990D02*
D03*
X3260D02*
D03*
X1995Y3190D02*
D03*
X2085Y2695D02*
D03*
Y2595D02*
D03*
X1930Y1985D02*
D03*
X2320Y1735D02*
D03*
Y1785D02*
D03*
X2550Y1775D02*
D03*
X2475Y1700D02*
D03*
X2295Y1455D02*
D03*
X2350Y1565D02*
D03*
X2395Y1620D02*
D03*
Y1675D02*
D03*
X2295Y1565D02*
D03*
Y1620D02*
D03*
Y1675D02*
D03*
X1715Y1465D02*
D03*
Y1575D02*
D03*
X1805D02*
D03*
Y1625D02*
D03*
Y1675D02*
D03*
X1715Y1625D02*
D03*
Y1675D02*
D03*
X1470Y1700D02*
D03*
X1520D02*
D03*
X1333Y1428D02*
D03*
X1200Y2315D02*
D03*
X1250D02*
D03*
X1285Y2600D02*
D03*
Y2695D02*
D03*
X1225Y3245D02*
D03*
Y3320D02*
D03*
X1290Y3795D02*
D03*
Y3895D02*
D03*
X1285Y4115D02*
D03*
X1210Y4180D02*
D03*
X1360D02*
D03*
X3177Y4472D02*
D03*
X3395D02*
D03*
X3345Y4515D02*
D03*
X3230Y4520D02*
D03*
X3290Y4475D02*
D03*
X3010Y4560D02*
D03*
X2870D02*
D03*
X2940Y4470D02*
D03*
Y4650D02*
D03*
X1825Y4305D02*
D03*
X1890Y4225D02*
D03*
X1725Y4950D02*
D03*
X1625Y4400D02*
D03*
X1600Y4325D02*
D03*
X1525Y4400D02*
D03*
X1875Y4800D02*
D03*
X1450Y4325D02*
D03*
X2900Y2420D02*
D03*
Y2555D02*
D03*
Y2775D02*
D03*
X4375Y2520D02*
D03*
Y2560D02*
D03*
Y2480D02*
D03*
X4510Y2725D02*
D03*
X3800Y2935D02*
D03*
X3875D02*
D03*
X4275Y4175D02*
D03*
X4342Y4077D02*
D03*
X4595Y4415D02*
D03*
X4530Y4435D02*
D03*
X4375Y4415D02*
D03*
X4175Y4300D02*
D03*
X2170Y1545D02*
D03*
X2055Y3795D02*
D03*
X2060Y3895D02*
D03*
X3180Y2555D02*
D03*
X4050Y1575D02*
D03*
X3975Y1500D02*
D03*
Y1650D02*
D03*
X3510Y1240D02*
D03*
X4750Y3100D02*
D03*
X4800D02*
D03*
X1725Y4800D02*
D03*
X1525Y4250D02*
D03*
X1575Y4800D02*
D03*
X1675Y4250D02*
D03*
X1425Y4950D02*
D03*
X1600Y4175D02*
D03*
X1575Y4950D02*
D03*
X1450Y4175D02*
D03*
X1750D02*
D03*
X1825D02*
D03*
X1425Y4800D02*
D03*
X1890Y4400D02*
D03*
X1950Y4305D02*
D03*
X1750Y4325D02*
D03*
Y4400D02*
D03*
X1275Y4950D02*
D03*
X1125D02*
D03*
X1950Y4175D02*
D03*
X1275Y4800D02*
D03*
X1875Y4950D02*
D03*
X2025Y4175D02*
D03*
Y4400D02*
D03*
Y4950D02*
D03*
X2100Y4325D02*
D03*
X2025Y4800D02*
D03*
X2175Y4400D02*
D03*
Y4800D02*
D03*
X2325D02*
D03*
Y4400D02*
D03*
X2475Y4800D02*
D03*
X2175Y4950D02*
D03*
X2250Y4350D02*
D03*
X2325Y4950D02*
D03*
X2475Y4400D02*
D03*
X3075Y4850D02*
D03*
X2400Y4350D02*
D03*
X2475Y4950D02*
D03*
X2625Y4400D02*
D03*
X2550Y4350D02*
D03*
X3075Y4700D02*
D03*
X3225D02*
D03*
X2925D02*
D03*
X2775D02*
D03*
Y4550D02*
D03*
Y4400D02*
D03*
X2625Y4550D02*
D03*
X3375Y4700D02*
D03*
X3075Y4550D02*
D03*
X1125Y4800D02*
D03*
X1200Y4875D02*
D03*
X1350D02*
D03*
X1500D02*
D03*
X1650D02*
D03*
X1050D02*
D03*
X1800D02*
D03*
X1950D02*
D03*
X2100D02*
D03*
X2250D02*
D03*
X2400D02*
D03*
X2625Y4950D02*
D03*
Y4800D02*
D03*
X2550Y4875D02*
D03*
X2700D02*
D03*
X2775Y4950D02*
D03*
X2700Y4475D02*
D03*
Y4625D02*
D03*
X2850Y4775D02*
D03*
X3000D02*
D03*
X3155Y4625D02*
D03*
X2850D02*
D03*
X3300D02*
D03*
X1050Y4175D02*
D03*
Y4025D02*
D03*
X1200D02*
D03*
X1350D02*
D03*
X1050Y3875D02*
D03*
X1200D02*
D03*
Y3725D02*
D03*
X1050D02*
D03*
Y3575D02*
D03*
X1125Y4250D02*
D03*
Y4100D02*
D03*
Y3950D02*
D03*
Y3800D02*
D03*
Y3650D02*
D03*
X1050Y3425D02*
D03*
X1125Y3500D02*
D03*
Y3350D02*
D03*
X1050Y3275D02*
D03*
X1125Y3200D02*
D03*
X1050Y3125D02*
D03*
X1125Y3050D02*
D03*
X1050Y2975D02*
D03*
X1125Y2900D02*
D03*
X1050Y2825D02*
D03*
X1125Y2750D02*
D03*
X1050Y2675D02*
D03*
X1125Y2600D02*
D03*
X1050Y2525D02*
D03*
X1125Y2450D02*
D03*
X1200Y2525D02*
D03*
Y2675D02*
D03*
Y2375D02*
D03*
X1050D02*
D03*
X1125Y2300D02*
D03*
X1050Y2225D02*
D03*
Y2075D02*
D03*
Y1925D02*
D03*
Y1775D02*
D03*
Y1625D02*
D03*
X1125Y1700D02*
D03*
X1200Y1625D02*
D03*
X1275Y1700D02*
D03*
X1125Y1550D02*
D03*
X1050Y1475D02*
D03*
X1200D02*
D03*
X1275Y1550D02*
D03*
X1125Y1400D02*
D03*
X1050Y1325D02*
D03*
X1200D02*
D03*
X1275Y1400D02*
D03*
X1350Y1325D02*
D03*
X1125Y1250D02*
D03*
X1275D02*
D03*
X1200Y1175D02*
D03*
X1050D02*
D03*
X1125Y1100D02*
D03*
X1275D02*
D03*
X1350Y1175D02*
D03*
X1425Y1100D02*
D03*
X1500Y1175D02*
D03*
X1800Y1325D02*
D03*
X1950D02*
D03*
X1875Y1400D02*
D03*
X1800Y1475D02*
D03*
X1950D02*
D03*
X1875Y1550D02*
D03*
X1760Y1710D02*
D03*
X1810Y1850D02*
D03*
X1725D02*
D03*
X1960Y1700D02*
D03*
X1800Y1925D02*
D03*
X2125Y2450D02*
D03*
X2200Y2375D02*
D03*
X2125Y2300D02*
D03*
X2200Y2225D02*
D03*
X2060Y2150D02*
D03*
X2135Y2075D02*
D03*
X2200Y2525D02*
D03*
Y2675D02*
D03*
X2125Y2750D02*
D03*
X2200Y2825D02*
D03*
X2125Y2900D02*
D03*
X2200Y2975D02*
D03*
X2050D02*
D03*
X1900D02*
D03*
Y2825D02*
D03*
X1825Y2900D02*
D03*
X2125Y3050D02*
D03*
X2200Y3125D02*
D03*
X2125Y3200D02*
D03*
X2200Y3275D02*
D03*
X2125Y3350D02*
D03*
X2200Y3425D02*
D03*
Y3575D02*
D03*
X2350D02*
D03*
X2275Y3500D02*
D03*
Y3650D02*
D03*
X2350Y3725D02*
D03*
X2425Y3650D02*
D03*
X2500Y3725D02*
D03*
X2650D02*
D03*
X2575Y3650D02*
D03*
X2725D02*
D03*
X2800Y3725D02*
D03*
X2875Y3650D02*
D03*
X2950Y3725D02*
D03*
X3025Y3650D02*
D03*
X3100Y3725D02*
D03*
X2950Y3575D02*
D03*
X2800D02*
D03*
X2650D02*
D03*
X2500D02*
D03*
X2425Y3500D02*
D03*
X2575D02*
D03*
X2725D02*
D03*
X2875D02*
D03*
X3025D02*
D03*
X2950Y3425D02*
D03*
X2800D02*
D03*
X2650D02*
D03*
X2500D02*
D03*
X2350D02*
D03*
X2425Y3350D02*
D03*
X2575D02*
D03*
X2725D02*
D03*
X2875D02*
D03*
X3025D02*
D03*
X2800Y3275D02*
D03*
X2650D02*
D03*
X2500D02*
D03*
X2350D02*
D03*
X2425Y3200D02*
D03*
X2575D02*
D03*
X2725D02*
D03*
X2875D02*
D03*
X2800Y3125D02*
D03*
X2875Y3050D02*
D03*
X2350Y3125D02*
D03*
Y2975D02*
D03*
Y2825D02*
D03*
Y2675D02*
D03*
Y2525D02*
D03*
Y2375D02*
D03*
Y2225D02*
D03*
X2025Y1400D02*
D03*
X2100Y1325D02*
D03*
X2175Y1400D02*
D03*
X2250Y1325D02*
D03*
X2400Y1775D02*
D03*
Y1325D02*
D03*
X2475Y1400D02*
D03*
X2550Y1325D02*
D03*
X2625Y1400D02*
D03*
X2700Y1325D02*
D03*
X2550Y1475D02*
D03*
X2625Y1550D02*
D03*
X2475D02*
D03*
X2700Y1475D02*
D03*
Y1625D02*
D03*
X2550D02*
D03*
X2700Y1775D02*
D03*
X2625Y1700D02*
D03*
X2425Y2150D02*
D03*
Y2000D02*
D03*
X2350Y2075D02*
D03*
X2275Y2000D02*
D03*
X2500Y2075D02*
D03*
X2575Y2000D02*
D03*
X2500Y2225D02*
D03*
Y2375D02*
D03*
X2425Y2300D02*
D03*
X2650Y2225D02*
D03*
Y2375D02*
D03*
X2575Y2300D02*
D03*
X2725D02*
D03*
X2800Y2375D02*
D03*
Y2225D02*
D03*
X2875Y2300D02*
D03*
X2950Y2225D02*
D03*
X3025Y2300D02*
D03*
X3100Y2225D02*
D03*
X3175Y2300D02*
D03*
X3250Y2225D02*
D03*
X3325Y2300D02*
D03*
X3400Y2225D02*
D03*
Y2375D02*
D03*
X3550Y2225D02*
D03*
Y2375D02*
D03*
X3325Y2450D02*
D03*
Y2600D02*
D03*
X3400Y2525D02*
D03*
Y2675D02*
D03*
X3325Y2750D02*
D03*
X3250Y2525D02*
D03*
X3400Y2825D02*
D03*
Y2975D02*
D03*
X3475Y2900D02*
D03*
Y3050D02*
D03*
X3325D02*
D03*
X3400Y3125D02*
D03*
Y3275D02*
D03*
Y3425D02*
D03*
X3475Y3350D02*
D03*
X3400Y3575D02*
D03*
X3475Y3650D02*
D03*
X3550Y3725D02*
D03*
X3625Y3800D02*
D03*
X3550Y3875D02*
D03*
X3700Y3725D02*
D03*
X3775Y3650D02*
D03*
X3850Y3725D02*
D03*
X3775Y3800D02*
D03*
X3850Y3875D02*
D03*
X3775Y3950D02*
D03*
X3850Y4025D02*
D03*
Y3575D02*
D03*
X3775Y3500D02*
D03*
X3700Y3575D02*
D03*
X3850Y3425D02*
D03*
Y3275D02*
D03*
X2350Y3875D02*
D03*
X2275Y3950D02*
D03*
X2200Y3875D02*
D03*
X2125Y3950D02*
D03*
Y3800D02*
D03*
X2425Y3950D02*
D03*
X2500Y3875D02*
D03*
X2575Y3950D02*
D03*
X2650Y3875D02*
D03*
X2725Y3950D02*
D03*
X2800Y3875D02*
D03*
X2875Y3950D02*
D03*
X2950Y3875D02*
D03*
X3025Y3950D02*
D03*
X2650Y4025D02*
D03*
X2725Y4100D02*
D03*
X2800Y4025D02*
D03*
X2875Y4100D02*
D03*
X3025D02*
D03*
X3175D02*
D03*
Y3950D02*
D03*
X3325D02*
D03*
Y4100D02*
D03*
X3475D02*
D03*
Y4250D02*
D03*
X3550Y4325D02*
D03*
Y4475D02*
D03*
Y4625D02*
D03*
X3625Y4550D02*
D03*
Y4400D02*
D03*
X3700Y4475D02*
D03*
Y4625D02*
D03*
X3625Y4700D02*
D03*
X3550Y4775D02*
D03*
Y4925D02*
D03*
X3475Y4850D02*
D03*
X3400Y4925D02*
D03*
X3225D02*
D03*
X3625Y4850D02*
D03*
X3700Y4925D02*
D03*
Y4775D02*
D03*
X3775Y4700D02*
D03*
X3850Y4775D02*
D03*
X3775Y4850D02*
D03*
X3850Y4925D02*
D03*
X3925Y4850D02*
D03*
X4000Y4925D02*
D03*
X4075Y4850D02*
D03*
X4000Y4775D02*
D03*
X3925Y4700D02*
D03*
X3775Y4550D02*
D03*
X3925D02*
D03*
X4250Y4525D02*
D03*
X3700Y4325D02*
D03*
X3625Y4250D02*
D03*
X3775D02*
D03*
X3850Y4325D02*
D03*
X3700Y4175D02*
D03*
X3625Y4100D02*
D03*
X3775Y4400D02*
D03*
X3550Y2525D02*
D03*
X3035Y1790D02*
D03*
X3185D02*
D03*
X3510Y1365D02*
D03*
X3390Y1470D02*
D03*
X3685Y1340D02*
D03*
Y1475D02*
D03*
X3725Y1525D02*
D03*
X3835Y1340D02*
D03*
X4050Y1280D02*
D03*
X4125Y1350D02*
D03*
X4200Y1275D02*
D03*
X4275Y1350D02*
D03*
X4350Y1275D02*
D03*
X4050Y1430D02*
D03*
X4125Y1500D02*
D03*
X3975Y1575D02*
D03*
X4200Y1425D02*
D03*
X4350D02*
D03*
X4200Y1500D02*
D03*
X4275Y1425D02*
D03*
X4200Y1350D02*
D03*
X4350D02*
D03*
X4275Y1275D02*
D03*
X4125D02*
D03*
Y1425D02*
D03*
X4295Y1610D02*
D03*
Y1650D02*
D03*
Y1570D02*
D03*
Y2055D02*
D03*
Y2015D02*
D03*
Y2095D02*
D03*
X4050Y1500D02*
D03*
Y1355D02*
D03*
X3910Y1340D02*
D03*
X3835Y1415D02*
D03*
X3760Y1340D02*
D03*
X3685Y1415D02*
D03*
X3735Y1640D02*
D03*
X3660Y1740D02*
D03*
X3585D02*
D03*
X3510D02*
D03*
Y1815D02*
D03*
X3585D02*
D03*
X3660D02*
D03*
X3585Y1890D02*
D03*
X3510D02*
D03*
Y1965D02*
D03*
X3585D02*
D03*
X3785Y1990D02*
D03*
X3835D02*
D03*
X3885D02*
D03*
X3935D02*
D03*
X3985Y1890D02*
D03*
Y1940D02*
D03*
Y1990D02*
D03*
X3885Y2040D02*
D03*
X3960D02*
D03*
X4175Y2175D02*
D03*
Y2250D02*
D03*
X4250D02*
D03*
X4325D02*
D03*
X4385Y2175D02*
D03*
Y2125D02*
D03*
X4100Y2250D02*
D03*
X4500Y1350D02*
D03*
X4650D02*
D03*
X4575Y1275D02*
D03*
X4650Y1200D02*
D03*
X4725Y1275D02*
D03*
Y1125D02*
D03*
X4800Y1200D02*
D03*
X4875Y1125D02*
D03*
Y1275D02*
D03*
X4800Y1350D02*
D03*
X4950D02*
D03*
Y1200D02*
D03*
D65*
X4615Y1588D02*
D03*
Y1632D02*
D03*
Y2077D02*
D03*
Y2033D02*
D03*
D66*
X3835Y1840D02*
D03*
D67*
X4380Y1145D02*
D03*
Y1100D02*
D03*
Y1190D02*
D03*
X3390Y1370D02*
D03*
X3285Y1180D02*
D03*
X3390D02*
D03*
X3340D02*
D03*
X3285Y1305D02*
D03*
X3390D02*
D03*
X3340D02*
D03*
Y1370D02*
D03*
Y1240D02*
D03*
X1575Y1875D02*
D03*
X1625D02*
D03*
M02*
