M48
;Layer_Color=9474304
;FILE_FORMAT=2:3
INCH,LZ
;TYPE=PLATED
T1F00S00C0.008
T2F00S00C0.010
T3F00S00C0.015
T4F00S00C0.035
T5F00S00C0.039
T6F00S00C0.045
T7F00S00C0.050
%
T01
X04615Y02033
Y02077
T02
X0425Y01475
X0428
X0431
X0434Y01473
X04325Y01505
X04295
X04265
X04235
X0425Y01535
X0428
X0431
X0434
X04355Y01505
X0434Y01685
X0431
X0428
X0425
X04235Y01715
X04265
X04295
X04325
X04355
X0434Y01745
X0431
X0428
X0425
Y0192
X0428
X0431
X0434Y01918
X04325Y0195
X04295
X04265
X04235
X0425Y0198
X0428
X0431
X0434
X04355Y0195
X0434Y0213
X0431
X0428
X0425
X04235Y0216
X04265
X04295
X04325
X04355
X0434Y0219
X0431
X0428
X0425
X04615Y01632
Y01588
T03
X01125Y011
X01275
X01425
X015Y01175
X0135
X012
X0105
X01125Y0125
X01275
X0135Y01325
X01333Y01428
X01275Y014
X012Y01325
X0105
X01125Y014
X012Y01475
X01275Y0155
X01125
X0105Y01475
X01715Y01465
X018Y01475
X01875Y0155
X0195Y01475
X02025Y014
X02175
X0225Y01325
X024
X0255
Y01475
X027
X02625Y0155
X02475
Y014
X02625
X027Y01325
X0299Y01305
Y0137
X03035Y0144
Y01485
X0308
Y0144
Y0153
X03035
X02935
Y01485
Y0144
X0299Y0124
X02295Y01455
X0217Y01545
X021Y01325
X0195
X01875Y014
X018Y01325
X03285Y01305
X0334
X0339
Y0137
X0334
Y0124
Y0118
X0339
X03285
X0351Y0124
Y01365
X03685Y0134
Y01415
Y01475
X0366Y01525
X03725
X0376Y01415
Y0134
X03835
Y01415
X0391
Y0134
Y01255
X03835
X0376
X03685
X0405Y0128
Y01355
Y0143
Y015
X04125
Y01425
X042
Y0135
X04275
Y01275
X0435
Y0135
Y01425
X04275
X042Y015
Y01275
X04125
Y0135
X03975Y015
X045Y01475
X0455
Y01425
X046
Y01475
Y01525
X0465
Y01475
Y01425
Y0135
Y012
X04575Y01275
X045Y0135
Y01425
X0455Y01145
Y011
X0438
Y01145
Y0119
X0339Y0147
X03305
X047Y01475
Y01525
X0475
Y01475
X048
Y01525
X0485
Y01475
X049
Y01525
X0495
Y01475
Y01425
X049
X0485
X048
X0475
X047
X048Y0135
X0495
Y012
X04875Y01275
Y01125
X048Y012
X04725Y01125
Y01275
X0475Y01695
Y01745
X047
Y01695
X048
Y01745
X0485
X049
X0495
Y01695
X049
X0485
Y01795
X048
X0475
X047
Y0187
Y0192
Y0197
X0475
Y0192
X048
Y0197
X0485
Y0192
X049
Y0197
X0495
Y0192
Y0187
X049
X0485
X048
X0475
X049Y01795
X0495
Y0214
X049
X0485
X048
X0475
X047
Y0219
X0475
X048
X0485
X049
X0495
Y0224
X049
X0485
X048
X0475
X047
X04725Y02325
X048
X04875
X0495
Y024
X04875
X048
Y02475
Y02625
X0495
Y02475
X04875Y0255
X04725
Y024
Y027
X04875
X0495Y02775
X048
X04725Y0285
X04875
X0495Y02925
X048
X04725Y03
X0475Y031
X048
X0485
X049
X0495
X04875Y03
X047Y03105
X045Y0297
X04545Y0291
Y0285
X0451Y02725
X04575Y027
X0465Y02625
Y02475
Y024
Y02325
X04575
X045
Y0224
Y0219
X0455
X046
Y0214
X0465
Y0219
Y0224
X046
X0455
X04575Y024
X045Y02475
X04535Y0252
Y0256
X045Y02625
X0435
X04375Y0256
Y0252
Y0248
X04325Y024
Y02325
Y0225
X0425
X04175
X041
Y02175
X04175
Y02325
X0425
Y024
X04175
X041
Y02325
X04025
Y0225
Y02175
Y021
X041
Y02025
X04025
X03985Y0199
Y0194
Y0189
X03935
Y0194
Y0199
X03885
Y0204
X0396
X0395Y021
Y02175
Y0225
Y02325
Y024
X04025
X04Y0269
X04125Y027
X042Y02625
X04275Y027
X042Y02775
X04275Y0285
X042Y02925
X04275Y03
X042Y03075
X03875Y02935
X038
X0365Y0302
X03475Y0305
X03325
X034Y02975
X03475Y029
X034Y02825
X03325Y0275
X034Y02675
Y02525
X0355
Y02375
Y02225
X034
Y02375
X03325Y0245
X0325Y02525
X0318Y02555
Y0249
X03185Y0242
X03175Y023
X03325
X0325Y02225
X03325Y026
X036Y0284
X03585Y01965
X0351
Y0189
X03585
Y01815
X0366
Y0174
X03585
X0351
Y01815
X03735Y0179
Y0174
X03785
X03735Y0169
Y0164
X03975Y0165
Y01575
X0405
X04125
X04295Y0157
Y0161
Y0165
X044Y01695
Y01745
X0445
X045
X0455
X046
X0465
Y01695
X046
X0455
X045
X0445
Y01795
X044
X0435
X043
X0425
X042
Y0175
X0415
Y01795
X041
X04075Y01835
X041Y0187
X0415
X042
X0425
X043
X0435
X044
Y0192
Y0197
X0445
X045
X0455
X046
Y0192
X0455
X045
X0445
Y0187
X045
X0455
X046
X0465
Y0192
Y0197
Y01795
X046
X0455
X045
X04295Y02015
Y02055
Y02095
X04385Y02125
Y02175
X042Y01925
X0415
X03885Y0194
X03835
Y0199
X03785
Y0194
X03735
Y0189
X03935Y0179
X04Y01735
X03185Y0179
X0465Y02775
X0306Y0269
X02945
X029Y02775
Y02555
Y0242
X02875Y023
X03025
X031Y02225
X0295
X028
Y02375
X02725Y023
X02575
X0265Y02375
Y02225
X025
X02425Y023
X025Y02375
X0235
Y02225
Y02075
X025
X02575Y02
X02425
X02275
X02135Y02075
X0206Y0215
X022Y02225
X02125Y023
X022Y02375
Y02525
X0235
Y02675
Y02825
Y02975
X02465Y0298
Y02885
Y0278
X0254Y02595
X02625
Y0251
X0254
X0272
Y02595
X0273Y02915
X027Y0298
X02535Y0304
X02875Y0305
X0298Y0306
X02125Y0305
X0205Y02975
X019
X01825Y029
X019Y02825
X02125Y029
X022Y02975
Y02825
X02125Y0275
X02085Y02695
Y02595
X02125Y0245
X022Y02675
X02425Y0215
X02575
X0265Y02075
X027Y01775
X02625Y017
X0255Y01625
X027
X02985Y01615
Y01565
Y01665
Y01715
X03035Y0179
X0255Y01775
X024
X0232Y01785
Y01735
X02295Y01675
Y0162
Y01565
X0235
X02395Y0162
Y01675
X02475Y017
X0196
X01805Y01675
Y01625
Y01575
X01715
Y01625
Y01675
X0176Y0171
X01725Y0185
X0181
X018Y01925
X0193Y01985
X01625Y01875
X01575
X0152Y017
X0147
X01275
X012Y01625
X01125Y017
X0105Y01625
Y01775
Y01925
Y02075
Y02225
X01125Y023
X012Y02315
X0125
X012Y02375
X0105
X01125Y0245
X012Y02525
Y02675
X01285Y02695
Y026
X01125
X0105Y02525
Y02675
X01125Y0275
X0105Y02825
X01125Y029
X0105Y02975
X01125Y0305
X0105Y03125
X01125Y032
X01225Y03245
Y0332
X01125Y0335
X0105Y03275
Y03425
X01125Y035
Y0365
Y038
Y0395
Y041
Y0425
X0105Y04175
Y04025
Y03875
Y03725
Y03575
X012Y03725
Y03875
X0129Y03895
Y03795
X0135Y04025
X012
X0121Y0418
X01285Y04115
X0136Y0418
X0145Y04175
X01525Y0425
X0145Y04325
X01525Y044
X01625
X016Y04325
X0175
Y044
X0189
X02025
X02175
X0225Y0435
X02325Y044
X024Y0435
X02475Y044
X0255Y0435
X02625Y044
X027Y04475
Y04625
X0285
X0287Y0456
X02775Y0455
X02625
X02775Y044
X0294Y0447
X0301Y0456
X03075Y0455
X0294Y0465
X02875Y041
X03025
Y0395
X0295Y03875
X02875Y0395
X028Y04025
X02725Y041
X0265Y04025
X02725Y0395
X028Y03875
X0265
X02575Y0395
X025Y03875
X02425Y0395
X02275
X02125
X0206Y03895
X02055Y03795
X02125Y038
X022Y03875
X0235
Y03725
X025
Y03575
Y03425
Y03275
X02575Y032
X02725
X028Y03125
X02875Y032
X028Y03275
X0265
X02725Y0335
X02875
X03025
X0295Y03425
X028
X0265
X02575Y0335
X02425
Y032
X0235Y03125
Y03275
Y03425
X02425Y035
X02575
X02725
X02875
X03025
X0312
X0295Y03575
X028
X0265
X02725Y0365
X02875
X03025
X031Y03725
X0295
X028
X0265
X02575Y0365
X02425
X02275
Y035
X0235Y03575
X022
Y03425
X02125Y0335
X022Y03275
X02125Y032
X01995Y0319
X022Y03125
X0298Y03145
X02025Y04175
X0195
X0189Y04225
X01825Y04175
X0175
X016
X01675Y0425
X01825Y04305
X0195
X021Y04325
X03177Y04472
X0323Y0452
X0329Y04475
X03345Y04515
X03395Y04472
X0355Y04475
X037
X03775Y044
X0385Y04325
X03775Y0425
X037Y04175
X03625Y041
Y0425
X037Y04325
X03625Y044
Y0455
X03775
X03925
X0411Y04545
X0425Y04525
X04375Y04415
Y04365
X04425
X04325
X04175Y043
X0407Y04245
X04125Y0405
X0405Y03975
Y03825
Y03675
Y0353
X04125Y036
X042Y03525
Y03375
Y03225
X04275Y0315
X04125
Y033
X04275
X0435Y03225
Y03375
X04425Y033
X04275Y0345
X04125
X0405Y03375
X03975Y0345
X0385Y03425
Y03275
X03775Y035
X0365Y03495
X037Y03575
X0385
Y03725
Y03875
Y04025
X03775Y0395
X0368Y0399
X03625Y038
X03775
Y0365
X037Y03725
X0355
X03475Y0365
X034Y03575
Y03425
X03475Y0335
X034Y03275
Y03125
X03325Y0395
X0326Y0399
X03175Y0395
Y041
X03325
X03475
Y0425
X0355Y04325
Y04625
X037
X033
X03155
X03975Y0405
Y039
Y0375
Y036
X04275
X0435Y03525
Y03675
X042
X04125Y0375
X042Y03825
X04125Y039
X04275
Y0375
X0435Y03825
Y03975
X04342Y04077
X04275Y04175
X0449Y04035
X04565
X04525Y03935
Y0389
X045Y03675
X04425Y036
X045Y03525
X04635Y0354
X04575Y036
X0465Y03675
X0464Y0416
X0465Y04275
X04655Y04425
X04595Y04415
X0453Y04435
X0464Y04545
X04725Y0435
X048Y04275
X0495
Y04125
Y03975
Y03825
Y03675
X048
Y0354
Y0349
Y0344
X0475
X047
Y0349
X0475
Y0354
X047
X04725Y036
X04875
X04865Y03535
Y0349
Y0345
X04915
Y0349
Y03535
X04965
Y0349
Y0345
Y0341
Y033
Y0326
Y03215
Y03175
X04915
Y03215
Y0326
X04865
Y03215
Y03175
X048Y0316
X0475
X047
Y03215
X0475
X048
Y0327
X0475
X047
X04725Y0375
X04875
X048Y03825
X04875Y039
X048Y03975
X04715Y0396
X04725Y039
X04875Y042
Y0435
X048Y04425
X0495
X04875Y045
X0495Y04575
Y04725
X048
X04715Y04745
X04725Y048
X04875
X0495Y04875
X048
X04875Y0495
X04725
X04525Y0481
Y0477
Y0473
X04225
Y0477
Y0481
X04075Y0485
X04035Y04745
X04Y04775
X03925Y047
Y0485
X04Y04925
X0385
X03775Y0485
X0385Y04775
X03775Y047
X037Y04775
Y04925
X03625Y0485
X03475
X034Y04925
X0355
Y04775
X03625Y047
X03375
X03225
Y04925
X03075Y0485
X03Y04775
X0285
X02775Y047
X02925
X03075
X02775Y0495
X027Y04875
X0255
X02625Y048
Y0495
X02475
X024Y04875
X0225
X021
X0195
X018
X0165
X01575Y0495
Y048
X01725
X01875
X02025
X02175
Y0495
X02325
Y048
X02475
X02025Y0495
X01875
X01725
X015Y04875
X0135
X012
X0105
X01125Y048
X01275
Y0495
X01125
X01425
Y048
T04
X0109Y04375
Y04475
T05
X0147Y0129
X0172
X0338Y01765
X03235Y0269
Y0279
Y0289
Y0299
X03535
Y0289
Y0279
Y0269
X0399Y0279
X02795Y02555
X02465
X02625Y03025
X01995Y03095
Y02875
X01675
Y03095
X0193Y0181
X0299Y0324
X03235Y03245
Y03345
Y03445
X03535
Y03345
Y03245
Y03145
X03235
X0378Y0324
X0445Y0381
X04605
X04075Y04355
X03915
Y0463
X04835
Y04075
X04605Y04895
X04455
X04295
X04145
X0319Y0484
X0294
T06
X03275Y0239
X03475Y0249
Y0229
X03075Y03835
X03275
X03495
X03695
X03595Y03635
X03175
T07
X03835Y0184
M30
