M48
;Layer_Color=9474304
;FILE_FORMAT=2:3
INCH,LZ
;TYPE=PLATED
T1F00S00C0.015
T2F00S00C0.035
T3F00S00C0.039
T4F00S00C0.045
T5F00S00C0.050
%
T01
X01125Y011
X0105Y01175
X0135
X015
X01425Y011
X0135Y01325
X01333Y01428
X012Y01475
Y01325
X0105Y01475
X01715Y01465
X018Y01475
X01875Y0155
X0195Y01475
Y01325
X021
X0225
X024
X0255
Y01475
X027
Y01325
X0299Y01305
Y0137
X03035Y0144
X0308Y01485
X03035Y0153
X02935
Y01485
Y0144
X0299Y0124
X02295Y01455
X0217Y01545
X018Y01325
X03285Y01305
X0339
X0334Y0124
X0339Y0118
X03285
X0351Y0124
Y01365
X03685Y01415
X0376
Y0134
X0391
Y01415
X03975Y015
X04045Y0151
X0412
Y01435
X04045Y01365
X04195Y0136
X04345
X0427Y01285
X0412
X03835Y01255
X03685
X0366Y01525
X03725
X0339Y0147
X03305
X04295
X0427Y015
X0432
X04495Y0141
Y0136
Y01285
X0457Y0121
Y0112
X0447Y01075
X0441
X0431Y0112
X04595Y0136
Y0146
X0461Y01515
X04695Y0146
X04795
X04845
Y0141
X04895
Y0146
X0496Y0149
X04895Y0136
X04845
X04795
X04695
X0472Y0121
X0487
Y0106
X0472
X04695Y0163
X04795
X04845
Y0168
X04895
Y0163
X0496Y016
X04895Y0173
X04845
X04795
X04695
X047Y0187
Y0197
X048
X0485
Y0192
X049
Y0197
X0496Y02
Y0211
X049Y0214
X0485
X048
X047
Y0224
X048
X0485
X049
Y0219
X0485
X04875Y024
X04725
Y0255
X04875
Y027
X04725
Y0285
X04875
Y03
X04725
X048Y0187
X0485
X049
X0485Y018
X046Y0187
Y0197
X04615Y02025
Y02085
X046Y0214
Y0224
X045
Y0219
X04385Y02175
Y02125
X0432Y02105
X0427
X04295Y02135
X0427Y02015
X0432
X04295Y01985
X044Y0197
X045
Y0187
X044
X043
X04295Y0173
X04395
Y0163
X04495
X04595
X0461Y01575
X04595Y0173
X04495
X04295Y0162
X0427Y0159
X0432
X03975Y0165
X03925Y0179
Y0189
X03885Y0193
X03835
X03785
X03745Y0189
Y0179
X03735Y0174
X03785Y0175
X0366Y0174
X03585Y01815
X0351
Y01965
X03585
X0355Y02225
X034
X0325
X03185Y0242
X0318Y0249
Y02555
X0325Y02525
X0355
X0365Y02692
X03725
Y02618
X038
Y02692
Y02763
Y0293
Y02977
X03725
X0365Y0302
X036Y0284
X034Y02975
Y02675
X03955Y02692
X0395Y024
X041
Y0225
X0425
X04325Y02325
X0425Y024
X04315Y0248
X044Y02525
X04445
X0449
X04575Y0248
Y024
X045Y02325
X0451Y02725
X04575Y027
X04545Y0285
Y0291
X045Y0297
X04275Y03
Y0285
Y027
X03875Y0293
X0395Y0225
X04Y0208
X0405
X03735Y0164
X03185Y0179
X03035
X02985Y01665
Y01615
Y01565
X027Y01625
Y01775
X0255
Y01625
X02395Y0162
Y01675
X02295
Y0162
Y01565
X0235
X0232Y01735
Y01785
X024Y01775
X02425Y02
X02575
Y0215
Y023
X02725
X028Y02225
X0295
X031
X029Y0242
Y02555
X02945Y0269
X0306
X029Y02775
X0273Y02915
X027Y0298
X02535Y0304
X02465Y0298
Y02885
Y0278
X0235Y02825
Y02675
Y02525
Y02375
X02425Y023
Y0215
X02275Y02
X022Y02225
Y02375
Y02525
Y02675
X02085Y02695
Y02595
X022Y02825
Y02975
X0235
X019
Y02825
X0206Y0215
X0193Y01985
X0196Y017
X01805Y01675
Y01625
Y01575
X01715
Y01625
Y01675
X0176Y0171
X01725Y0185
X01625Y01875
X01575
X0254Y0251
Y02595
X0272
Y0251
X028Y02375
X0298Y0306
X01125Y0305
X0105Y02975
Y02675
X01125Y0275
X01285Y02695
Y026
X012Y02525
Y02375
Y02315
X0125
X0105Y02375
X01125Y0245
X0105Y02075
Y01775
X01275Y017
X012Y01625
X0147Y017
X0152
X01225Y03245
Y0332
X01125Y0335
X0105Y03275
Y03575
X01125Y0365
X012Y03725
Y03875
X0129Y03895
Y03795
X0135Y04025
X012
X01125Y0395
X0105Y03875
Y04175
X01125Y0425
X0121Y0418
X01285Y04115
X0136Y0418
X0145Y04175
Y04325
X01525Y044
X01625
X0175
X0189
X02025
X021Y04325
X0195Y04305
X01825
X0189Y04225
X02025Y04175
X0175
X016
X0206Y03895
X02055Y03795
X02125Y038
Y0395
X02275
X0235Y03875
Y03725
X025
Y03575
Y03425
Y03275
X0235
Y03125
X022
Y03275
Y03425
X0235
Y03575
X022
X02125Y0335
Y032
X01995Y0319
X0265Y03275
X028
Y03425
X0265
Y03575
X028
X0295
Y03425
X0312Y035
X031Y03725
X0295
Y03875
X03025Y041
X028Y04025
X0265Y03875
X02575Y0395
X0265Y03725
X028
X0298Y03145
X0294Y0447
X0287Y0456
X0301
X03075Y0455
X0294Y0465
X027Y04625
Y04475
X0255Y0435
X0225
X03177Y04472
X0323Y0452
X0329Y04475
X03345Y04515
X03395Y04472
X0355Y04475
X037
Y04625
X0355
Y04325
X03625Y0425
Y041
X0368Y0399
X0385Y03875
Y03725
Y03575
Y03425
Y03275
X03975Y0345
X04125
X04275
Y033
Y0315
X04125
Y033
X04425
Y036
X04275
X04125
X03975
Y0375
Y039
Y0405
X03995Y04128
Y04202
X0407
Y04128
X04145
Y04202
X0422
Y04128
X04218Y04075
X0422Y04003
X04295
Y04077
X04342
X04415
Y04003
X04418Y03935
X04492
X0449Y04003
Y04077
X04565
Y04128
Y04202
X0464
Y04128
Y04077
Y04003
X04637Y03935
X04563
X04565Y04003
X0435Y03975
X04275Y039
X04125
Y0405
X04275Y04175
X0423Y04325
Y04385
X04175Y043
X04185Y04503
Y04577
Y04628
X0411
Y04577
X04035
Y04628
Y04503
X04105
X0426Y04628
X04335
X04415
X0449
X04565
Y04577
Y04503
X0464
Y04577
Y04628
X04655Y04425
X04595Y04415
X04625Y04375
X0453Y04392
Y04435
Y04318
X0465Y04275
X04375Y04365
Y04415
X03775Y0425
X03325Y041
X0326Y0399
X0355Y03725
X037
Y03575
X0365Y03495
X034Y03425
Y03575
Y03275
Y03125
X04125Y0375
X04275
X04575Y036
X04635Y0354
X04725Y036
X04875
X04865Y03535
Y0349
Y0345
X04915
Y0349
Y03535
X0496Y0341
Y033
X04915Y0326
Y03215
Y03175
X04865
Y03215
Y0326
X048Y0327
X047
Y0316
X048
Y0344
X047
X04725Y0375
X04875
Y039
X04725
X04715Y04003
Y04077
Y04128
Y04202
X048Y04275
X0495
Y04125
Y04425
X048
X04715Y04503
Y04577
Y04628
X0495Y04575
X04875Y048
X04725
X04715Y04702
X04725Y0495
X04875
X04637Y0477
X0464Y04702
X04565
X04563Y0477
X04492
X0449Y04702
X04415
X04418Y0477
X04337
X04335Y04702
X0426
X04263Y0477
X04187
X04185Y04702
X0411
X04113Y0477
X04Y04775
X04035Y04702
X04Y04925
X0385
Y04775
X037
Y04925
X0355
X034
X03225
Y047
X03375
X0355Y04775
X03
X0285
X02775Y0495
X02625
Y048
X02475
Y0495
X02325
X02175
Y048
X02325
X02025
Y0495
X01875
Y048
X01725
X01575
Y0495
X01725
X01425
X01275
Y048
X01125
Y0495
X01425Y048
T02
X0109Y04375
Y04475
T03
X0147Y0129
X0359Y013
X0338Y01765
X03235Y0269
Y0279
Y0289
Y0299
X03535
Y0289
Y0279
Y0269
X0399Y0278
X02795Y02555
X02465
X02625Y03025
X0205Y031
Y02875
X01675Y0288
Y03095
X0193Y0181
X01925Y01625
X0299Y0324
X03235Y03245
Y03145
Y03345
Y03445
X03535
Y03345
Y03245
Y03145
X0378Y0324
X0445Y0381
X04605
X04075Y04355
X03915
Y0463
X04835
Y04075
X04605Y04895
X04455
X04295
X04145
X0319Y0484
T04
X03275Y0239
X03475Y0229
Y0249
X03075Y03835
X03275
X03495
X03695
X03595Y03635
X03175
T05
X03835Y0184
M30
