M48
;Layer_Color=9474304
;FILE_FORMAT=2:3
INCH,LZ
;TYPE=PLATED
T1F00S00C0.008
T2F00S00C0.010
T3F00S00C0.015
T4F00S00C0.035
T5F00S00C0.039
T6F00S00C0.045
T7F00S00C0.050
%
T01
X04615Y02033
Y02077
T02
X0425Y01475
X0428
X0431
X0434Y01473
X04325Y01505
X04295
X04265
X04235
X0425Y01535
X0428
X0431
X0434
X04355Y01505
X0434Y01685
X0431
X0428
X0425
X04235Y01715
X04265
X04295
X04325
X04355
X0434Y01745
X0431
X0428
X0425
Y0192
X0428
X0431
X0434Y01918
X04325Y0195
X04295
X04265
X04235
X0425Y0198
X0428
X0431
X0434
X04355Y0195
X0434Y0213
X0431
X0428
X0425
X04235Y0216
X04265
X04295
X04325
X04355
X0434Y0219
X0431
X0428
X0425
X04615Y01632
Y01588
T03
X0105Y01175
Y01325
Y01475
X01125Y0155
X012Y01475
X01275Y0155
Y014
X01333Y01428
X0135Y01325
X012
X01125Y014
Y0125
X01275
X012Y01175
X01125Y011
X01275
X0135Y01175
X01425Y011
X015Y01175
X018Y01325
X0195
X01875Y014
X018Y01475
X01715Y01465
X0195Y01475
X01875Y0155
X0217Y01545
X02175Y014
X02025
X021Y01325
X0225
X024
X02475Y014
X0255Y01325
X02625Y014
X027Y01325
Y01475
X0255
X02625Y0155
X02475
X02295Y01455
X02935Y0144
Y01485
Y0153
X03035
X0308
Y01485
Y0144
X03035
Y01485
X0299Y0137
Y01305
Y0124
X0334
Y0118
X0339
X03285
Y01305
X0334
X0339
Y0137
X0334
X03305Y0147
X0339
X0351Y01365
Y0124
X03685Y01255
X0376
X03835
X0391
Y0134
Y01415
X03835
X0376
Y0134
X03685
Y01415
Y01475
X0366Y01525
X03725
X03975Y015
X0405
Y0143
Y01355
Y0128
X04125Y01275
Y0135
X042
Y01275
X04275
Y0135
Y01425
X042
Y015
X04125
Y01425
X0435
Y0135
Y01275
X0438Y0119
Y01145
Y011
X0455
Y01145
X04575Y01275
X045Y0135
Y01425
Y01475
X0455
X046
Y01425
X0465
Y01475
Y01525
X046
X0455Y01425
X0465Y0135
Y012
X03835Y0134
X047Y01425
X0475
X048
X0485
X049
X0495
Y01475
Y01525
X049
Y01475
X0485
Y01525
X048
Y01475
X0475
Y01525
X047
Y01475
X04725Y01275
Y01125
X048Y012
X04875Y01125
Y01275
X048Y0135
X0495
Y012
Y01695
X049
X0485
X048
X0475
X047
Y01745
Y01795
X0475
X048
X0485
X049
X0495
Y01745
X049
X0485
X048
X0475
Y0187
X048
X0485
X049
X0495
Y0192
Y0197
X049
Y0192
X0485
Y0197
X048
Y0192
X0475
Y0197
X047
Y0192
Y0187
Y0214
Y0219
Y0224
X0475
Y0219
X048
Y0224
X0485
Y0219
X049
Y0224
X0495
Y0219
Y0214
X049
X0485
X048
X0475
X04725Y02325
Y024
X048
X04875
Y02325
X0495
Y024
Y02475
X04875Y0255
Y027
Y0285
Y03
X049Y031
X0495
X0485
X048
X0475
X047Y03105
X04725Y03
X048Y02925
X0495
Y02775
X048
X04725Y0285
Y027
Y0255
X048Y02625
X0495
X048Y02475
Y02325
X0465
X04575
Y024
X0465
Y02475
Y02625
Y02775
X04575Y027
X0451Y02725
X045Y02625
X04535Y0256
Y0252
X045Y02475
X04375Y0248
Y0252
Y0256
X0435Y02625
X04275Y027
Y0285
Y03
X042Y03075
Y02925
Y02775
X04125Y027
X04Y0269
X042Y02625
X04175Y024
X041
X04025
X0395
Y02325
Y0225
Y02175
Y021
X0396Y0204
X03935Y0199
Y0194
X03885
X03835
X03785
X03735
Y0189
Y0179
Y0174
Y0169
Y0164
X03785Y0174
X0366
X03585
X0351
Y01815
X03585
X0366
X03585Y0189
X0351
Y01965
X03585
X03785Y0199
X03835
X03885
Y0204
X03985Y0199
Y0194
Y0189
X03935
Y0179
X04Y01735
X03975Y0165
Y01575
X0405
X04125
X04295Y0157
Y0161
Y0165
X043Y01795
X0425
X042
Y0175
X0415
Y01795
X041
X04075Y01835
X041Y0187
X0415
X042
X0425
X043
X0435
X044
X0445
X045
X0455
X046
X0465
Y0192
Y0197
X046
Y0192
X0455
X045
X0445
X044
Y0197
X0445
X045
X0455
Y01795
X046
X0465
Y01745
Y01695
X046
X0455
X045
X0445
X044
Y01745
Y01795
X0435
X0445
X045
Y01745
X0445
X0455
X046
Y0214
Y0219
Y0224
X0455
X045
Y0219
X0455
X0465
Y0224
Y0214
X04385Y02125
Y02175
X04325Y0225
Y02325
Y024
X0425
Y02325
X04175
X041
X04025
Y0225
Y02175
Y021
Y02025
X041
Y021
Y02175
X04175
Y0225
X0425
X041
X04295Y02095
Y02055
Y02015
X042Y01925
X0415
X045Y02325
X04545Y0285
Y0291
X045Y0297
X03875Y02935
X038
X0365Y0302
X03475Y0305
X034Y02975
Y02825
Y02675
X03325Y026
Y0245
Y023
X03175
X03185Y0242
X0318Y0249
Y02555
X0325Y02525
X034
Y02375
Y02225
X0325
X0355
Y02375
Y02525
X036Y0284
X03475Y029
X03325Y0275
Y0305
X03185Y0179
X03035
X02985Y01715
Y01665
Y01615
Y01565
X027Y01625
X0255
Y01775
X02475Y017
X02395Y01675
Y0162
X0235Y01565
X02295
Y0162
Y01675
X0232Y01735
Y01785
X024Y01775
X02425Y02
Y0215
X02575
X0265Y02075
X025
X0235
Y02225
X022
Y02375
X02125Y0245
Y023
X0206Y0215
X02135Y02075
X02275Y02
X02575
X025Y02225
Y02375
X0235
Y02525
X022
Y02675
X02085Y02695
X02125Y0275
X022Y02825
X02125Y029
X022Y02975
X0205
X019
Y02825
X01825Y029
X02125Y0305
X0235Y02975
X02465Y0298
Y02885
Y0278
X0235Y02825
Y02675
X0254Y02595
Y0251
X02625
Y02595
X0272
Y0251
X0265Y02375
Y02225
X02575Y023
X02425
X02725
X028Y02375
X029Y0242
Y02555
X02945Y0269
X0306
X029Y02775
X02875Y0305
X0298Y0306
X027Y0298
X0273Y02915
X02535Y0304
X02085Y02595
X0193Y01985
X018Y01925
X0181Y0185
X01725
X01625Y01875
X01575
X01715Y01675
Y01625
Y01575
X01805
Y01625
Y01675
X0176Y0171
X0196Y017
X02625
X027Y01775
X028Y02225
X02875Y023
X0295Y02225
X03025Y023
X031Y02225
X0125Y02315
X012
Y02375
X01125Y0245
Y026
Y0275
Y029
Y0305
X0105Y02975
Y02825
Y02675
Y02525
X012
Y02675
X01285Y02695
Y026
X0105Y02375
X01125Y023
X0105Y02225
Y02075
Y01925
Y01775
Y01625
X01125Y017
X012Y01625
X01275Y017
X0147
X0152
X01225Y03245
Y0332
X01125Y0335
X0105Y03425
Y03575
Y03725
Y03875
Y04025
Y04175
X01125Y0425
Y041
X012Y04025
X0135
X01285Y04115
X0121Y0418
X0136
X0145Y04175
Y04325
X01525Y044
Y0425
X0129Y03895
Y03795
X012Y03725
Y03875
X01125Y0395
Y038
Y0365
Y035
X0105Y03275
X01125Y032
X0105Y03125
X01995Y0319
X02125Y032
X022Y03125
Y03275
X02125Y0335
X022Y03425
Y03575
X0235
X02275Y035
Y0365
X0235Y03725
X02425Y0365
X025Y03725
X0265
X02575Y0365
X02725
X028Y03725
X02875Y0365
X0295Y03725
X03025Y0365
X031Y03725
X0312Y035
X03025
X0295Y03575
X028
X0265
X025
X02425Y035
X02575
X02725
X02875
X0295Y03425
X028
X0265
X025
X0235
X02425Y0335
X02575
X02725
X02875
X03025
X0298Y03145
X02875Y032
X028Y03275
X0265
X025
X0235
X02425Y032
X02575
X02725
X028Y03125
X0235
Y03875
X02275Y0395
X022Y03875
X02125Y0395
X0206Y03895
X02055Y03795
X02125Y038
X02425Y0395
X025Y03875
X02575Y0395
X0265Y03875
X02725Y0395
X028Y03875
X02875Y0395
X0295Y03875
X03025Y0395
Y041
X02875
X02725
X0265Y04025
X028
X02775Y044
X02625
X0255Y0435
X02475Y044
X024Y0435
X02325Y044
X0225Y0435
X02175Y044
X02025
X0189
X0175
Y04325
X01825Y04305
X0195
Y04175
X02025
X0189Y04225
X01825Y04175
X0175
X01675Y0425
X016Y04325
X01625Y044
X016Y04175
X021Y04325
X02625Y0455
X02775
X0287Y0456
X0285Y04625
X0294Y0465
X0301Y0456
X03075Y0455
X0294Y0447
X027Y04475
Y04625
X03155
X033
X03345Y04515
X03395Y04472
X0329Y04475
X0323Y0452
X03177Y04472
X03175Y041
Y0395
X0326Y0399
X03325Y0395
Y041
X03475
Y0425
X0355Y04325
Y04475
Y04625
X03625Y0455
Y044
X037Y04475
Y04625
X03775Y0455
X03925
X0411Y04545
X0425Y04525
X04325Y04365
X04375
X04425
X04375Y04415
X0453Y04435
X04595Y04415
X04655Y04425
X0464Y04545
X0465Y04275
X0464Y0416
X04565Y04035
X0449
X04525Y03935
Y0389
X0435Y03825
Y03975
X04342Y04077
X04275Y04175
X04175Y043
X0407Y04245
X04125Y0405
Y039
X04275
Y0375
X0435Y03675
X045
X0465
X04575Y036
X04635Y0354
X045Y03525
X04425Y036
X04275
X042Y03675
Y03825
X04125Y0375
X0405Y03825
Y03975
X03975Y0405
Y039
Y0375
Y036
X0405Y0353
Y03675
X04125Y036
Y0345
Y033
X0405Y03375
X03975Y0345
X0385Y03425
Y03575
X03775Y0365
X037Y03725
X0355
X03475Y0365
X034Y03575
Y03425
Y03275
Y03125
X03475Y0335
X0365Y03495
X03775Y035
X037Y03575
X03625Y038
X0355Y03875
X0368Y0399
X03775Y0395
Y038
X0385Y03725
Y03875
Y04025
X03775Y0425
X037Y04325
X03625Y0425
X037Y04175
X03625Y041
X0385Y04325
X03775Y044
X0385Y03275
X04125Y0315
X042Y03225
Y03375
Y03525
X0435
X04275Y0345
X0435Y03375
X04425Y033
X0435Y03225
X04275Y033
Y0315
X047Y0316
X0475
X048
Y03215
X0475
X047
Y0327
X0475
X048
X04865Y0326
Y03215
Y03175
X04915
Y03215
Y0326
X04965
Y033
Y03215
Y03175
Y0341
Y0345
Y0349
Y03535
X04915
Y0349
Y0345
X04865
Y0349
Y03535
X048Y0354
X0475
X047
Y0349
X0475
X048
Y0344
X0475
X047
X04725Y036
Y0375
Y039
X04715Y0396
X048Y03975
X0495
Y04125
X04875Y042
Y0435
Y045
X0495Y04575
Y04425
X048
X04725Y0435
X048Y04275
X0495
X04875Y039
X0495Y03825
X048
X04875Y0375
X0495Y03675
X04875Y036
X048Y03675
Y04725
X04715Y04745
X04725Y048
Y0495
X04875
X048Y04875
X0495
X04875Y048
X0495Y04725
X04525Y0473
Y0477
Y0481
X04225
Y0477
Y0473
X04035Y04745
X04Y04775
X0385
X037
X03625Y047
X0355Y04775
Y04925
X03475Y0485
X034Y04925
X03225
Y047
X03375
X03625Y0485
X037Y04925
X03775Y0485
Y047
X03925
Y0485
X0385Y04925
X04
X04075Y0485
X03075
Y047
X02925
X02775
X0285Y04775
X03
X02625Y048
X02475
X02325
X02175
X02025
X01875
X01725
Y0495
X01575
Y048
X0165Y04875
X018
X01875Y0495
X02025
X02175
X02325
X02475
X024Y04875
X0225
X021
X0195
X0255
X02625Y0495
X027Y04875
X02775Y0495
X01425
Y048
X01275
Y0495
X01125
Y048
X012Y04875
X0135
X015
X0105
T04
X0109Y04375
Y04475
T05
X0147Y0129
X0172
X0338Y01765
X03235Y0269
Y0279
Y0289
Y0299
X03535
Y0289
Y0279
Y0269
X0399Y0279
X02795Y02555
X02465
X02625Y03025
X01995Y03095
Y02875
X01675
Y03095
X0193Y0181
X0299Y0324
X03235Y03245
Y03145
Y03345
Y03445
X03535
Y03345
Y03245
Y03145
X0378Y0324
X0445Y0381
X04605
X04075Y04355
X03915
Y0463
X04835
Y04075
X04605Y04895
X04455
X04295
X04145
X0319Y0484
X0294
T06
X03275Y0239
X03475Y0229
Y0249
X03075Y03835
X03275
X03495
X03695
X03595Y03635
X03175
T07
X03835Y0184
M30
